%TF.GenerationSoftware,KiCad,Pcbnew,5.1.9+dfsg1-1+deb11u1*%
%TF.CreationDate,2025-07-24T09:20:50+02:00*%
%TF.ProjectId,ECI-Breakout,4543492d-4272-4656-916b-6f75742e6b69,1.1*%
%TF.SameCoordinates,Original*%
%TF.FileFunction,Copper,L2,Bot*%
%TF.FilePolarity,Positive*%
%FSLAX46Y46*%
G04 Gerber Fmt 4.6, Leading zero omitted, Abs format (unit mm)*
G04 Created by KiCad (PCBNEW 5.1.9+dfsg1-1+deb11u1) date 2025-07-24 09:20:50*
%MOMM*%
%LPD*%
G01*
G04 APERTURE LIST*
%TA.AperFunction,SMDPad,CuDef*%
%ADD10R,1.930400X5.588000*%
%TD*%
%TA.AperFunction,ComponentPad*%
%ADD11R,1.700000X1.700000*%
%TD*%
%TA.AperFunction,ComponentPad*%
%ADD12O,1.700000X1.700000*%
%TD*%
%TA.AperFunction,ViaPad*%
%ADD13C,0.600000*%
%TD*%
%TA.AperFunction,Conductor*%
%ADD14C,0.500000*%
%TD*%
%TA.AperFunction,Conductor*%
%ADD15C,0.254000*%
%TD*%
%TA.AperFunction,Conductor*%
%ADD16C,0.100000*%
%TD*%
%TA.AperFunction,Conductor*%
%ADD17C,0.025400*%
%TD*%
G04 APERTURE END LIST*
D10*
%TO.P,ECI1,1*%
%TO.N,/~EXSEL*%
X139672000Y-115190000D03*
%TO.P,ECI1,2*%
%TO.N,/~RST*%
X137132000Y-115190000D03*
%TO.P,ECI1,3*%
%TO.N,/~D1XX*%
X134592000Y-115190000D03*
%TO.P,ECI1,4*%
%TO.N,/~MPD*%
X132052000Y-115190000D03*
%TO.P,ECI1,5*%
%TO.N,/AUDIO*%
X129512000Y-115190000D03*
%TO.P,ECI1,6*%
%TO.N,/~REF*%
X126972000Y-115190000D03*
%TO.P,ECI1,7*%
%TO.N,VCC*%
X124432000Y-115190000D03*
%TD*%
D11*
%TO.P,P1,1*%
%TO.N,/RSRVD*%
X139600000Y-73230000D03*
D12*
%TO.P,P1,2*%
%TO.N,/~IRQ*%
X137060000Y-73230000D03*
%TO.P,P1,3*%
%TO.N,/~HALT*%
X134520000Y-73230000D03*
%TO.P,P1,4*%
%TO.N,/A13*%
X131980000Y-73230000D03*
%TO.P,P1,5*%
%TO.N,/A14*%
X129440000Y-73230000D03*
%TO.P,P1,6*%
%TO.N,/A15*%
X126900000Y-73230000D03*
%TO.P,P1,7*%
%TO.N,GND*%
X124360000Y-73230000D03*
%TD*%
%TO.P,P2,7*%
%TO.N,VCC*%
X124360000Y-83830000D03*
%TO.P,P2,6*%
%TO.N,/~REF*%
X126900000Y-83830000D03*
%TO.P,P2,5*%
%TO.N,/AUDIO*%
X129440000Y-83830000D03*
%TO.P,P2,4*%
%TO.N,/~MPD*%
X131980000Y-83830000D03*
%TO.P,P2,3*%
%TO.N,/~D1XX*%
X134520000Y-83830000D03*
%TO.P,P2,2*%
%TO.N,/~RST*%
X137060000Y-83830000D03*
D11*
%TO.P,P2,1*%
%TO.N,/~EXSEL*%
X139600000Y-83830000D03*
%TD*%
D13*
%TO.N,GND*%
X123363500Y-105899900D03*
X124739990Y-98205300D03*
%TD*%
D14*
%TO.N,GND*%
X123545200Y-105718200D02*
X123363500Y-105899900D01*
X123545200Y-98205300D02*
X123545200Y-105718200D01*
X122690000Y-97350100D02*
X123545200Y-98205300D01*
X124460000Y-75176000D02*
X122690000Y-76946000D01*
X122690000Y-76946000D02*
X122690000Y-97350100D01*
X124460000Y-73330000D02*
X124460000Y-75176000D01*
X124360000Y-73230000D02*
X124460000Y-73330000D01*
X123545200Y-98205300D02*
X124739990Y-98205300D01*
%TO.N,VCC*%
X124432000Y-102114300D02*
X124432000Y-115190000D01*
X125490000Y-101056300D02*
X124432000Y-102114300D01*
X125490000Y-84960000D02*
X125490000Y-101056300D01*
X124460000Y-83930000D02*
X125490000Y-84960000D01*
%TO.N,/~EXSEL*%
X139549200Y-111773200D02*
X139672000Y-111896000D01*
X139672000Y-111896000D02*
X139672000Y-115190000D01*
X139549200Y-83970800D02*
X139549200Y-111773200D01*
X139700000Y-83820000D02*
X139549200Y-83970800D01*
%TO.N,/~RST*%
X137070000Y-83820000D02*
X137160000Y-83820000D01*
X137060000Y-83830000D02*
X137070000Y-83820000D01*
X137160000Y-111868000D02*
X137160000Y-83930000D01*
X137132000Y-111896000D02*
X137160000Y-111868000D01*
X137160000Y-83930000D02*
X137060000Y-83830000D01*
X137132000Y-115190000D02*
X137132000Y-111896000D01*
%TO.N,/~D1XX*%
X134592000Y-111896000D02*
X134592000Y-115190000D01*
X134592000Y-83848000D02*
X134592000Y-111896000D01*
X134620000Y-83820000D02*
X134592000Y-83848000D01*
%TO.N,/~MPD*%
X132052000Y-111896000D02*
X132052000Y-115190000D01*
X132052000Y-83848000D02*
X132052000Y-111896000D01*
X132080000Y-83820000D02*
X132052000Y-83848000D01*
%TO.N,/AUDIO*%
X129530000Y-83830000D02*
X129540000Y-83820000D01*
X129440000Y-83830000D02*
X129530000Y-83830000D01*
X129512000Y-83902000D02*
X129440000Y-83830000D01*
X129512000Y-115190000D02*
X129512000Y-83902000D01*
%TO.N,/~REF*%
X127685200Y-111182800D02*
X126972000Y-111896000D01*
X127685200Y-86021200D02*
X127685200Y-111182800D01*
X127000000Y-85336000D02*
X127685200Y-86021200D01*
X126972000Y-115190000D02*
X126972000Y-111896000D01*
X127000000Y-83930000D02*
X126900000Y-83830000D01*
X127000000Y-85336000D02*
X127000000Y-83930000D01*
%TD*%
D15*
%TO.N,GND*%
X144290000Y-87034876D02*
X144290001Y-87034886D01*
X144290000Y-97705909D01*
X141522617Y-100473292D01*
X141495526Y-100495525D01*
X141473293Y-100522616D01*
X141406801Y-100603637D01*
X141340872Y-100726981D01*
X141300274Y-100860816D01*
X141286565Y-101000000D01*
X141290001Y-101034885D01*
X141290000Y-117290000D01*
X141275272Y-117290000D01*
X141275272Y-112396000D01*
X141263012Y-112271518D01*
X141226702Y-112151820D01*
X141167737Y-112041506D01*
X141088385Y-111944815D01*
X140991694Y-111865463D01*
X140881380Y-111806498D01*
X140761682Y-111770188D01*
X140637200Y-111757928D01*
X140547683Y-111757928D01*
X140544195Y-111722510D01*
X140493589Y-111555687D01*
X140434200Y-111444577D01*
X140434200Y-85542889D01*
X140439906Y-85392966D01*
X140449749Y-85318072D01*
X140450000Y-85318072D01*
X140574482Y-85305812D01*
X140694180Y-85269502D01*
X140804494Y-85210537D01*
X140901185Y-85131185D01*
X140980537Y-85034494D01*
X141039502Y-84924180D01*
X141075812Y-84804482D01*
X141088072Y-84680000D01*
X141088072Y-82980000D01*
X141075812Y-82855518D01*
X141039502Y-82735820D01*
X140980537Y-82625506D01*
X140901185Y-82528815D01*
X140804494Y-82449463D01*
X140694180Y-82390498D01*
X140574482Y-82354188D01*
X140450000Y-82341928D01*
X138750000Y-82341928D01*
X138625518Y-82354188D01*
X138505820Y-82390498D01*
X138395506Y-82449463D01*
X138298815Y-82528815D01*
X138219463Y-82625506D01*
X138160498Y-82735820D01*
X138138487Y-82808380D01*
X138006632Y-82676525D01*
X137763411Y-82514010D01*
X137493158Y-82402068D01*
X137206260Y-82345000D01*
X136913740Y-82345000D01*
X136626842Y-82402068D01*
X136356589Y-82514010D01*
X136113368Y-82676525D01*
X135906525Y-82883368D01*
X135790000Y-83057760D01*
X135673475Y-82883368D01*
X135466632Y-82676525D01*
X135223411Y-82514010D01*
X134953158Y-82402068D01*
X134666260Y-82345000D01*
X134373740Y-82345000D01*
X134086842Y-82402068D01*
X133816589Y-82514010D01*
X133573368Y-82676525D01*
X133366525Y-82883368D01*
X133250000Y-83057760D01*
X133133475Y-82883368D01*
X132926632Y-82676525D01*
X132683411Y-82514010D01*
X132413158Y-82402068D01*
X132126260Y-82345000D01*
X131833740Y-82345000D01*
X131546842Y-82402068D01*
X131276589Y-82514010D01*
X131033368Y-82676525D01*
X130826525Y-82883368D01*
X130710000Y-83057760D01*
X130593475Y-82883368D01*
X130386632Y-82676525D01*
X130143411Y-82514010D01*
X129873158Y-82402068D01*
X129586260Y-82345000D01*
X129293740Y-82345000D01*
X129006842Y-82402068D01*
X128736589Y-82514010D01*
X128493368Y-82676525D01*
X128286525Y-82883368D01*
X128170000Y-83057760D01*
X128053475Y-82883368D01*
X127846632Y-82676525D01*
X127603411Y-82514010D01*
X127333158Y-82402068D01*
X127046260Y-82345000D01*
X126753740Y-82345000D01*
X126466842Y-82402068D01*
X126196589Y-82514010D01*
X125953368Y-82676525D01*
X125746525Y-82883368D01*
X125630000Y-83057760D01*
X125513475Y-82883368D01*
X125306632Y-82676525D01*
X125063411Y-82514010D01*
X124793158Y-82402068D01*
X124506260Y-82345000D01*
X124213740Y-82345000D01*
X123926842Y-82402068D01*
X123656589Y-82514010D01*
X123413368Y-82676525D01*
X123206525Y-82883368D01*
X123044010Y-83126589D01*
X122932068Y-83396842D01*
X122875000Y-83683740D01*
X122875000Y-83976260D01*
X122932068Y-84263158D01*
X123044010Y-84533411D01*
X123206525Y-84776632D01*
X123413368Y-84983475D01*
X123656589Y-85145990D01*
X123926842Y-85257932D01*
X124213740Y-85315000D01*
X124308273Y-85315000D01*
X124335836Y-85317537D01*
X124391453Y-85320205D01*
X124549824Y-85320850D01*
X124569922Y-85320613D01*
X124598253Y-85319831D01*
X124605000Y-85326579D01*
X124605001Y-100689720D01*
X123836956Y-101457766D01*
X123803183Y-101485483D01*
X123692589Y-101620242D01*
X123610411Y-101773988D01*
X123559805Y-101940811D01*
X123547000Y-102070824D01*
X123547000Y-102070831D01*
X123542719Y-102114300D01*
X123547000Y-102157769D01*
X123547001Y-111757928D01*
X123466800Y-111757928D01*
X123342318Y-111770188D01*
X123222620Y-111806498D01*
X123112306Y-111865463D01*
X123015615Y-111944815D01*
X122936263Y-112041506D01*
X122877298Y-112151820D01*
X122840988Y-112271518D01*
X122828728Y-112396000D01*
X122828728Y-117290000D01*
X122710000Y-117290000D01*
X122710000Y-101034875D01*
X122713435Y-101000000D01*
X122710000Y-100965123D01*
X122699727Y-100860816D01*
X122659128Y-100726980D01*
X122593200Y-100603637D01*
X122504475Y-100495525D01*
X122477379Y-100473288D01*
X119710000Y-97705909D01*
X119710000Y-73586891D01*
X122918519Y-73586891D01*
X123015843Y-73861252D01*
X123164822Y-74111355D01*
X123359731Y-74327588D01*
X123593080Y-74501641D01*
X123855901Y-74626825D01*
X124003110Y-74671476D01*
X124233000Y-74550155D01*
X124233000Y-73357000D01*
X123039186Y-73357000D01*
X122918519Y-73586891D01*
X119710000Y-73586891D01*
X119710000Y-72873109D01*
X122918519Y-72873109D01*
X123039186Y-73103000D01*
X124233000Y-73103000D01*
X124233000Y-71909845D01*
X124487000Y-71909845D01*
X124487000Y-73103000D01*
X124507000Y-73103000D01*
X124507000Y-73357000D01*
X124487000Y-73357000D01*
X124487000Y-74550155D01*
X124716890Y-74671476D01*
X124864099Y-74626825D01*
X125126920Y-74501641D01*
X125360269Y-74327588D01*
X125555178Y-74111355D01*
X125624805Y-73994466D01*
X125746525Y-74176632D01*
X125953368Y-74383475D01*
X126196589Y-74545990D01*
X126466842Y-74657932D01*
X126753740Y-74715000D01*
X127046260Y-74715000D01*
X127333158Y-74657932D01*
X127603411Y-74545990D01*
X127846632Y-74383475D01*
X128053475Y-74176632D01*
X128170000Y-74002240D01*
X128286525Y-74176632D01*
X128493368Y-74383475D01*
X128736589Y-74545990D01*
X129006842Y-74657932D01*
X129293740Y-74715000D01*
X129586260Y-74715000D01*
X129873158Y-74657932D01*
X130143411Y-74545990D01*
X130386632Y-74383475D01*
X130593475Y-74176632D01*
X130710000Y-74002240D01*
X130826525Y-74176632D01*
X131033368Y-74383475D01*
X131276589Y-74545990D01*
X131546842Y-74657932D01*
X131833740Y-74715000D01*
X132126260Y-74715000D01*
X132413158Y-74657932D01*
X132683411Y-74545990D01*
X132926632Y-74383475D01*
X133133475Y-74176632D01*
X133250000Y-74002240D01*
X133366525Y-74176632D01*
X133573368Y-74383475D01*
X133816589Y-74545990D01*
X134086842Y-74657932D01*
X134373740Y-74715000D01*
X134666260Y-74715000D01*
X134953158Y-74657932D01*
X135223411Y-74545990D01*
X135466632Y-74383475D01*
X135673475Y-74176632D01*
X135790000Y-74002240D01*
X135906525Y-74176632D01*
X136113368Y-74383475D01*
X136356589Y-74545990D01*
X136626842Y-74657932D01*
X136913740Y-74715000D01*
X137206260Y-74715000D01*
X137493158Y-74657932D01*
X137763411Y-74545990D01*
X138006632Y-74383475D01*
X138138487Y-74251620D01*
X138160498Y-74324180D01*
X138219463Y-74434494D01*
X138298815Y-74531185D01*
X138395506Y-74610537D01*
X138505820Y-74669502D01*
X138625518Y-74705812D01*
X138750000Y-74718072D01*
X140450000Y-74718072D01*
X140574482Y-74705812D01*
X140694180Y-74669502D01*
X140804494Y-74610537D01*
X140901185Y-74531185D01*
X140980537Y-74434494D01*
X141039502Y-74324180D01*
X141075812Y-74204482D01*
X141088072Y-74080000D01*
X141088072Y-72380000D01*
X141075812Y-72255518D01*
X141039502Y-72135820D01*
X140980537Y-72025506D01*
X140901185Y-71928815D01*
X140804494Y-71849463D01*
X140694180Y-71790498D01*
X140574482Y-71754188D01*
X140450000Y-71741928D01*
X138750000Y-71741928D01*
X138625518Y-71754188D01*
X138505820Y-71790498D01*
X138395506Y-71849463D01*
X138298815Y-71928815D01*
X138219463Y-72025506D01*
X138160498Y-72135820D01*
X138138487Y-72208380D01*
X138006632Y-72076525D01*
X137763411Y-71914010D01*
X137493158Y-71802068D01*
X137206260Y-71745000D01*
X136913740Y-71745000D01*
X136626842Y-71802068D01*
X136356589Y-71914010D01*
X136113368Y-72076525D01*
X135906525Y-72283368D01*
X135790000Y-72457760D01*
X135673475Y-72283368D01*
X135466632Y-72076525D01*
X135223411Y-71914010D01*
X134953158Y-71802068D01*
X134666260Y-71745000D01*
X134373740Y-71745000D01*
X134086842Y-71802068D01*
X133816589Y-71914010D01*
X133573368Y-72076525D01*
X133366525Y-72283368D01*
X133250000Y-72457760D01*
X133133475Y-72283368D01*
X132926632Y-72076525D01*
X132683411Y-71914010D01*
X132413158Y-71802068D01*
X132126260Y-71745000D01*
X131833740Y-71745000D01*
X131546842Y-71802068D01*
X131276589Y-71914010D01*
X131033368Y-72076525D01*
X130826525Y-72283368D01*
X130710000Y-72457760D01*
X130593475Y-72283368D01*
X130386632Y-72076525D01*
X130143411Y-71914010D01*
X129873158Y-71802068D01*
X129586260Y-71745000D01*
X129293740Y-71745000D01*
X129006842Y-71802068D01*
X128736589Y-71914010D01*
X128493368Y-72076525D01*
X128286525Y-72283368D01*
X128170000Y-72457760D01*
X128053475Y-72283368D01*
X127846632Y-72076525D01*
X127603411Y-71914010D01*
X127333158Y-71802068D01*
X127046260Y-71745000D01*
X126753740Y-71745000D01*
X126466842Y-71802068D01*
X126196589Y-71914010D01*
X125953368Y-72076525D01*
X125746525Y-72283368D01*
X125624805Y-72465534D01*
X125555178Y-72348645D01*
X125360269Y-72132412D01*
X125126920Y-71958359D01*
X124864099Y-71833175D01*
X124716890Y-71788524D01*
X124487000Y-71909845D01*
X124233000Y-71909845D01*
X124003110Y-71788524D01*
X123855901Y-71833175D01*
X123593080Y-71958359D01*
X123359731Y-72132412D01*
X123164822Y-72348645D01*
X123015843Y-72598748D01*
X122918519Y-72873109D01*
X119710000Y-72873109D01*
X119710000Y-68710000D01*
X144290001Y-68710000D01*
X144290000Y-87034876D01*
%TA.AperFunction,Conductor*%
D16*
G36*
X144290000Y-87034876D02*
G01*
X144290001Y-87034886D01*
X144290000Y-97705909D01*
X141522617Y-100473292D01*
X141495526Y-100495525D01*
X141473293Y-100522616D01*
X141406801Y-100603637D01*
X141340872Y-100726981D01*
X141300274Y-100860816D01*
X141286565Y-101000000D01*
X141290001Y-101034885D01*
X141290000Y-117290000D01*
X141275272Y-117290000D01*
X141275272Y-112396000D01*
X141263012Y-112271518D01*
X141226702Y-112151820D01*
X141167737Y-112041506D01*
X141088385Y-111944815D01*
X140991694Y-111865463D01*
X140881380Y-111806498D01*
X140761682Y-111770188D01*
X140637200Y-111757928D01*
X140547683Y-111757928D01*
X140544195Y-111722510D01*
X140493589Y-111555687D01*
X140434200Y-111444577D01*
X140434200Y-85542889D01*
X140439906Y-85392966D01*
X140449749Y-85318072D01*
X140450000Y-85318072D01*
X140574482Y-85305812D01*
X140694180Y-85269502D01*
X140804494Y-85210537D01*
X140901185Y-85131185D01*
X140980537Y-85034494D01*
X141039502Y-84924180D01*
X141075812Y-84804482D01*
X141088072Y-84680000D01*
X141088072Y-82980000D01*
X141075812Y-82855518D01*
X141039502Y-82735820D01*
X140980537Y-82625506D01*
X140901185Y-82528815D01*
X140804494Y-82449463D01*
X140694180Y-82390498D01*
X140574482Y-82354188D01*
X140450000Y-82341928D01*
X138750000Y-82341928D01*
X138625518Y-82354188D01*
X138505820Y-82390498D01*
X138395506Y-82449463D01*
X138298815Y-82528815D01*
X138219463Y-82625506D01*
X138160498Y-82735820D01*
X138138487Y-82808380D01*
X138006632Y-82676525D01*
X137763411Y-82514010D01*
X137493158Y-82402068D01*
X137206260Y-82345000D01*
X136913740Y-82345000D01*
X136626842Y-82402068D01*
X136356589Y-82514010D01*
X136113368Y-82676525D01*
X135906525Y-82883368D01*
X135790000Y-83057760D01*
X135673475Y-82883368D01*
X135466632Y-82676525D01*
X135223411Y-82514010D01*
X134953158Y-82402068D01*
X134666260Y-82345000D01*
X134373740Y-82345000D01*
X134086842Y-82402068D01*
X133816589Y-82514010D01*
X133573368Y-82676525D01*
X133366525Y-82883368D01*
X133250000Y-83057760D01*
X133133475Y-82883368D01*
X132926632Y-82676525D01*
X132683411Y-82514010D01*
X132413158Y-82402068D01*
X132126260Y-82345000D01*
X131833740Y-82345000D01*
X131546842Y-82402068D01*
X131276589Y-82514010D01*
X131033368Y-82676525D01*
X130826525Y-82883368D01*
X130710000Y-83057760D01*
X130593475Y-82883368D01*
X130386632Y-82676525D01*
X130143411Y-82514010D01*
X129873158Y-82402068D01*
X129586260Y-82345000D01*
X129293740Y-82345000D01*
X129006842Y-82402068D01*
X128736589Y-82514010D01*
X128493368Y-82676525D01*
X128286525Y-82883368D01*
X128170000Y-83057760D01*
X128053475Y-82883368D01*
X127846632Y-82676525D01*
X127603411Y-82514010D01*
X127333158Y-82402068D01*
X127046260Y-82345000D01*
X126753740Y-82345000D01*
X126466842Y-82402068D01*
X126196589Y-82514010D01*
X125953368Y-82676525D01*
X125746525Y-82883368D01*
X125630000Y-83057760D01*
X125513475Y-82883368D01*
X125306632Y-82676525D01*
X125063411Y-82514010D01*
X124793158Y-82402068D01*
X124506260Y-82345000D01*
X124213740Y-82345000D01*
X123926842Y-82402068D01*
X123656589Y-82514010D01*
X123413368Y-82676525D01*
X123206525Y-82883368D01*
X123044010Y-83126589D01*
X122932068Y-83396842D01*
X122875000Y-83683740D01*
X122875000Y-83976260D01*
X122932068Y-84263158D01*
X123044010Y-84533411D01*
X123206525Y-84776632D01*
X123413368Y-84983475D01*
X123656589Y-85145990D01*
X123926842Y-85257932D01*
X124213740Y-85315000D01*
X124308273Y-85315000D01*
X124335836Y-85317537D01*
X124391453Y-85320205D01*
X124549824Y-85320850D01*
X124569922Y-85320613D01*
X124598253Y-85319831D01*
X124605000Y-85326579D01*
X124605001Y-100689720D01*
X123836956Y-101457766D01*
X123803183Y-101485483D01*
X123692589Y-101620242D01*
X123610411Y-101773988D01*
X123559805Y-101940811D01*
X123547000Y-102070824D01*
X123547000Y-102070831D01*
X123542719Y-102114300D01*
X123547000Y-102157769D01*
X123547001Y-111757928D01*
X123466800Y-111757928D01*
X123342318Y-111770188D01*
X123222620Y-111806498D01*
X123112306Y-111865463D01*
X123015615Y-111944815D01*
X122936263Y-112041506D01*
X122877298Y-112151820D01*
X122840988Y-112271518D01*
X122828728Y-112396000D01*
X122828728Y-117290000D01*
X122710000Y-117290000D01*
X122710000Y-101034875D01*
X122713435Y-101000000D01*
X122710000Y-100965123D01*
X122699727Y-100860816D01*
X122659128Y-100726980D01*
X122593200Y-100603637D01*
X122504475Y-100495525D01*
X122477379Y-100473288D01*
X119710000Y-97705909D01*
X119710000Y-73586891D01*
X122918519Y-73586891D01*
X123015843Y-73861252D01*
X123164822Y-74111355D01*
X123359731Y-74327588D01*
X123593080Y-74501641D01*
X123855901Y-74626825D01*
X124003110Y-74671476D01*
X124233000Y-74550155D01*
X124233000Y-73357000D01*
X123039186Y-73357000D01*
X122918519Y-73586891D01*
X119710000Y-73586891D01*
X119710000Y-72873109D01*
X122918519Y-72873109D01*
X123039186Y-73103000D01*
X124233000Y-73103000D01*
X124233000Y-71909845D01*
X124487000Y-71909845D01*
X124487000Y-73103000D01*
X124507000Y-73103000D01*
X124507000Y-73357000D01*
X124487000Y-73357000D01*
X124487000Y-74550155D01*
X124716890Y-74671476D01*
X124864099Y-74626825D01*
X125126920Y-74501641D01*
X125360269Y-74327588D01*
X125555178Y-74111355D01*
X125624805Y-73994466D01*
X125746525Y-74176632D01*
X125953368Y-74383475D01*
X126196589Y-74545990D01*
X126466842Y-74657932D01*
X126753740Y-74715000D01*
X127046260Y-74715000D01*
X127333158Y-74657932D01*
X127603411Y-74545990D01*
X127846632Y-74383475D01*
X128053475Y-74176632D01*
X128170000Y-74002240D01*
X128286525Y-74176632D01*
X128493368Y-74383475D01*
X128736589Y-74545990D01*
X129006842Y-74657932D01*
X129293740Y-74715000D01*
X129586260Y-74715000D01*
X129873158Y-74657932D01*
X130143411Y-74545990D01*
X130386632Y-74383475D01*
X130593475Y-74176632D01*
X130710000Y-74002240D01*
X130826525Y-74176632D01*
X131033368Y-74383475D01*
X131276589Y-74545990D01*
X131546842Y-74657932D01*
X131833740Y-74715000D01*
X132126260Y-74715000D01*
X132413158Y-74657932D01*
X132683411Y-74545990D01*
X132926632Y-74383475D01*
X133133475Y-74176632D01*
X133250000Y-74002240D01*
X133366525Y-74176632D01*
X133573368Y-74383475D01*
X133816589Y-74545990D01*
X134086842Y-74657932D01*
X134373740Y-74715000D01*
X134666260Y-74715000D01*
X134953158Y-74657932D01*
X135223411Y-74545990D01*
X135466632Y-74383475D01*
X135673475Y-74176632D01*
X135790000Y-74002240D01*
X135906525Y-74176632D01*
X136113368Y-74383475D01*
X136356589Y-74545990D01*
X136626842Y-74657932D01*
X136913740Y-74715000D01*
X137206260Y-74715000D01*
X137493158Y-74657932D01*
X137763411Y-74545990D01*
X138006632Y-74383475D01*
X138138487Y-74251620D01*
X138160498Y-74324180D01*
X138219463Y-74434494D01*
X138298815Y-74531185D01*
X138395506Y-74610537D01*
X138505820Y-74669502D01*
X138625518Y-74705812D01*
X138750000Y-74718072D01*
X140450000Y-74718072D01*
X140574482Y-74705812D01*
X140694180Y-74669502D01*
X140804494Y-74610537D01*
X140901185Y-74531185D01*
X140980537Y-74434494D01*
X141039502Y-74324180D01*
X141075812Y-74204482D01*
X141088072Y-74080000D01*
X141088072Y-72380000D01*
X141075812Y-72255518D01*
X141039502Y-72135820D01*
X140980537Y-72025506D01*
X140901185Y-71928815D01*
X140804494Y-71849463D01*
X140694180Y-71790498D01*
X140574482Y-71754188D01*
X140450000Y-71741928D01*
X138750000Y-71741928D01*
X138625518Y-71754188D01*
X138505820Y-71790498D01*
X138395506Y-71849463D01*
X138298815Y-71928815D01*
X138219463Y-72025506D01*
X138160498Y-72135820D01*
X138138487Y-72208380D01*
X138006632Y-72076525D01*
X137763411Y-71914010D01*
X137493158Y-71802068D01*
X137206260Y-71745000D01*
X136913740Y-71745000D01*
X136626842Y-71802068D01*
X136356589Y-71914010D01*
X136113368Y-72076525D01*
X135906525Y-72283368D01*
X135790000Y-72457760D01*
X135673475Y-72283368D01*
X135466632Y-72076525D01*
X135223411Y-71914010D01*
X134953158Y-71802068D01*
X134666260Y-71745000D01*
X134373740Y-71745000D01*
X134086842Y-71802068D01*
X133816589Y-71914010D01*
X133573368Y-72076525D01*
X133366525Y-72283368D01*
X133250000Y-72457760D01*
X133133475Y-72283368D01*
X132926632Y-72076525D01*
X132683411Y-71914010D01*
X132413158Y-71802068D01*
X132126260Y-71745000D01*
X131833740Y-71745000D01*
X131546842Y-71802068D01*
X131276589Y-71914010D01*
X131033368Y-72076525D01*
X130826525Y-72283368D01*
X130710000Y-72457760D01*
X130593475Y-72283368D01*
X130386632Y-72076525D01*
X130143411Y-71914010D01*
X129873158Y-71802068D01*
X129586260Y-71745000D01*
X129293740Y-71745000D01*
X129006842Y-71802068D01*
X128736589Y-71914010D01*
X128493368Y-72076525D01*
X128286525Y-72283368D01*
X128170000Y-72457760D01*
X128053475Y-72283368D01*
X127846632Y-72076525D01*
X127603411Y-71914010D01*
X127333158Y-71802068D01*
X127046260Y-71745000D01*
X126753740Y-71745000D01*
X126466842Y-71802068D01*
X126196589Y-71914010D01*
X125953368Y-72076525D01*
X125746525Y-72283368D01*
X125624805Y-72465534D01*
X125555178Y-72348645D01*
X125360269Y-72132412D01*
X125126920Y-71958359D01*
X124864099Y-71833175D01*
X124716890Y-71788524D01*
X124487000Y-71909845D01*
X124233000Y-71909845D01*
X124003110Y-71788524D01*
X123855901Y-71833175D01*
X123593080Y-71958359D01*
X123359731Y-72132412D01*
X123164822Y-72348645D01*
X123015843Y-72598748D01*
X122918519Y-72873109D01*
X119710000Y-72873109D01*
X119710000Y-68710000D01*
X144290001Y-68710000D01*
X144290000Y-87034876D01*
G37*
%TD.AperFunction*%
%TD*%
D17*
%TO.N,/~EXSEL*%
X140325974Y-84246744D02*
X140244531Y-84382726D01*
X140162331Y-84505513D01*
X140085007Y-84614235D01*
X140084971Y-84614286D01*
X140013844Y-84715336D01*
X140013519Y-84715820D01*
X139949930Y-84815593D01*
X139949381Y-84816543D01*
X139894572Y-84921572D01*
X139893973Y-84922901D01*
X139849183Y-85039719D01*
X139848715Y-85041208D01*
X139815186Y-85176351D01*
X139814920Y-85177754D01*
X139793892Y-85337754D01*
X139793793Y-85338926D01*
X139786974Y-85518100D01*
X139311456Y-85518100D01*
X139304765Y-85330112D01*
X139304680Y-85329032D01*
X139284312Y-85161472D01*
X139284092Y-85160203D01*
X139252002Y-85018281D01*
X139251628Y-85016962D01*
X139209333Y-84893639D01*
X139208875Y-84892488D01*
X139157894Y-84780725D01*
X139157503Y-84779942D01*
X139099354Y-84672702D01*
X139099170Y-84672374D01*
X139035428Y-84562716D01*
X138967613Y-84443609D01*
X138897355Y-84308256D01*
X138829607Y-84157386D01*
X139624239Y-83424045D01*
X140325974Y-84246744D01*
%TA.AperFunction,Conductor*%
D16*
G36*
X140325974Y-84246744D02*
G01*
X140244531Y-84382726D01*
X140162331Y-84505513D01*
X140085007Y-84614235D01*
X140084971Y-84614286D01*
X140013844Y-84715336D01*
X140013519Y-84715820D01*
X139949930Y-84815593D01*
X139949381Y-84816543D01*
X139894572Y-84921572D01*
X139893973Y-84922901D01*
X139849183Y-85039719D01*
X139848715Y-85041208D01*
X139815186Y-85176351D01*
X139814920Y-85177754D01*
X139793892Y-85337754D01*
X139793793Y-85338926D01*
X139786974Y-85518100D01*
X139311456Y-85518100D01*
X139304765Y-85330112D01*
X139304680Y-85329032D01*
X139284312Y-85161472D01*
X139284092Y-85160203D01*
X139252002Y-85018281D01*
X139251628Y-85016962D01*
X139209333Y-84893639D01*
X139208875Y-84892488D01*
X139157894Y-84780725D01*
X139157503Y-84779942D01*
X139099354Y-84672702D01*
X139099170Y-84672374D01*
X139035428Y-84562716D01*
X138967613Y-84443609D01*
X138897355Y-84308256D01*
X138829607Y-84157386D01*
X139624239Y-83424045D01*
X140325974Y-84246744D01*
G37*
%TD.AperFunction*%
%TD*%
D17*
%TO.N,/~RST*%
X137847923Y-84112593D02*
X137787646Y-84270342D01*
X137723888Y-84411610D01*
X137661353Y-84535583D01*
X137601673Y-84649515D01*
X137601547Y-84649762D01*
X137546457Y-84760756D01*
X137546138Y-84761450D01*
X137497343Y-84876676D01*
X137496950Y-84877732D01*
X137456110Y-85004446D01*
X137455781Y-85005676D01*
X137424555Y-85151137D01*
X137424357Y-85152335D01*
X137404404Y-85323802D01*
X137404326Y-85324835D01*
X137397727Y-85517300D01*
X136922212Y-85517300D01*
X136915343Y-85342117D01*
X136915237Y-85340904D01*
X136893945Y-85184271D01*
X136893658Y-85182808D01*
X136859542Y-85050654D01*
X136859028Y-85049090D01*
X136813209Y-84935144D01*
X136812540Y-84933737D01*
X136756138Y-84831727D01*
X136755508Y-84830705D01*
X136689646Y-84734360D01*
X136689247Y-84733808D01*
X136615046Y-84636854D01*
X136614955Y-84636736D01*
X136533615Y-84533006D01*
X136446362Y-84416376D01*
X136359155Y-84287766D01*
X137012484Y-83426108D01*
X137847923Y-84112593D01*
%TA.AperFunction,Conductor*%
D16*
G36*
X137847923Y-84112593D02*
G01*
X137787646Y-84270342D01*
X137723888Y-84411610D01*
X137661353Y-84535583D01*
X137601673Y-84649515D01*
X137601547Y-84649762D01*
X137546457Y-84760756D01*
X137546138Y-84761450D01*
X137497343Y-84876676D01*
X137496950Y-84877732D01*
X137456110Y-85004446D01*
X137455781Y-85005676D01*
X137424555Y-85151137D01*
X137424357Y-85152335D01*
X137404404Y-85323802D01*
X137404326Y-85324835D01*
X137397727Y-85517300D01*
X136922212Y-85517300D01*
X136915343Y-85342117D01*
X136915237Y-85340904D01*
X136893945Y-85184271D01*
X136893658Y-85182808D01*
X136859542Y-85050654D01*
X136859028Y-85049090D01*
X136813209Y-84935144D01*
X136812540Y-84933737D01*
X136756138Y-84831727D01*
X136755508Y-84830705D01*
X136689646Y-84734360D01*
X136689247Y-84733808D01*
X136615046Y-84636854D01*
X136614955Y-84636736D01*
X136533615Y-84533006D01*
X136446362Y-84416376D01*
X136359155Y-84287766D01*
X137012484Y-83426108D01*
X137847923Y-84112593D01*
G37*
%TD.AperFunction*%
%TD*%
D17*
%TO.N,/~D1XX*%
X135298353Y-84137974D02*
X135233877Y-84291601D01*
X135166420Y-84429318D01*
X135100910Y-84550217D01*
X135038807Y-84661610D01*
X135038650Y-84661901D01*
X134981744Y-84770548D01*
X134981384Y-84771293D01*
X134931262Y-84884323D01*
X134930831Y-84885434D01*
X134889082Y-85009976D01*
X134888725Y-85011261D01*
X134856938Y-85154444D01*
X134856726Y-85155686D01*
X134836488Y-85324638D01*
X134836406Y-85325702D01*
X134829739Y-85515300D01*
X134354219Y-85515300D01*
X134347370Y-85338224D01*
X134347267Y-85337031D01*
X134326102Y-85178821D01*
X134325825Y-85177388D01*
X134292010Y-85043839D01*
X134291520Y-85042314D01*
X134246248Y-84927014D01*
X134245617Y-84925650D01*
X134190083Y-84822183D01*
X134189498Y-84821201D01*
X134124897Y-84723156D01*
X134124541Y-84722644D01*
X134052065Y-84623605D01*
X134052007Y-84623527D01*
X133972958Y-84517225D01*
X133888582Y-84397338D01*
X133804696Y-84264811D01*
X134485595Y-83424781D01*
X135298353Y-84137974D01*
%TA.AperFunction,Conductor*%
D16*
G36*
X135298353Y-84137974D02*
G01*
X135233877Y-84291601D01*
X135166420Y-84429318D01*
X135100910Y-84550217D01*
X135038807Y-84661610D01*
X135038650Y-84661901D01*
X134981744Y-84770548D01*
X134981384Y-84771293D01*
X134931262Y-84884323D01*
X134930831Y-84885434D01*
X134889082Y-85009976D01*
X134888725Y-85011261D01*
X134856938Y-85154444D01*
X134856726Y-85155686D01*
X134836488Y-85324638D01*
X134836406Y-85325702D01*
X134829739Y-85515300D01*
X134354219Y-85515300D01*
X134347370Y-85338224D01*
X134347267Y-85337031D01*
X134326102Y-85178821D01*
X134325825Y-85177388D01*
X134292010Y-85043839D01*
X134291520Y-85042314D01*
X134246248Y-84927014D01*
X134245617Y-84925650D01*
X134190083Y-84822183D01*
X134189498Y-84821201D01*
X134124897Y-84723156D01*
X134124541Y-84722644D01*
X134052065Y-84623605D01*
X134052007Y-84623527D01*
X133972958Y-84517225D01*
X133888582Y-84397338D01*
X133804696Y-84264811D01*
X134485595Y-83424781D01*
X135298353Y-84137974D01*
G37*
%TD.AperFunction*%
%TD*%
D17*
%TO.N,/~MPD*%
X132758353Y-84137974D02*
X132693877Y-84291601D01*
X132626420Y-84429318D01*
X132560910Y-84550217D01*
X132498807Y-84661610D01*
X132498650Y-84661901D01*
X132441744Y-84770548D01*
X132441384Y-84771293D01*
X132391262Y-84884323D01*
X132390831Y-84885434D01*
X132349082Y-85009976D01*
X132348725Y-85011261D01*
X132316938Y-85154444D01*
X132316726Y-85155686D01*
X132296488Y-85324638D01*
X132296406Y-85325702D01*
X132289739Y-85515300D01*
X131814219Y-85515300D01*
X131807370Y-85338224D01*
X131807267Y-85337031D01*
X131786102Y-85178821D01*
X131785825Y-85177388D01*
X131752010Y-85043839D01*
X131751520Y-85042314D01*
X131706248Y-84927014D01*
X131705617Y-84925650D01*
X131650083Y-84822183D01*
X131649498Y-84821201D01*
X131584897Y-84723156D01*
X131584541Y-84722644D01*
X131512065Y-84623605D01*
X131512007Y-84623527D01*
X131432958Y-84517225D01*
X131348582Y-84397338D01*
X131264696Y-84264811D01*
X131945595Y-83424781D01*
X132758353Y-84137974D01*
%TA.AperFunction,Conductor*%
D16*
G36*
X132758353Y-84137974D02*
G01*
X132693877Y-84291601D01*
X132626420Y-84429318D01*
X132560910Y-84550217D01*
X132498807Y-84661610D01*
X132498650Y-84661901D01*
X132441744Y-84770548D01*
X132441384Y-84771293D01*
X132391262Y-84884323D01*
X132390831Y-84885434D01*
X132349082Y-85009976D01*
X132348725Y-85011261D01*
X132316938Y-85154444D01*
X132316726Y-85155686D01*
X132296488Y-85324638D01*
X132296406Y-85325702D01*
X132289739Y-85515300D01*
X131814219Y-85515300D01*
X131807370Y-85338224D01*
X131807267Y-85337031D01*
X131786102Y-85178821D01*
X131785825Y-85177388D01*
X131752010Y-85043839D01*
X131751520Y-85042314D01*
X131706248Y-84927014D01*
X131705617Y-84925650D01*
X131650083Y-84822183D01*
X131649498Y-84821201D01*
X131584897Y-84723156D01*
X131584541Y-84722644D01*
X131512065Y-84623605D01*
X131512007Y-84623527D01*
X131432958Y-84517225D01*
X131348582Y-84397338D01*
X131264696Y-84264811D01*
X131945595Y-83424781D01*
X132758353Y-84137974D01*
G37*
%TD.AperFunction*%
%TD*%
D17*
%TO.N,/AUDIO*%
X130218234Y-84138283D02*
X130153573Y-84292287D01*
X130086014Y-84430354D01*
X130020424Y-84551669D01*
X129958391Y-84663298D01*
X129958232Y-84663593D01*
X129901387Y-84772562D01*
X129901028Y-84773308D01*
X129850990Y-84886672D01*
X129850561Y-84887782D01*
X129808904Y-85012682D01*
X129808551Y-85013962D01*
X129776849Y-85157535D01*
X129776639Y-85158771D01*
X129756463Y-85328158D01*
X129756382Y-85329216D01*
X129749736Y-85519300D01*
X129274221Y-85519300D01*
X129267384Y-85341664D01*
X129267282Y-85340476D01*
X129246150Y-85181768D01*
X129245876Y-85180340D01*
X129212104Y-85046345D01*
X129211617Y-85044825D01*
X129166389Y-84929117D01*
X129165762Y-84927755D01*
X129110262Y-84823907D01*
X129109679Y-84822925D01*
X129045090Y-84724509D01*
X129044733Y-84723994D01*
X128972240Y-84624584D01*
X128972181Y-84624503D01*
X128893061Y-84517798D01*
X128808587Y-84397513D01*
X128724524Y-84264529D01*
X129405756Y-83424767D01*
X130218234Y-84138283D01*
%TA.AperFunction,Conductor*%
D16*
G36*
X130218234Y-84138283D02*
G01*
X130153573Y-84292287D01*
X130086014Y-84430354D01*
X130020424Y-84551669D01*
X129958391Y-84663298D01*
X129958232Y-84663593D01*
X129901387Y-84772562D01*
X129901028Y-84773308D01*
X129850990Y-84886672D01*
X129850561Y-84887782D01*
X129808904Y-85012682D01*
X129808551Y-85013962D01*
X129776849Y-85157535D01*
X129776639Y-85158771D01*
X129756463Y-85328158D01*
X129756382Y-85329216D01*
X129749736Y-85519300D01*
X129274221Y-85519300D01*
X129267384Y-85341664D01*
X129267282Y-85340476D01*
X129246150Y-85181768D01*
X129245876Y-85180340D01*
X129212104Y-85046345D01*
X129211617Y-85044825D01*
X129166389Y-84929117D01*
X129165762Y-84927755D01*
X129110262Y-84823907D01*
X129109679Y-84822925D01*
X129045090Y-84724509D01*
X129044733Y-84723994D01*
X128972240Y-84624584D01*
X128972181Y-84624503D01*
X128893061Y-84517798D01*
X128808587Y-84397513D01*
X128724524Y-84264529D01*
X129405756Y-83424767D01*
X130218234Y-84138283D01*
G37*
%TD.AperFunction*%
%TD*%
D17*
%TO.N,/~REF*%
X127687459Y-84112211D02*
X127626325Y-84246958D01*
X127542298Y-84376920D01*
X127448089Y-84497122D01*
X127353140Y-84610194D01*
X127352915Y-84610470D01*
X127266904Y-84718933D01*
X127266127Y-84720027D01*
X127198647Y-84826544D01*
X127197455Y-84828958D01*
X127157966Y-84936351D01*
X127157340Y-84938761D01*
X127157188Y-84940501D01*
X127155149Y-85051594D01*
X127155348Y-85054076D01*
X127155981Y-85056354D01*
X127200851Y-85173969D01*
X127201962Y-85176197D01*
X127202787Y-85177360D01*
X127296950Y-85295448D01*
X126960941Y-85631457D01*
X126844133Y-85500214D01*
X126754707Y-85368860D01*
X126692518Y-85244931D01*
X126649045Y-85126344D01*
X126615838Y-85010937D01*
X126584631Y-84897331D01*
X126584439Y-84896697D01*
X126546812Y-84783254D01*
X126546311Y-84781977D01*
X126493840Y-84667069D01*
X126492977Y-84665487D01*
X126417198Y-84547341D01*
X126416074Y-84545844D01*
X126314316Y-84429316D01*
X126854202Y-83427520D01*
X127687459Y-84112211D01*
%TA.AperFunction,Conductor*%
D16*
G36*
X127687459Y-84112211D02*
G01*
X127626325Y-84246958D01*
X127542298Y-84376920D01*
X127448089Y-84497122D01*
X127353140Y-84610194D01*
X127352915Y-84610470D01*
X127266904Y-84718933D01*
X127266127Y-84720027D01*
X127198647Y-84826544D01*
X127197455Y-84828958D01*
X127157966Y-84936351D01*
X127157340Y-84938761D01*
X127157188Y-84940501D01*
X127155149Y-85051594D01*
X127155348Y-85054076D01*
X127155981Y-85056354D01*
X127200851Y-85173969D01*
X127201962Y-85176197D01*
X127202787Y-85177360D01*
X127296950Y-85295448D01*
X126960941Y-85631457D01*
X126844133Y-85500214D01*
X126754707Y-85368860D01*
X126692518Y-85244931D01*
X126649045Y-85126344D01*
X126615838Y-85010937D01*
X126584631Y-84897331D01*
X126584439Y-84896697D01*
X126546812Y-84783254D01*
X126546311Y-84781977D01*
X126493840Y-84667069D01*
X126492977Y-84665487D01*
X126417198Y-84547341D01*
X126416074Y-84545844D01*
X126314316Y-84429316D01*
X126854202Y-83427520D01*
X127687459Y-84112211D01*
G37*
%TD.AperFunction*%
%TD*%
D17*
%TO.N,VCC*%
X125198196Y-83840043D02*
X125212197Y-83987608D01*
X125212720Y-83990203D01*
X125253000Y-84118858D01*
X125253977Y-84121156D01*
X125313337Y-84229709D01*
X125314320Y-84231236D01*
X125386400Y-84327338D01*
X125386927Y-84327994D01*
X125465283Y-84419201D01*
X125543317Y-84512869D01*
X125614507Y-84616238D01*
X125672931Y-84737115D01*
X125712597Y-84883473D01*
X125726223Y-85050660D01*
X125251266Y-85050660D01*
X125233690Y-84904284D01*
X125233153Y-84901853D01*
X125232458Y-84900155D01*
X125178960Y-84792297D01*
X125177641Y-84790186D01*
X125175567Y-84788063D01*
X125092376Y-84720813D01*
X125090296Y-84719446D01*
X125088382Y-84718633D01*
X124980383Y-84682896D01*
X124977709Y-84682321D01*
X124849789Y-84668999D01*
X124848473Y-84668931D01*
X124705516Y-84668931D01*
X124705166Y-84668936D01*
X124552270Y-84673154D01*
X124394652Y-84672512D01*
X124237385Y-84658037D01*
X124093558Y-84622906D01*
X124072506Y-83546009D01*
X125198196Y-83840043D01*
%TA.AperFunction,Conductor*%
D16*
G36*
X125198196Y-83840043D02*
G01*
X125212197Y-83987608D01*
X125212720Y-83990203D01*
X125253000Y-84118858D01*
X125253977Y-84121156D01*
X125313337Y-84229709D01*
X125314320Y-84231236D01*
X125386400Y-84327338D01*
X125386927Y-84327994D01*
X125465283Y-84419201D01*
X125543317Y-84512869D01*
X125614507Y-84616238D01*
X125672931Y-84737115D01*
X125712597Y-84883473D01*
X125726223Y-85050660D01*
X125251266Y-85050660D01*
X125233690Y-84904284D01*
X125233153Y-84901853D01*
X125232458Y-84900155D01*
X125178960Y-84792297D01*
X125177641Y-84790186D01*
X125175567Y-84788063D01*
X125092376Y-84720813D01*
X125090296Y-84719446D01*
X125088382Y-84718633D01*
X124980383Y-84682896D01*
X124977709Y-84682321D01*
X124849789Y-84668999D01*
X124848473Y-84668931D01*
X124705516Y-84668931D01*
X124705166Y-84668936D01*
X124552270Y-84673154D01*
X124394652Y-84672512D01*
X124237385Y-84658037D01*
X124093558Y-84622906D01*
X124072506Y-83546009D01*
X125198196Y-83840043D01*
G37*
%TD.AperFunction*%
%TD*%
M02*
