%TF.GenerationSoftware,KiCad,Pcbnew,4.0.2+dfsg1-stable*%
%TF.CreationDate,2019-04-14T21:57:52+02:00*%
%TF.ProjectId,ECI-Breakout,4543492D427265616B6F75742E6B6963,rev?*%
%TF.FileFunction,Copper,L1,Top,Signal*%
%FSLAX46Y46*%
G04 Gerber Fmt 4.6, Leading zero omitted, Abs format (unit mm)*
G04 Created by KiCad (PCBNEW 4.0.2+dfsg1-stable) date Sun 14 Apr 2019 21:57:52 CEST*
%MOMM*%
G01*
G04 APERTURE LIST*
%ADD10C,0.100000*%
%ADD11R,1.597660X1.800860*%
%ADD12R,1.930400X5.588000*%
%ADD13R,2.000000X1.700000*%
%ADD14R,1.727200X2.032000*%
%ADD15O,1.727200X2.032000*%
%ADD16C,0.600000*%
%ADD17C,0.500000*%
%ADD18C,0.254000*%
G04 APERTURE END LIST*
D10*
D11*
X133580140Y-101000000D03*
X136419860Y-101000000D03*
D12*
X139672000Y-115190000D03*
X137132000Y-115190000D03*
X134592000Y-115190000D03*
X132052000Y-115190000D03*
X129512000Y-115190000D03*
X126972000Y-115190000D03*
X124432000Y-115190000D03*
D13*
X125000000Y-101000000D03*
X129000000Y-101000000D03*
D14*
X139700000Y-73660000D03*
D15*
X137160000Y-73660000D03*
X134620000Y-73660000D03*
X132080000Y-73660000D03*
X129540000Y-73660000D03*
X127000000Y-73660000D03*
X124460000Y-73660000D03*
D14*
X139700000Y-83820000D03*
D15*
X137160000Y-83820000D03*
X134620000Y-83820000D03*
X132080000Y-83820000D03*
X129540000Y-83820000D03*
X127000000Y-83820000D03*
X124460000Y-83820000D03*
D16*
X123363500Y-105899900D03*
X126162300Y-98205300D03*
D17*
X129000000Y-101000000D02*
X133580100Y-101000000D01*
X136419900Y-101000000D02*
X135121100Y-101000000D01*
X133138100Y-98205300D02*
X126162300Y-98205300D01*
X135121100Y-100188300D02*
X133138100Y-98205300D01*
X135121100Y-101000000D02*
X135121100Y-100188300D01*
X123363500Y-110827500D02*
X124432000Y-111896000D01*
X123363500Y-105899900D02*
X123363500Y-110827500D01*
X124432000Y-115190000D02*
X124432000Y-111896000D01*
X139700000Y-73660000D02*
X141063600Y-73660000D01*
X139672000Y-115190000D02*
X139672000Y-111896000D01*
X143815600Y-76412000D02*
X141063600Y-73660000D01*
X143815600Y-97659300D02*
X143815600Y-76412000D01*
X141425300Y-100049600D02*
X143815600Y-97659300D01*
X141425300Y-110142700D02*
X141425300Y-100049600D01*
X139672000Y-111896000D02*
X141425300Y-110142700D01*
X124460000Y-83820000D02*
X124460000Y-85336000D01*
X125000000Y-101000000D02*
X125000000Y-99650000D01*
X124460000Y-99110000D02*
X125000000Y-99650000D01*
X124460000Y-85336000D02*
X124460000Y-99110000D01*
X143115200Y-79615200D02*
X137160000Y-73660000D01*
X143115200Y-97195900D02*
X143115200Y-79615200D01*
X140725000Y-99586100D02*
X143115200Y-97195900D01*
X140725000Y-106462700D02*
X140725000Y-99586100D01*
X137132000Y-110055700D02*
X140725000Y-106462700D01*
X137132000Y-115190000D02*
X137132000Y-110055700D01*
X142414800Y-81454800D02*
X134620000Y-73660000D01*
X142414800Y-96730700D02*
X142414800Y-81454800D01*
X139324400Y-99821100D02*
X142414800Y-96730700D01*
X139324400Y-104354000D02*
X139324400Y-99821100D01*
X134592000Y-109086400D02*
X139324400Y-104354000D01*
X134592000Y-115190000D02*
X134592000Y-109086400D01*
X134290300Y-75870300D02*
X132080000Y-73660000D01*
X135355600Y-75870300D02*
X134290300Y-75870300D01*
X141714400Y-82229100D02*
X135355600Y-75870300D01*
X141714400Y-92092500D02*
X141714400Y-82229100D01*
X138624000Y-95182900D02*
X141714400Y-92092500D01*
X138624000Y-104063900D02*
X138624000Y-95182900D01*
X132052000Y-110635900D02*
X138624000Y-104063900D01*
X132052000Y-115190000D02*
X132052000Y-110635900D01*
X129512000Y-110246800D02*
X129512000Y-115190000D01*
X137923600Y-101835200D02*
X129512000Y-110246800D01*
X137923600Y-91434800D02*
X137923600Y-101835200D01*
X141014000Y-88344400D02*
X137923600Y-91434800D01*
X141014000Y-82594700D02*
X141014000Y-88344400D01*
X140608000Y-82188700D02*
X141014000Y-82594700D01*
X138068700Y-82188700D02*
X140608000Y-82188700D01*
X129540000Y-73660000D02*
X138068700Y-82188700D01*
X126972000Y-106502100D02*
X126972000Y-115190000D01*
X123110000Y-102640100D02*
X126972000Y-106502100D01*
X123110000Y-77550000D02*
X123110000Y-102640100D01*
X127000000Y-73660000D02*
X123110000Y-77550000D01*
D18*
G36*
X126087000Y-106868679D02*
X126087000Y-111748560D01*
X126006800Y-111748560D01*
X125771483Y-111792838D01*
X125704473Y-111835958D01*
X125523510Y-111761000D01*
X124717750Y-111761000D01*
X124559000Y-111919750D01*
X124559000Y-115063000D01*
X124579000Y-115063000D01*
X124579000Y-115317000D01*
X124559000Y-115317000D01*
X124559000Y-115337000D01*
X124305000Y-115337000D01*
X124305000Y-115317000D01*
X122990550Y-115317000D01*
X122831800Y-115475750D01*
X122831800Y-117290000D01*
X122710000Y-117290000D01*
X122710000Y-112269691D01*
X122831800Y-112269691D01*
X122831800Y-114904250D01*
X122990550Y-115063000D01*
X124305000Y-115063000D01*
X124305000Y-111919750D01*
X124146250Y-111761000D01*
X123340490Y-111761000D01*
X123107101Y-111857673D01*
X122928473Y-112036302D01*
X122831800Y-112269691D01*
X122710000Y-112269691D01*
X122710000Y-103491680D01*
X126087000Y-106868679D01*
X126087000Y-106868679D01*
G37*
X126087000Y-106868679D02*
X126087000Y-111748560D01*
X126006800Y-111748560D01*
X125771483Y-111792838D01*
X125704473Y-111835958D01*
X125523510Y-111761000D01*
X124717750Y-111761000D01*
X124559000Y-111919750D01*
X124559000Y-115063000D01*
X124579000Y-115063000D01*
X124579000Y-115317000D01*
X124559000Y-115317000D01*
X124559000Y-115337000D01*
X124305000Y-115337000D01*
X124305000Y-115317000D01*
X122990550Y-115317000D01*
X122831800Y-115475750D01*
X122831800Y-117290000D01*
X122710000Y-117290000D01*
X122710000Y-112269691D01*
X122831800Y-112269691D01*
X122831800Y-114904250D01*
X122990550Y-115063000D01*
X124305000Y-115063000D01*
X124305000Y-111919750D01*
X124146250Y-111761000D01*
X123340490Y-111761000D01*
X123107101Y-111857673D01*
X122928473Y-112036302D01*
X122831800Y-112269691D01*
X122710000Y-112269691D01*
X122710000Y-103491680D01*
X126087000Y-106868679D01*
G36*
X136100330Y-85064415D02*
X136586511Y-85389271D01*
X137160000Y-85503345D01*
X137733489Y-85389271D01*
X138219670Y-85064415D01*
X138229243Y-85050087D01*
X138233238Y-85071317D01*
X138372310Y-85287441D01*
X138584510Y-85432431D01*
X138836400Y-85483440D01*
X140129000Y-85483440D01*
X140129000Y-87977821D01*
X137297810Y-90809010D01*
X137105967Y-91096125D01*
X137105967Y-91096126D01*
X137038599Y-91434800D01*
X137038600Y-91434805D01*
X137038600Y-99464570D01*
X136705610Y-99464570D01*
X136546860Y-99623320D01*
X136546860Y-100873000D01*
X136566860Y-100873000D01*
X136566860Y-101127000D01*
X136546860Y-101127000D01*
X136546860Y-101147000D01*
X136292860Y-101147000D01*
X136292860Y-101127000D01*
X136272860Y-101127000D01*
X136272860Y-100873000D01*
X136292860Y-100873000D01*
X136292860Y-99623320D01*
X136134110Y-99464570D01*
X135494721Y-99464570D01*
X135261332Y-99561243D01*
X135082703Y-99739871D01*
X134997454Y-99945681D01*
X134982132Y-99864253D01*
X134843060Y-99648129D01*
X134630860Y-99503139D01*
X134378970Y-99452130D01*
X132781310Y-99452130D01*
X132545993Y-99496408D01*
X132329869Y-99635480D01*
X132184879Y-99847680D01*
X132133870Y-100099570D01*
X132133870Y-100115000D01*
X130640854Y-100115000D01*
X130603162Y-99914683D01*
X130464090Y-99698559D01*
X130251890Y-99553569D01*
X130000000Y-99502560D01*
X128000000Y-99502560D01*
X127764683Y-99546838D01*
X127548559Y-99685910D01*
X127403569Y-99898110D01*
X127352560Y-100150000D01*
X127352560Y-101850000D01*
X127396838Y-102085317D01*
X127535910Y-102301441D01*
X127748110Y-102446431D01*
X128000000Y-102497440D01*
X130000000Y-102497440D01*
X130235317Y-102453162D01*
X130451441Y-102314090D01*
X130596431Y-102101890D01*
X130640352Y-101885000D01*
X132133870Y-101885000D01*
X132133870Y-101900430D01*
X132178148Y-102135747D01*
X132317220Y-102351871D01*
X132529420Y-102496861D01*
X132781310Y-102547870D01*
X134378970Y-102547870D01*
X134614287Y-102503592D01*
X134830411Y-102364520D01*
X134975401Y-102152320D01*
X134995971Y-102050741D01*
X135082703Y-102260129D01*
X135261332Y-102438757D01*
X135494721Y-102535430D01*
X135971791Y-102535430D01*
X128886210Y-109621010D01*
X128694367Y-109908125D01*
X128694367Y-109908126D01*
X128626999Y-110246800D01*
X128627000Y-110246805D01*
X128627000Y-111748560D01*
X128546800Y-111748560D01*
X128311483Y-111792838D01*
X128243378Y-111836662D01*
X128189090Y-111799569D01*
X127937200Y-111748560D01*
X127857000Y-111748560D01*
X127857000Y-106502105D01*
X127857001Y-106502100D01*
X127789633Y-106163426D01*
X127789633Y-106163425D01*
X127597790Y-105876310D01*
X127597787Y-105876308D01*
X124218920Y-102497440D01*
X126000000Y-102497440D01*
X126235317Y-102453162D01*
X126451441Y-102314090D01*
X126596431Y-102101890D01*
X126647440Y-101850000D01*
X126647440Y-100150000D01*
X126603162Y-99914683D01*
X126464090Y-99698559D01*
X126251890Y-99553569D01*
X126000000Y-99502560D01*
X125855672Y-99502560D01*
X125817633Y-99311325D01*
X125625790Y-99024210D01*
X125625787Y-99024208D01*
X125345000Y-98743420D01*
X125345000Y-85181126D01*
X125519670Y-85064415D01*
X125730000Y-84749634D01*
X125940330Y-85064415D01*
X126426511Y-85389271D01*
X127000000Y-85503345D01*
X127573489Y-85389271D01*
X128059670Y-85064415D01*
X128270000Y-84749634D01*
X128480330Y-85064415D01*
X128966511Y-85389271D01*
X129540000Y-85503345D01*
X130113489Y-85389271D01*
X130599670Y-85064415D01*
X130810000Y-84749634D01*
X131020330Y-85064415D01*
X131506511Y-85389271D01*
X132080000Y-85503345D01*
X132653489Y-85389271D01*
X133139670Y-85064415D01*
X133350000Y-84749634D01*
X133560330Y-85064415D01*
X134046511Y-85389271D01*
X134620000Y-85503345D01*
X135193489Y-85389271D01*
X135679670Y-85064415D01*
X135890000Y-84749634D01*
X136100330Y-85064415D01*
X136100330Y-85064415D01*
G37*
X136100330Y-85064415D02*
X136586511Y-85389271D01*
X137160000Y-85503345D01*
X137733489Y-85389271D01*
X138219670Y-85064415D01*
X138229243Y-85050087D01*
X138233238Y-85071317D01*
X138372310Y-85287441D01*
X138584510Y-85432431D01*
X138836400Y-85483440D01*
X140129000Y-85483440D01*
X140129000Y-87977821D01*
X137297810Y-90809010D01*
X137105967Y-91096125D01*
X137105967Y-91096126D01*
X137038599Y-91434800D01*
X137038600Y-91434805D01*
X137038600Y-99464570D01*
X136705610Y-99464570D01*
X136546860Y-99623320D01*
X136546860Y-100873000D01*
X136566860Y-100873000D01*
X136566860Y-101127000D01*
X136546860Y-101127000D01*
X136546860Y-101147000D01*
X136292860Y-101147000D01*
X136292860Y-101127000D01*
X136272860Y-101127000D01*
X136272860Y-100873000D01*
X136292860Y-100873000D01*
X136292860Y-99623320D01*
X136134110Y-99464570D01*
X135494721Y-99464570D01*
X135261332Y-99561243D01*
X135082703Y-99739871D01*
X134997454Y-99945681D01*
X134982132Y-99864253D01*
X134843060Y-99648129D01*
X134630860Y-99503139D01*
X134378970Y-99452130D01*
X132781310Y-99452130D01*
X132545993Y-99496408D01*
X132329869Y-99635480D01*
X132184879Y-99847680D01*
X132133870Y-100099570D01*
X132133870Y-100115000D01*
X130640854Y-100115000D01*
X130603162Y-99914683D01*
X130464090Y-99698559D01*
X130251890Y-99553569D01*
X130000000Y-99502560D01*
X128000000Y-99502560D01*
X127764683Y-99546838D01*
X127548559Y-99685910D01*
X127403569Y-99898110D01*
X127352560Y-100150000D01*
X127352560Y-101850000D01*
X127396838Y-102085317D01*
X127535910Y-102301441D01*
X127748110Y-102446431D01*
X128000000Y-102497440D01*
X130000000Y-102497440D01*
X130235317Y-102453162D01*
X130451441Y-102314090D01*
X130596431Y-102101890D01*
X130640352Y-101885000D01*
X132133870Y-101885000D01*
X132133870Y-101900430D01*
X132178148Y-102135747D01*
X132317220Y-102351871D01*
X132529420Y-102496861D01*
X132781310Y-102547870D01*
X134378970Y-102547870D01*
X134614287Y-102503592D01*
X134830411Y-102364520D01*
X134975401Y-102152320D01*
X134995971Y-102050741D01*
X135082703Y-102260129D01*
X135261332Y-102438757D01*
X135494721Y-102535430D01*
X135971791Y-102535430D01*
X128886210Y-109621010D01*
X128694367Y-109908125D01*
X128694367Y-109908126D01*
X128626999Y-110246800D01*
X128627000Y-110246805D01*
X128627000Y-111748560D01*
X128546800Y-111748560D01*
X128311483Y-111792838D01*
X128243378Y-111836662D01*
X128189090Y-111799569D01*
X127937200Y-111748560D01*
X127857000Y-111748560D01*
X127857000Y-106502105D01*
X127857001Y-106502100D01*
X127789633Y-106163426D01*
X127789633Y-106163425D01*
X127597790Y-105876310D01*
X127597787Y-105876308D01*
X124218920Y-102497440D01*
X126000000Y-102497440D01*
X126235317Y-102453162D01*
X126451441Y-102314090D01*
X126596431Y-102101890D01*
X126647440Y-101850000D01*
X126647440Y-100150000D01*
X126603162Y-99914683D01*
X126464090Y-99698559D01*
X126251890Y-99553569D01*
X126000000Y-99502560D01*
X125855672Y-99502560D01*
X125817633Y-99311325D01*
X125625790Y-99024210D01*
X125625787Y-99024208D01*
X125345000Y-98743420D01*
X125345000Y-85181126D01*
X125519670Y-85064415D01*
X125730000Y-84749634D01*
X125940330Y-85064415D01*
X126426511Y-85389271D01*
X127000000Y-85503345D01*
X127573489Y-85389271D01*
X128059670Y-85064415D01*
X128270000Y-84749634D01*
X128480330Y-85064415D01*
X128966511Y-85389271D01*
X129540000Y-85503345D01*
X130113489Y-85389271D01*
X130599670Y-85064415D01*
X130810000Y-84749634D01*
X131020330Y-85064415D01*
X131506511Y-85389271D01*
X132080000Y-85503345D01*
X132653489Y-85389271D01*
X133139670Y-85064415D01*
X133350000Y-84749634D01*
X133560330Y-85064415D01*
X134046511Y-85389271D01*
X134620000Y-85503345D01*
X135193489Y-85389271D01*
X135679670Y-85064415D01*
X135890000Y-84749634D01*
X136100330Y-85064415D01*
G36*
X144290000Y-75634821D02*
X141689390Y-73034210D01*
X141491172Y-72901766D01*
X141402275Y-72842367D01*
X141346084Y-72831190D01*
X141211040Y-72804327D01*
X141211040Y-72644000D01*
X141166762Y-72408683D01*
X141027690Y-72192559D01*
X140815490Y-72047569D01*
X140563600Y-71996560D01*
X138836400Y-71996560D01*
X138601083Y-72040838D01*
X138384959Y-72179910D01*
X138239969Y-72392110D01*
X138231600Y-72433439D01*
X138219670Y-72415585D01*
X137733489Y-72090729D01*
X137160000Y-71976655D01*
X136586511Y-72090729D01*
X136100330Y-72415585D01*
X135890000Y-72730366D01*
X135679670Y-72415585D01*
X135193489Y-72090729D01*
X134620000Y-71976655D01*
X134046511Y-72090729D01*
X133560330Y-72415585D01*
X133350000Y-72730366D01*
X133139670Y-72415585D01*
X132653489Y-72090729D01*
X132080000Y-71976655D01*
X131506511Y-72090729D01*
X131020330Y-72415585D01*
X130810000Y-72730366D01*
X130599670Y-72415585D01*
X130113489Y-72090729D01*
X129540000Y-71976655D01*
X128966511Y-72090729D01*
X128480330Y-72415585D01*
X128270000Y-72730366D01*
X128059670Y-72415585D01*
X127573489Y-72090729D01*
X127000000Y-71976655D01*
X126426511Y-72090729D01*
X125940330Y-72415585D01*
X125733539Y-72725069D01*
X125362036Y-72309268D01*
X124834791Y-72055291D01*
X124819026Y-72052642D01*
X124587000Y-72173783D01*
X124587000Y-73533000D01*
X124607000Y-73533000D01*
X124607000Y-73787000D01*
X124587000Y-73787000D01*
X124587000Y-73807000D01*
X124333000Y-73807000D01*
X124333000Y-73787000D01*
X123119076Y-73787000D01*
X122974816Y-74021913D01*
X123168046Y-74574320D01*
X123557964Y-75010732D01*
X124085209Y-75264709D01*
X124100974Y-75267358D01*
X124184859Y-75223562D01*
X122484210Y-76924210D01*
X122292367Y-77211325D01*
X122292367Y-77211326D01*
X122224999Y-77550000D01*
X122225000Y-77550005D01*
X122225000Y-100220908D01*
X119710000Y-97705908D01*
X119710000Y-73298087D01*
X122974816Y-73298087D01*
X123119076Y-73533000D01*
X124333000Y-73533000D01*
X124333000Y-72173783D01*
X124100974Y-72052642D01*
X124085209Y-72055291D01*
X123557964Y-72309268D01*
X123168046Y-72745680D01*
X122974816Y-73298087D01*
X119710000Y-73298087D01*
X119710000Y-68710000D01*
X144290000Y-68710000D01*
X144290000Y-75634821D01*
X144290000Y-75634821D01*
G37*
X144290000Y-75634821D02*
X141689390Y-73034210D01*
X141491172Y-72901766D01*
X141402275Y-72842367D01*
X141346084Y-72831190D01*
X141211040Y-72804327D01*
X141211040Y-72644000D01*
X141166762Y-72408683D01*
X141027690Y-72192559D01*
X140815490Y-72047569D01*
X140563600Y-71996560D01*
X138836400Y-71996560D01*
X138601083Y-72040838D01*
X138384959Y-72179910D01*
X138239969Y-72392110D01*
X138231600Y-72433439D01*
X138219670Y-72415585D01*
X137733489Y-72090729D01*
X137160000Y-71976655D01*
X136586511Y-72090729D01*
X136100330Y-72415585D01*
X135890000Y-72730366D01*
X135679670Y-72415585D01*
X135193489Y-72090729D01*
X134620000Y-71976655D01*
X134046511Y-72090729D01*
X133560330Y-72415585D01*
X133350000Y-72730366D01*
X133139670Y-72415585D01*
X132653489Y-72090729D01*
X132080000Y-71976655D01*
X131506511Y-72090729D01*
X131020330Y-72415585D01*
X130810000Y-72730366D01*
X130599670Y-72415585D01*
X130113489Y-72090729D01*
X129540000Y-71976655D01*
X128966511Y-72090729D01*
X128480330Y-72415585D01*
X128270000Y-72730366D01*
X128059670Y-72415585D01*
X127573489Y-72090729D01*
X127000000Y-71976655D01*
X126426511Y-72090729D01*
X125940330Y-72415585D01*
X125733539Y-72725069D01*
X125362036Y-72309268D01*
X124834791Y-72055291D01*
X124819026Y-72052642D01*
X124587000Y-72173783D01*
X124587000Y-73533000D01*
X124607000Y-73533000D01*
X124607000Y-73787000D01*
X124587000Y-73787000D01*
X124587000Y-73807000D01*
X124333000Y-73807000D01*
X124333000Y-73787000D01*
X123119076Y-73787000D01*
X122974816Y-74021913D01*
X123168046Y-74574320D01*
X123557964Y-75010732D01*
X124085209Y-75264709D01*
X124100974Y-75267358D01*
X124184859Y-75223562D01*
X122484210Y-76924210D01*
X122292367Y-77211325D01*
X122292367Y-77211326D01*
X122224999Y-77550000D01*
X122225000Y-77550005D01*
X122225000Y-100220908D01*
X119710000Y-97705908D01*
X119710000Y-73298087D01*
X122974816Y-73298087D01*
X123119076Y-73533000D01*
X124333000Y-73533000D01*
X124333000Y-72173783D01*
X124100974Y-72052642D01*
X124085209Y-72055291D01*
X123557964Y-72309268D01*
X123168046Y-72745680D01*
X122974816Y-73298087D01*
X119710000Y-73298087D01*
X119710000Y-68710000D01*
X144290000Y-68710000D01*
X144290000Y-75634821D01*
M02*
