%TF.GenerationSoftware,KiCad,Pcbnew,4.0.2+dfsg1-stable*%
%TF.CreationDate,2019-04-18T09:25:44+02:00*%
%TF.ProjectId,ECI-Breakout,4543492D427265616B6F75742E6B6963,rev?*%
%TF.FileFunction,Legend,Top*%
%FSLAX46Y46*%
G04 Gerber Fmt 4.6, Leading zero omitted, Abs format (unit mm)*
G04 Created by KiCad (PCBNEW 4.0.2+dfsg1-stable) date gio 18 apr 2019 09:25:44 CEST*
%MOMM*%
G01*
G04 APERTURE LIST*
%ADD10C,0.100000*%
%ADD11C,0.200000*%
%ADD12C,0.150000*%
G04 APERTURE END LIST*
D10*
D11*
X122329999Y-92081333D02*
X122710951Y-92081333D01*
X122225237Y-92309905D02*
X122591904Y-91509905D01*
X122758571Y-92309905D01*
X123010951Y-91509905D02*
X123468094Y-91509905D01*
X123139523Y-92309905D02*
X123239523Y-91509905D01*
X123625237Y-92081333D02*
X124006189Y-92081333D01*
X123520475Y-92309905D02*
X123887142Y-91509905D01*
X124053809Y-92309905D01*
X124777618Y-92309905D02*
X124558570Y-91928952D01*
X124320475Y-92309905D02*
X124420475Y-91509905D01*
X124725237Y-91509905D01*
X124796666Y-91548000D01*
X124829999Y-91586095D01*
X124858570Y-91662286D01*
X124844285Y-91776571D01*
X124796666Y-91852762D01*
X124753809Y-91890857D01*
X124672856Y-91928952D01*
X124368094Y-91928952D01*
X125120475Y-92309905D02*
X125220475Y-91509905D01*
X126529999Y-92309905D02*
X126072856Y-92309905D01*
X126301427Y-92309905D02*
X126401427Y-91509905D01*
X126310951Y-91624190D01*
X126225236Y-91700381D01*
X126144285Y-91738476D01*
X126896666Y-91509905D02*
X127391904Y-91509905D01*
X127087142Y-91814667D01*
X127201428Y-91814667D01*
X127272856Y-91852762D01*
X127306190Y-91890857D01*
X127334761Y-91967048D01*
X127310952Y-92157524D01*
X127263333Y-92233714D01*
X127220475Y-92271810D01*
X127139523Y-92309905D01*
X126910951Y-92309905D01*
X126839523Y-92271810D01*
X126806190Y-92233714D01*
X127887142Y-91509905D02*
X127963333Y-91509905D01*
X128034761Y-91548000D01*
X128068094Y-91586095D01*
X128096666Y-91662286D01*
X128115714Y-91814667D01*
X128091904Y-92005143D01*
X128034762Y-92157524D01*
X127987142Y-92233714D01*
X127944285Y-92271810D01*
X127863333Y-92309905D01*
X127787142Y-92309905D01*
X127715714Y-92271810D01*
X127682380Y-92233714D01*
X127653809Y-92157524D01*
X127634761Y-92005143D01*
X127658571Y-91814667D01*
X127715713Y-91662286D01*
X127763332Y-91586095D01*
X127806190Y-91548000D01*
X127887142Y-91509905D01*
X128420476Y-91509905D02*
X128853809Y-92309905D01*
X128953809Y-91509905D02*
X128320476Y-92309905D01*
X129210952Y-91890857D02*
X129477619Y-91890857D01*
X129539524Y-92309905D02*
X129158571Y-92309905D01*
X129258571Y-91509905D01*
X129639524Y-91509905D01*
X130810953Y-91890857D02*
X130920477Y-91928952D01*
X130953810Y-91967048D01*
X130982381Y-92043238D01*
X130968096Y-92157524D01*
X130920477Y-92233714D01*
X130877620Y-92271810D01*
X130796667Y-92309905D01*
X130491905Y-92309905D01*
X130591905Y-91509905D01*
X130858572Y-91509905D01*
X130930000Y-91548000D01*
X130963334Y-91586095D01*
X130991905Y-91662286D01*
X130982382Y-91738476D01*
X130934763Y-91814667D01*
X130891905Y-91852762D01*
X130810953Y-91890857D01*
X130544286Y-91890857D01*
X131749048Y-92309905D02*
X131530000Y-91928952D01*
X131291905Y-92309905D02*
X131391905Y-91509905D01*
X131696667Y-91509905D01*
X131768096Y-91548000D01*
X131801429Y-91586095D01*
X131830000Y-91662286D01*
X131815715Y-91776571D01*
X131768096Y-91852762D01*
X131725239Y-91890857D01*
X131644286Y-91928952D01*
X131339524Y-91928952D01*
X132144286Y-91890857D02*
X132410953Y-91890857D01*
X132472858Y-92309905D02*
X132091905Y-92309905D01*
X132191905Y-91509905D01*
X132572858Y-91509905D01*
X132806191Y-92081333D02*
X133187143Y-92081333D01*
X132701429Y-92309905D02*
X133068096Y-91509905D01*
X133234763Y-92309905D01*
X133501429Y-92309905D02*
X133601429Y-91509905D01*
X133958572Y-92309905D02*
X133672858Y-91852762D01*
X134058572Y-91509905D02*
X133544286Y-91967048D01*
X134553810Y-91509905D02*
X134706191Y-91509905D01*
X134777620Y-91548000D01*
X134844286Y-91624190D01*
X134863334Y-91776571D01*
X134830000Y-92043238D01*
X134772858Y-92195619D01*
X134687144Y-92271810D01*
X134606191Y-92309905D01*
X134453810Y-92309905D01*
X134382382Y-92271810D01*
X134315715Y-92195619D01*
X134296667Y-92043238D01*
X134330001Y-91776571D01*
X134387143Y-91624190D01*
X134472858Y-91548000D01*
X134553810Y-91509905D01*
X135239524Y-91509905D02*
X135158572Y-92157524D01*
X135187143Y-92233714D01*
X135220477Y-92271810D01*
X135291905Y-92309905D01*
X135444286Y-92309905D01*
X135525239Y-92271810D01*
X135568096Y-92233714D01*
X135615715Y-92157524D01*
X135696667Y-91509905D01*
X135963333Y-91509905D02*
X136420476Y-91509905D01*
X136091905Y-92309905D02*
X136191905Y-91509905D01*
X137249048Y-91890857D02*
X137515715Y-91890857D01*
X137577620Y-92309905D02*
X137196667Y-92309905D01*
X137296667Y-91509905D01*
X137677620Y-91509905D01*
X138387144Y-92233714D02*
X138344287Y-92271810D01*
X138225239Y-92309905D01*
X138149049Y-92309905D01*
X138039525Y-92271810D01*
X137972858Y-92195619D01*
X137944286Y-92119429D01*
X137925239Y-91967048D01*
X137939525Y-91852762D01*
X137996667Y-91700381D01*
X138044286Y-91624190D01*
X138130001Y-91548000D01*
X138249049Y-91509905D01*
X138325239Y-91509905D01*
X138434763Y-91548000D01*
X138468096Y-91586095D01*
X138720477Y-92309905D02*
X138820477Y-91509905D01*
X140030001Y-91890857D02*
X140139525Y-91928952D01*
X140172858Y-91967048D01*
X140201429Y-92043238D01*
X140187144Y-92157524D01*
X140139525Y-92233714D01*
X140096668Y-92271810D01*
X140015715Y-92309905D01*
X139710953Y-92309905D01*
X139810953Y-91509905D01*
X140077620Y-91509905D01*
X140149048Y-91548000D01*
X140182382Y-91586095D01*
X140210953Y-91662286D01*
X140201430Y-91738476D01*
X140153811Y-91814667D01*
X140110953Y-91852762D01*
X140030001Y-91890857D01*
X139763334Y-91890857D01*
X140610953Y-91509905D02*
X140530001Y-92157524D01*
X140558572Y-92233714D01*
X140591906Y-92271810D01*
X140663334Y-92309905D01*
X140815715Y-92309905D01*
X140896668Y-92271810D01*
X140939525Y-92233714D01*
X140987144Y-92157524D01*
X141068096Y-91509905D01*
X141315715Y-92271810D02*
X141425239Y-92309905D01*
X141615715Y-92309905D01*
X141696667Y-92271810D01*
X141739525Y-92233714D01*
X141787144Y-92157524D01*
X141796667Y-92081333D01*
X141768096Y-92005143D01*
X141734762Y-91967048D01*
X141663334Y-91928952D01*
X141515715Y-91890857D01*
X141444286Y-91852762D01*
X141410953Y-91814667D01*
X141382382Y-91738476D01*
X141391905Y-91662286D01*
X141439524Y-91586095D01*
X141482381Y-91548000D01*
X141563334Y-91509905D01*
X141753810Y-91509905D01*
X141863334Y-91548000D01*
D10*
X139628571Y-81271810D02*
X139628571Y-80938476D01*
X140152381Y-80795619D02*
X140152381Y-81271810D01*
X139152381Y-81271810D01*
X139152381Y-80795619D01*
X139152381Y-80462286D02*
X140152381Y-79795619D01*
X139152381Y-79795619D02*
X140152381Y-80462286D01*
X140104762Y-79462286D02*
X140152381Y-79319429D01*
X140152381Y-79081333D01*
X140104762Y-78986095D01*
X140057143Y-78938476D01*
X139961905Y-78890857D01*
X139866667Y-78890857D01*
X139771429Y-78938476D01*
X139723810Y-78986095D01*
X139676190Y-79081333D01*
X139628571Y-79271810D01*
X139580952Y-79367048D01*
X139533333Y-79414667D01*
X139438095Y-79462286D01*
X139342857Y-79462286D01*
X139247619Y-79414667D01*
X139200000Y-79367048D01*
X139152381Y-79271810D01*
X139152381Y-79033714D01*
X139200000Y-78890857D01*
X139628571Y-78462286D02*
X139628571Y-78128952D01*
X140152381Y-77986095D02*
X140152381Y-78462286D01*
X139152381Y-78462286D01*
X139152381Y-77986095D01*
X140152381Y-77081333D02*
X140152381Y-77557524D01*
X139152381Y-77557524D01*
X138980000Y-81509905D02*
X138980000Y-76986095D01*
X137612381Y-80811619D02*
X137136190Y-81144953D01*
X137612381Y-81383048D02*
X136612381Y-81383048D01*
X136612381Y-81002095D01*
X136660000Y-80906857D01*
X136707619Y-80859238D01*
X136802857Y-80811619D01*
X136945714Y-80811619D01*
X137040952Y-80859238D01*
X137088571Y-80906857D01*
X137136190Y-81002095D01*
X137136190Y-81383048D01*
X137564762Y-80430667D02*
X137612381Y-80287810D01*
X137612381Y-80049714D01*
X137564762Y-79954476D01*
X137517143Y-79906857D01*
X137421905Y-79859238D01*
X137326667Y-79859238D01*
X137231429Y-79906857D01*
X137183810Y-79954476D01*
X137136190Y-80049714D01*
X137088571Y-80240191D01*
X137040952Y-80335429D01*
X136993333Y-80383048D01*
X136898095Y-80430667D01*
X136802857Y-80430667D01*
X136707619Y-80383048D01*
X136660000Y-80335429D01*
X136612381Y-80240191D01*
X136612381Y-80002095D01*
X136660000Y-79859238D01*
X136612381Y-79573524D02*
X136612381Y-79002095D01*
X137612381Y-79287810D02*
X136612381Y-79287810D01*
X136440000Y-81621143D02*
X136440000Y-78906857D01*
X135072381Y-81446476D02*
X134072381Y-81446476D01*
X134072381Y-81208381D01*
X134120000Y-81065523D01*
X134215238Y-80970285D01*
X134310476Y-80922666D01*
X134500952Y-80875047D01*
X134643810Y-80875047D01*
X134834286Y-80922666D01*
X134929524Y-80970285D01*
X135024762Y-81065523D01*
X135072381Y-81208381D01*
X135072381Y-81446476D01*
X135072381Y-79922666D02*
X135072381Y-80494095D01*
X135072381Y-80208381D02*
X134072381Y-80208381D01*
X134215238Y-80303619D01*
X134310476Y-80398857D01*
X134358095Y-80494095D01*
X134072381Y-79589333D02*
X135072381Y-78922666D01*
X134072381Y-78922666D02*
X135072381Y-79589333D01*
X134072381Y-78636952D02*
X135072381Y-77970285D01*
X134072381Y-77970285D02*
X135072381Y-78636952D01*
X133900000Y-81684571D02*
X133900000Y-77827428D01*
X132532381Y-81089333D02*
X131532381Y-81089333D01*
X132246667Y-80755999D01*
X131532381Y-80422666D01*
X132532381Y-80422666D01*
X132532381Y-79946476D02*
X131532381Y-79946476D01*
X131532381Y-79565523D01*
X131580000Y-79470285D01*
X131627619Y-79422666D01*
X131722857Y-79375047D01*
X131865714Y-79375047D01*
X131960952Y-79422666D01*
X132008571Y-79470285D01*
X132056190Y-79565523D01*
X132056190Y-79946476D01*
X132532381Y-78946476D02*
X131532381Y-78946476D01*
X131532381Y-78708381D01*
X131580000Y-78565523D01*
X131675238Y-78470285D01*
X131770476Y-78422666D01*
X131960952Y-78375047D01*
X132103810Y-78375047D01*
X132294286Y-78422666D01*
X132389524Y-78470285D01*
X132484762Y-78565523D01*
X132532381Y-78708381D01*
X132532381Y-78946476D01*
X131360000Y-81327428D02*
X131360000Y-78184571D01*
X129706667Y-81271809D02*
X129706667Y-80795618D01*
X129992381Y-81367047D02*
X128992381Y-81033714D01*
X129992381Y-80700380D01*
X128992381Y-80367047D02*
X129801905Y-80367047D01*
X129897143Y-80319428D01*
X129944762Y-80271809D01*
X129992381Y-80176571D01*
X129992381Y-79986094D01*
X129944762Y-79890856D01*
X129897143Y-79843237D01*
X129801905Y-79795618D01*
X128992381Y-79795618D01*
X129992381Y-79319428D02*
X128992381Y-79319428D01*
X128992381Y-79081333D01*
X129040000Y-78938475D01*
X129135238Y-78843237D01*
X129230476Y-78795618D01*
X129420952Y-78747999D01*
X129563810Y-78747999D01*
X129754286Y-78795618D01*
X129849524Y-78843237D01*
X129944762Y-78938475D01*
X129992381Y-79081333D01*
X129992381Y-79319428D01*
X129992381Y-78319428D02*
X128992381Y-78319428D01*
X128992381Y-77652762D02*
X128992381Y-77462285D01*
X129040000Y-77367047D01*
X129135238Y-77271809D01*
X129325714Y-77224190D01*
X129659048Y-77224190D01*
X129849524Y-77271809D01*
X129944762Y-77367047D01*
X129992381Y-77462285D01*
X129992381Y-77652762D01*
X129944762Y-77748000D01*
X129849524Y-77843238D01*
X129659048Y-77890857D01*
X129325714Y-77890857D01*
X129135238Y-77843238D01*
X129040000Y-77748000D01*
X128992381Y-77652762D01*
X127452381Y-80835428D02*
X126976190Y-81168762D01*
X127452381Y-81406857D02*
X126452381Y-81406857D01*
X126452381Y-81025904D01*
X126500000Y-80930666D01*
X126547619Y-80883047D01*
X126642857Y-80835428D01*
X126785714Y-80835428D01*
X126880952Y-80883047D01*
X126928571Y-80930666D01*
X126976190Y-81025904D01*
X126976190Y-81406857D01*
X126928571Y-80406857D02*
X126928571Y-80073523D01*
X127452381Y-79930666D02*
X127452381Y-80406857D01*
X126452381Y-80406857D01*
X126452381Y-79930666D01*
X126928571Y-79168761D02*
X126928571Y-79502095D01*
X127452381Y-79502095D02*
X126452381Y-79502095D01*
X126452381Y-79025904D01*
X126280000Y-81644952D02*
X126280000Y-78883047D01*
X123912381Y-81597333D02*
X124912381Y-81264000D01*
X123912381Y-80930666D01*
X124817143Y-80025904D02*
X124864762Y-80073523D01*
X124912381Y-80216380D01*
X124912381Y-80311618D01*
X124864762Y-80454476D01*
X124769524Y-80549714D01*
X124674286Y-80597333D01*
X124483810Y-80644952D01*
X124340952Y-80644952D01*
X124150476Y-80597333D01*
X124055238Y-80549714D01*
X123960000Y-80454476D01*
X123912381Y-80311618D01*
X123912381Y-80216380D01*
X123960000Y-80073523D01*
X124007619Y-80025904D01*
X124817143Y-79025904D02*
X124864762Y-79073523D01*
X124912381Y-79216380D01*
X124912381Y-79311618D01*
X124864762Y-79454476D01*
X124769524Y-79549714D01*
X124674286Y-79597333D01*
X124483810Y-79644952D01*
X124340952Y-79644952D01*
X124150476Y-79597333D01*
X124055238Y-79549714D01*
X123960000Y-79454476D01*
X123912381Y-79311618D01*
X123912381Y-79216380D01*
X123960000Y-79073523D01*
X124007619Y-79025904D01*
X140152381Y-70889714D02*
X139152381Y-70889714D01*
X140152381Y-70318285D01*
X139152381Y-70318285D01*
X140057143Y-69270666D02*
X140104762Y-69318285D01*
X140152381Y-69461142D01*
X140152381Y-69556380D01*
X140104762Y-69699238D01*
X140009524Y-69794476D01*
X139914286Y-69842095D01*
X139723810Y-69889714D01*
X139580952Y-69889714D01*
X139390476Y-69842095D01*
X139295238Y-69794476D01*
X139200000Y-69699238D01*
X139152381Y-69556380D01*
X139152381Y-69461142D01*
X139200000Y-69318285D01*
X139247619Y-69270666D01*
X137612381Y-71127809D02*
X136612381Y-71127809D01*
X137612381Y-70080190D02*
X137136190Y-70413524D01*
X137612381Y-70651619D02*
X136612381Y-70651619D01*
X136612381Y-70270666D01*
X136660000Y-70175428D01*
X136707619Y-70127809D01*
X136802857Y-70080190D01*
X136945714Y-70080190D01*
X137040952Y-70127809D01*
X137088571Y-70175428D01*
X137136190Y-70270666D01*
X137136190Y-70651619D01*
X137707619Y-68984952D02*
X137660000Y-69080190D01*
X137564762Y-69175428D01*
X137421905Y-69318285D01*
X137374286Y-69413524D01*
X137374286Y-69508762D01*
X137612381Y-69461143D02*
X137564762Y-69556381D01*
X137469524Y-69651619D01*
X137279048Y-69699238D01*
X136945714Y-69699238D01*
X136755238Y-69651619D01*
X136660000Y-69556381D01*
X136612381Y-69461143D01*
X136612381Y-69270666D01*
X136660000Y-69175428D01*
X136755238Y-69080190D01*
X136945714Y-69032571D01*
X137279048Y-69032571D01*
X137469524Y-69080190D01*
X137564762Y-69175428D01*
X137612381Y-69270666D01*
X137612381Y-69461143D01*
X136440000Y-71365904D02*
X136440000Y-68842095D01*
X135072381Y-71604000D02*
X134072381Y-71604000D01*
X134548571Y-71604000D02*
X134548571Y-71032571D01*
X135072381Y-71032571D02*
X134072381Y-71032571D01*
X134786667Y-70604000D02*
X134786667Y-70127809D01*
X135072381Y-70699238D02*
X134072381Y-70365905D01*
X135072381Y-70032571D01*
X135072381Y-69223047D02*
X135072381Y-69699238D01*
X134072381Y-69699238D01*
X134072381Y-69032571D02*
X134072381Y-68461142D01*
X135072381Y-68746857D02*
X134072381Y-68746857D01*
X133900000Y-71842095D02*
X133900000Y-68365904D01*
X132246667Y-71294476D02*
X132246667Y-70818285D01*
X132532381Y-71389714D02*
X131532381Y-71056381D01*
X132532381Y-70723047D01*
X132532381Y-69865904D02*
X132532381Y-70437333D01*
X132532381Y-70151619D02*
X131532381Y-70151619D01*
X131675238Y-70246857D01*
X131770476Y-70342095D01*
X131818095Y-70437333D01*
X131532381Y-69532571D02*
X131532381Y-68913523D01*
X131913333Y-69246857D01*
X131913333Y-69103999D01*
X131960952Y-69008761D01*
X132008571Y-68961142D01*
X132103810Y-68913523D01*
X132341905Y-68913523D01*
X132437143Y-68961142D01*
X132484762Y-69008761D01*
X132532381Y-69103999D01*
X132532381Y-69389714D01*
X132484762Y-69484952D01*
X132437143Y-69532571D01*
X129706667Y-71294476D02*
X129706667Y-70818285D01*
X129992381Y-71389714D02*
X128992381Y-71056381D01*
X129992381Y-70723047D01*
X129992381Y-69865904D02*
X129992381Y-70437333D01*
X129992381Y-70151619D02*
X128992381Y-70151619D01*
X129135238Y-70246857D01*
X129230476Y-70342095D01*
X129278095Y-70437333D01*
X129325714Y-69008761D02*
X129992381Y-69008761D01*
X128944762Y-69246857D02*
X129659048Y-69484952D01*
X129659048Y-68865904D01*
X127166667Y-71294476D02*
X127166667Y-70818285D01*
X127452381Y-71389714D02*
X126452381Y-71056381D01*
X127452381Y-70723047D01*
X127452381Y-69865904D02*
X127452381Y-70437333D01*
X127452381Y-70151619D02*
X126452381Y-70151619D01*
X126595238Y-70246857D01*
X126690476Y-70342095D01*
X126738095Y-70437333D01*
X126452381Y-68961142D02*
X126452381Y-69437333D01*
X126928571Y-69484952D01*
X126880952Y-69437333D01*
X126833333Y-69342095D01*
X126833333Y-69103999D01*
X126880952Y-69008761D01*
X126928571Y-68961142D01*
X127023810Y-68913523D01*
X127261905Y-68913523D01*
X127357143Y-68961142D01*
X127404762Y-69008761D01*
X127452381Y-69103999D01*
X127452381Y-69342095D01*
X127404762Y-69437333D01*
X127357143Y-69484952D01*
X123960000Y-70865904D02*
X123912381Y-70961142D01*
X123912381Y-71103999D01*
X123960000Y-71246857D01*
X124055238Y-71342095D01*
X124150476Y-71389714D01*
X124340952Y-71437333D01*
X124483810Y-71437333D01*
X124674286Y-71389714D01*
X124769524Y-71342095D01*
X124864762Y-71246857D01*
X124912381Y-71103999D01*
X124912381Y-71008761D01*
X124864762Y-70865904D01*
X124817143Y-70818285D01*
X124483810Y-70818285D01*
X124483810Y-71008761D01*
X124912381Y-70389714D02*
X123912381Y-70389714D01*
X124912381Y-69818285D01*
X123912381Y-69818285D01*
X124912381Y-69342095D02*
X123912381Y-69342095D01*
X123912381Y-69104000D01*
X123960000Y-68961142D01*
X124055238Y-68865904D01*
X124150476Y-68818285D01*
X124340952Y-68770666D01*
X124483810Y-68770666D01*
X124674286Y-68818285D01*
X124769524Y-68865904D01*
X124864762Y-68961142D01*
X124912381Y-69104000D01*
X124912381Y-69342095D01*
D12*
X137150000Y-99950000D02*
X133550000Y-99950000D01*
X137150000Y-102050000D02*
X133550000Y-102050000D01*
X135100000Y-101300000D02*
X135100000Y-100700000D01*
X135100000Y-100700000D02*
X135400000Y-101000000D01*
X135400000Y-101000000D02*
X135200000Y-101200000D01*
X135200000Y-101200000D02*
X135200000Y-100950000D01*
X135200000Y-100950000D02*
X135250000Y-101000000D01*
X135500000Y-101500000D02*
X135500000Y-100500000D01*
X135000000Y-101000000D02*
X134500000Y-101000000D01*
X135500000Y-101000000D02*
X135000000Y-101500000D01*
X135000000Y-101500000D02*
X135000000Y-100500000D01*
X135000000Y-100500000D02*
X135500000Y-101000000D01*
X128000000Y-102075000D02*
X126000000Y-102075000D01*
X126000000Y-99925000D02*
X128000000Y-99925000D01*
X138430000Y-74930000D02*
X123190000Y-74930000D01*
X123190000Y-74930000D02*
X123190000Y-72390000D01*
X123190000Y-72390000D02*
X138430000Y-72390000D01*
X141250000Y-75210000D02*
X139700000Y-75210000D01*
X138430000Y-74930000D02*
X138430000Y-72390000D01*
X139700000Y-72110000D02*
X141250000Y-72110000D01*
X141250000Y-72110000D02*
X141250000Y-75210000D01*
X138430000Y-85090000D02*
X123190000Y-85090000D01*
X123190000Y-85090000D02*
X123190000Y-82550000D01*
X123190000Y-82550000D02*
X138430000Y-82550000D01*
X141250000Y-85370000D02*
X139700000Y-85370000D01*
X138430000Y-85090000D02*
X138430000Y-82550000D01*
X139700000Y-82270000D02*
X141250000Y-82270000D01*
X141250000Y-82270000D02*
X141250000Y-85370000D01*
X134261905Y-103452381D02*
X134261905Y-102452381D01*
X134500000Y-102452381D01*
X134642858Y-102500000D01*
X134738096Y-102595238D01*
X134785715Y-102690476D01*
X134833334Y-102880952D01*
X134833334Y-103023810D01*
X134785715Y-103214286D01*
X134738096Y-103309524D01*
X134642858Y-103404762D01*
X134500000Y-103452381D01*
X134261905Y-103452381D01*
X135785715Y-103452381D02*
X135214286Y-103452381D01*
X135500000Y-103452381D02*
X135500000Y-102452381D01*
X135404762Y-102595238D01*
X135309524Y-102690476D01*
X135214286Y-102738095D01*
X131131429Y-105466571D02*
X131464763Y-105466571D01*
X131607620Y-105990381D02*
X131131429Y-105990381D01*
X131131429Y-104990381D01*
X131607620Y-104990381D01*
X132607620Y-105895143D02*
X132560001Y-105942762D01*
X132417144Y-105990381D01*
X132321906Y-105990381D01*
X132179048Y-105942762D01*
X132083810Y-105847524D01*
X132036191Y-105752286D01*
X131988572Y-105561810D01*
X131988572Y-105418952D01*
X132036191Y-105228476D01*
X132083810Y-105133238D01*
X132179048Y-105038000D01*
X132321906Y-104990381D01*
X132417144Y-104990381D01*
X132560001Y-105038000D01*
X132607620Y-105085619D01*
X133036191Y-105990381D02*
X133036191Y-104990381D01*
X134036191Y-105990381D02*
X133464762Y-105990381D01*
X133750476Y-105990381D02*
X133750476Y-104990381D01*
X133655238Y-105133238D01*
X133560000Y-105228476D01*
X133464762Y-105276095D01*
X129931001Y-107008429D02*
X129681001Y-107008429D01*
X129681001Y-107401286D02*
X129681001Y-106651286D01*
X130038144Y-106651286D01*
X130323858Y-107401286D02*
X130323858Y-106901286D01*
X130323858Y-107044143D02*
X130359573Y-106972714D01*
X130395287Y-106937000D01*
X130466716Y-106901286D01*
X130538144Y-106901286D01*
X130895287Y-107401286D02*
X130823859Y-107365571D01*
X130788144Y-107329857D01*
X130752430Y-107258429D01*
X130752430Y-107044143D01*
X130788144Y-106972714D01*
X130823859Y-106937000D01*
X130895287Y-106901286D01*
X131002430Y-106901286D01*
X131073859Y-106937000D01*
X131109573Y-106972714D01*
X131145287Y-107044143D01*
X131145287Y-107258429D01*
X131109573Y-107329857D01*
X131073859Y-107365571D01*
X131002430Y-107401286D01*
X130895287Y-107401286D01*
X131466715Y-106901286D02*
X131466715Y-107401286D01*
X131466715Y-106972714D02*
X131502430Y-106937000D01*
X131573858Y-106901286D01*
X131681001Y-106901286D01*
X131752430Y-106937000D01*
X131788144Y-107008429D01*
X131788144Y-107401286D01*
X132038144Y-106901286D02*
X132323858Y-106901286D01*
X132145286Y-106651286D02*
X132145286Y-107294143D01*
X132181001Y-107365571D01*
X132252429Y-107401286D01*
X132323858Y-107401286D01*
X133109572Y-106615571D02*
X132466715Y-107579857D01*
X133252429Y-106651286D02*
X133681000Y-106651286D01*
X133466714Y-107401286D02*
X133466714Y-106651286D01*
X134038143Y-107401286D02*
X133966715Y-107365571D01*
X133931000Y-107329857D01*
X133895286Y-107258429D01*
X133895286Y-107044143D01*
X133931000Y-106972714D01*
X133966715Y-106937000D01*
X134038143Y-106901286D01*
X134145286Y-106901286D01*
X134216715Y-106937000D01*
X134252429Y-106972714D01*
X134288143Y-107044143D01*
X134288143Y-107258429D01*
X134252429Y-107329857D01*
X134216715Y-107365571D01*
X134145286Y-107401286D01*
X134038143Y-107401286D01*
X134609571Y-106901286D02*
X134609571Y-107651286D01*
X134609571Y-106937000D02*
X134681000Y-106901286D01*
X134823857Y-106901286D01*
X134895286Y-106937000D01*
X134931000Y-106972714D01*
X134966714Y-107044143D01*
X134966714Y-107258429D01*
X134931000Y-107329857D01*
X134895286Y-107365571D01*
X134823857Y-107401286D01*
X134681000Y-107401286D01*
X134609571Y-107365571D01*
X123963714Y-106131286D02*
X123963714Y-105381286D01*
X123963714Y-105738429D02*
X124392286Y-105738429D01*
X124392286Y-106131286D02*
X124392286Y-105381286D01*
X139493429Y-105917000D02*
X139850572Y-105917000D01*
X139422001Y-106131286D02*
X139672001Y-105381286D01*
X139922001Y-106131286D01*
X140011286Y-111494857D02*
X139654143Y-111744857D01*
X140011286Y-111923429D02*
X139261286Y-111923429D01*
X139261286Y-111637714D01*
X139297000Y-111566286D01*
X139332714Y-111530571D01*
X139404143Y-111494857D01*
X139511286Y-111494857D01*
X139582714Y-111530571D01*
X139618429Y-111566286D01*
X139654143Y-111637714D01*
X139654143Y-111923429D01*
X139975571Y-110887714D02*
X140011286Y-110959143D01*
X140011286Y-111102000D01*
X139975571Y-111173429D01*
X139904143Y-111209143D01*
X139618429Y-111209143D01*
X139547000Y-111173429D01*
X139511286Y-111102000D01*
X139511286Y-110959143D01*
X139547000Y-110887714D01*
X139618429Y-110852000D01*
X139689857Y-110852000D01*
X139761286Y-111209143D01*
X139975571Y-110566286D02*
X140011286Y-110494857D01*
X140011286Y-110352000D01*
X139975571Y-110280572D01*
X139904143Y-110244857D01*
X139868429Y-110244857D01*
X139797000Y-110280572D01*
X139761286Y-110352000D01*
X139761286Y-110459143D01*
X139725571Y-110530572D01*
X139654143Y-110566286D01*
X139618429Y-110566286D01*
X139547000Y-110530572D01*
X139511286Y-110459143D01*
X139511286Y-110352000D01*
X139547000Y-110280572D01*
X139975571Y-109637714D02*
X140011286Y-109709143D01*
X140011286Y-109852000D01*
X139975571Y-109923429D01*
X139904143Y-109959143D01*
X139618429Y-109959143D01*
X139547000Y-109923429D01*
X139511286Y-109852000D01*
X139511286Y-109709143D01*
X139547000Y-109637714D01*
X139618429Y-109602000D01*
X139689857Y-109602000D01*
X139761286Y-109959143D01*
X140011286Y-109280572D02*
X139511286Y-109280572D01*
X139654143Y-109280572D02*
X139582714Y-109244857D01*
X139547000Y-109209143D01*
X139511286Y-109137714D01*
X139511286Y-109066286D01*
X139511286Y-108887714D02*
X140011286Y-108709143D01*
X139511286Y-108530571D01*
X139975571Y-107959142D02*
X140011286Y-108030571D01*
X140011286Y-108173428D01*
X139975571Y-108244857D01*
X139904143Y-108280571D01*
X139618429Y-108280571D01*
X139547000Y-108244857D01*
X139511286Y-108173428D01*
X139511286Y-108030571D01*
X139547000Y-107959142D01*
X139618429Y-107923428D01*
X139689857Y-107923428D01*
X139761286Y-108280571D01*
X140011286Y-107280571D02*
X139261286Y-107280571D01*
X139975571Y-107280571D02*
X140011286Y-107352000D01*
X140011286Y-107494857D01*
X139975571Y-107566285D01*
X139939857Y-107602000D01*
X139868429Y-107637714D01*
X139654143Y-107637714D01*
X139582714Y-107602000D01*
X139547000Y-107566285D01*
X139511286Y-107494857D01*
X139511286Y-107352000D01*
X139547000Y-107280571D01*
X137584381Y-111641809D02*
X136584381Y-111641809D01*
X137584381Y-110594190D02*
X137108190Y-110927524D01*
X137584381Y-111165619D02*
X136584381Y-111165619D01*
X136584381Y-110784666D01*
X136632000Y-110689428D01*
X136679619Y-110641809D01*
X136774857Y-110594190D01*
X136917714Y-110594190D01*
X137012952Y-110641809D01*
X137060571Y-110689428D01*
X137108190Y-110784666D01*
X137108190Y-111165619D01*
X137679619Y-109498952D02*
X137632000Y-109594190D01*
X137536762Y-109689428D01*
X137393905Y-109832285D01*
X137346286Y-109927524D01*
X137346286Y-110022762D01*
X137584381Y-109975143D02*
X137536762Y-110070381D01*
X137441524Y-110165619D01*
X137251048Y-110213238D01*
X136917714Y-110213238D01*
X136727238Y-110165619D01*
X136632000Y-110070381D01*
X136584381Y-109975143D01*
X136584381Y-109784666D01*
X136632000Y-109689428D01*
X136727238Y-109594190D01*
X136917714Y-109546571D01*
X137251048Y-109546571D01*
X137441524Y-109594190D01*
X137536762Y-109689428D01*
X137584381Y-109784666D01*
X137584381Y-109975143D01*
X136412000Y-111879904D02*
X136412000Y-109356095D01*
X134790381Y-111610000D02*
X133790381Y-111610000D01*
X134266571Y-111610000D02*
X134266571Y-111038571D01*
X134790381Y-111038571D02*
X133790381Y-111038571D01*
X134504667Y-110610000D02*
X134504667Y-110133809D01*
X134790381Y-110705238D02*
X133790381Y-110371905D01*
X134790381Y-110038571D01*
X134790381Y-109229047D02*
X134790381Y-109705238D01*
X133790381Y-109705238D01*
X133790381Y-109038571D02*
X133790381Y-108467142D01*
X134790381Y-108752857D02*
X133790381Y-108752857D01*
X133618000Y-111848095D02*
X133618000Y-108371904D01*
X132218667Y-111808476D02*
X132218667Y-111332285D01*
X132504381Y-111903714D02*
X131504381Y-111570381D01*
X132504381Y-111237047D01*
X132504381Y-110379904D02*
X132504381Y-110951333D01*
X132504381Y-110665619D02*
X131504381Y-110665619D01*
X131647238Y-110760857D01*
X131742476Y-110856095D01*
X131790095Y-110951333D01*
X131504381Y-110046571D02*
X131504381Y-109427523D01*
X131885333Y-109760857D01*
X131885333Y-109617999D01*
X131932952Y-109522761D01*
X131980571Y-109475142D01*
X132075810Y-109427523D01*
X132313905Y-109427523D01*
X132409143Y-109475142D01*
X132456762Y-109522761D01*
X132504381Y-109617999D01*
X132504381Y-109903714D01*
X132456762Y-109998952D01*
X132409143Y-110046571D01*
X129678667Y-111808476D02*
X129678667Y-111332285D01*
X129964381Y-111903714D02*
X128964381Y-111570381D01*
X129964381Y-111237047D01*
X129964381Y-110379904D02*
X129964381Y-110951333D01*
X129964381Y-110665619D02*
X128964381Y-110665619D01*
X129107238Y-110760857D01*
X129202476Y-110856095D01*
X129250095Y-110951333D01*
X129297714Y-109522761D02*
X129964381Y-109522761D01*
X128916762Y-109760857D02*
X129631048Y-109998952D01*
X129631048Y-109379904D01*
X127138667Y-111808476D02*
X127138667Y-111332285D01*
X127424381Y-111903714D02*
X126424381Y-111570381D01*
X127424381Y-111237047D01*
X127424381Y-110379904D02*
X127424381Y-110951333D01*
X127424381Y-110665619D02*
X126424381Y-110665619D01*
X126567238Y-110760857D01*
X126662476Y-110856095D01*
X126710095Y-110951333D01*
X126424381Y-109475142D02*
X126424381Y-109951333D01*
X126900571Y-109998952D01*
X126852952Y-109951333D01*
X126805333Y-109856095D01*
X126805333Y-109617999D01*
X126852952Y-109522761D01*
X126900571Y-109475142D01*
X126995810Y-109427523D01*
X127233905Y-109427523D01*
X127329143Y-109475142D01*
X127376762Y-109522761D01*
X127424381Y-109617999D01*
X127424381Y-109856095D01*
X127376762Y-109951333D01*
X127329143Y-109998952D01*
X123932000Y-111125904D02*
X123884381Y-111221142D01*
X123884381Y-111363999D01*
X123932000Y-111506857D01*
X124027238Y-111602095D01*
X124122476Y-111649714D01*
X124312952Y-111697333D01*
X124455810Y-111697333D01*
X124646286Y-111649714D01*
X124741524Y-111602095D01*
X124836762Y-111506857D01*
X124884381Y-111363999D01*
X124884381Y-111268761D01*
X124836762Y-111125904D01*
X124789143Y-111078285D01*
X124455810Y-111078285D01*
X124455810Y-111268761D01*
X124884381Y-110649714D02*
X123884381Y-110649714D01*
X124884381Y-110078285D01*
X123884381Y-110078285D01*
X124884381Y-109602095D02*
X123884381Y-109602095D01*
X123884381Y-109364000D01*
X123932000Y-109221142D01*
X124027238Y-109125904D01*
X124122476Y-109078285D01*
X124312952Y-109030666D01*
X124455810Y-109030666D01*
X124646286Y-109078285D01*
X124741524Y-109125904D01*
X124836762Y-109221142D01*
X124884381Y-109364000D01*
X124884381Y-109602095D01*
X127849334Y-99258381D02*
X127516000Y-98782190D01*
X127277905Y-99258381D02*
X127277905Y-98258381D01*
X127658858Y-98258381D01*
X127754096Y-98306000D01*
X127801715Y-98353619D01*
X127849334Y-98448857D01*
X127849334Y-98591714D01*
X127801715Y-98686952D01*
X127754096Y-98734571D01*
X127658858Y-98782190D01*
X127277905Y-98782190D01*
X128801715Y-99258381D02*
X128230286Y-99258381D01*
X128516000Y-99258381D02*
X128516000Y-98258381D01*
X128420762Y-98401238D01*
X128325524Y-98496476D01*
X128230286Y-98544095D01*
X143454381Y-74398095D02*
X142454381Y-74398095D01*
X142454381Y-74017142D01*
X142502000Y-73921904D01*
X142549619Y-73874285D01*
X142644857Y-73826666D01*
X142787714Y-73826666D01*
X142882952Y-73874285D01*
X142930571Y-73921904D01*
X142978190Y-74017142D01*
X142978190Y-74398095D01*
X143454381Y-72874285D02*
X143454381Y-73445714D01*
X143454381Y-73160000D02*
X142454381Y-73160000D01*
X142597238Y-73255238D01*
X142692476Y-73350476D01*
X142740095Y-73445714D01*
X143454381Y-84558095D02*
X142454381Y-84558095D01*
X142454381Y-84177142D01*
X142502000Y-84081904D01*
X142549619Y-84034285D01*
X142644857Y-83986666D01*
X142787714Y-83986666D01*
X142882952Y-84034285D01*
X142930571Y-84081904D01*
X142978190Y-84177142D01*
X142978190Y-84558095D01*
X142549619Y-83605714D02*
X142502000Y-83558095D01*
X142454381Y-83462857D01*
X142454381Y-83224761D01*
X142502000Y-83129523D01*
X142549619Y-83081904D01*
X142644857Y-83034285D01*
X142740095Y-83034285D01*
X142882952Y-83081904D01*
X143454381Y-83653333D01*
X143454381Y-83034285D01*
M02*
