%TF.GenerationSoftware,KiCad,Pcbnew,5.1.9+dfsg1-1+deb11u1*%
%TF.CreationDate,2025-07-24T09:20:50+02:00*%
%TF.ProjectId,ECI-Breakout,4543492d-4272-4656-916b-6f75742e6b69,1.1*%
%TF.SameCoordinates,Original*%
%TF.FileFunction,Legend,Top*%
%TF.FilePolarity,Positive*%
%FSLAX46Y46*%
G04 Gerber Fmt 4.6, Leading zero omitted, Abs format (unit mm)*
G04 Created by KiCad (PCBNEW 5.1.9+dfsg1-1+deb11u1) date 2025-07-24 09:20:50*
%MOMM*%
%LPD*%
G01*
G04 APERTURE LIST*
%ADD10C,0.200000*%
%ADD11C,0.100000*%
%ADD12C,0.120000*%
%ADD13C,0.150000*%
G04 APERTURE END LIST*
D10*
X122288750Y-92081333D02*
X122669702Y-92081333D01*
X122183988Y-92309904D02*
X122550654Y-91509904D01*
X122717321Y-92309904D01*
X122969702Y-91509904D02*
X123426845Y-91509904D01*
X123098273Y-92309904D02*
X123198273Y-91509904D01*
X123583988Y-92081333D02*
X123964940Y-92081333D01*
X123479226Y-92309904D02*
X123845892Y-91509904D01*
X124012559Y-92309904D01*
X124736369Y-92309904D02*
X124517321Y-91928952D01*
X124279226Y-92309904D02*
X124379226Y-91509904D01*
X124683988Y-91509904D01*
X124755416Y-91548000D01*
X124788750Y-91586095D01*
X124817321Y-91662285D01*
X124803035Y-91776571D01*
X124755416Y-91852761D01*
X124712559Y-91890857D01*
X124631607Y-91928952D01*
X124326845Y-91928952D01*
X125079226Y-92309904D02*
X125179226Y-91509904D01*
X126488750Y-92309904D02*
X126031607Y-92309904D01*
X126260178Y-92309904D02*
X126360178Y-91509904D01*
X126269702Y-91624190D01*
X126183988Y-91700380D01*
X126103035Y-91738476D01*
X126855416Y-91509904D02*
X127350654Y-91509904D01*
X127045892Y-91814666D01*
X127160178Y-91814666D01*
X127231607Y-91852761D01*
X127264940Y-91890857D01*
X127293511Y-91967047D01*
X127269702Y-92157523D01*
X127222083Y-92233714D01*
X127179226Y-92271809D01*
X127098273Y-92309904D01*
X126869702Y-92309904D01*
X126798273Y-92271809D01*
X126764940Y-92233714D01*
X127845892Y-91509904D02*
X127922083Y-91509904D01*
X127993511Y-91548000D01*
X128026845Y-91586095D01*
X128055416Y-91662285D01*
X128074464Y-91814666D01*
X128050654Y-92005142D01*
X127993511Y-92157523D01*
X127945892Y-92233714D01*
X127903035Y-92271809D01*
X127822083Y-92309904D01*
X127745892Y-92309904D01*
X127674464Y-92271809D01*
X127641130Y-92233714D01*
X127612559Y-92157523D01*
X127593511Y-92005142D01*
X127617321Y-91814666D01*
X127674464Y-91662285D01*
X127722083Y-91586095D01*
X127764940Y-91548000D01*
X127845892Y-91509904D01*
X128379226Y-91509904D02*
X128812559Y-92309904D01*
X128912559Y-91509904D02*
X128279226Y-92309904D01*
X129169702Y-91890857D02*
X129436369Y-91890857D01*
X129498273Y-92309904D02*
X129117321Y-92309904D01*
X129217321Y-91509904D01*
X129598273Y-91509904D01*
X130769702Y-91890857D02*
X130879226Y-91928952D01*
X130912559Y-91967047D01*
X130941130Y-92043238D01*
X130926845Y-92157523D01*
X130879226Y-92233714D01*
X130836369Y-92271809D01*
X130755416Y-92309904D01*
X130450654Y-92309904D01*
X130550654Y-91509904D01*
X130817321Y-91509904D01*
X130888750Y-91548000D01*
X130922083Y-91586095D01*
X130950654Y-91662285D01*
X130941130Y-91738476D01*
X130893511Y-91814666D01*
X130850654Y-91852761D01*
X130769702Y-91890857D01*
X130503035Y-91890857D01*
X131707797Y-92309904D02*
X131488750Y-91928952D01*
X131250654Y-92309904D02*
X131350654Y-91509904D01*
X131655416Y-91509904D01*
X131726845Y-91548000D01*
X131760178Y-91586095D01*
X131788750Y-91662285D01*
X131774464Y-91776571D01*
X131726845Y-91852761D01*
X131683988Y-91890857D01*
X131603035Y-91928952D01*
X131298273Y-91928952D01*
X132103035Y-91890857D02*
X132369702Y-91890857D01*
X132431607Y-92309904D02*
X132050654Y-92309904D01*
X132150654Y-91509904D01*
X132531607Y-91509904D01*
X132764940Y-92081333D02*
X133145892Y-92081333D01*
X132660178Y-92309904D02*
X133026845Y-91509904D01*
X133193511Y-92309904D01*
X133460178Y-92309904D02*
X133560178Y-91509904D01*
X133917321Y-92309904D02*
X133631607Y-91852761D01*
X134017321Y-91509904D02*
X133503035Y-91967047D01*
X134512559Y-91509904D02*
X134664940Y-91509904D01*
X134736369Y-91548000D01*
X134803035Y-91624190D01*
X134822083Y-91776571D01*
X134788750Y-92043238D01*
X134731607Y-92195619D01*
X134645892Y-92271809D01*
X134564940Y-92309904D01*
X134412559Y-92309904D01*
X134341130Y-92271809D01*
X134274464Y-92195619D01*
X134255416Y-92043238D01*
X134288750Y-91776571D01*
X134345892Y-91624190D01*
X134431607Y-91548000D01*
X134512559Y-91509904D01*
X135198273Y-91509904D02*
X135117321Y-92157523D01*
X135145892Y-92233714D01*
X135179226Y-92271809D01*
X135250654Y-92309904D01*
X135403035Y-92309904D01*
X135483988Y-92271809D01*
X135526845Y-92233714D01*
X135574464Y-92157523D01*
X135655416Y-91509904D01*
X135922083Y-91509904D02*
X136379226Y-91509904D01*
X136050654Y-92309904D02*
X136150654Y-91509904D01*
X137207797Y-91890857D02*
X137474464Y-91890857D01*
X137536369Y-92309904D02*
X137155416Y-92309904D01*
X137255416Y-91509904D01*
X137636369Y-91509904D01*
X138345892Y-92233714D02*
X138303035Y-92271809D01*
X138183988Y-92309904D01*
X138107797Y-92309904D01*
X137998273Y-92271809D01*
X137931607Y-92195619D01*
X137903035Y-92119428D01*
X137883988Y-91967047D01*
X137898273Y-91852761D01*
X137955416Y-91700380D01*
X138003035Y-91624190D01*
X138088750Y-91548000D01*
X138207797Y-91509904D01*
X138283988Y-91509904D01*
X138393511Y-91548000D01*
X138426845Y-91586095D01*
X138679226Y-92309904D02*
X138779226Y-91509904D01*
X139988750Y-91890857D02*
X140098273Y-91928952D01*
X140131607Y-91967047D01*
X140160178Y-92043238D01*
X140145892Y-92157523D01*
X140098273Y-92233714D01*
X140055416Y-92271809D01*
X139974464Y-92309904D01*
X139669702Y-92309904D01*
X139769702Y-91509904D01*
X140036369Y-91509904D01*
X140107797Y-91548000D01*
X140141130Y-91586095D01*
X140169702Y-91662285D01*
X140160178Y-91738476D01*
X140112559Y-91814666D01*
X140069702Y-91852761D01*
X139988750Y-91890857D01*
X139722083Y-91890857D01*
X140569702Y-91509904D02*
X140488750Y-92157523D01*
X140517321Y-92233714D01*
X140550654Y-92271809D01*
X140622083Y-92309904D01*
X140774464Y-92309904D01*
X140855416Y-92271809D01*
X140898273Y-92233714D01*
X140945892Y-92157523D01*
X141026845Y-91509904D01*
X141274464Y-92271809D02*
X141383988Y-92309904D01*
X141574464Y-92309904D01*
X141655416Y-92271809D01*
X141698273Y-92233714D01*
X141745892Y-92157523D01*
X141755416Y-92081333D01*
X141726845Y-92005142D01*
X141693511Y-91967047D01*
X141622083Y-91928952D01*
X141474464Y-91890857D01*
X141403035Y-91852761D01*
X141369702Y-91814666D01*
X141341130Y-91738476D01*
X141350654Y-91662285D01*
X141398273Y-91586095D01*
X141441130Y-91548000D01*
X141522083Y-91509904D01*
X141712559Y-91509904D01*
X141822083Y-91548000D01*
D11*
X138850000Y-81509904D02*
X138850000Y-80605142D01*
X139628571Y-81271809D02*
X139628571Y-80938476D01*
X140152380Y-80795619D02*
X140152380Y-81271809D01*
X139152380Y-81271809D01*
X139152380Y-80795619D01*
X138850000Y-80605142D02*
X138850000Y-79652761D01*
X139152380Y-80462285D02*
X140152380Y-79795619D01*
X139152380Y-79795619D02*
X140152380Y-80462285D01*
X138850000Y-79652761D02*
X138850000Y-78700380D01*
X140104761Y-79462285D02*
X140152380Y-79319428D01*
X140152380Y-79081333D01*
X140104761Y-78986095D01*
X140057142Y-78938476D01*
X139961904Y-78890857D01*
X139866666Y-78890857D01*
X139771428Y-78938476D01*
X139723809Y-78986095D01*
X139676190Y-79081333D01*
X139628571Y-79271809D01*
X139580952Y-79367047D01*
X139533333Y-79414666D01*
X139438095Y-79462285D01*
X139342857Y-79462285D01*
X139247619Y-79414666D01*
X139200000Y-79367047D01*
X139152380Y-79271809D01*
X139152380Y-79033714D01*
X139200000Y-78890857D01*
X138850000Y-78700380D02*
X138850000Y-77795619D01*
X139628571Y-78462285D02*
X139628571Y-78128952D01*
X140152380Y-77986095D02*
X140152380Y-78462285D01*
X139152380Y-78462285D01*
X139152380Y-77986095D01*
X138850000Y-77795619D02*
X138850000Y-76986095D01*
X140152380Y-77081333D02*
X140152380Y-77557523D01*
X139152380Y-77557523D01*
X136310000Y-81621142D02*
X136310000Y-80621142D01*
X137612380Y-80811619D02*
X137136190Y-81144952D01*
X137612380Y-81383047D02*
X136612380Y-81383047D01*
X136612380Y-81002095D01*
X136660000Y-80906857D01*
X136707619Y-80859238D01*
X136802857Y-80811619D01*
X136945714Y-80811619D01*
X137040952Y-80859238D01*
X137088571Y-80906857D01*
X137136190Y-81002095D01*
X137136190Y-81383047D01*
X136310000Y-80621142D02*
X136310000Y-79668761D01*
X137564761Y-80430666D02*
X137612380Y-80287809D01*
X137612380Y-80049714D01*
X137564761Y-79954476D01*
X137517142Y-79906857D01*
X137421904Y-79859238D01*
X137326666Y-79859238D01*
X137231428Y-79906857D01*
X137183809Y-79954476D01*
X137136190Y-80049714D01*
X137088571Y-80240190D01*
X137040952Y-80335428D01*
X136993333Y-80383047D01*
X136898095Y-80430666D01*
X136802857Y-80430666D01*
X136707619Y-80383047D01*
X136660000Y-80335428D01*
X136612380Y-80240190D01*
X136612380Y-80002095D01*
X136660000Y-79859238D01*
X136310000Y-79668761D02*
X136310000Y-78906857D01*
X136612380Y-79573523D02*
X136612380Y-79002095D01*
X137612380Y-79287809D02*
X136612380Y-79287809D01*
X133770000Y-81684571D02*
X133770000Y-80684571D01*
X135072380Y-81446476D02*
X134072380Y-81446476D01*
X134072380Y-81208380D01*
X134120000Y-81065523D01*
X134215238Y-80970285D01*
X134310476Y-80922666D01*
X134500952Y-80875047D01*
X134643809Y-80875047D01*
X134834285Y-80922666D01*
X134929523Y-80970285D01*
X135024761Y-81065523D01*
X135072380Y-81208380D01*
X135072380Y-81446476D01*
X133770000Y-80684571D02*
X133770000Y-79732190D01*
X135072380Y-79922666D02*
X135072380Y-80494095D01*
X135072380Y-80208380D02*
X134072380Y-80208380D01*
X134215238Y-80303619D01*
X134310476Y-80398857D01*
X134358095Y-80494095D01*
X133770000Y-79732190D02*
X133770000Y-78779809D01*
X134072380Y-79589333D02*
X135072380Y-78922666D01*
X134072380Y-78922666D02*
X135072380Y-79589333D01*
X133770000Y-78779809D02*
X133770000Y-77827428D01*
X134072380Y-78636952D02*
X135072380Y-77970285D01*
X134072380Y-77970285D02*
X135072380Y-78636952D01*
X131230000Y-81327428D02*
X131230000Y-80184571D01*
X132532380Y-81089333D02*
X131532380Y-81089333D01*
X132246666Y-80756000D01*
X131532380Y-80422666D01*
X132532380Y-80422666D01*
X131230000Y-80184571D02*
X131230000Y-79184571D01*
X132532380Y-79946476D02*
X131532380Y-79946476D01*
X131532380Y-79565523D01*
X131580000Y-79470285D01*
X131627619Y-79422666D01*
X131722857Y-79375047D01*
X131865714Y-79375047D01*
X131960952Y-79422666D01*
X132008571Y-79470285D01*
X132056190Y-79565523D01*
X132056190Y-79946476D01*
X131230000Y-79184571D02*
X131230000Y-78184571D01*
X132532380Y-78946476D02*
X131532380Y-78946476D01*
X131532380Y-78708380D01*
X131580000Y-78565523D01*
X131675238Y-78470285D01*
X131770476Y-78422666D01*
X131960952Y-78375047D01*
X132103809Y-78375047D01*
X132294285Y-78422666D01*
X132389523Y-78470285D01*
X132484761Y-78565523D01*
X132532380Y-78708380D01*
X132532380Y-78946476D01*
X129706666Y-81271809D02*
X129706666Y-80795619D01*
X129992380Y-81367047D02*
X128992380Y-81033714D01*
X129992380Y-80700380D01*
X128992380Y-80367047D02*
X129801904Y-80367047D01*
X129897142Y-80319428D01*
X129944761Y-80271809D01*
X129992380Y-80176571D01*
X129992380Y-79986095D01*
X129944761Y-79890857D01*
X129897142Y-79843238D01*
X129801904Y-79795619D01*
X128992380Y-79795619D01*
X129992380Y-79319428D02*
X128992380Y-79319428D01*
X128992380Y-79081333D01*
X129040000Y-78938476D01*
X129135238Y-78843238D01*
X129230476Y-78795619D01*
X129420952Y-78748000D01*
X129563809Y-78748000D01*
X129754285Y-78795619D01*
X129849523Y-78843238D01*
X129944761Y-78938476D01*
X129992380Y-79081333D01*
X129992380Y-79319428D01*
X129992380Y-78319428D02*
X128992380Y-78319428D01*
X128992380Y-77652761D02*
X128992380Y-77462285D01*
X129040000Y-77367047D01*
X129135238Y-77271809D01*
X129325714Y-77224190D01*
X129659047Y-77224190D01*
X129849523Y-77271809D01*
X129944761Y-77367047D01*
X129992380Y-77462285D01*
X129992380Y-77652761D01*
X129944761Y-77748000D01*
X129849523Y-77843238D01*
X129659047Y-77890857D01*
X129325714Y-77890857D01*
X129135238Y-77843238D01*
X129040000Y-77748000D01*
X128992380Y-77652761D01*
X126150000Y-81644952D02*
X126150000Y-80644952D01*
X127452380Y-80835428D02*
X126976190Y-81168761D01*
X127452380Y-81406857D02*
X126452380Y-81406857D01*
X126452380Y-81025904D01*
X126500000Y-80930666D01*
X126547619Y-80883047D01*
X126642857Y-80835428D01*
X126785714Y-80835428D01*
X126880952Y-80883047D01*
X126928571Y-80930666D01*
X126976190Y-81025904D01*
X126976190Y-81406857D01*
X126150000Y-80644952D02*
X126150000Y-79740190D01*
X126928571Y-80406857D02*
X126928571Y-80073523D01*
X127452380Y-79930666D02*
X127452380Y-80406857D01*
X126452380Y-80406857D01*
X126452380Y-79930666D01*
X126150000Y-79740190D02*
X126150000Y-78883047D01*
X126928571Y-79168761D02*
X126928571Y-79502095D01*
X127452380Y-79502095D02*
X126452380Y-79502095D01*
X126452380Y-79025904D01*
X123912380Y-81597333D02*
X124912380Y-81264000D01*
X123912380Y-80930666D01*
X124817142Y-80025904D02*
X124864761Y-80073523D01*
X124912380Y-80216380D01*
X124912380Y-80311619D01*
X124864761Y-80454476D01*
X124769523Y-80549714D01*
X124674285Y-80597333D01*
X124483809Y-80644952D01*
X124340952Y-80644952D01*
X124150476Y-80597333D01*
X124055238Y-80549714D01*
X123960000Y-80454476D01*
X123912380Y-80311619D01*
X123912380Y-80216380D01*
X123960000Y-80073523D01*
X124007619Y-80025904D01*
X124817142Y-79025904D02*
X124864761Y-79073523D01*
X124912380Y-79216380D01*
X124912380Y-79311619D01*
X124864761Y-79454476D01*
X124769523Y-79549714D01*
X124674285Y-79597333D01*
X124483809Y-79644952D01*
X124340952Y-79644952D01*
X124150476Y-79597333D01*
X124055238Y-79549714D01*
X123960000Y-79454476D01*
X123912380Y-79311619D01*
X123912380Y-79216380D01*
X123960000Y-79073523D01*
X124007619Y-79025904D01*
X140152380Y-70889714D02*
X139152380Y-70889714D01*
X140152380Y-70318285D01*
X139152380Y-70318285D01*
X140057142Y-69270666D02*
X140104761Y-69318285D01*
X140152380Y-69461142D01*
X140152380Y-69556380D01*
X140104761Y-69699238D01*
X140009523Y-69794476D01*
X139914285Y-69842095D01*
X139723809Y-69889714D01*
X139580952Y-69889714D01*
X139390476Y-69842095D01*
X139295238Y-69794476D01*
X139200000Y-69699238D01*
X139152380Y-69556380D01*
X139152380Y-69461142D01*
X139200000Y-69318285D01*
X139247619Y-69270666D01*
X136310000Y-71365904D02*
X136310000Y-70889714D01*
X137612380Y-71127809D02*
X136612380Y-71127809D01*
X136310000Y-70889714D02*
X136310000Y-69889714D01*
X137612380Y-70080190D02*
X137136190Y-70413523D01*
X137612380Y-70651619D02*
X136612380Y-70651619D01*
X136612380Y-70270666D01*
X136660000Y-70175428D01*
X136707619Y-70127809D01*
X136802857Y-70080190D01*
X136945714Y-70080190D01*
X137040952Y-70127809D01*
X137088571Y-70175428D01*
X137136190Y-70270666D01*
X137136190Y-70651619D01*
X136310000Y-69889714D02*
X136310000Y-68842095D01*
X137707619Y-68984952D02*
X137660000Y-69080190D01*
X137564761Y-69175428D01*
X137421904Y-69318285D01*
X137374285Y-69413523D01*
X137374285Y-69508761D01*
X137612380Y-69461142D02*
X137564761Y-69556380D01*
X137469523Y-69651619D01*
X137279047Y-69699238D01*
X136945714Y-69699238D01*
X136755238Y-69651619D01*
X136660000Y-69556380D01*
X136612380Y-69461142D01*
X136612380Y-69270666D01*
X136660000Y-69175428D01*
X136755238Y-69080190D01*
X136945714Y-69032571D01*
X137279047Y-69032571D01*
X137469523Y-69080190D01*
X137564761Y-69175428D01*
X137612380Y-69270666D01*
X137612380Y-69461142D01*
X133770000Y-71842095D02*
X133770000Y-70794476D01*
X135072380Y-71604000D02*
X134072380Y-71604000D01*
X134548571Y-71604000D02*
X134548571Y-71032571D01*
X135072380Y-71032571D02*
X134072380Y-71032571D01*
X133770000Y-70794476D02*
X133770000Y-69937333D01*
X134786666Y-70604000D02*
X134786666Y-70127809D01*
X135072380Y-70699238D02*
X134072380Y-70365904D01*
X135072380Y-70032571D01*
X133770000Y-69937333D02*
X133770000Y-69127809D01*
X135072380Y-69223047D02*
X135072380Y-69699238D01*
X134072380Y-69699238D01*
X133770000Y-69127809D02*
X133770000Y-68365904D01*
X134072380Y-69032571D02*
X134072380Y-68461142D01*
X135072380Y-68746857D02*
X134072380Y-68746857D01*
X132246666Y-71294476D02*
X132246666Y-70818285D01*
X132532380Y-71389714D02*
X131532380Y-71056380D01*
X132532380Y-70723047D01*
X132532380Y-69865904D02*
X132532380Y-70437333D01*
X132532380Y-70151619D02*
X131532380Y-70151619D01*
X131675238Y-70246857D01*
X131770476Y-70342095D01*
X131818095Y-70437333D01*
X131532380Y-69532571D02*
X131532380Y-68913523D01*
X131913333Y-69246857D01*
X131913333Y-69104000D01*
X131960952Y-69008761D01*
X132008571Y-68961142D01*
X132103809Y-68913523D01*
X132341904Y-68913523D01*
X132437142Y-68961142D01*
X132484761Y-69008761D01*
X132532380Y-69104000D01*
X132532380Y-69389714D01*
X132484761Y-69484952D01*
X132437142Y-69532571D01*
X129706666Y-71294476D02*
X129706666Y-70818285D01*
X129992380Y-71389714D02*
X128992380Y-71056380D01*
X129992380Y-70723047D01*
X129992380Y-69865904D02*
X129992380Y-70437333D01*
X129992380Y-70151619D02*
X128992380Y-70151619D01*
X129135238Y-70246857D01*
X129230476Y-70342095D01*
X129278095Y-70437333D01*
X129325714Y-69008761D02*
X129992380Y-69008761D01*
X128944761Y-69246857D02*
X129659047Y-69484952D01*
X129659047Y-68865904D01*
X127166666Y-71294476D02*
X127166666Y-70818285D01*
X127452380Y-71389714D02*
X126452380Y-71056380D01*
X127452380Y-70723047D01*
X127452380Y-69865904D02*
X127452380Y-70437333D01*
X127452380Y-70151619D02*
X126452380Y-70151619D01*
X126595238Y-70246857D01*
X126690476Y-70342095D01*
X126738095Y-70437333D01*
X126452380Y-68961142D02*
X126452380Y-69437333D01*
X126928571Y-69484952D01*
X126880952Y-69437333D01*
X126833333Y-69342095D01*
X126833333Y-69104000D01*
X126880952Y-69008761D01*
X126928571Y-68961142D01*
X127023809Y-68913523D01*
X127261904Y-68913523D01*
X127357142Y-68961142D01*
X127404761Y-69008761D01*
X127452380Y-69104000D01*
X127452380Y-69342095D01*
X127404761Y-69437333D01*
X127357142Y-69484952D01*
X123960000Y-70865904D02*
X123912380Y-70961142D01*
X123912380Y-71104000D01*
X123960000Y-71246857D01*
X124055238Y-71342095D01*
X124150476Y-71389714D01*
X124340952Y-71437333D01*
X124483809Y-71437333D01*
X124674285Y-71389714D01*
X124769523Y-71342095D01*
X124864761Y-71246857D01*
X124912380Y-71104000D01*
X124912380Y-71008761D01*
X124864761Y-70865904D01*
X124817142Y-70818285D01*
X124483809Y-70818285D01*
X124483809Y-71008761D01*
X124912380Y-70389714D02*
X123912380Y-70389714D01*
X124912380Y-69818285D01*
X123912380Y-69818285D01*
X124912380Y-69342095D02*
X123912380Y-69342095D01*
X123912380Y-69104000D01*
X123960000Y-68961142D01*
X124055238Y-68865904D01*
X124150476Y-68818285D01*
X124340952Y-68770666D01*
X124483809Y-68770666D01*
X124674285Y-68818285D01*
X124769523Y-68865904D01*
X124864761Y-68961142D01*
X124912380Y-69104000D01*
X124912380Y-69342095D01*
D12*
%TO.C,D1*%
X137305000Y-99815000D02*
X133420000Y-99815000D01*
X137305000Y-102085000D02*
X137305000Y-99815000D01*
X133420000Y-102085000D02*
X137305000Y-102085000D01*
%TO.C,P1*%
X140930000Y-71900000D02*
X140930000Y-73230000D01*
X139600000Y-71900000D02*
X140930000Y-71900000D01*
X138330000Y-71900000D02*
X138330000Y-74560000D01*
X138330000Y-74560000D02*
X123030000Y-74560000D01*
X138330000Y-71900000D02*
X123030000Y-71900000D01*
X123030000Y-71900000D02*
X123030000Y-74560000D01*
%TO.C,P2*%
X123030000Y-82500000D02*
X123030000Y-85160000D01*
X138330000Y-82500000D02*
X123030000Y-82500000D01*
X138330000Y-85160000D02*
X123030000Y-85160000D01*
X138330000Y-82500000D02*
X138330000Y-85160000D01*
X139600000Y-82500000D02*
X140930000Y-82500000D01*
X140930000Y-82500000D02*
X140930000Y-83830000D01*
%TO.C,R1*%
X126272936Y-101910000D02*
X127727064Y-101910000D01*
X126272936Y-100090000D02*
X127727064Y-100090000D01*
%TO.C,ECI1*%
D13*
X131131428Y-105466571D02*
X131464761Y-105466571D01*
X131607619Y-105990380D02*
X131131428Y-105990380D01*
X131131428Y-104990380D01*
X131607619Y-104990380D01*
X132607619Y-105895142D02*
X132560000Y-105942761D01*
X132417142Y-105990380D01*
X132321904Y-105990380D01*
X132179047Y-105942761D01*
X132083809Y-105847523D01*
X132036190Y-105752285D01*
X131988571Y-105561809D01*
X131988571Y-105418952D01*
X132036190Y-105228476D01*
X132083809Y-105133238D01*
X132179047Y-105038000D01*
X132321904Y-104990380D01*
X132417142Y-104990380D01*
X132560000Y-105038000D01*
X132607619Y-105085619D01*
X133036190Y-105990380D02*
X133036190Y-104990380D01*
X134036190Y-105990380D02*
X133464761Y-105990380D01*
X133750476Y-105990380D02*
X133750476Y-104990380D01*
X133655238Y-105133238D01*
X133560000Y-105228476D01*
X133464761Y-105276095D01*
X129931000Y-107008428D02*
X129681000Y-107008428D01*
X129681000Y-107401285D02*
X129681000Y-106651285D01*
X130038142Y-106651285D01*
X130323857Y-107401285D02*
X130323857Y-106901285D01*
X130323857Y-107044142D02*
X130359571Y-106972714D01*
X130395285Y-106937000D01*
X130466714Y-106901285D01*
X130538142Y-106901285D01*
X130895285Y-107401285D02*
X130823857Y-107365571D01*
X130788142Y-107329857D01*
X130752428Y-107258428D01*
X130752428Y-107044142D01*
X130788142Y-106972714D01*
X130823857Y-106937000D01*
X130895285Y-106901285D01*
X131002428Y-106901285D01*
X131073857Y-106937000D01*
X131109571Y-106972714D01*
X131145285Y-107044142D01*
X131145285Y-107258428D01*
X131109571Y-107329857D01*
X131073857Y-107365571D01*
X131002428Y-107401285D01*
X130895285Y-107401285D01*
X131466714Y-106901285D02*
X131466714Y-107401285D01*
X131466714Y-106972714D02*
X131502428Y-106937000D01*
X131573857Y-106901285D01*
X131681000Y-106901285D01*
X131752428Y-106937000D01*
X131788142Y-107008428D01*
X131788142Y-107401285D01*
X132038142Y-106901285D02*
X132323857Y-106901285D01*
X132145285Y-106651285D02*
X132145285Y-107294142D01*
X132181000Y-107365571D01*
X132252428Y-107401285D01*
X132323857Y-107401285D01*
X133109571Y-106615571D02*
X132466714Y-107579857D01*
X133252428Y-106651285D02*
X133681000Y-106651285D01*
X133466714Y-107401285D02*
X133466714Y-106651285D01*
X134038142Y-107401285D02*
X133966714Y-107365571D01*
X133931000Y-107329857D01*
X133895285Y-107258428D01*
X133895285Y-107044142D01*
X133931000Y-106972714D01*
X133966714Y-106937000D01*
X134038142Y-106901285D01*
X134145285Y-106901285D01*
X134216714Y-106937000D01*
X134252428Y-106972714D01*
X134288142Y-107044142D01*
X134288142Y-107258428D01*
X134252428Y-107329857D01*
X134216714Y-107365571D01*
X134145285Y-107401285D01*
X134038142Y-107401285D01*
X134609571Y-106901285D02*
X134609571Y-107651285D01*
X134609571Y-106937000D02*
X134681000Y-106901285D01*
X134823857Y-106901285D01*
X134895285Y-106937000D01*
X134931000Y-106972714D01*
X134966714Y-107044142D01*
X134966714Y-107258428D01*
X134931000Y-107329857D01*
X134895285Y-107365571D01*
X134823857Y-107401285D01*
X134681000Y-107401285D01*
X134609571Y-107365571D01*
X123963714Y-106131285D02*
X123963714Y-105381285D01*
X123963714Y-105738428D02*
X124392285Y-105738428D01*
X124392285Y-106131285D02*
X124392285Y-105381285D01*
X139493428Y-105917000D02*
X139850571Y-105917000D01*
X139422000Y-106131285D02*
X139672000Y-105381285D01*
X139922000Y-106131285D01*
X140011285Y-111494857D02*
X139654142Y-111744857D01*
X140011285Y-111923428D02*
X139261285Y-111923428D01*
X139261285Y-111637714D01*
X139297000Y-111566285D01*
X139332714Y-111530571D01*
X139404142Y-111494857D01*
X139511285Y-111494857D01*
X139582714Y-111530571D01*
X139618428Y-111566285D01*
X139654142Y-111637714D01*
X139654142Y-111923428D01*
X139975571Y-110887714D02*
X140011285Y-110959142D01*
X140011285Y-111102000D01*
X139975571Y-111173428D01*
X139904142Y-111209142D01*
X139618428Y-111209142D01*
X139547000Y-111173428D01*
X139511285Y-111102000D01*
X139511285Y-110959142D01*
X139547000Y-110887714D01*
X139618428Y-110852000D01*
X139689857Y-110852000D01*
X139761285Y-111209142D01*
X139975571Y-110566285D02*
X140011285Y-110494857D01*
X140011285Y-110352000D01*
X139975571Y-110280571D01*
X139904142Y-110244857D01*
X139868428Y-110244857D01*
X139797000Y-110280571D01*
X139761285Y-110352000D01*
X139761285Y-110459142D01*
X139725571Y-110530571D01*
X139654142Y-110566285D01*
X139618428Y-110566285D01*
X139547000Y-110530571D01*
X139511285Y-110459142D01*
X139511285Y-110352000D01*
X139547000Y-110280571D01*
X139975571Y-109637714D02*
X140011285Y-109709142D01*
X140011285Y-109852000D01*
X139975571Y-109923428D01*
X139904142Y-109959142D01*
X139618428Y-109959142D01*
X139547000Y-109923428D01*
X139511285Y-109852000D01*
X139511285Y-109709142D01*
X139547000Y-109637714D01*
X139618428Y-109602000D01*
X139689857Y-109602000D01*
X139761285Y-109959142D01*
X140011285Y-109280571D02*
X139511285Y-109280571D01*
X139654142Y-109280571D02*
X139582714Y-109244857D01*
X139547000Y-109209142D01*
X139511285Y-109137714D01*
X139511285Y-109066285D01*
X139511285Y-108887714D02*
X140011285Y-108709142D01*
X139511285Y-108530571D01*
X139975571Y-107959142D02*
X140011285Y-108030571D01*
X140011285Y-108173428D01*
X139975571Y-108244857D01*
X139904142Y-108280571D01*
X139618428Y-108280571D01*
X139547000Y-108244857D01*
X139511285Y-108173428D01*
X139511285Y-108030571D01*
X139547000Y-107959142D01*
X139618428Y-107923428D01*
X139689857Y-107923428D01*
X139761285Y-108280571D01*
X140011285Y-107280571D02*
X139261285Y-107280571D01*
X139975571Y-107280571D02*
X140011285Y-107352000D01*
X140011285Y-107494857D01*
X139975571Y-107566285D01*
X139939857Y-107602000D01*
X139868428Y-107637714D01*
X139654142Y-107637714D01*
X139582714Y-107602000D01*
X139547000Y-107566285D01*
X139511285Y-107494857D01*
X139511285Y-107352000D01*
X139547000Y-107280571D01*
X136217000Y-111879904D02*
X136217000Y-111403714D01*
X137584380Y-111641809D02*
X136584380Y-111641809D01*
X136217000Y-111403714D02*
X136217000Y-110403714D01*
X137584380Y-110594190D02*
X137108190Y-110927523D01*
X137584380Y-111165619D02*
X136584380Y-111165619D01*
X136584380Y-110784666D01*
X136632000Y-110689428D01*
X136679619Y-110641809D01*
X136774857Y-110594190D01*
X136917714Y-110594190D01*
X137012952Y-110641809D01*
X137060571Y-110689428D01*
X137108190Y-110784666D01*
X137108190Y-111165619D01*
X136217000Y-110403714D02*
X136217000Y-109356095D01*
X137679619Y-109498952D02*
X137632000Y-109594190D01*
X137536761Y-109689428D01*
X137393904Y-109832285D01*
X137346285Y-109927523D01*
X137346285Y-110022761D01*
X137584380Y-109975142D02*
X137536761Y-110070380D01*
X137441523Y-110165619D01*
X137251047Y-110213238D01*
X136917714Y-110213238D01*
X136727238Y-110165619D01*
X136632000Y-110070380D01*
X136584380Y-109975142D01*
X136584380Y-109784666D01*
X136632000Y-109689428D01*
X136727238Y-109594190D01*
X136917714Y-109546571D01*
X137251047Y-109546571D01*
X137441523Y-109594190D01*
X137536761Y-109689428D01*
X137584380Y-109784666D01*
X137584380Y-109975142D01*
X133423000Y-111848095D02*
X133423000Y-110800476D01*
X134790380Y-111610000D02*
X133790380Y-111610000D01*
X134266571Y-111610000D02*
X134266571Y-111038571D01*
X134790380Y-111038571D02*
X133790380Y-111038571D01*
X133423000Y-110800476D02*
X133423000Y-109943333D01*
X134504666Y-110610000D02*
X134504666Y-110133809D01*
X134790380Y-110705238D02*
X133790380Y-110371904D01*
X134790380Y-110038571D01*
X133423000Y-109943333D02*
X133423000Y-109133809D01*
X134790380Y-109229047D02*
X134790380Y-109705238D01*
X133790380Y-109705238D01*
X133423000Y-109133809D02*
X133423000Y-108371904D01*
X133790380Y-109038571D02*
X133790380Y-108467142D01*
X134790380Y-108752857D02*
X133790380Y-108752857D01*
X132218666Y-111808476D02*
X132218666Y-111332285D01*
X132504380Y-111903714D02*
X131504380Y-111570380D01*
X132504380Y-111237047D01*
X132504380Y-110379904D02*
X132504380Y-110951333D01*
X132504380Y-110665619D02*
X131504380Y-110665619D01*
X131647238Y-110760857D01*
X131742476Y-110856095D01*
X131790095Y-110951333D01*
X131504380Y-110046571D02*
X131504380Y-109427523D01*
X131885333Y-109760857D01*
X131885333Y-109618000D01*
X131932952Y-109522761D01*
X131980571Y-109475142D01*
X132075809Y-109427523D01*
X132313904Y-109427523D01*
X132409142Y-109475142D01*
X132456761Y-109522761D01*
X132504380Y-109618000D01*
X132504380Y-109903714D01*
X132456761Y-109998952D01*
X132409142Y-110046571D01*
X129678666Y-111808476D02*
X129678666Y-111332285D01*
X129964380Y-111903714D02*
X128964380Y-111570380D01*
X129964380Y-111237047D01*
X129964380Y-110379904D02*
X129964380Y-110951333D01*
X129964380Y-110665619D02*
X128964380Y-110665619D01*
X129107238Y-110760857D01*
X129202476Y-110856095D01*
X129250095Y-110951333D01*
X129297714Y-109522761D02*
X129964380Y-109522761D01*
X128916761Y-109760857D02*
X129631047Y-109998952D01*
X129631047Y-109379904D01*
X127138666Y-111808476D02*
X127138666Y-111332285D01*
X127424380Y-111903714D02*
X126424380Y-111570380D01*
X127424380Y-111237047D01*
X127424380Y-110379904D02*
X127424380Y-110951333D01*
X127424380Y-110665619D02*
X126424380Y-110665619D01*
X126567238Y-110760857D01*
X126662476Y-110856095D01*
X126710095Y-110951333D01*
X126424380Y-109475142D02*
X126424380Y-109951333D01*
X126900571Y-109998952D01*
X126852952Y-109951333D01*
X126805333Y-109856095D01*
X126805333Y-109618000D01*
X126852952Y-109522761D01*
X126900571Y-109475142D01*
X126995809Y-109427523D01*
X127233904Y-109427523D01*
X127329142Y-109475142D01*
X127376761Y-109522761D01*
X127424380Y-109618000D01*
X127424380Y-109856095D01*
X127376761Y-109951333D01*
X127329142Y-109998952D01*
X123932000Y-111125904D02*
X123884380Y-111221142D01*
X123884380Y-111364000D01*
X123932000Y-111506857D01*
X124027238Y-111602095D01*
X124122476Y-111649714D01*
X124312952Y-111697333D01*
X124455809Y-111697333D01*
X124646285Y-111649714D01*
X124741523Y-111602095D01*
X124836761Y-111506857D01*
X124884380Y-111364000D01*
X124884380Y-111268761D01*
X124836761Y-111125904D01*
X124789142Y-111078285D01*
X124455809Y-111078285D01*
X124455809Y-111268761D01*
X124884380Y-110649714D02*
X123884380Y-110649714D01*
X124884380Y-110078285D01*
X123884380Y-110078285D01*
X124884380Y-109602095D02*
X123884380Y-109602095D01*
X123884380Y-109364000D01*
X123932000Y-109221142D01*
X124027238Y-109125904D01*
X124122476Y-109078285D01*
X124312952Y-109030666D01*
X124455809Y-109030666D01*
X124646285Y-109078285D01*
X124741523Y-109125904D01*
X124836761Y-109221142D01*
X124884380Y-109364000D01*
X124884380Y-109602095D01*
%TO.C,D1*%
X133951904Y-99502380D02*
X133951904Y-98502380D01*
X134190000Y-98502380D01*
X134332857Y-98550000D01*
X134428095Y-98645238D01*
X134475714Y-98740476D01*
X134523333Y-98930952D01*
X134523333Y-99073809D01*
X134475714Y-99264285D01*
X134428095Y-99359523D01*
X134332857Y-99454761D01*
X134190000Y-99502380D01*
X133951904Y-99502380D01*
X135475714Y-99502380D02*
X134904285Y-99502380D01*
X135190000Y-99502380D02*
X135190000Y-98502380D01*
X135094761Y-98645238D01*
X134999523Y-98740476D01*
X134904285Y-98788095D01*
%TO.C,P1*%
X142382380Y-73968095D02*
X141382380Y-73968095D01*
X141382380Y-73587142D01*
X141430000Y-73491904D01*
X141477619Y-73444285D01*
X141572857Y-73396666D01*
X141715714Y-73396666D01*
X141810952Y-73444285D01*
X141858571Y-73491904D01*
X141906190Y-73587142D01*
X141906190Y-73968095D01*
X142382380Y-72444285D02*
X142382380Y-73015714D01*
X142382380Y-72730000D02*
X141382380Y-72730000D01*
X141525238Y-72825238D01*
X141620476Y-72920476D01*
X141668095Y-73015714D01*
%TO.C,P2*%
X142382380Y-84568095D02*
X141382380Y-84568095D01*
X141382380Y-84187142D01*
X141430000Y-84091904D01*
X141477619Y-84044285D01*
X141572857Y-83996666D01*
X141715714Y-83996666D01*
X141810952Y-84044285D01*
X141858571Y-84091904D01*
X141906190Y-84187142D01*
X141906190Y-84568095D01*
X141477619Y-83615714D02*
X141430000Y-83568095D01*
X141382380Y-83472857D01*
X141382380Y-83234761D01*
X141430000Y-83139523D01*
X141477619Y-83091904D01*
X141572857Y-83044285D01*
X141668095Y-83044285D01*
X141810952Y-83091904D01*
X142382380Y-83663333D01*
X142382380Y-83044285D01*
%TO.C,R1*%
X126833333Y-99632380D02*
X126500000Y-99156190D01*
X126261904Y-99632380D02*
X126261904Y-98632380D01*
X126642857Y-98632380D01*
X126738095Y-98680000D01*
X126785714Y-98727619D01*
X126833333Y-98822857D01*
X126833333Y-98965714D01*
X126785714Y-99060952D01*
X126738095Y-99108571D01*
X126642857Y-99156190D01*
X126261904Y-99156190D01*
X127785714Y-99632380D02*
X127214285Y-99632380D01*
X127500000Y-99632380D02*
X127500000Y-98632380D01*
X127404761Y-98775238D01*
X127309523Y-98870476D01*
X127214285Y-98918095D01*
%TD*%
M02*
