%TF.GenerationSoftware,KiCad,Pcbnew,5.1.9+dfsg1-1+deb11u1*%
%TF.CreationDate,2025-07-24T09:20:50+02:00*%
%TF.ProjectId,ECI-Breakout,4543492d-4272-4656-916b-6f75742e6b69,1.1*%
%TF.SameCoordinates,Original*%
%TF.FileFunction,Copper,L1,Top*%
%TF.FilePolarity,Positive*%
%FSLAX46Y46*%
G04 Gerber Fmt 4.6, Leading zero omitted, Abs format (unit mm)*
G04 Created by KiCad (PCBNEW 5.1.9+dfsg1-1+deb11u1) date 2025-07-24 09:20:50*
%MOMM*%
%LPD*%
G01*
G04 APERTURE LIST*
%TA.AperFunction,SMDPad,CuDef*%
%ADD10R,1.930400X5.588000*%
%TD*%
%TA.AperFunction,ComponentPad*%
%ADD11R,1.700000X1.700000*%
%TD*%
%TA.AperFunction,ComponentPad*%
%ADD12O,1.700000X1.700000*%
%TD*%
%TA.AperFunction,ViaPad*%
%ADD13C,0.600000*%
%TD*%
%TA.AperFunction,Conductor*%
%ADD14C,0.500000*%
%TD*%
%TA.AperFunction,Conductor*%
%ADD15C,0.254000*%
%TD*%
%TA.AperFunction,Conductor*%
%ADD16C,0.100000*%
%TD*%
%TA.AperFunction,Conductor*%
%ADD17C,0.025400*%
%TD*%
G04 APERTURE END LIST*
D10*
%TO.P,ECI1,A*%
%TO.N,/RSRVD*%
X139672000Y-115190000D03*
%TO.P,ECI1,B*%
%TO.N,/~IRQ*%
X137132000Y-115190000D03*
%TO.P,ECI1,C*%
%TO.N,/~HALT*%
X134592000Y-115190000D03*
%TO.P,ECI1,D*%
%TO.N,/A13*%
X132052000Y-115190000D03*
%TO.P,ECI1,E*%
%TO.N,/A14*%
X129512000Y-115190000D03*
%TO.P,ECI1,F*%
%TO.N,/A15*%
X126972000Y-115190000D03*
%TO.P,ECI1,H*%
%TO.N,GND*%
X124432000Y-115190000D03*
%TD*%
%TO.P,D1,1*%
%TO.N,GND*%
%TA.AperFunction,SMDPad,CuDef*%
G36*
G01*
X137045000Y-100325000D02*
X137045000Y-101575000D01*
G75*
G02*
X136795000Y-101825000I-250000J0D01*
G01*
X136045000Y-101825000D01*
G75*
G02*
X135795000Y-101575000I0J250000D01*
G01*
X135795000Y-100325000D01*
G75*
G02*
X136045000Y-100075000I250000J0D01*
G01*
X136795000Y-100075000D01*
G75*
G02*
X137045000Y-100325000I0J-250000D01*
G01*
G37*
%TD.AperFunction*%
%TO.P,D1,2*%
%TO.N,Net-(D1-Pad2)*%
%TA.AperFunction,SMDPad,CuDef*%
G36*
G01*
X134245000Y-100325000D02*
X134245000Y-101575000D01*
G75*
G02*
X133995000Y-101825000I-250000J0D01*
G01*
X133245000Y-101825000D01*
G75*
G02*
X132995000Y-101575000I0J250000D01*
G01*
X132995000Y-100325000D01*
G75*
G02*
X133245000Y-100075000I250000J0D01*
G01*
X133995000Y-100075000D01*
G75*
G02*
X134245000Y-100325000I0J-250000D01*
G01*
G37*
%TD.AperFunction*%
%TD*%
D11*
%TO.P,P1,1*%
%TO.N,/RSRVD*%
X139600000Y-73230000D03*
D12*
%TO.P,P1,2*%
%TO.N,/~IRQ*%
X137060000Y-73230000D03*
%TO.P,P1,3*%
%TO.N,/~HALT*%
X134520000Y-73230000D03*
%TO.P,P1,4*%
%TO.N,/A13*%
X131980000Y-73230000D03*
%TO.P,P1,5*%
%TO.N,/A14*%
X129440000Y-73230000D03*
%TO.P,P1,6*%
%TO.N,/A15*%
X126900000Y-73230000D03*
%TO.P,P1,7*%
%TO.N,GND*%
X124360000Y-73230000D03*
%TD*%
%TO.P,P2,7*%
%TO.N,VCC*%
X124360000Y-83830000D03*
%TO.P,P2,6*%
%TO.N,/~REF*%
X126900000Y-83830000D03*
%TO.P,P2,5*%
%TO.N,/AUDIO*%
X129440000Y-83830000D03*
%TO.P,P2,4*%
%TO.N,/~MPD*%
X131980000Y-83830000D03*
%TO.P,P2,3*%
%TO.N,/~D1XX*%
X134520000Y-83830000D03*
%TO.P,P2,2*%
%TO.N,/~RST*%
X137060000Y-83830000D03*
D11*
%TO.P,P2,1*%
%TO.N,/~EXSEL*%
X139600000Y-83830000D03*
%TD*%
%TO.P,R1,1*%
%TO.N,VCC*%
%TA.AperFunction,SMDPad,CuDef*%
G36*
G01*
X124800000Y-101625001D02*
X124800000Y-100374999D01*
G75*
G02*
X125049999Y-100125000I249999J0D01*
G01*
X125850001Y-100125000D01*
G75*
G02*
X126100000Y-100374999I0J-249999D01*
G01*
X126100000Y-101625001D01*
G75*
G02*
X125850001Y-101875000I-249999J0D01*
G01*
X125049999Y-101875000D01*
G75*
G02*
X124800000Y-101625001I0J249999D01*
G01*
G37*
%TD.AperFunction*%
%TO.P,R1,2*%
%TO.N,Net-(D1-Pad2)*%
%TA.AperFunction,SMDPad,CuDef*%
G36*
G01*
X127900000Y-101625001D02*
X127900000Y-100374999D01*
G75*
G02*
X128149999Y-100125000I249999J0D01*
G01*
X128950001Y-100125000D01*
G75*
G02*
X129200000Y-100374999I0J-249999D01*
G01*
X129200000Y-101625001D01*
G75*
G02*
X128950001Y-101875000I-249999J0D01*
G01*
X128149999Y-101875000D01*
G75*
G02*
X127900000Y-101625001I0J249999D01*
G01*
G37*
%TD.AperFunction*%
%TD*%
D13*
%TO.N,GND*%
X123363500Y-105899900D03*
X124739990Y-98205300D03*
%TD*%
D14*
%TO.N,Net-(D1-Pad2)*%
X133570000Y-101000000D02*
X133620000Y-100950000D01*
X128550000Y-101000000D02*
X133570000Y-101000000D01*
%TO.N,GND*%
X123363500Y-110827500D02*
X124432000Y-111896000D01*
X123363500Y-105899900D02*
X123363500Y-110827500D01*
X124432000Y-115190000D02*
X124432000Y-111896000D01*
X136420000Y-100950000D02*
X136420000Y-99270000D01*
X136420000Y-99270000D02*
X135355300Y-98205300D01*
X135355300Y-98205300D02*
X124739990Y-98205300D01*
%TO.N,VCC*%
X123989988Y-97845298D02*
X123989988Y-99989988D01*
X123989988Y-99989988D02*
X125000000Y-101000000D01*
X124460000Y-97375286D02*
X123989988Y-97845298D01*
X124460000Y-83820000D02*
X124460000Y-97375286D01*
%TO.N,/RSRVD*%
X139710000Y-73340000D02*
X139600000Y-73230000D01*
X139710000Y-74330000D02*
X139710000Y-73340000D01*
X143815600Y-78435600D02*
X139710000Y-74330000D01*
X143815600Y-97659300D02*
X143815600Y-78435600D01*
X141425300Y-100049600D02*
X143815600Y-97659300D01*
X141425300Y-110142700D02*
X141425300Y-100049600D01*
X139672000Y-111896000D02*
X141425300Y-110142700D01*
X139672000Y-115190000D02*
X139672000Y-111896000D01*
%TO.N,/~IRQ*%
X137060000Y-73530000D02*
X137060000Y-73230000D01*
X143115200Y-97195900D02*
X143115200Y-79585200D01*
X140725000Y-99586100D02*
X143115200Y-97195900D01*
X140725000Y-106462700D02*
X140725000Y-99586100D01*
X143115200Y-79585200D02*
X137060000Y-73530000D01*
X137132000Y-110055700D02*
X140725000Y-106462700D01*
X137132000Y-115190000D02*
X137132000Y-110055700D01*
%TO.N,/~HALT*%
X134860000Y-73230000D02*
X134520000Y-73230000D01*
X142414800Y-80784800D02*
X134860000Y-73230000D01*
X142414800Y-96730700D02*
X142414800Y-80784800D01*
X139324400Y-99821100D02*
X142414800Y-96730700D01*
X139324400Y-104354000D02*
X139324400Y-99821100D01*
X134592000Y-109086400D02*
X139324400Y-104354000D01*
X134592000Y-115190000D02*
X134592000Y-109086400D01*
%TO.N,/A13*%
X132690300Y-75870300D02*
X131980000Y-75160000D01*
X135900300Y-75870300D02*
X132690300Y-75870300D01*
X141714400Y-81684400D02*
X135900300Y-75870300D01*
X141714400Y-92092500D02*
X141714400Y-81684400D01*
X138624000Y-95182900D02*
X141714400Y-92092500D01*
X138624000Y-104063900D02*
X138624000Y-95182900D01*
X131980000Y-75160000D02*
X131980000Y-73230000D01*
X132052000Y-110635900D02*
X138624000Y-104063900D01*
X132052000Y-115190000D02*
X132052000Y-110635900D01*
%TO.N,/A14*%
X129440000Y-75920000D02*
X129440000Y-73230000D01*
X135220000Y-76930000D02*
X130450000Y-76930000D01*
X141014000Y-82724000D02*
X135220000Y-76930000D01*
X141014000Y-88344400D02*
X141014000Y-82724000D01*
X137923600Y-91434800D02*
X141014000Y-88344400D01*
X137923600Y-101835200D02*
X137923600Y-91434800D01*
X129512000Y-110246800D02*
X137923600Y-101835200D01*
X130450000Y-76930000D02*
X129440000Y-75920000D01*
X129512000Y-115190000D02*
X129512000Y-110246800D01*
%TO.N,/A15*%
X126900000Y-75070000D02*
X126900000Y-73230000D01*
X122660000Y-102190100D02*
X122660000Y-79310000D01*
X122660000Y-79310000D02*
X126900000Y-75070000D01*
X126972000Y-106502100D02*
X122660000Y-102190100D01*
X126972000Y-115190000D02*
X126972000Y-106502100D01*
%TD*%
D15*
%TO.N,GND*%
X126087001Y-106868680D02*
X126087000Y-111757928D01*
X126006800Y-111757928D01*
X125882318Y-111770188D01*
X125762620Y-111806498D01*
X125702000Y-111838901D01*
X125641380Y-111806498D01*
X125521682Y-111770188D01*
X125397200Y-111757928D01*
X124717750Y-111761000D01*
X124559000Y-111919750D01*
X124559000Y-115063000D01*
X124579000Y-115063000D01*
X124579000Y-115317000D01*
X124559000Y-115317000D01*
X124559000Y-115337000D01*
X124305000Y-115337000D01*
X124305000Y-115317000D01*
X122990550Y-115317000D01*
X122831800Y-115475750D01*
X122829578Y-117290000D01*
X122710000Y-117290000D01*
X122710000Y-112396000D01*
X122828728Y-112396000D01*
X122831800Y-114904250D01*
X122990550Y-115063000D01*
X124305000Y-115063000D01*
X124305000Y-111919750D01*
X124146250Y-111761000D01*
X123466800Y-111757928D01*
X123342318Y-111770188D01*
X123222620Y-111806498D01*
X123112306Y-111865463D01*
X123015615Y-111944815D01*
X122936263Y-112041506D01*
X122877298Y-112151820D01*
X122840988Y-112271518D01*
X122828728Y-112396000D01*
X122710000Y-112396000D01*
X122710000Y-103491678D01*
X126087001Y-106868680D01*
%TA.AperFunction,Conductor*%
D16*
G36*
X126087001Y-106868680D02*
G01*
X126087000Y-111757928D01*
X126006800Y-111757928D01*
X125882318Y-111770188D01*
X125762620Y-111806498D01*
X125702000Y-111838901D01*
X125641380Y-111806498D01*
X125521682Y-111770188D01*
X125397200Y-111757928D01*
X124717750Y-111761000D01*
X124559000Y-111919750D01*
X124559000Y-115063000D01*
X124579000Y-115063000D01*
X124579000Y-115317000D01*
X124559000Y-115317000D01*
X124559000Y-115337000D01*
X124305000Y-115337000D01*
X124305000Y-115317000D01*
X122990550Y-115317000D01*
X122831800Y-115475750D01*
X122829578Y-117290000D01*
X122710000Y-117290000D01*
X122710000Y-112396000D01*
X122828728Y-112396000D01*
X122831800Y-114904250D01*
X122990550Y-115063000D01*
X124305000Y-115063000D01*
X124305000Y-111919750D01*
X124146250Y-111761000D01*
X123466800Y-111757928D01*
X123342318Y-111770188D01*
X123222620Y-111806498D01*
X123112306Y-111865463D01*
X123015615Y-111944815D01*
X122936263Y-112041506D01*
X122877298Y-112151820D01*
X122840988Y-112271518D01*
X122828728Y-112396000D01*
X122710000Y-112396000D01*
X122710000Y-103491678D01*
X126087001Y-106868680D01*
G37*
%TD.AperFunction*%
D15*
X135906525Y-84776632D02*
X136113368Y-84983475D01*
X136356589Y-85145990D01*
X136626842Y-85257932D01*
X136913740Y-85315000D01*
X137206260Y-85315000D01*
X137493158Y-85257932D01*
X137763411Y-85145990D01*
X138006632Y-84983475D01*
X138138487Y-84851620D01*
X138160498Y-84924180D01*
X138219463Y-85034494D01*
X138298815Y-85131185D01*
X138395506Y-85210537D01*
X138505820Y-85269502D01*
X138625518Y-85305812D01*
X138750000Y-85318072D01*
X140129001Y-85318072D01*
X140129000Y-87977821D01*
X137328551Y-90778271D01*
X137294784Y-90805983D01*
X137267071Y-90839751D01*
X137267068Y-90839754D01*
X137184190Y-90940741D01*
X137102012Y-91094487D01*
X137051405Y-91261310D01*
X137034319Y-91434800D01*
X137038601Y-91478279D01*
X137038600Y-99436986D01*
X136705750Y-99440000D01*
X136547000Y-99598750D01*
X136547000Y-100823000D01*
X136567000Y-100823000D01*
X136567000Y-101077000D01*
X136547000Y-101077000D01*
X136547000Y-101097000D01*
X136293000Y-101097000D01*
X136293000Y-101077000D01*
X135318750Y-101077000D01*
X135160000Y-101235750D01*
X135156928Y-101825000D01*
X135169188Y-101949482D01*
X135205498Y-102069180D01*
X135264463Y-102179494D01*
X135343815Y-102276185D01*
X135440506Y-102355537D01*
X135550820Y-102414502D01*
X135670518Y-102450812D01*
X135795000Y-102463072D01*
X136046426Y-102460795D01*
X128916952Y-109590270D01*
X128883184Y-109617983D01*
X128855471Y-109651751D01*
X128855468Y-109651754D01*
X128772590Y-109752741D01*
X128690412Y-109906487D01*
X128639805Y-110073310D01*
X128622719Y-110246800D01*
X128627001Y-110290279D01*
X128627001Y-111757928D01*
X128546800Y-111757928D01*
X128422318Y-111770188D01*
X128302620Y-111806498D01*
X128242000Y-111838901D01*
X128181380Y-111806498D01*
X128061682Y-111770188D01*
X127937200Y-111757928D01*
X127857000Y-111757928D01*
X127857000Y-106545569D01*
X127861281Y-106502100D01*
X127857000Y-106458631D01*
X127857000Y-106458623D01*
X127844195Y-106328610D01*
X127793589Y-106161787D01*
X127711411Y-106008041D01*
X127600817Y-105873283D01*
X127567049Y-105845570D01*
X123545000Y-101823522D01*
X123545000Y-100796578D01*
X124161928Y-101413507D01*
X124161928Y-101625001D01*
X124178992Y-101798255D01*
X124229528Y-101964851D01*
X124311595Y-102118387D01*
X124422038Y-102252962D01*
X124556613Y-102363405D01*
X124710149Y-102445472D01*
X124876745Y-102496008D01*
X125049999Y-102513072D01*
X125850001Y-102513072D01*
X126023255Y-102496008D01*
X126189851Y-102445472D01*
X126343387Y-102363405D01*
X126477962Y-102252962D01*
X126588405Y-102118387D01*
X126670472Y-101964851D01*
X126721008Y-101798255D01*
X126738072Y-101625001D01*
X126738072Y-100374999D01*
X127261928Y-100374999D01*
X127261928Y-101625001D01*
X127278992Y-101798255D01*
X127329528Y-101964851D01*
X127411595Y-102118387D01*
X127522038Y-102252962D01*
X127656613Y-102363405D01*
X127810149Y-102445472D01*
X127976745Y-102496008D01*
X128149999Y-102513072D01*
X128950001Y-102513072D01*
X129123255Y-102496008D01*
X129289851Y-102445472D01*
X129443387Y-102363405D01*
X129577962Y-102252962D01*
X129688405Y-102118387D01*
X129770472Y-101964851D01*
X129794694Y-101885000D01*
X132415473Y-101885000D01*
X132424528Y-101914850D01*
X132506595Y-102068386D01*
X132617038Y-102202962D01*
X132751614Y-102313405D01*
X132905150Y-102395472D01*
X133071746Y-102446008D01*
X133245000Y-102463072D01*
X133995000Y-102463072D01*
X134168254Y-102446008D01*
X134334850Y-102395472D01*
X134488386Y-102313405D01*
X134622962Y-102202962D01*
X134733405Y-102068386D01*
X134815472Y-101914850D01*
X134866008Y-101748254D01*
X134883072Y-101575000D01*
X134883072Y-100325000D01*
X134866008Y-100151746D01*
X134842728Y-100075000D01*
X135156928Y-100075000D01*
X135160000Y-100664250D01*
X135318750Y-100823000D01*
X136293000Y-100823000D01*
X136293000Y-99598750D01*
X136134250Y-99440000D01*
X135795000Y-99436928D01*
X135670518Y-99449188D01*
X135550820Y-99485498D01*
X135440506Y-99544463D01*
X135343815Y-99623815D01*
X135264463Y-99720506D01*
X135205498Y-99830820D01*
X135169188Y-99950518D01*
X135156928Y-100075000D01*
X134842728Y-100075000D01*
X134815472Y-99985150D01*
X134733405Y-99831614D01*
X134622962Y-99697038D01*
X134488386Y-99586595D01*
X134334850Y-99504528D01*
X134168254Y-99453992D01*
X133995000Y-99436928D01*
X133245000Y-99436928D01*
X133071746Y-99453992D01*
X132905150Y-99504528D01*
X132751614Y-99586595D01*
X132617038Y-99697038D01*
X132506595Y-99831614D01*
X132424528Y-99985150D01*
X132385139Y-100115000D01*
X129794694Y-100115000D01*
X129770472Y-100035149D01*
X129688405Y-99881613D01*
X129577962Y-99747038D01*
X129443387Y-99636595D01*
X129289851Y-99554528D01*
X129123255Y-99503992D01*
X128950001Y-99486928D01*
X128149999Y-99486928D01*
X127976745Y-99503992D01*
X127810149Y-99554528D01*
X127656613Y-99636595D01*
X127522038Y-99747038D01*
X127411595Y-99881613D01*
X127329528Y-100035149D01*
X127278992Y-100201745D01*
X127261928Y-100374999D01*
X126738072Y-100374999D01*
X126721008Y-100201745D01*
X126670472Y-100035149D01*
X126588405Y-99881613D01*
X126477962Y-99747038D01*
X126343387Y-99636595D01*
X126189851Y-99554528D01*
X126023255Y-99503992D01*
X125850001Y-99486928D01*
X125049999Y-99486928D01*
X124876745Y-99503992D01*
X124874988Y-99504525D01*
X124874988Y-98211876D01*
X125055044Y-98031820D01*
X125088817Y-98004103D01*
X125199411Y-97869345D01*
X125281589Y-97715599D01*
X125332195Y-97548776D01*
X125345000Y-97418763D01*
X125345000Y-97418753D01*
X125349281Y-97375287D01*
X125345000Y-97331821D01*
X125345000Y-85521208D01*
X125350812Y-85356683D01*
X125364225Y-85244710D01*
X125382203Y-85163253D01*
X125404392Y-85096172D01*
X125434783Y-85026079D01*
X125478721Y-84939333D01*
X125535583Y-84832494D01*
X125540780Y-84822516D01*
X125603340Y-84699776D01*
X125616007Y-84673445D01*
X125640884Y-84618529D01*
X125746525Y-84776632D01*
X125953368Y-84983475D01*
X126196589Y-85145990D01*
X126466842Y-85257932D01*
X126753740Y-85315000D01*
X127046260Y-85315000D01*
X127333158Y-85257932D01*
X127603411Y-85145990D01*
X127846632Y-84983475D01*
X128053475Y-84776632D01*
X128170000Y-84602240D01*
X128286525Y-84776632D01*
X128493368Y-84983475D01*
X128736589Y-85145990D01*
X129006842Y-85257932D01*
X129293740Y-85315000D01*
X129586260Y-85315000D01*
X129873158Y-85257932D01*
X130143411Y-85145990D01*
X130386632Y-84983475D01*
X130593475Y-84776632D01*
X130710000Y-84602240D01*
X130826525Y-84776632D01*
X131033368Y-84983475D01*
X131276589Y-85145990D01*
X131546842Y-85257932D01*
X131833740Y-85315000D01*
X132126260Y-85315000D01*
X132413158Y-85257932D01*
X132683411Y-85145990D01*
X132926632Y-84983475D01*
X133133475Y-84776632D01*
X133250000Y-84602240D01*
X133366525Y-84776632D01*
X133573368Y-84983475D01*
X133816589Y-85145990D01*
X134086842Y-85257932D01*
X134373740Y-85315000D01*
X134666260Y-85315000D01*
X134953158Y-85257932D01*
X135223411Y-85145990D01*
X135466632Y-84983475D01*
X135673475Y-84776632D01*
X135790000Y-84602240D01*
X135906525Y-84776632D01*
%TA.AperFunction,Conductor*%
D16*
G36*
X135906525Y-84776632D02*
G01*
X136113368Y-84983475D01*
X136356589Y-85145990D01*
X136626842Y-85257932D01*
X136913740Y-85315000D01*
X137206260Y-85315000D01*
X137493158Y-85257932D01*
X137763411Y-85145990D01*
X138006632Y-84983475D01*
X138138487Y-84851620D01*
X138160498Y-84924180D01*
X138219463Y-85034494D01*
X138298815Y-85131185D01*
X138395506Y-85210537D01*
X138505820Y-85269502D01*
X138625518Y-85305812D01*
X138750000Y-85318072D01*
X140129001Y-85318072D01*
X140129000Y-87977821D01*
X137328551Y-90778271D01*
X137294784Y-90805983D01*
X137267071Y-90839751D01*
X137267068Y-90839754D01*
X137184190Y-90940741D01*
X137102012Y-91094487D01*
X137051405Y-91261310D01*
X137034319Y-91434800D01*
X137038601Y-91478279D01*
X137038600Y-99436986D01*
X136705750Y-99440000D01*
X136547000Y-99598750D01*
X136547000Y-100823000D01*
X136567000Y-100823000D01*
X136567000Y-101077000D01*
X136547000Y-101077000D01*
X136547000Y-101097000D01*
X136293000Y-101097000D01*
X136293000Y-101077000D01*
X135318750Y-101077000D01*
X135160000Y-101235750D01*
X135156928Y-101825000D01*
X135169188Y-101949482D01*
X135205498Y-102069180D01*
X135264463Y-102179494D01*
X135343815Y-102276185D01*
X135440506Y-102355537D01*
X135550820Y-102414502D01*
X135670518Y-102450812D01*
X135795000Y-102463072D01*
X136046426Y-102460795D01*
X128916952Y-109590270D01*
X128883184Y-109617983D01*
X128855471Y-109651751D01*
X128855468Y-109651754D01*
X128772590Y-109752741D01*
X128690412Y-109906487D01*
X128639805Y-110073310D01*
X128622719Y-110246800D01*
X128627001Y-110290279D01*
X128627001Y-111757928D01*
X128546800Y-111757928D01*
X128422318Y-111770188D01*
X128302620Y-111806498D01*
X128242000Y-111838901D01*
X128181380Y-111806498D01*
X128061682Y-111770188D01*
X127937200Y-111757928D01*
X127857000Y-111757928D01*
X127857000Y-106545569D01*
X127861281Y-106502100D01*
X127857000Y-106458631D01*
X127857000Y-106458623D01*
X127844195Y-106328610D01*
X127793589Y-106161787D01*
X127711411Y-106008041D01*
X127600817Y-105873283D01*
X127567049Y-105845570D01*
X123545000Y-101823522D01*
X123545000Y-100796578D01*
X124161928Y-101413507D01*
X124161928Y-101625001D01*
X124178992Y-101798255D01*
X124229528Y-101964851D01*
X124311595Y-102118387D01*
X124422038Y-102252962D01*
X124556613Y-102363405D01*
X124710149Y-102445472D01*
X124876745Y-102496008D01*
X125049999Y-102513072D01*
X125850001Y-102513072D01*
X126023255Y-102496008D01*
X126189851Y-102445472D01*
X126343387Y-102363405D01*
X126477962Y-102252962D01*
X126588405Y-102118387D01*
X126670472Y-101964851D01*
X126721008Y-101798255D01*
X126738072Y-101625001D01*
X126738072Y-100374999D01*
X127261928Y-100374999D01*
X127261928Y-101625001D01*
X127278992Y-101798255D01*
X127329528Y-101964851D01*
X127411595Y-102118387D01*
X127522038Y-102252962D01*
X127656613Y-102363405D01*
X127810149Y-102445472D01*
X127976745Y-102496008D01*
X128149999Y-102513072D01*
X128950001Y-102513072D01*
X129123255Y-102496008D01*
X129289851Y-102445472D01*
X129443387Y-102363405D01*
X129577962Y-102252962D01*
X129688405Y-102118387D01*
X129770472Y-101964851D01*
X129794694Y-101885000D01*
X132415473Y-101885000D01*
X132424528Y-101914850D01*
X132506595Y-102068386D01*
X132617038Y-102202962D01*
X132751614Y-102313405D01*
X132905150Y-102395472D01*
X133071746Y-102446008D01*
X133245000Y-102463072D01*
X133995000Y-102463072D01*
X134168254Y-102446008D01*
X134334850Y-102395472D01*
X134488386Y-102313405D01*
X134622962Y-102202962D01*
X134733405Y-102068386D01*
X134815472Y-101914850D01*
X134866008Y-101748254D01*
X134883072Y-101575000D01*
X134883072Y-100325000D01*
X134866008Y-100151746D01*
X134842728Y-100075000D01*
X135156928Y-100075000D01*
X135160000Y-100664250D01*
X135318750Y-100823000D01*
X136293000Y-100823000D01*
X136293000Y-99598750D01*
X136134250Y-99440000D01*
X135795000Y-99436928D01*
X135670518Y-99449188D01*
X135550820Y-99485498D01*
X135440506Y-99544463D01*
X135343815Y-99623815D01*
X135264463Y-99720506D01*
X135205498Y-99830820D01*
X135169188Y-99950518D01*
X135156928Y-100075000D01*
X134842728Y-100075000D01*
X134815472Y-99985150D01*
X134733405Y-99831614D01*
X134622962Y-99697038D01*
X134488386Y-99586595D01*
X134334850Y-99504528D01*
X134168254Y-99453992D01*
X133995000Y-99436928D01*
X133245000Y-99436928D01*
X133071746Y-99453992D01*
X132905150Y-99504528D01*
X132751614Y-99586595D01*
X132617038Y-99697038D01*
X132506595Y-99831614D01*
X132424528Y-99985150D01*
X132385139Y-100115000D01*
X129794694Y-100115000D01*
X129770472Y-100035149D01*
X129688405Y-99881613D01*
X129577962Y-99747038D01*
X129443387Y-99636595D01*
X129289851Y-99554528D01*
X129123255Y-99503992D01*
X128950001Y-99486928D01*
X128149999Y-99486928D01*
X127976745Y-99503992D01*
X127810149Y-99554528D01*
X127656613Y-99636595D01*
X127522038Y-99747038D01*
X127411595Y-99881613D01*
X127329528Y-100035149D01*
X127278992Y-100201745D01*
X127261928Y-100374999D01*
X126738072Y-100374999D01*
X126721008Y-100201745D01*
X126670472Y-100035149D01*
X126588405Y-99881613D01*
X126477962Y-99747038D01*
X126343387Y-99636595D01*
X126189851Y-99554528D01*
X126023255Y-99503992D01*
X125850001Y-99486928D01*
X125049999Y-99486928D01*
X124876745Y-99503992D01*
X124874988Y-99504525D01*
X124874988Y-98211876D01*
X125055044Y-98031820D01*
X125088817Y-98004103D01*
X125199411Y-97869345D01*
X125281589Y-97715599D01*
X125332195Y-97548776D01*
X125345000Y-97418763D01*
X125345000Y-97418753D01*
X125349281Y-97375287D01*
X125345000Y-97331821D01*
X125345000Y-85521208D01*
X125350812Y-85356683D01*
X125364225Y-85244710D01*
X125382203Y-85163253D01*
X125404392Y-85096172D01*
X125434783Y-85026079D01*
X125478721Y-84939333D01*
X125535583Y-84832494D01*
X125540780Y-84822516D01*
X125603340Y-84699776D01*
X125616007Y-84673445D01*
X125640884Y-84618529D01*
X125746525Y-84776632D01*
X125953368Y-84983475D01*
X126196589Y-85145990D01*
X126466842Y-85257932D01*
X126753740Y-85315000D01*
X127046260Y-85315000D01*
X127333158Y-85257932D01*
X127603411Y-85145990D01*
X127846632Y-84983475D01*
X128053475Y-84776632D01*
X128170000Y-84602240D01*
X128286525Y-84776632D01*
X128493368Y-84983475D01*
X128736589Y-85145990D01*
X129006842Y-85257932D01*
X129293740Y-85315000D01*
X129586260Y-85315000D01*
X129873158Y-85257932D01*
X130143411Y-85145990D01*
X130386632Y-84983475D01*
X130593475Y-84776632D01*
X130710000Y-84602240D01*
X130826525Y-84776632D01*
X131033368Y-84983475D01*
X131276589Y-85145990D01*
X131546842Y-85257932D01*
X131833740Y-85315000D01*
X132126260Y-85315000D01*
X132413158Y-85257932D01*
X132683411Y-85145990D01*
X132926632Y-84983475D01*
X133133475Y-84776632D01*
X133250000Y-84602240D01*
X133366525Y-84776632D01*
X133573368Y-84983475D01*
X133816589Y-85145990D01*
X134086842Y-85257932D01*
X134373740Y-85315000D01*
X134666260Y-85315000D01*
X134953158Y-85257932D01*
X135223411Y-85145990D01*
X135466632Y-84983475D01*
X135673475Y-84776632D01*
X135790000Y-84602240D01*
X135906525Y-84776632D01*
G37*
%TD.AperFunction*%
D15*
X144290000Y-77658422D02*
X141010331Y-74378753D01*
X141039502Y-74324180D01*
X141075812Y-74204482D01*
X141088072Y-74080000D01*
X141088072Y-72380000D01*
X141075812Y-72255518D01*
X141039502Y-72135820D01*
X140980537Y-72025506D01*
X140901185Y-71928815D01*
X140804494Y-71849463D01*
X140694180Y-71790498D01*
X140574482Y-71754188D01*
X140450000Y-71741928D01*
X138750000Y-71741928D01*
X138625518Y-71754188D01*
X138505820Y-71790498D01*
X138395506Y-71849463D01*
X138298815Y-71928815D01*
X138219463Y-72025506D01*
X138160498Y-72135820D01*
X138138487Y-72208380D01*
X138006632Y-72076525D01*
X137763411Y-71914010D01*
X137493158Y-71802068D01*
X137206260Y-71745000D01*
X136913740Y-71745000D01*
X136626842Y-71802068D01*
X136356589Y-71914010D01*
X136113368Y-72076525D01*
X135906525Y-72283368D01*
X135790000Y-72457760D01*
X135673475Y-72283368D01*
X135466632Y-72076525D01*
X135223411Y-71914010D01*
X134953158Y-71802068D01*
X134666260Y-71745000D01*
X134373740Y-71745000D01*
X134086842Y-71802068D01*
X133816589Y-71914010D01*
X133573368Y-72076525D01*
X133366525Y-72283368D01*
X133250000Y-72457760D01*
X133133475Y-72283368D01*
X132926632Y-72076525D01*
X132683411Y-71914010D01*
X132413158Y-71802068D01*
X132126260Y-71745000D01*
X131833740Y-71745000D01*
X131546842Y-71802068D01*
X131276589Y-71914010D01*
X131033368Y-72076525D01*
X130826525Y-72283368D01*
X130710000Y-72457760D01*
X130593475Y-72283368D01*
X130386632Y-72076525D01*
X130143411Y-71914010D01*
X129873158Y-71802068D01*
X129586260Y-71745000D01*
X129293740Y-71745000D01*
X129006842Y-71802068D01*
X128736589Y-71914010D01*
X128493368Y-72076525D01*
X128286525Y-72283368D01*
X128170000Y-72457760D01*
X128053475Y-72283368D01*
X127846632Y-72076525D01*
X127603411Y-71914010D01*
X127333158Y-71802068D01*
X127046260Y-71745000D01*
X126753740Y-71745000D01*
X126466842Y-71802068D01*
X126196589Y-71914010D01*
X125953368Y-72076525D01*
X125746525Y-72283368D01*
X125624805Y-72465534D01*
X125555178Y-72348645D01*
X125360269Y-72132412D01*
X125126920Y-71958359D01*
X124864099Y-71833175D01*
X124716890Y-71788524D01*
X124487000Y-71909845D01*
X124487000Y-73103000D01*
X124507000Y-73103000D01*
X124507000Y-73357000D01*
X124487000Y-73357000D01*
X124487000Y-74550155D01*
X124716890Y-74671476D01*
X124864099Y-74626825D01*
X125126920Y-74501641D01*
X125360269Y-74327588D01*
X125555178Y-74111355D01*
X125624595Y-73994819D01*
X125651051Y-74045433D01*
X125668119Y-74076002D01*
X125744620Y-74204558D01*
X125756319Y-74223458D01*
X125829102Y-74336561D01*
X125830182Y-74338232D01*
X125891399Y-74432710D01*
X125933829Y-74503860D01*
X125960934Y-74558573D01*
X125980155Y-74610747D01*
X125996442Y-74678418D01*
X126001400Y-74717021D01*
X122064951Y-78653470D01*
X122031184Y-78681183D01*
X122003471Y-78714951D01*
X122003468Y-78714954D01*
X121920590Y-78815941D01*
X121838412Y-78969687D01*
X121787805Y-79136510D01*
X121770719Y-79310000D01*
X121775001Y-79353479D01*
X121775000Y-99770909D01*
X119710000Y-97705909D01*
X119710000Y-73586891D01*
X122918519Y-73586891D01*
X123015843Y-73861252D01*
X123164822Y-74111355D01*
X123359731Y-74327588D01*
X123593080Y-74501641D01*
X123855901Y-74626825D01*
X124003110Y-74671476D01*
X124233000Y-74550155D01*
X124233000Y-73357000D01*
X123039186Y-73357000D01*
X122918519Y-73586891D01*
X119710000Y-73586891D01*
X119710000Y-72873109D01*
X122918519Y-72873109D01*
X123039186Y-73103000D01*
X124233000Y-73103000D01*
X124233000Y-71909845D01*
X124003110Y-71788524D01*
X123855901Y-71833175D01*
X123593080Y-71958359D01*
X123359731Y-72132412D01*
X123164822Y-72348645D01*
X123015843Y-72598748D01*
X122918519Y-72873109D01*
X119710000Y-72873109D01*
X119710000Y-68710000D01*
X144290001Y-68710000D01*
X144290000Y-77658422D01*
%TA.AperFunction,Conductor*%
D16*
G36*
X144290000Y-77658422D02*
G01*
X141010331Y-74378753D01*
X141039502Y-74324180D01*
X141075812Y-74204482D01*
X141088072Y-74080000D01*
X141088072Y-72380000D01*
X141075812Y-72255518D01*
X141039502Y-72135820D01*
X140980537Y-72025506D01*
X140901185Y-71928815D01*
X140804494Y-71849463D01*
X140694180Y-71790498D01*
X140574482Y-71754188D01*
X140450000Y-71741928D01*
X138750000Y-71741928D01*
X138625518Y-71754188D01*
X138505820Y-71790498D01*
X138395506Y-71849463D01*
X138298815Y-71928815D01*
X138219463Y-72025506D01*
X138160498Y-72135820D01*
X138138487Y-72208380D01*
X138006632Y-72076525D01*
X137763411Y-71914010D01*
X137493158Y-71802068D01*
X137206260Y-71745000D01*
X136913740Y-71745000D01*
X136626842Y-71802068D01*
X136356589Y-71914010D01*
X136113368Y-72076525D01*
X135906525Y-72283368D01*
X135790000Y-72457760D01*
X135673475Y-72283368D01*
X135466632Y-72076525D01*
X135223411Y-71914010D01*
X134953158Y-71802068D01*
X134666260Y-71745000D01*
X134373740Y-71745000D01*
X134086842Y-71802068D01*
X133816589Y-71914010D01*
X133573368Y-72076525D01*
X133366525Y-72283368D01*
X133250000Y-72457760D01*
X133133475Y-72283368D01*
X132926632Y-72076525D01*
X132683411Y-71914010D01*
X132413158Y-71802068D01*
X132126260Y-71745000D01*
X131833740Y-71745000D01*
X131546842Y-71802068D01*
X131276589Y-71914010D01*
X131033368Y-72076525D01*
X130826525Y-72283368D01*
X130710000Y-72457760D01*
X130593475Y-72283368D01*
X130386632Y-72076525D01*
X130143411Y-71914010D01*
X129873158Y-71802068D01*
X129586260Y-71745000D01*
X129293740Y-71745000D01*
X129006842Y-71802068D01*
X128736589Y-71914010D01*
X128493368Y-72076525D01*
X128286525Y-72283368D01*
X128170000Y-72457760D01*
X128053475Y-72283368D01*
X127846632Y-72076525D01*
X127603411Y-71914010D01*
X127333158Y-71802068D01*
X127046260Y-71745000D01*
X126753740Y-71745000D01*
X126466842Y-71802068D01*
X126196589Y-71914010D01*
X125953368Y-72076525D01*
X125746525Y-72283368D01*
X125624805Y-72465534D01*
X125555178Y-72348645D01*
X125360269Y-72132412D01*
X125126920Y-71958359D01*
X124864099Y-71833175D01*
X124716890Y-71788524D01*
X124487000Y-71909845D01*
X124487000Y-73103000D01*
X124507000Y-73103000D01*
X124507000Y-73357000D01*
X124487000Y-73357000D01*
X124487000Y-74550155D01*
X124716890Y-74671476D01*
X124864099Y-74626825D01*
X125126920Y-74501641D01*
X125360269Y-74327588D01*
X125555178Y-74111355D01*
X125624595Y-73994819D01*
X125651051Y-74045433D01*
X125668119Y-74076002D01*
X125744620Y-74204558D01*
X125756319Y-74223458D01*
X125829102Y-74336561D01*
X125830182Y-74338232D01*
X125891399Y-74432710D01*
X125933829Y-74503860D01*
X125960934Y-74558573D01*
X125980155Y-74610747D01*
X125996442Y-74678418D01*
X126001400Y-74717021D01*
X122064951Y-78653470D01*
X122031184Y-78681183D01*
X122003471Y-78714951D01*
X122003468Y-78714954D01*
X121920590Y-78815941D01*
X121838412Y-78969687D01*
X121787805Y-79136510D01*
X121770719Y-79310000D01*
X121775001Y-79353479D01*
X121775000Y-99770909D01*
X119710000Y-97705909D01*
X119710000Y-73586891D01*
X122918519Y-73586891D01*
X123015843Y-73861252D01*
X123164822Y-74111355D01*
X123359731Y-74327588D01*
X123593080Y-74501641D01*
X123855901Y-74626825D01*
X124003110Y-74671476D01*
X124233000Y-74550155D01*
X124233000Y-73357000D01*
X123039186Y-73357000D01*
X122918519Y-73586891D01*
X119710000Y-73586891D01*
X119710000Y-72873109D01*
X122918519Y-72873109D01*
X123039186Y-73103000D01*
X124233000Y-73103000D01*
X124233000Y-71909845D01*
X124003110Y-71788524D01*
X123855901Y-71833175D01*
X123593080Y-71958359D01*
X123359731Y-72132412D01*
X123164822Y-72348645D01*
X123015843Y-72598748D01*
X122918519Y-72873109D01*
X119710000Y-72873109D01*
X119710000Y-68710000D01*
X144290001Y-68710000D01*
X144290000Y-77658422D01*
G37*
%TD.AperFunction*%
%TD*%
D17*
%TO.N,VCC*%
X125148700Y-84110381D02*
X125089372Y-84266334D01*
X125026143Y-84405909D01*
X124963770Y-84528280D01*
X124903951Y-84640676D01*
X124903832Y-84640904D01*
X124848398Y-84750348D01*
X124848076Y-84751035D01*
X124798816Y-84864645D01*
X124798411Y-84865709D01*
X124757068Y-84990696D01*
X124756723Y-84991947D01*
X124725036Y-85135520D01*
X124724828Y-85136746D01*
X124704539Y-85306114D01*
X124704457Y-85307177D01*
X124697741Y-85497300D01*
X124222201Y-85497300D01*
X124215288Y-85324992D01*
X124215177Y-85323752D01*
X124193749Y-85169666D01*
X124193449Y-85168173D01*
X124159162Y-85038296D01*
X124158629Y-85036710D01*
X124112649Y-84924843D01*
X124111961Y-84923426D01*
X124055455Y-84823366D01*
X124054814Y-84822347D01*
X123988949Y-84727891D01*
X123988550Y-84727349D01*
X123914492Y-84632298D01*
X123914410Y-84632194D01*
X123833418Y-84530460D01*
X123746754Y-84415978D01*
X123660443Y-84289715D01*
X124311355Y-83426242D01*
X125148700Y-84110381D01*
%TA.AperFunction,Conductor*%
D16*
G36*
X125148700Y-84110381D02*
G01*
X125089372Y-84266334D01*
X125026143Y-84405909D01*
X124963770Y-84528280D01*
X124903951Y-84640676D01*
X124903832Y-84640904D01*
X124848398Y-84750348D01*
X124848076Y-84751035D01*
X124798816Y-84864645D01*
X124798411Y-84865709D01*
X124757068Y-84990696D01*
X124756723Y-84991947D01*
X124725036Y-85135520D01*
X124724828Y-85136746D01*
X124704539Y-85306114D01*
X124704457Y-85307177D01*
X124697741Y-85497300D01*
X124222201Y-85497300D01*
X124215288Y-85324992D01*
X124215177Y-85323752D01*
X124193749Y-85169666D01*
X124193449Y-85168173D01*
X124159162Y-85038296D01*
X124158629Y-85036710D01*
X124112649Y-84924843D01*
X124111961Y-84923426D01*
X124055455Y-84823366D01*
X124054814Y-84822347D01*
X123988949Y-84727891D01*
X123988550Y-84727349D01*
X123914492Y-84632298D01*
X123914410Y-84632194D01*
X123833418Y-84530460D01*
X123746754Y-84415978D01*
X123660443Y-84289715D01*
X124311355Y-83426242D01*
X125148700Y-84110381D01*
G37*
%TD.AperFunction*%
%TD*%
D17*
%TO.N,/RSRVD*%
X140391044Y-73503363D02*
X140345766Y-73621233D01*
X140291621Y-73738371D01*
X140237059Y-73848501D01*
X140236956Y-73848714D01*
X140187449Y-73953501D01*
X140187082Y-73954358D01*
X140148088Y-74055526D01*
X140147567Y-74057220D01*
X140124469Y-74156650D01*
X140124142Y-74159292D01*
X140122321Y-74258866D01*
X140122682Y-74262114D01*
X140147521Y-74363712D01*
X140148679Y-74366723D01*
X140205558Y-74472225D01*
X140207048Y-74474408D01*
X140293791Y-74576776D01*
X139957613Y-74912954D01*
X139826510Y-74778148D01*
X139711721Y-74652629D01*
X139616399Y-74541505D01*
X139534702Y-74440612D01*
X139460835Y-74345828D01*
X139389116Y-74253177D01*
X139389007Y-74253039D01*
X139313701Y-74158493D01*
X139313481Y-74158223D01*
X139228862Y-74057759D01*
X139228575Y-74057431D01*
X139128890Y-73946994D01*
X139128587Y-73946670D01*
X139014526Y-73828859D01*
X139549442Y-72827998D01*
X140391044Y-73503363D01*
%TA.AperFunction,Conductor*%
D16*
G36*
X140391044Y-73503363D02*
G01*
X140345766Y-73621233D01*
X140291621Y-73738371D01*
X140237059Y-73848501D01*
X140236956Y-73848714D01*
X140187449Y-73953501D01*
X140187082Y-73954358D01*
X140148088Y-74055526D01*
X140147567Y-74057220D01*
X140124469Y-74156650D01*
X140124142Y-74159292D01*
X140122321Y-74258866D01*
X140122682Y-74262114D01*
X140147521Y-74363712D01*
X140148679Y-74366723D01*
X140205558Y-74472225D01*
X140207048Y-74474408D01*
X140293791Y-74576776D01*
X139957613Y-74912954D01*
X139826510Y-74778148D01*
X139711721Y-74652629D01*
X139616399Y-74541505D01*
X139534702Y-74440612D01*
X139460835Y-74345828D01*
X139389116Y-74253177D01*
X139389007Y-74253039D01*
X139313701Y-74158493D01*
X139313481Y-74158223D01*
X139228862Y-74057759D01*
X139228575Y-74057431D01*
X139128890Y-73946994D01*
X139128587Y-73946670D01*
X139014526Y-73828859D01*
X139549442Y-72827998D01*
X140391044Y-73503363D01*
G37*
%TD.AperFunction*%
%TD*%
D17*
%TO.N,/~IRQ*%
X137894817Y-73167867D02*
X137903671Y-73314734D01*
X137906896Y-73454605D01*
X137908549Y-73581794D01*
X137908558Y-73582134D01*
X137913252Y-73699979D01*
X137913319Y-73700870D01*
X137925665Y-73812546D01*
X137925901Y-73813951D01*
X137950510Y-73922763D01*
X137951024Y-73924470D01*
X137992509Y-74033723D01*
X137993288Y-74035397D01*
X138056263Y-74148397D01*
X138057158Y-74149783D01*
X138146234Y-74269832D01*
X138147080Y-74270855D01*
X138258636Y-74392297D01*
X137922391Y-74728542D01*
X137775380Y-74590555D01*
X137774676Y-74589942D01*
X137634347Y-74476411D01*
X137633502Y-74475783D01*
X137504860Y-74388274D01*
X137503966Y-74387719D01*
X137383046Y-74319379D01*
X137382276Y-74318977D01*
X137265111Y-74262952D01*
X137264657Y-74262746D01*
X137147283Y-74212182D01*
X137147250Y-74212168D01*
X137025858Y-74160279D01*
X136896693Y-74100321D01*
X136755527Y-74025356D01*
X136605805Y-73933119D01*
X136852383Y-72880312D01*
X137894817Y-73167867D01*
%TA.AperFunction,Conductor*%
D16*
G36*
X137894817Y-73167867D02*
G01*
X137903671Y-73314734D01*
X137906896Y-73454605D01*
X137908549Y-73581794D01*
X137908558Y-73582134D01*
X137913252Y-73699979D01*
X137913319Y-73700870D01*
X137925665Y-73812546D01*
X137925901Y-73813951D01*
X137950510Y-73922763D01*
X137951024Y-73924470D01*
X137992509Y-74033723D01*
X137993288Y-74035397D01*
X138056263Y-74148397D01*
X138057158Y-74149783D01*
X138146234Y-74269832D01*
X138147080Y-74270855D01*
X138258636Y-74392297D01*
X137922391Y-74728542D01*
X137775380Y-74590555D01*
X137774676Y-74589942D01*
X137634347Y-74476411D01*
X137633502Y-74475783D01*
X137504860Y-74388274D01*
X137503966Y-74387719D01*
X137383046Y-74319379D01*
X137382276Y-74318977D01*
X137265111Y-74262952D01*
X137264657Y-74262746D01*
X137147283Y-74212182D01*
X137147250Y-74212168D01*
X137025858Y-74160279D01*
X136896693Y-74100321D01*
X136755527Y-74025356D01*
X136605805Y-73933119D01*
X136852383Y-72880312D01*
X137894817Y-73167867D01*
G37*
%TD.AperFunction*%
%TD*%
D17*
%TO.N,/~HALT*%
X135304693Y-72898626D02*
X135384682Y-73037906D01*
X135448722Y-73165752D01*
X135503860Y-73286265D01*
X135557021Y-73403276D01*
X135557204Y-73403662D01*
X135615279Y-73520867D01*
X135615658Y-73521574D01*
X135685638Y-73642893D01*
X135686172Y-73643739D01*
X135775051Y-73773091D01*
X135775660Y-73773906D01*
X135890429Y-73915212D01*
X135891031Y-73915900D01*
X136030254Y-74064109D01*
X135694003Y-74400360D01*
X135575045Y-74291328D01*
X135573991Y-74290461D01*
X135455955Y-74203599D01*
X135454525Y-74202687D01*
X135343190Y-74141761D01*
X135341456Y-74140975D01*
X135233640Y-74101536D01*
X135231868Y-74101030D01*
X135124390Y-74078631D01*
X135122924Y-74078414D01*
X135012601Y-74068606D01*
X135011658Y-74068557D01*
X134895309Y-74066892D01*
X134894922Y-74066893D01*
X134769392Y-74068922D01*
X134631745Y-74070193D01*
X134487498Y-74066502D01*
X134163173Y-73034909D01*
X135206575Y-72751170D01*
X135304693Y-72898626D01*
%TA.AperFunction,Conductor*%
D16*
G36*
X135304693Y-72898626D02*
G01*
X135384682Y-73037906D01*
X135448722Y-73165752D01*
X135503860Y-73286265D01*
X135557021Y-73403276D01*
X135557204Y-73403662D01*
X135615279Y-73520867D01*
X135615658Y-73521574D01*
X135685638Y-73642893D01*
X135686172Y-73643739D01*
X135775051Y-73773091D01*
X135775660Y-73773906D01*
X135890429Y-73915212D01*
X135891031Y-73915900D01*
X136030254Y-74064109D01*
X135694003Y-74400360D01*
X135575045Y-74291328D01*
X135573991Y-74290461D01*
X135455955Y-74203599D01*
X135454525Y-74202687D01*
X135343190Y-74141761D01*
X135341456Y-74140975D01*
X135233640Y-74101536D01*
X135231868Y-74101030D01*
X135124390Y-74078631D01*
X135122924Y-74078414D01*
X135012601Y-74068606D01*
X135011658Y-74068557D01*
X134895309Y-74066892D01*
X134894922Y-74066893D01*
X134769392Y-74068922D01*
X134631745Y-74070193D01*
X134487498Y-74066502D01*
X134163173Y-73034909D01*
X135206575Y-72751170D01*
X135304693Y-72898626D01*
G37*
%TD.AperFunction*%
%TD*%
D17*
%TO.N,/A13*%
X132729512Y-73602722D02*
X132655104Y-73745071D01*
X132578890Y-73873144D01*
X132506227Y-73986060D01*
X132438594Y-74090441D01*
X132438344Y-74090842D01*
X132377227Y-74193328D01*
X132376755Y-74194195D01*
X132323588Y-74301514D01*
X132323051Y-74302762D01*
X132279243Y-74421676D01*
X132278813Y-74423094D01*
X132245775Y-74560366D01*
X132245525Y-74561720D01*
X132224668Y-74724110D01*
X132224574Y-74725253D01*
X132217766Y-74907300D01*
X131742234Y-74907300D01*
X131735425Y-74725253D01*
X131735331Y-74724110D01*
X131714474Y-74561720D01*
X131714224Y-74560366D01*
X131681186Y-74423094D01*
X131680756Y-74421676D01*
X131636948Y-74302762D01*
X131636411Y-74301514D01*
X131583244Y-74194195D01*
X131582772Y-74193328D01*
X131521655Y-74090842D01*
X131521405Y-74090441D01*
X131453772Y-73986060D01*
X131381109Y-73873144D01*
X131304896Y-73745071D01*
X131230488Y-73602722D01*
X131980000Y-72823322D01*
X132729512Y-73602722D01*
%TA.AperFunction,Conductor*%
D16*
G36*
X132729512Y-73602722D02*
G01*
X132655104Y-73745071D01*
X132578890Y-73873144D01*
X132506227Y-73986060D01*
X132438594Y-74090441D01*
X132438344Y-74090842D01*
X132377227Y-74193328D01*
X132376755Y-74194195D01*
X132323588Y-74301514D01*
X132323051Y-74302762D01*
X132279243Y-74421676D01*
X132278813Y-74423094D01*
X132245775Y-74560366D01*
X132245525Y-74561720D01*
X132224668Y-74724110D01*
X132224574Y-74725253D01*
X132217766Y-74907300D01*
X131742234Y-74907300D01*
X131735425Y-74725253D01*
X131735331Y-74724110D01*
X131714474Y-74561720D01*
X131714224Y-74560366D01*
X131681186Y-74423094D01*
X131680756Y-74421676D01*
X131636948Y-74302762D01*
X131636411Y-74301514D01*
X131583244Y-74194195D01*
X131582772Y-74193328D01*
X131521655Y-74090842D01*
X131521405Y-74090441D01*
X131453772Y-73986060D01*
X131381109Y-73873144D01*
X131304896Y-73745071D01*
X131230488Y-73602722D01*
X131980000Y-72823322D01*
X132729512Y-73602722D01*
G37*
%TD.AperFunction*%
%TD*%
D17*
%TO.N,/A14*%
X130189512Y-73602722D02*
X130115104Y-73745071D01*
X130038890Y-73873144D01*
X129966227Y-73986060D01*
X129898594Y-74090441D01*
X129898344Y-74090842D01*
X129837227Y-74193328D01*
X129836755Y-74194195D01*
X129783588Y-74301514D01*
X129783051Y-74302762D01*
X129739243Y-74421676D01*
X129738813Y-74423094D01*
X129705775Y-74560366D01*
X129705525Y-74561720D01*
X129684668Y-74724110D01*
X129684574Y-74725253D01*
X129677766Y-74907300D01*
X129202234Y-74907300D01*
X129195425Y-74725253D01*
X129195331Y-74724110D01*
X129174474Y-74561720D01*
X129174224Y-74560366D01*
X129141186Y-74423094D01*
X129140756Y-74421676D01*
X129096948Y-74302762D01*
X129096411Y-74301514D01*
X129043244Y-74194195D01*
X129042772Y-74193328D01*
X128981655Y-74090842D01*
X128981405Y-74090441D01*
X128913772Y-73986060D01*
X128841109Y-73873144D01*
X128764896Y-73745071D01*
X128690488Y-73602722D01*
X129440000Y-72823322D01*
X130189512Y-73602722D01*
%TA.AperFunction,Conductor*%
D16*
G36*
X130189512Y-73602722D02*
G01*
X130115104Y-73745071D01*
X130038890Y-73873144D01*
X129966227Y-73986060D01*
X129898594Y-74090441D01*
X129898344Y-74090842D01*
X129837227Y-74193328D01*
X129836755Y-74194195D01*
X129783588Y-74301514D01*
X129783051Y-74302762D01*
X129739243Y-74421676D01*
X129738813Y-74423094D01*
X129705775Y-74560366D01*
X129705525Y-74561720D01*
X129684668Y-74724110D01*
X129684574Y-74725253D01*
X129677766Y-74907300D01*
X129202234Y-74907300D01*
X129195425Y-74725253D01*
X129195331Y-74724110D01*
X129174474Y-74561720D01*
X129174224Y-74560366D01*
X129141186Y-74423094D01*
X129140756Y-74421676D01*
X129096948Y-74302762D01*
X129096411Y-74301514D01*
X129043244Y-74194195D01*
X129042772Y-74193328D01*
X128981655Y-74090842D01*
X128981405Y-74090441D01*
X128913772Y-73986060D01*
X128841109Y-73873144D01*
X128764896Y-73745071D01*
X128690488Y-73602722D01*
X129440000Y-72823322D01*
X130189512Y-73602722D01*
G37*
%TD.AperFunction*%
%TD*%
D17*
%TO.N,/A15*%
X127649512Y-73602722D02*
X127575104Y-73745071D01*
X127498890Y-73873144D01*
X127426227Y-73986060D01*
X127358594Y-74090441D01*
X127358344Y-74090842D01*
X127297227Y-74193328D01*
X127296755Y-74194195D01*
X127243588Y-74301514D01*
X127243051Y-74302762D01*
X127199243Y-74421676D01*
X127198813Y-74423094D01*
X127165775Y-74560366D01*
X127165525Y-74561720D01*
X127144668Y-74724110D01*
X127144574Y-74725253D01*
X127137766Y-74907300D01*
X126662234Y-74907300D01*
X126655425Y-74725253D01*
X126655331Y-74724110D01*
X126634474Y-74561720D01*
X126634224Y-74560366D01*
X126601186Y-74423094D01*
X126600756Y-74421676D01*
X126556948Y-74302762D01*
X126556411Y-74301514D01*
X126503244Y-74194195D01*
X126502772Y-74193328D01*
X126441655Y-74090842D01*
X126441405Y-74090441D01*
X126373772Y-73986060D01*
X126301109Y-73873144D01*
X126224896Y-73745071D01*
X126150488Y-73602722D01*
X126900000Y-72823322D01*
X127649512Y-73602722D01*
%TA.AperFunction,Conductor*%
D16*
G36*
X127649512Y-73602722D02*
G01*
X127575104Y-73745071D01*
X127498890Y-73873144D01*
X127426227Y-73986060D01*
X127358594Y-74090441D01*
X127358344Y-74090842D01*
X127297227Y-74193328D01*
X127296755Y-74194195D01*
X127243588Y-74301514D01*
X127243051Y-74302762D01*
X127199243Y-74421676D01*
X127198813Y-74423094D01*
X127165775Y-74560366D01*
X127165525Y-74561720D01*
X127144668Y-74724110D01*
X127144574Y-74725253D01*
X127137766Y-74907300D01*
X126662234Y-74907300D01*
X126655425Y-74725253D01*
X126655331Y-74724110D01*
X126634474Y-74561720D01*
X126634224Y-74560366D01*
X126601186Y-74423094D01*
X126600756Y-74421676D01*
X126556948Y-74302762D01*
X126556411Y-74301514D01*
X126503244Y-74194195D01*
X126502772Y-74193328D01*
X126441655Y-74090842D01*
X126441405Y-74090441D01*
X126373772Y-73986060D01*
X126301109Y-73873144D01*
X126224896Y-73745071D01*
X126150488Y-73602722D01*
X126900000Y-72823322D01*
X127649512Y-73602722D01*
G37*
%TD.AperFunction*%
%TD*%
M02*
