%TF.GenerationSoftware,KiCad,Pcbnew,4.0.2+dfsg1-stable*%
%TF.CreationDate,2019-04-18T09:25:44+02:00*%
%TF.ProjectId,ECI-Breakout,4543492D427265616B6F75742E6B6963,rev?*%
%TF.FileFunction,Legend,Bot*%
%FSLAX46Y46*%
G04 Gerber Fmt 4.6, Leading zero omitted, Abs format (unit mm)*
G04 Created by KiCad (PCBNEW 4.0.2+dfsg1-stable) date gio 18 apr 2019 09:25:44 CEST*
%MOMM*%
G01*
G04 APERTURE LIST*
%ADD10C,0.100000*%
%ADD11C,0.010000*%
%ADD12C,0.150000*%
G04 APERTURE END LIST*
D10*
X139628571Y-77986190D02*
X139628571Y-78319524D01*
X140152381Y-78462381D02*
X140152381Y-77986190D01*
X139152381Y-77986190D01*
X139152381Y-78462381D01*
X139152381Y-78795714D02*
X140152381Y-79462381D01*
X139152381Y-79462381D02*
X140152381Y-78795714D01*
X140104762Y-79795714D02*
X140152381Y-79938571D01*
X140152381Y-80176667D01*
X140104762Y-80271905D01*
X140057143Y-80319524D01*
X139961905Y-80367143D01*
X139866667Y-80367143D01*
X139771429Y-80319524D01*
X139723810Y-80271905D01*
X139676190Y-80176667D01*
X139628571Y-79986190D01*
X139580952Y-79890952D01*
X139533333Y-79843333D01*
X139438095Y-79795714D01*
X139342857Y-79795714D01*
X139247619Y-79843333D01*
X139200000Y-79890952D01*
X139152381Y-79986190D01*
X139152381Y-80224286D01*
X139200000Y-80367143D01*
X139628571Y-80795714D02*
X139628571Y-81129048D01*
X140152381Y-81271905D02*
X140152381Y-80795714D01*
X139152381Y-80795714D01*
X139152381Y-81271905D01*
X140152381Y-82176667D02*
X140152381Y-81700476D01*
X139152381Y-81700476D01*
X138980000Y-77748095D02*
X138980000Y-82271905D01*
X137866381Y-80478381D02*
X137390190Y-80145047D01*
X137866381Y-79906952D02*
X136866381Y-79906952D01*
X136866381Y-80287905D01*
X136914000Y-80383143D01*
X136961619Y-80430762D01*
X137056857Y-80478381D01*
X137199714Y-80478381D01*
X137294952Y-80430762D01*
X137342571Y-80383143D01*
X137390190Y-80287905D01*
X137390190Y-79906952D01*
X137818762Y-80859333D02*
X137866381Y-81002190D01*
X137866381Y-81240286D01*
X137818762Y-81335524D01*
X137771143Y-81383143D01*
X137675905Y-81430762D01*
X137580667Y-81430762D01*
X137485429Y-81383143D01*
X137437810Y-81335524D01*
X137390190Y-81240286D01*
X137342571Y-81049809D01*
X137294952Y-80954571D01*
X137247333Y-80906952D01*
X137152095Y-80859333D01*
X137056857Y-80859333D01*
X136961619Y-80906952D01*
X136914000Y-80954571D01*
X136866381Y-81049809D01*
X136866381Y-81287905D01*
X136914000Y-81430762D01*
X136866381Y-81716476D02*
X136866381Y-82287905D01*
X137866381Y-82002190D02*
X136866381Y-82002190D01*
X136694000Y-79668857D02*
X136694000Y-82383143D01*
X135072381Y-78827524D02*
X134072381Y-78827524D01*
X134072381Y-79065619D01*
X134120000Y-79208477D01*
X134215238Y-79303715D01*
X134310476Y-79351334D01*
X134500952Y-79398953D01*
X134643810Y-79398953D01*
X134834286Y-79351334D01*
X134929524Y-79303715D01*
X135024762Y-79208477D01*
X135072381Y-79065619D01*
X135072381Y-78827524D01*
X135072381Y-80351334D02*
X135072381Y-79779905D01*
X135072381Y-80065619D02*
X134072381Y-80065619D01*
X134215238Y-79970381D01*
X134310476Y-79875143D01*
X134358095Y-79779905D01*
X134072381Y-80684667D02*
X135072381Y-81351334D01*
X134072381Y-81351334D02*
X135072381Y-80684667D01*
X134072381Y-81637048D02*
X135072381Y-82303715D01*
X134072381Y-82303715D02*
X135072381Y-81637048D01*
X133900000Y-78589429D02*
X133900000Y-82446572D01*
X132532381Y-79438667D02*
X131532381Y-79438667D01*
X132246667Y-79772001D01*
X131532381Y-80105334D01*
X132532381Y-80105334D01*
X132532381Y-80581524D02*
X131532381Y-80581524D01*
X131532381Y-80962477D01*
X131580000Y-81057715D01*
X131627619Y-81105334D01*
X131722857Y-81152953D01*
X131865714Y-81152953D01*
X131960952Y-81105334D01*
X132008571Y-81057715D01*
X132056190Y-80962477D01*
X132056190Y-80581524D01*
X132532381Y-81581524D02*
X131532381Y-81581524D01*
X131532381Y-81819619D01*
X131580000Y-81962477D01*
X131675238Y-82057715D01*
X131770476Y-82105334D01*
X131960952Y-82152953D01*
X132103810Y-82152953D01*
X132294286Y-82105334D01*
X132389524Y-82057715D01*
X132484762Y-81962477D01*
X132532381Y-81819619D01*
X132532381Y-81581524D01*
X131360000Y-79200572D02*
X131360000Y-82343429D01*
X129706667Y-78240191D02*
X129706667Y-78716382D01*
X129992381Y-78144953D02*
X128992381Y-78478286D01*
X129992381Y-78811620D01*
X128992381Y-79144953D02*
X129801905Y-79144953D01*
X129897143Y-79192572D01*
X129944762Y-79240191D01*
X129992381Y-79335429D01*
X129992381Y-79525906D01*
X129944762Y-79621144D01*
X129897143Y-79668763D01*
X129801905Y-79716382D01*
X128992381Y-79716382D01*
X129992381Y-80192572D02*
X128992381Y-80192572D01*
X128992381Y-80430667D01*
X129040000Y-80573525D01*
X129135238Y-80668763D01*
X129230476Y-80716382D01*
X129420952Y-80764001D01*
X129563810Y-80764001D01*
X129754286Y-80716382D01*
X129849524Y-80668763D01*
X129944762Y-80573525D01*
X129992381Y-80430667D01*
X129992381Y-80192572D01*
X129992381Y-81192572D02*
X128992381Y-81192572D01*
X128992381Y-81859238D02*
X128992381Y-82049715D01*
X129040000Y-82144953D01*
X129135238Y-82240191D01*
X129325714Y-82287810D01*
X129659048Y-82287810D01*
X129849524Y-82240191D01*
X129944762Y-82144953D01*
X129992381Y-82049715D01*
X129992381Y-81859238D01*
X129944762Y-81764000D01*
X129849524Y-81668762D01*
X129659048Y-81621143D01*
X129325714Y-81621143D01*
X129135238Y-81668762D01*
X129040000Y-81764000D01*
X128992381Y-81859238D01*
X127452381Y-80454572D02*
X126976190Y-80121238D01*
X127452381Y-79883143D02*
X126452381Y-79883143D01*
X126452381Y-80264096D01*
X126500000Y-80359334D01*
X126547619Y-80406953D01*
X126642857Y-80454572D01*
X126785714Y-80454572D01*
X126880952Y-80406953D01*
X126928571Y-80359334D01*
X126976190Y-80264096D01*
X126976190Y-79883143D01*
X126928571Y-80883143D02*
X126928571Y-81216477D01*
X127452381Y-81359334D02*
X127452381Y-80883143D01*
X126452381Y-80883143D01*
X126452381Y-81359334D01*
X126928571Y-82121239D02*
X126928571Y-81787905D01*
X127452381Y-81787905D02*
X126452381Y-81787905D01*
X126452381Y-82264096D01*
X126280000Y-79645048D02*
X126280000Y-82406953D01*
X123912381Y-79692667D02*
X124912381Y-80026000D01*
X123912381Y-80359334D01*
X124817143Y-81264096D02*
X124864762Y-81216477D01*
X124912381Y-81073620D01*
X124912381Y-80978382D01*
X124864762Y-80835524D01*
X124769524Y-80740286D01*
X124674286Y-80692667D01*
X124483810Y-80645048D01*
X124340952Y-80645048D01*
X124150476Y-80692667D01*
X124055238Y-80740286D01*
X123960000Y-80835524D01*
X123912381Y-80978382D01*
X123912381Y-81073620D01*
X123960000Y-81216477D01*
X124007619Y-81264096D01*
X124817143Y-82264096D02*
X124864762Y-82216477D01*
X124912381Y-82073620D01*
X124912381Y-81978382D01*
X124864762Y-81835524D01*
X124769524Y-81740286D01*
X124674286Y-81692667D01*
X124483810Y-81645048D01*
X124340952Y-81645048D01*
X124150476Y-81692667D01*
X124055238Y-81740286D01*
X123960000Y-81835524D01*
X123912381Y-81978382D01*
X123912381Y-82073620D01*
X123960000Y-82216477D01*
X124007619Y-82264096D01*
X140152381Y-70334286D02*
X139152381Y-70334286D01*
X140152381Y-70905715D01*
X139152381Y-70905715D01*
X140057143Y-71953334D02*
X140104762Y-71905715D01*
X140152381Y-71762858D01*
X140152381Y-71667620D01*
X140104762Y-71524762D01*
X140009524Y-71429524D01*
X139914286Y-71381905D01*
X139723810Y-71334286D01*
X139580952Y-71334286D01*
X139390476Y-71381905D01*
X139295238Y-71429524D01*
X139200000Y-71524762D01*
X139152381Y-71667620D01*
X139152381Y-71762858D01*
X139200000Y-71905715D01*
X139247619Y-71953334D01*
X137612381Y-69842191D02*
X136612381Y-69842191D01*
X137612381Y-70889810D02*
X137136190Y-70556476D01*
X137612381Y-70318381D02*
X136612381Y-70318381D01*
X136612381Y-70699334D01*
X136660000Y-70794572D01*
X136707619Y-70842191D01*
X136802857Y-70889810D01*
X136945714Y-70889810D01*
X137040952Y-70842191D01*
X137088571Y-70794572D01*
X137136190Y-70699334D01*
X137136190Y-70318381D01*
X137707619Y-71985048D02*
X137660000Y-71889810D01*
X137564762Y-71794572D01*
X137421905Y-71651715D01*
X137374286Y-71556476D01*
X137374286Y-71461238D01*
X137612381Y-71508857D02*
X137564762Y-71413619D01*
X137469524Y-71318381D01*
X137279048Y-71270762D01*
X136945714Y-71270762D01*
X136755238Y-71318381D01*
X136660000Y-71413619D01*
X136612381Y-71508857D01*
X136612381Y-71699334D01*
X136660000Y-71794572D01*
X136755238Y-71889810D01*
X136945714Y-71937429D01*
X137279048Y-71937429D01*
X137469524Y-71889810D01*
X137564762Y-71794572D01*
X137612381Y-71699334D01*
X137612381Y-71508857D01*
X136440000Y-69604096D02*
X136440000Y-72127905D01*
X135072381Y-69112000D02*
X134072381Y-69112000D01*
X134548571Y-69112000D02*
X134548571Y-69683429D01*
X135072381Y-69683429D02*
X134072381Y-69683429D01*
X134786667Y-70112000D02*
X134786667Y-70588191D01*
X135072381Y-70016762D02*
X134072381Y-70350095D01*
X135072381Y-70683429D01*
X135072381Y-71492953D02*
X135072381Y-71016762D01*
X134072381Y-71016762D01*
X134072381Y-71683429D02*
X134072381Y-72254858D01*
X135072381Y-71969143D02*
X134072381Y-71969143D01*
X133900000Y-68873905D02*
X133900000Y-72350096D01*
X132246667Y-69675524D02*
X132246667Y-70151715D01*
X132532381Y-69580286D02*
X131532381Y-69913619D01*
X132532381Y-70246953D01*
X132532381Y-71104096D02*
X132532381Y-70532667D01*
X132532381Y-70818381D02*
X131532381Y-70818381D01*
X131675238Y-70723143D01*
X131770476Y-70627905D01*
X131818095Y-70532667D01*
X131532381Y-71437429D02*
X131532381Y-72056477D01*
X131913333Y-71723143D01*
X131913333Y-71866001D01*
X131960952Y-71961239D01*
X132008571Y-72008858D01*
X132103810Y-72056477D01*
X132341905Y-72056477D01*
X132437143Y-72008858D01*
X132484762Y-71961239D01*
X132532381Y-71866001D01*
X132532381Y-71580286D01*
X132484762Y-71485048D01*
X132437143Y-71437429D01*
X129706667Y-69675524D02*
X129706667Y-70151715D01*
X129992381Y-69580286D02*
X128992381Y-69913619D01*
X129992381Y-70246953D01*
X129992381Y-71104096D02*
X129992381Y-70532667D01*
X129992381Y-70818381D02*
X128992381Y-70818381D01*
X129135238Y-70723143D01*
X129230476Y-70627905D01*
X129278095Y-70532667D01*
X129325714Y-71961239D02*
X129992381Y-71961239D01*
X128944762Y-71723143D02*
X129659048Y-71485048D01*
X129659048Y-72104096D01*
X127166667Y-69675524D02*
X127166667Y-70151715D01*
X127452381Y-69580286D02*
X126452381Y-69913619D01*
X127452381Y-70246953D01*
X127452381Y-71104096D02*
X127452381Y-70532667D01*
X127452381Y-70818381D02*
X126452381Y-70818381D01*
X126595238Y-70723143D01*
X126690476Y-70627905D01*
X126738095Y-70532667D01*
X126452381Y-72008858D02*
X126452381Y-71532667D01*
X126928571Y-71485048D01*
X126880952Y-71532667D01*
X126833333Y-71627905D01*
X126833333Y-71866001D01*
X126880952Y-71961239D01*
X126928571Y-72008858D01*
X127023810Y-72056477D01*
X127261905Y-72056477D01*
X127357143Y-72008858D01*
X127404762Y-71961239D01*
X127452381Y-71866001D01*
X127452381Y-71627905D01*
X127404762Y-71532667D01*
X127357143Y-71485048D01*
X123960000Y-70104096D02*
X123912381Y-70008858D01*
X123912381Y-69866001D01*
X123960000Y-69723143D01*
X124055238Y-69627905D01*
X124150476Y-69580286D01*
X124340952Y-69532667D01*
X124483810Y-69532667D01*
X124674286Y-69580286D01*
X124769524Y-69627905D01*
X124864762Y-69723143D01*
X124912381Y-69866001D01*
X124912381Y-69961239D01*
X124864762Y-70104096D01*
X124817143Y-70151715D01*
X124483810Y-70151715D01*
X124483810Y-69961239D01*
X124912381Y-70580286D02*
X123912381Y-70580286D01*
X124912381Y-71151715D01*
X123912381Y-71151715D01*
X124912381Y-71627905D02*
X123912381Y-71627905D01*
X123912381Y-71866000D01*
X123960000Y-72008858D01*
X124055238Y-72104096D01*
X124150476Y-72151715D01*
X124340952Y-72199334D01*
X124483810Y-72199334D01*
X124674286Y-72151715D01*
X124769524Y-72104096D01*
X124864762Y-72008858D01*
X124912381Y-71866000D01*
X124912381Y-71627905D01*
D11*
G36*
X135026400Y-89437054D02*
X135015535Y-89550993D01*
X134983918Y-89658616D01*
X134933015Y-89757615D01*
X134864293Y-89845684D01*
X134779219Y-89920516D01*
X134682232Y-89978384D01*
X134575964Y-90018005D01*
X134468950Y-90036573D01*
X134363300Y-90035434D01*
X134261125Y-90015930D01*
X134164534Y-89979406D01*
X134075638Y-89927205D01*
X133996546Y-89860673D01*
X133929369Y-89781152D01*
X133876217Y-89689987D01*
X133839199Y-89588523D01*
X133820427Y-89478102D01*
X133818489Y-89428206D01*
X133818489Y-89340267D01*
X133766560Y-89340267D01*
X133730253Y-89343111D01*
X133703355Y-89354911D01*
X133676249Y-89378649D01*
X133637867Y-89417031D01*
X133637867Y-91608602D01*
X133637876Y-91870739D01*
X133637908Y-92111241D01*
X133637972Y-92331048D01*
X133638076Y-92531101D01*
X133638227Y-92712344D01*
X133638434Y-92875716D01*
X133638706Y-93022160D01*
X133639050Y-93152617D01*
X133639474Y-93268029D01*
X133639987Y-93369338D01*
X133640597Y-93457484D01*
X133641312Y-93533410D01*
X133642140Y-93598057D01*
X133643089Y-93652367D01*
X133644167Y-93697280D01*
X133645383Y-93733740D01*
X133646745Y-93762687D01*
X133648261Y-93785063D01*
X133649938Y-93801809D01*
X133651786Y-93813868D01*
X133653813Y-93822180D01*
X133656025Y-93827687D01*
X133657108Y-93829537D01*
X133661271Y-93836549D01*
X133664805Y-93842996D01*
X133668635Y-93848900D01*
X133673682Y-93854286D01*
X133680871Y-93859178D01*
X133691123Y-93863598D01*
X133705364Y-93867572D01*
X133724514Y-93871121D01*
X133749499Y-93874270D01*
X133781240Y-93877042D01*
X133820662Y-93879461D01*
X133868686Y-93881551D01*
X133926237Y-93883335D01*
X133994237Y-93884837D01*
X134073610Y-93886080D01*
X134165279Y-93887089D01*
X134270166Y-93887885D01*
X134389196Y-93888494D01*
X134523290Y-93888939D01*
X134673373Y-93889243D01*
X134840367Y-93889430D01*
X135025196Y-93889524D01*
X135228783Y-93889548D01*
X135452050Y-93889525D01*
X135695922Y-93889480D01*
X135961321Y-93889437D01*
X135999704Y-93889432D01*
X136266682Y-93889389D01*
X136512002Y-93889318D01*
X136736583Y-93889213D01*
X136941345Y-93889066D01*
X137127206Y-93888869D01*
X137295088Y-93888616D01*
X137445908Y-93888300D01*
X137580587Y-93887913D01*
X137700044Y-93887447D01*
X137805199Y-93886897D01*
X137896971Y-93886253D01*
X137976279Y-93885511D01*
X138044043Y-93884661D01*
X138101182Y-93883697D01*
X138148617Y-93882611D01*
X138187266Y-93881397D01*
X138218049Y-93880047D01*
X138241885Y-93878555D01*
X138259694Y-93876911D01*
X138272395Y-93875111D01*
X138280908Y-93873145D01*
X138285266Y-93871477D01*
X138293728Y-93867906D01*
X138301497Y-93865270D01*
X138308602Y-93862634D01*
X138315073Y-93859062D01*
X138320939Y-93853621D01*
X138326229Y-93845375D01*
X138330974Y-93833390D01*
X138335202Y-93816731D01*
X138338943Y-93794463D01*
X138342227Y-93765652D01*
X138345083Y-93729363D01*
X138347540Y-93684661D01*
X138349629Y-93630611D01*
X138351378Y-93566279D01*
X138352817Y-93490730D01*
X138353976Y-93403030D01*
X138354883Y-93302243D01*
X138355569Y-93187434D01*
X138356063Y-93057670D01*
X138356395Y-92912015D01*
X138356593Y-92749535D01*
X138356687Y-92569295D01*
X138356708Y-92370360D01*
X138356685Y-92151796D01*
X138356646Y-91912668D01*
X138356622Y-91652040D01*
X138356622Y-91609889D01*
X138356636Y-91346992D01*
X138356661Y-91105732D01*
X138356671Y-90885165D01*
X138356642Y-90684352D01*
X138356548Y-90502349D01*
X138356362Y-90338216D01*
X138356059Y-90191011D01*
X138355614Y-90059792D01*
X138355034Y-89949867D01*
X138052197Y-89949867D01*
X138012407Y-90007711D01*
X138001236Y-90023479D01*
X137991166Y-90037441D01*
X137982138Y-90050784D01*
X137974097Y-90064693D01*
X137966986Y-90080356D01*
X137960747Y-90098958D01*
X137955325Y-90121686D01*
X137950662Y-90149727D01*
X137946701Y-90184267D01*
X137943385Y-90226492D01*
X137940659Y-90277589D01*
X137938464Y-90338744D01*
X137936745Y-90411144D01*
X137935444Y-90495975D01*
X137934505Y-90594422D01*
X137933870Y-90707674D01*
X137933484Y-90836916D01*
X137933288Y-90983334D01*
X137933227Y-91148116D01*
X137933243Y-91332447D01*
X137933280Y-91537513D01*
X137933289Y-91660133D01*
X137933265Y-91877082D01*
X137933231Y-92072642D01*
X137933243Y-92247999D01*
X137933358Y-92404341D01*
X137933630Y-92542857D01*
X137934118Y-92664734D01*
X137934876Y-92771160D01*
X137935962Y-92863322D01*
X137937431Y-92942409D01*
X137939340Y-93009608D01*
X137941744Y-93066107D01*
X137944701Y-93113093D01*
X137948266Y-93151755D01*
X137952495Y-93183280D01*
X137957446Y-93208855D01*
X137963173Y-93229670D01*
X137969733Y-93246911D01*
X137977183Y-93261765D01*
X137985579Y-93275422D01*
X137994976Y-93289069D01*
X138005432Y-93303893D01*
X138011523Y-93312783D01*
X138050296Y-93370400D01*
X137518732Y-93370400D01*
X137395483Y-93370365D01*
X137292987Y-93370215D01*
X137209420Y-93369878D01*
X137142956Y-93369286D01*
X137091771Y-93368367D01*
X137054041Y-93367051D01*
X137027940Y-93365269D01*
X137011644Y-93362951D01*
X137003328Y-93360026D01*
X137001168Y-93356424D01*
X137003339Y-93352075D01*
X137004535Y-93350645D01*
X137029685Y-93313573D01*
X137055583Y-93260772D01*
X137079192Y-93198770D01*
X137087461Y-93172357D01*
X137092078Y-93154416D01*
X137095979Y-93133355D01*
X137099248Y-93107089D01*
X137101966Y-93073532D01*
X137104215Y-93030599D01*
X137106077Y-92976204D01*
X137107636Y-92908262D01*
X137108972Y-92824688D01*
X137110169Y-92723395D01*
X137111308Y-92602300D01*
X137111685Y-92557600D01*
X137112702Y-92432449D01*
X137113460Y-92328082D01*
X137113903Y-92242707D01*
X137113970Y-92174533D01*
X137113605Y-92121765D01*
X137112748Y-92082614D01*
X137111341Y-92055285D01*
X137109325Y-92037986D01*
X137106643Y-92028926D01*
X137103236Y-92026312D01*
X137099044Y-92028351D01*
X137094571Y-92032667D01*
X137084216Y-92045602D01*
X137062158Y-92074676D01*
X137029957Y-92117759D01*
X136989174Y-92172718D01*
X136941370Y-92237423D01*
X136888105Y-92309742D01*
X136830940Y-92387544D01*
X136771437Y-92468698D01*
X136711155Y-92551072D01*
X136651655Y-92632536D01*
X136594498Y-92710957D01*
X136541245Y-92784204D01*
X136493457Y-92850147D01*
X136452693Y-92906654D01*
X136420516Y-92951593D01*
X136398485Y-92982834D01*
X136393917Y-92989466D01*
X136370996Y-93026369D01*
X136344188Y-93074359D01*
X136318789Y-93123897D01*
X136315568Y-93130577D01*
X136293890Y-93178772D01*
X136281304Y-93216334D01*
X136275574Y-93252160D01*
X136274456Y-93294200D01*
X136275090Y-93370400D01*
X135120651Y-93370400D01*
X135211815Y-93276669D01*
X135258612Y-93226775D01*
X135308899Y-93170295D01*
X135354944Y-93116026D01*
X135375369Y-93090673D01*
X135405807Y-93051128D01*
X135445862Y-92997916D01*
X135494361Y-92932667D01*
X135550135Y-92857011D01*
X135612011Y-92772577D01*
X135678819Y-92680994D01*
X135749387Y-92583892D01*
X135822545Y-92482901D01*
X135897121Y-92379650D01*
X135971944Y-92275768D01*
X136045843Y-92172885D01*
X136117646Y-92072631D01*
X136186184Y-91976636D01*
X136250284Y-91886527D01*
X136308775Y-91803936D01*
X136360486Y-91730492D01*
X136404247Y-91667824D01*
X136438885Y-91617561D01*
X136463230Y-91581334D01*
X136476111Y-91560771D01*
X136477869Y-91556668D01*
X136469910Y-91545342D01*
X136449115Y-91518162D01*
X136416847Y-91476829D01*
X136374470Y-91423044D01*
X136323347Y-91358506D01*
X136264841Y-91284918D01*
X136200314Y-91203978D01*
X136131131Y-91117388D01*
X136058653Y-91026848D01*
X135984246Y-90934060D01*
X135924517Y-90859702D01*
X134913511Y-90859702D01*
X134907602Y-90872659D01*
X134893272Y-90894908D01*
X134892225Y-90896391D01*
X134873438Y-90926544D01*
X134853791Y-90963375D01*
X134849892Y-90971511D01*
X134846356Y-90979940D01*
X134843230Y-90990059D01*
X134840486Y-91003260D01*
X134838092Y-91020938D01*
X134836019Y-91044484D01*
X134834235Y-91075293D01*
X134832712Y-91114757D01*
X134831419Y-91164269D01*
X134830326Y-91225223D01*
X134829403Y-91299011D01*
X134828619Y-91387028D01*
X134827945Y-91490665D01*
X134827350Y-91611316D01*
X134826805Y-91750374D01*
X134826279Y-91909232D01*
X134825745Y-92088089D01*
X134825206Y-92273207D01*
X134824772Y-92437145D01*
X134824509Y-92581303D01*
X134824484Y-92707079D01*
X134824765Y-92815871D01*
X134825419Y-92909077D01*
X134826514Y-92988097D01*
X134828118Y-93054328D01*
X134830297Y-93109170D01*
X134833119Y-93154021D01*
X134836651Y-93190278D01*
X134840961Y-93219341D01*
X134846117Y-93242609D01*
X134852185Y-93261479D01*
X134859233Y-93277351D01*
X134867329Y-93291622D01*
X134876540Y-93305691D01*
X134885040Y-93318158D01*
X134902176Y-93344452D01*
X134912322Y-93362037D01*
X134913511Y-93365257D01*
X134902604Y-93366334D01*
X134871411Y-93367335D01*
X134822223Y-93368235D01*
X134757333Y-93369010D01*
X134679030Y-93369637D01*
X134589607Y-93370091D01*
X134491356Y-93370349D01*
X134422445Y-93370400D01*
X134317452Y-93370180D01*
X134220610Y-93369548D01*
X134134107Y-93368549D01*
X134060132Y-93367227D01*
X134000874Y-93365626D01*
X133958520Y-93363791D01*
X133935260Y-93361765D01*
X133931378Y-93360493D01*
X133939076Y-93345591D01*
X133947074Y-93337560D01*
X133960246Y-93320434D01*
X133977485Y-93290183D01*
X133989407Y-93265622D01*
X134016045Y-93206711D01*
X134019120Y-92029845D01*
X134022195Y-90852978D01*
X134467853Y-90852978D01*
X134565670Y-90853142D01*
X134656064Y-90853611D01*
X134736630Y-90854347D01*
X134804962Y-90855316D01*
X134858656Y-90856480D01*
X134895305Y-90857803D01*
X134912504Y-90859249D01*
X134913511Y-90859702D01*
X135924517Y-90859702D01*
X135909270Y-90840722D01*
X135835090Y-90748537D01*
X135763069Y-90659204D01*
X135694569Y-90574424D01*
X135630955Y-90495898D01*
X135573588Y-90425326D01*
X135523833Y-90364409D01*
X135483052Y-90314847D01*
X135465888Y-90294178D01*
X135379596Y-90193516D01*
X135302997Y-90110259D01*
X135234183Y-90042438D01*
X135171248Y-89988089D01*
X135161867Y-89980722D01*
X135122356Y-89950117D01*
X136254116Y-89949867D01*
X136248827Y-89997844D01*
X136252130Y-90055188D01*
X136273661Y-90123463D01*
X136313635Y-90203212D01*
X136358943Y-90275495D01*
X136375161Y-90298140D01*
X136403214Y-90335696D01*
X136441430Y-90386021D01*
X136488137Y-90446973D01*
X136541661Y-90516411D01*
X136600331Y-90592194D01*
X136662475Y-90672180D01*
X136726421Y-90754228D01*
X136790495Y-90836196D01*
X136853027Y-90915943D01*
X136912343Y-90991327D01*
X136966771Y-91060207D01*
X137014639Y-91120442D01*
X137054275Y-91169889D01*
X137084006Y-91206408D01*
X137102161Y-91227858D01*
X137105220Y-91231156D01*
X137108079Y-91223149D01*
X137110293Y-91192855D01*
X137111857Y-91140556D01*
X137112767Y-91066531D01*
X137113020Y-90971063D01*
X137112613Y-90854434D01*
X137111704Y-90734445D01*
X137110382Y-90602333D01*
X137108857Y-90490594D01*
X137106881Y-90397025D01*
X137104206Y-90319419D01*
X137100582Y-90255574D01*
X137095761Y-90203283D01*
X137089494Y-90160344D01*
X137081532Y-90124551D01*
X137071627Y-90093700D01*
X137059531Y-90065586D01*
X137044993Y-90038005D01*
X137030311Y-90012966D01*
X136992314Y-89949867D01*
X138052197Y-89949867D01*
X138355034Y-89949867D01*
X138355001Y-89943617D01*
X138354195Y-89841544D01*
X138353170Y-89752633D01*
X138351900Y-89675941D01*
X138350360Y-89610527D01*
X138348524Y-89555449D01*
X138346367Y-89509765D01*
X138343863Y-89472534D01*
X138340987Y-89442813D01*
X138337713Y-89419662D01*
X138334015Y-89402139D01*
X138329869Y-89389301D01*
X138325247Y-89380208D01*
X138320126Y-89373918D01*
X138314478Y-89369488D01*
X138308279Y-89365978D01*
X138301504Y-89362445D01*
X138295508Y-89358876D01*
X138290275Y-89356300D01*
X138282099Y-89353972D01*
X138269886Y-89351878D01*
X138252541Y-89350007D01*
X138228969Y-89348347D01*
X138198077Y-89346884D01*
X138158768Y-89345608D01*
X138109950Y-89344504D01*
X138050527Y-89343561D01*
X137979404Y-89342767D01*
X137895488Y-89342109D01*
X137797683Y-89341575D01*
X137684894Y-89341153D01*
X137556029Y-89340829D01*
X137409991Y-89340592D01*
X137245686Y-89340430D01*
X137062020Y-89340330D01*
X136857897Y-89340280D01*
X136646753Y-89340267D01*
X135026400Y-89340267D01*
X135026400Y-89437054D01*
X135026400Y-89437054D01*
G37*
X135026400Y-89437054D02*
X135015535Y-89550993D01*
X134983918Y-89658616D01*
X134933015Y-89757615D01*
X134864293Y-89845684D01*
X134779219Y-89920516D01*
X134682232Y-89978384D01*
X134575964Y-90018005D01*
X134468950Y-90036573D01*
X134363300Y-90035434D01*
X134261125Y-90015930D01*
X134164534Y-89979406D01*
X134075638Y-89927205D01*
X133996546Y-89860673D01*
X133929369Y-89781152D01*
X133876217Y-89689987D01*
X133839199Y-89588523D01*
X133820427Y-89478102D01*
X133818489Y-89428206D01*
X133818489Y-89340267D01*
X133766560Y-89340267D01*
X133730253Y-89343111D01*
X133703355Y-89354911D01*
X133676249Y-89378649D01*
X133637867Y-89417031D01*
X133637867Y-91608602D01*
X133637876Y-91870739D01*
X133637908Y-92111241D01*
X133637972Y-92331048D01*
X133638076Y-92531101D01*
X133638227Y-92712344D01*
X133638434Y-92875716D01*
X133638706Y-93022160D01*
X133639050Y-93152617D01*
X133639474Y-93268029D01*
X133639987Y-93369338D01*
X133640597Y-93457484D01*
X133641312Y-93533410D01*
X133642140Y-93598057D01*
X133643089Y-93652367D01*
X133644167Y-93697280D01*
X133645383Y-93733740D01*
X133646745Y-93762687D01*
X133648261Y-93785063D01*
X133649938Y-93801809D01*
X133651786Y-93813868D01*
X133653813Y-93822180D01*
X133656025Y-93827687D01*
X133657108Y-93829537D01*
X133661271Y-93836549D01*
X133664805Y-93842996D01*
X133668635Y-93848900D01*
X133673682Y-93854286D01*
X133680871Y-93859178D01*
X133691123Y-93863598D01*
X133705364Y-93867572D01*
X133724514Y-93871121D01*
X133749499Y-93874270D01*
X133781240Y-93877042D01*
X133820662Y-93879461D01*
X133868686Y-93881551D01*
X133926237Y-93883335D01*
X133994237Y-93884837D01*
X134073610Y-93886080D01*
X134165279Y-93887089D01*
X134270166Y-93887885D01*
X134389196Y-93888494D01*
X134523290Y-93888939D01*
X134673373Y-93889243D01*
X134840367Y-93889430D01*
X135025196Y-93889524D01*
X135228783Y-93889548D01*
X135452050Y-93889525D01*
X135695922Y-93889480D01*
X135961321Y-93889437D01*
X135999704Y-93889432D01*
X136266682Y-93889389D01*
X136512002Y-93889318D01*
X136736583Y-93889213D01*
X136941345Y-93889066D01*
X137127206Y-93888869D01*
X137295088Y-93888616D01*
X137445908Y-93888300D01*
X137580587Y-93887913D01*
X137700044Y-93887447D01*
X137805199Y-93886897D01*
X137896971Y-93886253D01*
X137976279Y-93885511D01*
X138044043Y-93884661D01*
X138101182Y-93883697D01*
X138148617Y-93882611D01*
X138187266Y-93881397D01*
X138218049Y-93880047D01*
X138241885Y-93878555D01*
X138259694Y-93876911D01*
X138272395Y-93875111D01*
X138280908Y-93873145D01*
X138285266Y-93871477D01*
X138293728Y-93867906D01*
X138301497Y-93865270D01*
X138308602Y-93862634D01*
X138315073Y-93859062D01*
X138320939Y-93853621D01*
X138326229Y-93845375D01*
X138330974Y-93833390D01*
X138335202Y-93816731D01*
X138338943Y-93794463D01*
X138342227Y-93765652D01*
X138345083Y-93729363D01*
X138347540Y-93684661D01*
X138349629Y-93630611D01*
X138351378Y-93566279D01*
X138352817Y-93490730D01*
X138353976Y-93403030D01*
X138354883Y-93302243D01*
X138355569Y-93187434D01*
X138356063Y-93057670D01*
X138356395Y-92912015D01*
X138356593Y-92749535D01*
X138356687Y-92569295D01*
X138356708Y-92370360D01*
X138356685Y-92151796D01*
X138356646Y-91912668D01*
X138356622Y-91652040D01*
X138356622Y-91609889D01*
X138356636Y-91346992D01*
X138356661Y-91105732D01*
X138356671Y-90885165D01*
X138356642Y-90684352D01*
X138356548Y-90502349D01*
X138356362Y-90338216D01*
X138356059Y-90191011D01*
X138355614Y-90059792D01*
X138355034Y-89949867D01*
X138052197Y-89949867D01*
X138012407Y-90007711D01*
X138001236Y-90023479D01*
X137991166Y-90037441D01*
X137982138Y-90050784D01*
X137974097Y-90064693D01*
X137966986Y-90080356D01*
X137960747Y-90098958D01*
X137955325Y-90121686D01*
X137950662Y-90149727D01*
X137946701Y-90184267D01*
X137943385Y-90226492D01*
X137940659Y-90277589D01*
X137938464Y-90338744D01*
X137936745Y-90411144D01*
X137935444Y-90495975D01*
X137934505Y-90594422D01*
X137933870Y-90707674D01*
X137933484Y-90836916D01*
X137933288Y-90983334D01*
X137933227Y-91148116D01*
X137933243Y-91332447D01*
X137933280Y-91537513D01*
X137933289Y-91660133D01*
X137933265Y-91877082D01*
X137933231Y-92072642D01*
X137933243Y-92247999D01*
X137933358Y-92404341D01*
X137933630Y-92542857D01*
X137934118Y-92664734D01*
X137934876Y-92771160D01*
X137935962Y-92863322D01*
X137937431Y-92942409D01*
X137939340Y-93009608D01*
X137941744Y-93066107D01*
X137944701Y-93113093D01*
X137948266Y-93151755D01*
X137952495Y-93183280D01*
X137957446Y-93208855D01*
X137963173Y-93229670D01*
X137969733Y-93246911D01*
X137977183Y-93261765D01*
X137985579Y-93275422D01*
X137994976Y-93289069D01*
X138005432Y-93303893D01*
X138011523Y-93312783D01*
X138050296Y-93370400D01*
X137518732Y-93370400D01*
X137395483Y-93370365D01*
X137292987Y-93370215D01*
X137209420Y-93369878D01*
X137142956Y-93369286D01*
X137091771Y-93368367D01*
X137054041Y-93367051D01*
X137027940Y-93365269D01*
X137011644Y-93362951D01*
X137003328Y-93360026D01*
X137001168Y-93356424D01*
X137003339Y-93352075D01*
X137004535Y-93350645D01*
X137029685Y-93313573D01*
X137055583Y-93260772D01*
X137079192Y-93198770D01*
X137087461Y-93172357D01*
X137092078Y-93154416D01*
X137095979Y-93133355D01*
X137099248Y-93107089D01*
X137101966Y-93073532D01*
X137104215Y-93030599D01*
X137106077Y-92976204D01*
X137107636Y-92908262D01*
X137108972Y-92824688D01*
X137110169Y-92723395D01*
X137111308Y-92602300D01*
X137111685Y-92557600D01*
X137112702Y-92432449D01*
X137113460Y-92328082D01*
X137113903Y-92242707D01*
X137113970Y-92174533D01*
X137113605Y-92121765D01*
X137112748Y-92082614D01*
X137111341Y-92055285D01*
X137109325Y-92037986D01*
X137106643Y-92028926D01*
X137103236Y-92026312D01*
X137099044Y-92028351D01*
X137094571Y-92032667D01*
X137084216Y-92045602D01*
X137062158Y-92074676D01*
X137029957Y-92117759D01*
X136989174Y-92172718D01*
X136941370Y-92237423D01*
X136888105Y-92309742D01*
X136830940Y-92387544D01*
X136771437Y-92468698D01*
X136711155Y-92551072D01*
X136651655Y-92632536D01*
X136594498Y-92710957D01*
X136541245Y-92784204D01*
X136493457Y-92850147D01*
X136452693Y-92906654D01*
X136420516Y-92951593D01*
X136398485Y-92982834D01*
X136393917Y-92989466D01*
X136370996Y-93026369D01*
X136344188Y-93074359D01*
X136318789Y-93123897D01*
X136315568Y-93130577D01*
X136293890Y-93178772D01*
X136281304Y-93216334D01*
X136275574Y-93252160D01*
X136274456Y-93294200D01*
X136275090Y-93370400D01*
X135120651Y-93370400D01*
X135211815Y-93276669D01*
X135258612Y-93226775D01*
X135308899Y-93170295D01*
X135354944Y-93116026D01*
X135375369Y-93090673D01*
X135405807Y-93051128D01*
X135445862Y-92997916D01*
X135494361Y-92932667D01*
X135550135Y-92857011D01*
X135612011Y-92772577D01*
X135678819Y-92680994D01*
X135749387Y-92583892D01*
X135822545Y-92482901D01*
X135897121Y-92379650D01*
X135971944Y-92275768D01*
X136045843Y-92172885D01*
X136117646Y-92072631D01*
X136186184Y-91976636D01*
X136250284Y-91886527D01*
X136308775Y-91803936D01*
X136360486Y-91730492D01*
X136404247Y-91667824D01*
X136438885Y-91617561D01*
X136463230Y-91581334D01*
X136476111Y-91560771D01*
X136477869Y-91556668D01*
X136469910Y-91545342D01*
X136449115Y-91518162D01*
X136416847Y-91476829D01*
X136374470Y-91423044D01*
X136323347Y-91358506D01*
X136264841Y-91284918D01*
X136200314Y-91203978D01*
X136131131Y-91117388D01*
X136058653Y-91026848D01*
X135984246Y-90934060D01*
X135924517Y-90859702D01*
X134913511Y-90859702D01*
X134907602Y-90872659D01*
X134893272Y-90894908D01*
X134892225Y-90896391D01*
X134873438Y-90926544D01*
X134853791Y-90963375D01*
X134849892Y-90971511D01*
X134846356Y-90979940D01*
X134843230Y-90990059D01*
X134840486Y-91003260D01*
X134838092Y-91020938D01*
X134836019Y-91044484D01*
X134834235Y-91075293D01*
X134832712Y-91114757D01*
X134831419Y-91164269D01*
X134830326Y-91225223D01*
X134829403Y-91299011D01*
X134828619Y-91387028D01*
X134827945Y-91490665D01*
X134827350Y-91611316D01*
X134826805Y-91750374D01*
X134826279Y-91909232D01*
X134825745Y-92088089D01*
X134825206Y-92273207D01*
X134824772Y-92437145D01*
X134824509Y-92581303D01*
X134824484Y-92707079D01*
X134824765Y-92815871D01*
X134825419Y-92909077D01*
X134826514Y-92988097D01*
X134828118Y-93054328D01*
X134830297Y-93109170D01*
X134833119Y-93154021D01*
X134836651Y-93190278D01*
X134840961Y-93219341D01*
X134846117Y-93242609D01*
X134852185Y-93261479D01*
X134859233Y-93277351D01*
X134867329Y-93291622D01*
X134876540Y-93305691D01*
X134885040Y-93318158D01*
X134902176Y-93344452D01*
X134912322Y-93362037D01*
X134913511Y-93365257D01*
X134902604Y-93366334D01*
X134871411Y-93367335D01*
X134822223Y-93368235D01*
X134757333Y-93369010D01*
X134679030Y-93369637D01*
X134589607Y-93370091D01*
X134491356Y-93370349D01*
X134422445Y-93370400D01*
X134317452Y-93370180D01*
X134220610Y-93369548D01*
X134134107Y-93368549D01*
X134060132Y-93367227D01*
X134000874Y-93365626D01*
X133958520Y-93363791D01*
X133935260Y-93361765D01*
X133931378Y-93360493D01*
X133939076Y-93345591D01*
X133947074Y-93337560D01*
X133960246Y-93320434D01*
X133977485Y-93290183D01*
X133989407Y-93265622D01*
X134016045Y-93206711D01*
X134019120Y-92029845D01*
X134022195Y-90852978D01*
X134467853Y-90852978D01*
X134565670Y-90853142D01*
X134656064Y-90853611D01*
X134736630Y-90854347D01*
X134804962Y-90855316D01*
X134858656Y-90856480D01*
X134895305Y-90857803D01*
X134912504Y-90859249D01*
X134913511Y-90859702D01*
X135924517Y-90859702D01*
X135909270Y-90840722D01*
X135835090Y-90748537D01*
X135763069Y-90659204D01*
X135694569Y-90574424D01*
X135630955Y-90495898D01*
X135573588Y-90425326D01*
X135523833Y-90364409D01*
X135483052Y-90314847D01*
X135465888Y-90294178D01*
X135379596Y-90193516D01*
X135302997Y-90110259D01*
X135234183Y-90042438D01*
X135171248Y-89988089D01*
X135161867Y-89980722D01*
X135122356Y-89950117D01*
X136254116Y-89949867D01*
X136248827Y-89997844D01*
X136252130Y-90055188D01*
X136273661Y-90123463D01*
X136313635Y-90203212D01*
X136358943Y-90275495D01*
X136375161Y-90298140D01*
X136403214Y-90335696D01*
X136441430Y-90386021D01*
X136488137Y-90446973D01*
X136541661Y-90516411D01*
X136600331Y-90592194D01*
X136662475Y-90672180D01*
X136726421Y-90754228D01*
X136790495Y-90836196D01*
X136853027Y-90915943D01*
X136912343Y-90991327D01*
X136966771Y-91060207D01*
X137014639Y-91120442D01*
X137054275Y-91169889D01*
X137084006Y-91206408D01*
X137102161Y-91227858D01*
X137105220Y-91231156D01*
X137108079Y-91223149D01*
X137110293Y-91192855D01*
X137111857Y-91140556D01*
X137112767Y-91066531D01*
X137113020Y-90971063D01*
X137112613Y-90854434D01*
X137111704Y-90734445D01*
X137110382Y-90602333D01*
X137108857Y-90490594D01*
X137106881Y-90397025D01*
X137104206Y-90319419D01*
X137100582Y-90255574D01*
X137095761Y-90203283D01*
X137089494Y-90160344D01*
X137081532Y-90124551D01*
X137071627Y-90093700D01*
X137059531Y-90065586D01*
X137044993Y-90038005D01*
X137030311Y-90012966D01*
X136992314Y-89949867D01*
X138052197Y-89949867D01*
X138355034Y-89949867D01*
X138355001Y-89943617D01*
X138354195Y-89841544D01*
X138353170Y-89752633D01*
X138351900Y-89675941D01*
X138350360Y-89610527D01*
X138348524Y-89555449D01*
X138346367Y-89509765D01*
X138343863Y-89472534D01*
X138340987Y-89442813D01*
X138337713Y-89419662D01*
X138334015Y-89402139D01*
X138329869Y-89389301D01*
X138325247Y-89380208D01*
X138320126Y-89373918D01*
X138314478Y-89369488D01*
X138308279Y-89365978D01*
X138301504Y-89362445D01*
X138295508Y-89358876D01*
X138290275Y-89356300D01*
X138282099Y-89353972D01*
X138269886Y-89351878D01*
X138252541Y-89350007D01*
X138228969Y-89348347D01*
X138198077Y-89346884D01*
X138158768Y-89345608D01*
X138109950Y-89344504D01*
X138050527Y-89343561D01*
X137979404Y-89342767D01*
X137895488Y-89342109D01*
X137797683Y-89341575D01*
X137684894Y-89341153D01*
X137556029Y-89340829D01*
X137409991Y-89340592D01*
X137245686Y-89340430D01*
X137062020Y-89340330D01*
X136857897Y-89340280D01*
X136646753Y-89340267D01*
X135026400Y-89340267D01*
X135026400Y-89437054D01*
G36*
X131751571Y-89897071D02*
X131591430Y-89918245D01*
X131427490Y-89958385D01*
X131257687Y-90017889D01*
X131079957Y-90097154D01*
X131068690Y-90102699D01*
X131010995Y-90130725D01*
X130959448Y-90154802D01*
X130917809Y-90173249D01*
X130889838Y-90184386D01*
X130880267Y-90186933D01*
X130861050Y-90191941D01*
X130856439Y-90196147D01*
X130861542Y-90206580D01*
X130877582Y-90232868D01*
X130902712Y-90272257D01*
X130935086Y-90321991D01*
X130972857Y-90379315D01*
X131014178Y-90441476D01*
X131057202Y-90505718D01*
X131100083Y-90569285D01*
X131140974Y-90629425D01*
X131178029Y-90683380D01*
X131209400Y-90728397D01*
X131233241Y-90761721D01*
X131247706Y-90780597D01*
X131249691Y-90782787D01*
X131259809Y-90778138D01*
X131282150Y-90760962D01*
X131312720Y-90734440D01*
X131328464Y-90719964D01*
X131424953Y-90644682D01*
X131531664Y-90589241D01*
X131647168Y-90554141D01*
X131770038Y-90539880D01*
X131839439Y-90541051D01*
X131960577Y-90558212D01*
X132069795Y-90594094D01*
X132167418Y-90648959D01*
X132253772Y-90723070D01*
X132329185Y-90816688D01*
X132393982Y-90930076D01*
X132431399Y-91016667D01*
X132475252Y-91152366D01*
X132507572Y-91299850D01*
X132528443Y-91455314D01*
X132537949Y-91614956D01*
X132536173Y-91774973D01*
X132523197Y-91931561D01*
X132499106Y-92080918D01*
X132463982Y-92219240D01*
X132417908Y-92342724D01*
X132401627Y-92376978D01*
X132333380Y-92491064D01*
X132252921Y-92587557D01*
X132161430Y-92665670D01*
X132060089Y-92724617D01*
X131950080Y-92763612D01*
X131832585Y-92781868D01*
X131791117Y-92783211D01*
X131669559Y-92772290D01*
X131549122Y-92739474D01*
X131431334Y-92685439D01*
X131317723Y-92610865D01*
X131226315Y-92532539D01*
X131179785Y-92488008D01*
X130998517Y-92785271D01*
X130953420Y-92859433D01*
X130912181Y-92927646D01*
X130876265Y-92987459D01*
X130847134Y-93036420D01*
X130826250Y-93072079D01*
X130815076Y-93091984D01*
X130813625Y-93095079D01*
X130821854Y-93104718D01*
X130847433Y-93121999D01*
X130887127Y-93145283D01*
X130937703Y-93172934D01*
X130995926Y-93203315D01*
X131058563Y-93234790D01*
X131122379Y-93265722D01*
X131184140Y-93294473D01*
X131240612Y-93319408D01*
X131288562Y-93338889D01*
X131312014Y-93347318D01*
X131445779Y-93385133D01*
X131583673Y-93410136D01*
X131731378Y-93423140D01*
X131858167Y-93425468D01*
X131926122Y-93424373D01*
X131991723Y-93422275D01*
X132049153Y-93419434D01*
X132092597Y-93416106D01*
X132106702Y-93414422D01*
X132245716Y-93385587D01*
X132387243Y-93340468D01*
X132524725Y-93281750D01*
X132651606Y-93212120D01*
X132729111Y-93159441D01*
X132856519Y-93051239D01*
X132974822Y-92924671D01*
X133081828Y-92782866D01*
X133175348Y-92628951D01*
X133253190Y-92466053D01*
X133297044Y-92348756D01*
X133347292Y-92165128D01*
X133380791Y-91970581D01*
X133397551Y-91769325D01*
X133397584Y-91565568D01*
X133380899Y-91363521D01*
X133347507Y-91167392D01*
X133297420Y-90981391D01*
X133293603Y-90969803D01*
X133230719Y-90807750D01*
X133153972Y-90659832D01*
X133060758Y-90521865D01*
X132948473Y-90389661D01*
X132904608Y-90344399D01*
X132768466Y-90220457D01*
X132628509Y-90117915D01*
X132482589Y-90035656D01*
X132328558Y-89972564D01*
X132164268Y-89927523D01*
X132068711Y-89910033D01*
X131909977Y-89894466D01*
X131751571Y-89897071D01*
X131751571Y-89897071D01*
G37*
X131751571Y-89897071D02*
X131591430Y-89918245D01*
X131427490Y-89958385D01*
X131257687Y-90017889D01*
X131079957Y-90097154D01*
X131068690Y-90102699D01*
X131010995Y-90130725D01*
X130959448Y-90154802D01*
X130917809Y-90173249D01*
X130889838Y-90184386D01*
X130880267Y-90186933D01*
X130861050Y-90191941D01*
X130856439Y-90196147D01*
X130861542Y-90206580D01*
X130877582Y-90232868D01*
X130902712Y-90272257D01*
X130935086Y-90321991D01*
X130972857Y-90379315D01*
X131014178Y-90441476D01*
X131057202Y-90505718D01*
X131100083Y-90569285D01*
X131140974Y-90629425D01*
X131178029Y-90683380D01*
X131209400Y-90728397D01*
X131233241Y-90761721D01*
X131247706Y-90780597D01*
X131249691Y-90782787D01*
X131259809Y-90778138D01*
X131282150Y-90760962D01*
X131312720Y-90734440D01*
X131328464Y-90719964D01*
X131424953Y-90644682D01*
X131531664Y-90589241D01*
X131647168Y-90554141D01*
X131770038Y-90539880D01*
X131839439Y-90541051D01*
X131960577Y-90558212D01*
X132069795Y-90594094D01*
X132167418Y-90648959D01*
X132253772Y-90723070D01*
X132329185Y-90816688D01*
X132393982Y-90930076D01*
X132431399Y-91016667D01*
X132475252Y-91152366D01*
X132507572Y-91299850D01*
X132528443Y-91455314D01*
X132537949Y-91614956D01*
X132536173Y-91774973D01*
X132523197Y-91931561D01*
X132499106Y-92080918D01*
X132463982Y-92219240D01*
X132417908Y-92342724D01*
X132401627Y-92376978D01*
X132333380Y-92491064D01*
X132252921Y-92587557D01*
X132161430Y-92665670D01*
X132060089Y-92724617D01*
X131950080Y-92763612D01*
X131832585Y-92781868D01*
X131791117Y-92783211D01*
X131669559Y-92772290D01*
X131549122Y-92739474D01*
X131431334Y-92685439D01*
X131317723Y-92610865D01*
X131226315Y-92532539D01*
X131179785Y-92488008D01*
X130998517Y-92785271D01*
X130953420Y-92859433D01*
X130912181Y-92927646D01*
X130876265Y-92987459D01*
X130847134Y-93036420D01*
X130826250Y-93072079D01*
X130815076Y-93091984D01*
X130813625Y-93095079D01*
X130821854Y-93104718D01*
X130847433Y-93121999D01*
X130887127Y-93145283D01*
X130937703Y-93172934D01*
X130995926Y-93203315D01*
X131058563Y-93234790D01*
X131122379Y-93265722D01*
X131184140Y-93294473D01*
X131240612Y-93319408D01*
X131288562Y-93338889D01*
X131312014Y-93347318D01*
X131445779Y-93385133D01*
X131583673Y-93410136D01*
X131731378Y-93423140D01*
X131858167Y-93425468D01*
X131926122Y-93424373D01*
X131991723Y-93422275D01*
X132049153Y-93419434D01*
X132092597Y-93416106D01*
X132106702Y-93414422D01*
X132245716Y-93385587D01*
X132387243Y-93340468D01*
X132524725Y-93281750D01*
X132651606Y-93212120D01*
X132729111Y-93159441D01*
X132856519Y-93051239D01*
X132974822Y-92924671D01*
X133081828Y-92782866D01*
X133175348Y-92628951D01*
X133253190Y-92466053D01*
X133297044Y-92348756D01*
X133347292Y-92165128D01*
X133380791Y-91970581D01*
X133397551Y-91769325D01*
X133397584Y-91565568D01*
X133380899Y-91363521D01*
X133347507Y-91167392D01*
X133297420Y-90981391D01*
X133293603Y-90969803D01*
X133230719Y-90807750D01*
X133153972Y-90659832D01*
X133060758Y-90521865D01*
X132948473Y-90389661D01*
X132904608Y-90344399D01*
X132768466Y-90220457D01*
X132628509Y-90117915D01*
X132482589Y-90035656D01*
X132328558Y-89972564D01*
X132164268Y-89927523D01*
X132068711Y-89910033D01*
X131909977Y-89894466D01*
X131751571Y-89897071D01*
G36*
X129406426Y-90814552D02*
X129254508Y-90834567D01*
X129119244Y-90868202D01*
X128999761Y-90915725D01*
X128895185Y-90977405D01*
X128817576Y-91040965D01*
X128748735Y-91115099D01*
X128694994Y-91194871D01*
X128652090Y-91287091D01*
X128636616Y-91330161D01*
X128623756Y-91369142D01*
X128612554Y-91405289D01*
X128602880Y-91440434D01*
X128594604Y-91476410D01*
X128587597Y-91515050D01*
X128581728Y-91558185D01*
X128576869Y-91607649D01*
X128572890Y-91665273D01*
X128569660Y-91732891D01*
X128567051Y-91812334D01*
X128564933Y-91905436D01*
X128563176Y-92014027D01*
X128561651Y-92139942D01*
X128560228Y-92285012D01*
X128558975Y-92427778D01*
X128557649Y-92583968D01*
X128556444Y-92719239D01*
X128555234Y-92835246D01*
X128553894Y-92933645D01*
X128552300Y-93016093D01*
X128550325Y-93084246D01*
X128547844Y-93139760D01*
X128544731Y-93184292D01*
X128540862Y-93219498D01*
X128536111Y-93247034D01*
X128530352Y-93268556D01*
X128523461Y-93285722D01*
X128515311Y-93300186D01*
X128505777Y-93313606D01*
X128494734Y-93327638D01*
X128490434Y-93333071D01*
X128474614Y-93355910D01*
X128467578Y-93371463D01*
X128467556Y-93371922D01*
X128478433Y-93374121D01*
X128509418Y-93376147D01*
X128558043Y-93377942D01*
X128621837Y-93379451D01*
X128698331Y-93380616D01*
X128785056Y-93381380D01*
X128879543Y-93381686D01*
X128890450Y-93381689D01*
X129313343Y-93381689D01*
X129316605Y-93285622D01*
X129319867Y-93189556D01*
X129381956Y-93240543D01*
X129479286Y-93308057D01*
X129589187Y-93362749D01*
X129675651Y-93392978D01*
X129744722Y-93407666D01*
X129828075Y-93417659D01*
X129917841Y-93422646D01*
X130006155Y-93422313D01*
X130085149Y-93416351D01*
X130121378Y-93410638D01*
X130261397Y-93372776D01*
X130387822Y-93317932D01*
X130499740Y-93246924D01*
X130596238Y-93160568D01*
X130676400Y-93059679D01*
X130739313Y-92945076D01*
X130783688Y-92818984D01*
X130796022Y-92762401D01*
X130803632Y-92700202D01*
X130807261Y-92625363D01*
X130807755Y-92591467D01*
X130807690Y-92588282D01*
X130047752Y-92588282D01*
X130038459Y-92663333D01*
X130010272Y-92727160D01*
X129961803Y-92782798D01*
X129956746Y-92787211D01*
X129908452Y-92822037D01*
X129856743Y-92844620D01*
X129796011Y-92856540D01*
X129720648Y-92859383D01*
X129702541Y-92858978D01*
X129648722Y-92856325D01*
X129608692Y-92850909D01*
X129573676Y-92840745D01*
X129534897Y-92823850D01*
X129524255Y-92818672D01*
X129463604Y-92782844D01*
X129416785Y-92740212D01*
X129404048Y-92724973D01*
X129359378Y-92668462D01*
X129359378Y-92472586D01*
X129359914Y-92393939D01*
X129361604Y-92335988D01*
X129364572Y-92296875D01*
X129368943Y-92274741D01*
X129373028Y-92268274D01*
X129388953Y-92265111D01*
X129422736Y-92262488D01*
X129469660Y-92260655D01*
X129525007Y-92259857D01*
X129533894Y-92259842D01*
X129654670Y-92265096D01*
X129757340Y-92281263D01*
X129843894Y-92308961D01*
X129916319Y-92348808D01*
X129971249Y-92395758D01*
X130015796Y-92453645D01*
X130040520Y-92516693D01*
X130047752Y-92588282D01*
X130807690Y-92588282D01*
X130805822Y-92497712D01*
X130797478Y-92418812D01*
X130781232Y-92347590D01*
X130755595Y-92276864D01*
X130731599Y-92224493D01*
X130672980Y-92129196D01*
X130594883Y-92041170D01*
X130499685Y-91962017D01*
X130389762Y-91893340D01*
X130267490Y-91836741D01*
X130135245Y-91793821D01*
X130070578Y-91778882D01*
X129934396Y-91756777D01*
X129785951Y-91742194D01*
X129634495Y-91735813D01*
X129507936Y-91737445D01*
X129346050Y-91744224D01*
X129353470Y-91685245D01*
X129372762Y-91586092D01*
X129403896Y-91505372D01*
X129447731Y-91442466D01*
X129505129Y-91396756D01*
X129576952Y-91367622D01*
X129664059Y-91354447D01*
X129767314Y-91356611D01*
X129805289Y-91360612D01*
X129946480Y-91385780D01*
X130083293Y-91426814D01*
X130177822Y-91464815D01*
X130222982Y-91484190D01*
X130261415Y-91499760D01*
X130287766Y-91509405D01*
X130295454Y-91511452D01*
X130305198Y-91502374D01*
X130321917Y-91473405D01*
X130345768Y-91424217D01*
X130376907Y-91354484D01*
X130415493Y-91263879D01*
X130422090Y-91248089D01*
X130452147Y-91175772D01*
X130479126Y-91110425D01*
X130501864Y-91054906D01*
X130519194Y-91012072D01*
X130529952Y-90984781D01*
X130533059Y-90975942D01*
X130523060Y-90971187D01*
X130496783Y-90965910D01*
X130468511Y-90962231D01*
X130438354Y-90957474D01*
X130390567Y-90948028D01*
X130329388Y-90934820D01*
X130259054Y-90918776D01*
X130183806Y-90900820D01*
X130155245Y-90893797D01*
X130050184Y-90868209D01*
X129962520Y-90848147D01*
X129887932Y-90832969D01*
X129822097Y-90822035D01*
X129760693Y-90814704D01*
X129699398Y-90810335D01*
X129633890Y-90808287D01*
X129575872Y-90807889D01*
X129406426Y-90814552D01*
X129406426Y-90814552D01*
G37*
X129406426Y-90814552D02*
X129254508Y-90834567D01*
X129119244Y-90868202D01*
X128999761Y-90915725D01*
X128895185Y-90977405D01*
X128817576Y-91040965D01*
X128748735Y-91115099D01*
X128694994Y-91194871D01*
X128652090Y-91287091D01*
X128636616Y-91330161D01*
X128623756Y-91369142D01*
X128612554Y-91405289D01*
X128602880Y-91440434D01*
X128594604Y-91476410D01*
X128587597Y-91515050D01*
X128581728Y-91558185D01*
X128576869Y-91607649D01*
X128572890Y-91665273D01*
X128569660Y-91732891D01*
X128567051Y-91812334D01*
X128564933Y-91905436D01*
X128563176Y-92014027D01*
X128561651Y-92139942D01*
X128560228Y-92285012D01*
X128558975Y-92427778D01*
X128557649Y-92583968D01*
X128556444Y-92719239D01*
X128555234Y-92835246D01*
X128553894Y-92933645D01*
X128552300Y-93016093D01*
X128550325Y-93084246D01*
X128547844Y-93139760D01*
X128544731Y-93184292D01*
X128540862Y-93219498D01*
X128536111Y-93247034D01*
X128530352Y-93268556D01*
X128523461Y-93285722D01*
X128515311Y-93300186D01*
X128505777Y-93313606D01*
X128494734Y-93327638D01*
X128490434Y-93333071D01*
X128474614Y-93355910D01*
X128467578Y-93371463D01*
X128467556Y-93371922D01*
X128478433Y-93374121D01*
X128509418Y-93376147D01*
X128558043Y-93377942D01*
X128621837Y-93379451D01*
X128698331Y-93380616D01*
X128785056Y-93381380D01*
X128879543Y-93381686D01*
X128890450Y-93381689D01*
X129313343Y-93381689D01*
X129316605Y-93285622D01*
X129319867Y-93189556D01*
X129381956Y-93240543D01*
X129479286Y-93308057D01*
X129589187Y-93362749D01*
X129675651Y-93392978D01*
X129744722Y-93407666D01*
X129828075Y-93417659D01*
X129917841Y-93422646D01*
X130006155Y-93422313D01*
X130085149Y-93416351D01*
X130121378Y-93410638D01*
X130261397Y-93372776D01*
X130387822Y-93317932D01*
X130499740Y-93246924D01*
X130596238Y-93160568D01*
X130676400Y-93059679D01*
X130739313Y-92945076D01*
X130783688Y-92818984D01*
X130796022Y-92762401D01*
X130803632Y-92700202D01*
X130807261Y-92625363D01*
X130807755Y-92591467D01*
X130807690Y-92588282D01*
X130047752Y-92588282D01*
X130038459Y-92663333D01*
X130010272Y-92727160D01*
X129961803Y-92782798D01*
X129956746Y-92787211D01*
X129908452Y-92822037D01*
X129856743Y-92844620D01*
X129796011Y-92856540D01*
X129720648Y-92859383D01*
X129702541Y-92858978D01*
X129648722Y-92856325D01*
X129608692Y-92850909D01*
X129573676Y-92840745D01*
X129534897Y-92823850D01*
X129524255Y-92818672D01*
X129463604Y-92782844D01*
X129416785Y-92740212D01*
X129404048Y-92724973D01*
X129359378Y-92668462D01*
X129359378Y-92472586D01*
X129359914Y-92393939D01*
X129361604Y-92335988D01*
X129364572Y-92296875D01*
X129368943Y-92274741D01*
X129373028Y-92268274D01*
X129388953Y-92265111D01*
X129422736Y-92262488D01*
X129469660Y-92260655D01*
X129525007Y-92259857D01*
X129533894Y-92259842D01*
X129654670Y-92265096D01*
X129757340Y-92281263D01*
X129843894Y-92308961D01*
X129916319Y-92348808D01*
X129971249Y-92395758D01*
X130015796Y-92453645D01*
X130040520Y-92516693D01*
X130047752Y-92588282D01*
X130807690Y-92588282D01*
X130805822Y-92497712D01*
X130797478Y-92418812D01*
X130781232Y-92347590D01*
X130755595Y-92276864D01*
X130731599Y-92224493D01*
X130672980Y-92129196D01*
X130594883Y-92041170D01*
X130499685Y-91962017D01*
X130389762Y-91893340D01*
X130267490Y-91836741D01*
X130135245Y-91793821D01*
X130070578Y-91778882D01*
X129934396Y-91756777D01*
X129785951Y-91742194D01*
X129634495Y-91735813D01*
X129507936Y-91737445D01*
X129346050Y-91744224D01*
X129353470Y-91685245D01*
X129372762Y-91586092D01*
X129403896Y-91505372D01*
X129447731Y-91442466D01*
X129505129Y-91396756D01*
X129576952Y-91367622D01*
X129664059Y-91354447D01*
X129767314Y-91356611D01*
X129805289Y-91360612D01*
X129946480Y-91385780D01*
X130083293Y-91426814D01*
X130177822Y-91464815D01*
X130222982Y-91484190D01*
X130261415Y-91499760D01*
X130287766Y-91509405D01*
X130295454Y-91511452D01*
X130305198Y-91502374D01*
X130321917Y-91473405D01*
X130345768Y-91424217D01*
X130376907Y-91354484D01*
X130415493Y-91263879D01*
X130422090Y-91248089D01*
X130452147Y-91175772D01*
X130479126Y-91110425D01*
X130501864Y-91054906D01*
X130519194Y-91012072D01*
X130529952Y-90984781D01*
X130533059Y-90975942D01*
X130523060Y-90971187D01*
X130496783Y-90965910D01*
X130468511Y-90962231D01*
X130438354Y-90957474D01*
X130390567Y-90948028D01*
X130329388Y-90934820D01*
X130259054Y-90918776D01*
X130183806Y-90900820D01*
X130155245Y-90893797D01*
X130050184Y-90868209D01*
X129962520Y-90848147D01*
X129887932Y-90832969D01*
X129822097Y-90822035D01*
X129760693Y-90814704D01*
X129699398Y-90810335D01*
X129633890Y-90808287D01*
X129575872Y-90807889D01*
X129406426Y-90814552D01*
G36*
X125893493Y-91420245D02*
X125893474Y-91654662D01*
X125893448Y-91867603D01*
X125893375Y-92060168D01*
X125893218Y-92233459D01*
X125892936Y-92388576D01*
X125892491Y-92526620D01*
X125891844Y-92648692D01*
X125890955Y-92755894D01*
X125889787Y-92849326D01*
X125888299Y-92930090D01*
X125886454Y-92999286D01*
X125884211Y-93058015D01*
X125881531Y-93107379D01*
X125878377Y-93148478D01*
X125874708Y-93182413D01*
X125870487Y-93210286D01*
X125865673Y-93233198D01*
X125860227Y-93252249D01*
X125854112Y-93268540D01*
X125847288Y-93283173D01*
X125839715Y-93297249D01*
X125831355Y-93311868D01*
X125826161Y-93320974D01*
X125791896Y-93381689D01*
X126650045Y-93381689D01*
X126650045Y-93285733D01*
X126650776Y-93242370D01*
X126652728Y-93209205D01*
X126655537Y-93191424D01*
X126656779Y-93189778D01*
X126668201Y-93196662D01*
X126690916Y-93214505D01*
X126713615Y-93233879D01*
X126768200Y-93274614D01*
X126837679Y-93315617D01*
X126914730Y-93353123D01*
X126992035Y-93383364D01*
X127022887Y-93393012D01*
X127091384Y-93407578D01*
X127174236Y-93417539D01*
X127263629Y-93422583D01*
X127351752Y-93422396D01*
X127430793Y-93416666D01*
X127468489Y-93410858D01*
X127606586Y-93372797D01*
X127733887Y-93315073D01*
X127849708Y-93238211D01*
X127953363Y-93142739D01*
X128044167Y-93029179D01*
X128110969Y-92918381D01*
X128165836Y-92801625D01*
X128207837Y-92682276D01*
X128237833Y-92556283D01*
X128256689Y-92419594D01*
X128265268Y-92268158D01*
X128265994Y-92190711D01*
X128263900Y-92133934D01*
X127434783Y-92133934D01*
X127434576Y-92227002D01*
X127431663Y-92314692D01*
X127426000Y-92391772D01*
X127417545Y-92453009D01*
X127414962Y-92465350D01*
X127383160Y-92572633D01*
X127341502Y-92659658D01*
X127289637Y-92726642D01*
X127227219Y-92773805D01*
X127153900Y-92801365D01*
X127069331Y-92809541D01*
X126973165Y-92798551D01*
X126909689Y-92782829D01*
X126860546Y-92764639D01*
X126806417Y-92738791D01*
X126765756Y-92715089D01*
X126695200Y-92668721D01*
X126695200Y-91518530D01*
X126762608Y-91474962D01*
X126841133Y-91434040D01*
X126925319Y-91407389D01*
X127010443Y-91395465D01*
X127091784Y-91398722D01*
X127164620Y-91417615D01*
X127196574Y-91433184D01*
X127254499Y-91476181D01*
X127303456Y-91532953D01*
X127344610Y-91605575D01*
X127379126Y-91696121D01*
X127408167Y-91806666D01*
X127409448Y-91812533D01*
X127419619Y-91874788D01*
X127427261Y-91952594D01*
X127432330Y-92040720D01*
X127434783Y-92133934D01*
X128263900Y-92133934D01*
X128258143Y-91977895D01*
X128236198Y-91782059D01*
X128200214Y-91603332D01*
X128150241Y-91441845D01*
X128086332Y-91297726D01*
X128008538Y-91171106D01*
X127916911Y-91062115D01*
X127811503Y-90970883D01*
X127766338Y-90939932D01*
X127665389Y-90883785D01*
X127562099Y-90844174D01*
X127452011Y-90820014D01*
X127330670Y-90810219D01*
X127238164Y-90811265D01*
X127108510Y-90822231D01*
X126995916Y-90844046D01*
X126897125Y-90877714D01*
X126808879Y-90924236D01*
X126760014Y-90958448D01*
X126730647Y-90980362D01*
X126708957Y-90995333D01*
X126700747Y-90999733D01*
X126699132Y-90988904D01*
X126697841Y-90958251D01*
X126696862Y-90910526D01*
X126696183Y-90848479D01*
X126695790Y-90774862D01*
X126695670Y-90692427D01*
X126695812Y-90603925D01*
X126696203Y-90512107D01*
X126696829Y-90419724D01*
X126697680Y-90329528D01*
X126698740Y-90244271D01*
X126699999Y-90166703D01*
X126701444Y-90099576D01*
X126703062Y-90045641D01*
X126704839Y-90007650D01*
X126705331Y-90000667D01*
X126712908Y-89930251D01*
X126724469Y-89875102D01*
X126742208Y-89827981D01*
X126768318Y-89781647D01*
X126774585Y-89772067D01*
X126799017Y-89735378D01*
X125893689Y-89735378D01*
X125893493Y-91420245D01*
X125893493Y-91420245D01*
G37*
X125893493Y-91420245D02*
X125893474Y-91654662D01*
X125893448Y-91867603D01*
X125893375Y-92060168D01*
X125893218Y-92233459D01*
X125892936Y-92388576D01*
X125892491Y-92526620D01*
X125891844Y-92648692D01*
X125890955Y-92755894D01*
X125889787Y-92849326D01*
X125888299Y-92930090D01*
X125886454Y-92999286D01*
X125884211Y-93058015D01*
X125881531Y-93107379D01*
X125878377Y-93148478D01*
X125874708Y-93182413D01*
X125870487Y-93210286D01*
X125865673Y-93233198D01*
X125860227Y-93252249D01*
X125854112Y-93268540D01*
X125847288Y-93283173D01*
X125839715Y-93297249D01*
X125831355Y-93311868D01*
X125826161Y-93320974D01*
X125791896Y-93381689D01*
X126650045Y-93381689D01*
X126650045Y-93285733D01*
X126650776Y-93242370D01*
X126652728Y-93209205D01*
X126655537Y-93191424D01*
X126656779Y-93189778D01*
X126668201Y-93196662D01*
X126690916Y-93214505D01*
X126713615Y-93233879D01*
X126768200Y-93274614D01*
X126837679Y-93315617D01*
X126914730Y-93353123D01*
X126992035Y-93383364D01*
X127022887Y-93393012D01*
X127091384Y-93407578D01*
X127174236Y-93417539D01*
X127263629Y-93422583D01*
X127351752Y-93422396D01*
X127430793Y-93416666D01*
X127468489Y-93410858D01*
X127606586Y-93372797D01*
X127733887Y-93315073D01*
X127849708Y-93238211D01*
X127953363Y-93142739D01*
X128044167Y-93029179D01*
X128110969Y-92918381D01*
X128165836Y-92801625D01*
X128207837Y-92682276D01*
X128237833Y-92556283D01*
X128256689Y-92419594D01*
X128265268Y-92268158D01*
X128265994Y-92190711D01*
X128263900Y-92133934D01*
X127434783Y-92133934D01*
X127434576Y-92227002D01*
X127431663Y-92314692D01*
X127426000Y-92391772D01*
X127417545Y-92453009D01*
X127414962Y-92465350D01*
X127383160Y-92572633D01*
X127341502Y-92659658D01*
X127289637Y-92726642D01*
X127227219Y-92773805D01*
X127153900Y-92801365D01*
X127069331Y-92809541D01*
X126973165Y-92798551D01*
X126909689Y-92782829D01*
X126860546Y-92764639D01*
X126806417Y-92738791D01*
X126765756Y-92715089D01*
X126695200Y-92668721D01*
X126695200Y-91518530D01*
X126762608Y-91474962D01*
X126841133Y-91434040D01*
X126925319Y-91407389D01*
X127010443Y-91395465D01*
X127091784Y-91398722D01*
X127164620Y-91417615D01*
X127196574Y-91433184D01*
X127254499Y-91476181D01*
X127303456Y-91532953D01*
X127344610Y-91605575D01*
X127379126Y-91696121D01*
X127408167Y-91806666D01*
X127409448Y-91812533D01*
X127419619Y-91874788D01*
X127427261Y-91952594D01*
X127432330Y-92040720D01*
X127434783Y-92133934D01*
X128263900Y-92133934D01*
X128258143Y-91977895D01*
X128236198Y-91782059D01*
X128200214Y-91603332D01*
X128150241Y-91441845D01*
X128086332Y-91297726D01*
X128008538Y-91171106D01*
X127916911Y-91062115D01*
X127811503Y-90970883D01*
X127766338Y-90939932D01*
X127665389Y-90883785D01*
X127562099Y-90844174D01*
X127452011Y-90820014D01*
X127330670Y-90810219D01*
X127238164Y-90811265D01*
X127108510Y-90822231D01*
X126995916Y-90844046D01*
X126897125Y-90877714D01*
X126808879Y-90924236D01*
X126760014Y-90958448D01*
X126730647Y-90980362D01*
X126708957Y-90995333D01*
X126700747Y-90999733D01*
X126699132Y-90988904D01*
X126697841Y-90958251D01*
X126696862Y-90910526D01*
X126696183Y-90848479D01*
X126695790Y-90774862D01*
X126695670Y-90692427D01*
X126695812Y-90603925D01*
X126696203Y-90512107D01*
X126696829Y-90419724D01*
X126697680Y-90329528D01*
X126698740Y-90244271D01*
X126699999Y-90166703D01*
X126701444Y-90099576D01*
X126703062Y-90045641D01*
X126704839Y-90007650D01*
X126705331Y-90000667D01*
X126712908Y-89930251D01*
X126724469Y-89875102D01*
X126742208Y-89827981D01*
X126768318Y-89781647D01*
X126774585Y-89772067D01*
X126799017Y-89735378D01*
X125893689Y-89735378D01*
X125893493Y-91420245D01*
G36*
X134353043Y-88974571D02*
X134256768Y-88998809D01*
X134170184Y-89041641D01*
X134095373Y-89101419D01*
X134034418Y-89176494D01*
X133989399Y-89265220D01*
X133963136Y-89361530D01*
X133957286Y-89458795D01*
X133972140Y-89552654D01*
X134005840Y-89640511D01*
X134056528Y-89719770D01*
X134122345Y-89787836D01*
X134201434Y-89842112D01*
X134291934Y-89880002D01*
X134343200Y-89892426D01*
X134387698Y-89899947D01*
X134421999Y-89902919D01*
X134454960Y-89901094D01*
X134495434Y-89894225D01*
X134528531Y-89887250D01*
X134621947Y-89855741D01*
X134705619Y-89804617D01*
X134777665Y-89735429D01*
X134836200Y-89649728D01*
X134850148Y-89622489D01*
X134866586Y-89586122D01*
X134876894Y-89555582D01*
X134882460Y-89523450D01*
X134884669Y-89482307D01*
X134884948Y-89436222D01*
X134880861Y-89351865D01*
X134867446Y-89282586D01*
X134842256Y-89221961D01*
X134802846Y-89163567D01*
X134764298Y-89119302D01*
X134692406Y-89053484D01*
X134617313Y-89008053D01*
X134534562Y-88980850D01*
X134456928Y-88970576D01*
X134353043Y-88974571D01*
X134353043Y-88974571D01*
G37*
X134353043Y-88974571D02*
X134256768Y-88998809D01*
X134170184Y-89041641D01*
X134095373Y-89101419D01*
X134034418Y-89176494D01*
X133989399Y-89265220D01*
X133963136Y-89361530D01*
X133957286Y-89458795D01*
X133972140Y-89552654D01*
X134005840Y-89640511D01*
X134056528Y-89719770D01*
X134122345Y-89787836D01*
X134201434Y-89842112D01*
X134291934Y-89880002D01*
X134343200Y-89892426D01*
X134387698Y-89899947D01*
X134421999Y-89902919D01*
X134454960Y-89901094D01*
X134495434Y-89894225D01*
X134528531Y-89887250D01*
X134621947Y-89855741D01*
X134705619Y-89804617D01*
X134777665Y-89735429D01*
X134836200Y-89649728D01*
X134850148Y-89622489D01*
X134866586Y-89586122D01*
X134876894Y-89555582D01*
X134882460Y-89523450D01*
X134884669Y-89482307D01*
X134884948Y-89436222D01*
X134880861Y-89351865D01*
X134867446Y-89282586D01*
X134842256Y-89221961D01*
X134802846Y-89163567D01*
X134764298Y-89119302D01*
X134692406Y-89053484D01*
X134617313Y-89008053D01*
X134534562Y-88980850D01*
X134456928Y-88970576D01*
X134353043Y-88974571D01*
D12*
X130919220Y-99717860D02*
X130558540Y-101188520D01*
X130558540Y-101188520D02*
X130279140Y-100126800D01*
X130279140Y-100126800D02*
X129969260Y-101198680D01*
X129969260Y-101198680D02*
X129628900Y-99748340D01*
X132339080Y-100408740D02*
X131549140Y-100398580D01*
X131549140Y-100398580D02*
X131538980Y-100408740D01*
X131538980Y-100408740D02*
X131538980Y-100398580D01*
X131498340Y-99687380D02*
X131498340Y-101229160D01*
X132387340Y-99677220D02*
X132387340Y-101246940D01*
X132387340Y-101246940D02*
X132377180Y-101236780D01*
X132938520Y-99778820D02*
X133289040Y-99697540D01*
X133289040Y-99697540D02*
X133609080Y-99687380D01*
X133609080Y-99687380D02*
X133847840Y-99888040D01*
X133847840Y-99888040D02*
X133878320Y-100157280D01*
X133878320Y-100157280D02*
X133637020Y-100398580D01*
X133637020Y-100398580D02*
X133248400Y-100528120D01*
X133248400Y-100528120D02*
X133068060Y-100688140D01*
X133068060Y-100688140D02*
X133027420Y-100987860D01*
X133027420Y-100987860D02*
X133258560Y-101208840D01*
X133258560Y-101208840D02*
X133578600Y-101236780D01*
X133578600Y-101236780D02*
X133929120Y-101127560D01*
X134967980Y-99677220D02*
X135216900Y-99697540D01*
X135216900Y-99697540D02*
X135458200Y-99938840D01*
X135458200Y-99938840D02*
X135547100Y-100429060D01*
X135547100Y-100429060D02*
X135519160Y-100777040D01*
X135519160Y-100777040D02*
X135318500Y-101097080D01*
X135318500Y-101097080D02*
X135067040Y-101219000D01*
X135067040Y-101219000D02*
X134757160Y-101147880D01*
X134757160Y-101147880D02*
X134538720Y-100967540D01*
X134538720Y-100967540D02*
X134467600Y-100507800D01*
X134467600Y-100507800D02*
X134518400Y-100098860D01*
X134518400Y-100098860D02*
X134627620Y-99816920D01*
X134627620Y-99816920D02*
X134988300Y-99687380D01*
X134368540Y-97957640D02*
X134627620Y-98518980D01*
X134627620Y-98518980D02*
X134089140Y-99037140D01*
X134089140Y-99037140D02*
X133568440Y-98767900D01*
X133568440Y-98767900D02*
X133289040Y-98927920D01*
X131848860Y-98907600D02*
X131518660Y-98717100D01*
X131518660Y-98717100D02*
X131079240Y-99047300D01*
X131079240Y-99047300D02*
X130606800Y-98557080D01*
X130606800Y-98557080D02*
X130888740Y-98077020D01*
X130888740Y-98077020D02*
X130698240Y-97607120D01*
X130698240Y-97607120D02*
X130088640Y-97419160D01*
X130088640Y-97419160D02*
X130088640Y-96738440D01*
X130088640Y-96738440D02*
X130647440Y-96598740D01*
X130647440Y-96598740D02*
X130848100Y-96027240D01*
X130848100Y-96027240D02*
X130578860Y-95557340D01*
X130578860Y-95557340D02*
X131048760Y-95046800D01*
X131048760Y-95046800D02*
X131566920Y-95308420D01*
X131566920Y-95308420D02*
X132036820Y-95107760D01*
X132036820Y-95107760D02*
X132207000Y-94566740D01*
X132207000Y-94566740D02*
X132897880Y-94548960D01*
X132897880Y-94548960D02*
X133108700Y-95097600D01*
X133108700Y-95097600D02*
X133527800Y-95267780D01*
X133527800Y-95267780D02*
X134078980Y-94998540D01*
X134078980Y-94998540D02*
X134597140Y-95526860D01*
X134597140Y-95526860D02*
X134348220Y-96067880D01*
X134348220Y-96067880D02*
X134518400Y-96547940D01*
X134518400Y-96547940D02*
X135067040Y-96647000D01*
X135067040Y-96647000D02*
X135077200Y-97348040D01*
X135077200Y-97348040D02*
X134518400Y-97548700D01*
X134518400Y-97548700D02*
X134378700Y-97947480D01*
X132237480Y-97927160D02*
X131937760Y-97777300D01*
X131937760Y-97777300D02*
X131737100Y-97579180D01*
X131737100Y-97579180D02*
X131587240Y-97177860D01*
X131587240Y-97177860D02*
X131587240Y-96779080D01*
X131587240Y-96779080D02*
X131737100Y-96428560D01*
X131737100Y-96428560D02*
X132189220Y-96078040D01*
X132189220Y-96078040D02*
X132638800Y-96027240D01*
X132638800Y-96027240D02*
X133037580Y-96128840D01*
X133037580Y-96128840D02*
X133438900Y-96476820D01*
X133438900Y-96476820D02*
X133588760Y-96928940D01*
X133588760Y-96928940D02*
X133537960Y-97426780D01*
X133537960Y-97426780D02*
X133289040Y-97729040D01*
X133289040Y-97729040D02*
X132938520Y-97927160D01*
X132938520Y-97927160D02*
X133289040Y-98927920D01*
X132237480Y-97927160D02*
X131838700Y-98927920D01*
X124428000Y-105381286D02*
X123928000Y-105381286D01*
X124249429Y-106131286D01*
X139457714Y-106131286D02*
X139886286Y-106131286D01*
X139672000Y-106131286D02*
X139672000Y-105381286D01*
X139743429Y-105488429D01*
X139814857Y-105559857D01*
X139886286Y-105595571D01*
X135337713Y-106500429D02*
X135230570Y-106536143D01*
X135194855Y-106571857D01*
X135159141Y-106643286D01*
X135159141Y-106750429D01*
X135194855Y-106821857D01*
X135230570Y-106857571D01*
X135301998Y-106893286D01*
X135587713Y-106893286D01*
X135587713Y-106143286D01*
X135337713Y-106143286D01*
X135266284Y-106179000D01*
X135230570Y-106214714D01*
X135194855Y-106286143D01*
X135194855Y-106357571D01*
X135230570Y-106429000D01*
X135266284Y-106464714D01*
X135337713Y-106500429D01*
X135587713Y-106500429D01*
X134516284Y-106893286D02*
X134516284Y-106500429D01*
X134551998Y-106429000D01*
X134623427Y-106393286D01*
X134766284Y-106393286D01*
X134837713Y-106429000D01*
X134516284Y-106857571D02*
X134587713Y-106893286D01*
X134766284Y-106893286D01*
X134837713Y-106857571D01*
X134873427Y-106786143D01*
X134873427Y-106714714D01*
X134837713Y-106643286D01*
X134766284Y-106607571D01*
X134587713Y-106607571D01*
X134516284Y-106571857D01*
X133837713Y-106857571D02*
X133909142Y-106893286D01*
X134051999Y-106893286D01*
X134123427Y-106857571D01*
X134159142Y-106821857D01*
X134194856Y-106750429D01*
X134194856Y-106536143D01*
X134159142Y-106464714D01*
X134123427Y-106429000D01*
X134051999Y-106393286D01*
X133909142Y-106393286D01*
X133837713Y-106429000D01*
X133516285Y-106893286D02*
X133516285Y-106143286D01*
X133444856Y-106607571D02*
X133230570Y-106893286D01*
X133230570Y-106393286D02*
X133516285Y-106679000D01*
X132373427Y-106107571D02*
X133016284Y-107071857D01*
X131873428Y-106500429D02*
X131766285Y-106536143D01*
X131730570Y-106571857D01*
X131694856Y-106643286D01*
X131694856Y-106750429D01*
X131730570Y-106821857D01*
X131766285Y-106857571D01*
X131837713Y-106893286D01*
X132123428Y-106893286D01*
X132123428Y-106143286D01*
X131873428Y-106143286D01*
X131801999Y-106179000D01*
X131766285Y-106214714D01*
X131730570Y-106286143D01*
X131730570Y-106357571D01*
X131766285Y-106429000D01*
X131801999Y-106464714D01*
X131873428Y-106500429D01*
X132123428Y-106500429D01*
X131266285Y-106893286D02*
X131337713Y-106857571D01*
X131373428Y-106821857D01*
X131409142Y-106750429D01*
X131409142Y-106536143D01*
X131373428Y-106464714D01*
X131337713Y-106429000D01*
X131266285Y-106393286D01*
X131159142Y-106393286D01*
X131087713Y-106429000D01*
X131051999Y-106464714D01*
X131016285Y-106536143D01*
X131016285Y-106750429D01*
X131051999Y-106821857D01*
X131087713Y-106857571D01*
X131159142Y-106893286D01*
X131266285Y-106893286D01*
X130801999Y-106393286D02*
X130516285Y-106393286D01*
X130694857Y-106143286D02*
X130694857Y-106786143D01*
X130659142Y-106857571D01*
X130587714Y-106893286D01*
X130516285Y-106893286D01*
X130373428Y-106393286D02*
X130087714Y-106393286D01*
X130266286Y-106143286D02*
X130266286Y-106786143D01*
X130230571Y-106857571D01*
X130159143Y-106893286D01*
X130087714Y-106893286D01*
X129730572Y-106893286D02*
X129802000Y-106857571D01*
X129837715Y-106821857D01*
X129873429Y-106750429D01*
X129873429Y-106536143D01*
X129837715Y-106464714D01*
X129802000Y-106429000D01*
X129730572Y-106393286D01*
X129623429Y-106393286D01*
X129552000Y-106429000D01*
X129516286Y-106464714D01*
X129480572Y-106536143D01*
X129480572Y-106750429D01*
X129516286Y-106821857D01*
X129552000Y-106857571D01*
X129623429Y-106893286D01*
X129730572Y-106893286D01*
X129159144Y-106893286D02*
X129159144Y-106393286D01*
X129159144Y-106464714D02*
X129123429Y-106429000D01*
X129052001Y-106393286D01*
X128944858Y-106393286D01*
X128873429Y-106429000D01*
X128837715Y-106500429D01*
X128837715Y-106893286D01*
X128837715Y-106500429D02*
X128802001Y-106429000D01*
X128730572Y-106393286D01*
X128623429Y-106393286D01*
X128552001Y-106429000D01*
X128516286Y-106500429D01*
X128516286Y-106893286D01*
X127424381Y-109792572D02*
X126948190Y-109459238D01*
X127424381Y-109221143D02*
X126424381Y-109221143D01*
X126424381Y-109602096D01*
X126472000Y-109697334D01*
X126519619Y-109744953D01*
X126614857Y-109792572D01*
X126757714Y-109792572D01*
X126852952Y-109744953D01*
X126900571Y-109697334D01*
X126948190Y-109602096D01*
X126948190Y-109221143D01*
X126900571Y-110221143D02*
X126900571Y-110554477D01*
X127424381Y-110697334D02*
X127424381Y-110221143D01*
X126424381Y-110221143D01*
X126424381Y-110697334D01*
X126900571Y-111459239D02*
X126900571Y-111125905D01*
X127424381Y-111125905D02*
X126424381Y-111125905D01*
X126424381Y-111602096D01*
X126252000Y-108983048D02*
X126252000Y-111744953D01*
X129678667Y-107832191D02*
X129678667Y-108308382D01*
X129964381Y-107736953D02*
X128964381Y-108070286D01*
X129964381Y-108403620D01*
X128964381Y-108736953D02*
X129773905Y-108736953D01*
X129869143Y-108784572D01*
X129916762Y-108832191D01*
X129964381Y-108927429D01*
X129964381Y-109117906D01*
X129916762Y-109213144D01*
X129869143Y-109260763D01*
X129773905Y-109308382D01*
X128964381Y-109308382D01*
X129964381Y-109784572D02*
X128964381Y-109784572D01*
X128964381Y-110022667D01*
X129012000Y-110165525D01*
X129107238Y-110260763D01*
X129202476Y-110308382D01*
X129392952Y-110356001D01*
X129535810Y-110356001D01*
X129726286Y-110308382D01*
X129821524Y-110260763D01*
X129916762Y-110165525D01*
X129964381Y-110022667D01*
X129964381Y-109784572D01*
X129964381Y-110784572D02*
X128964381Y-110784572D01*
X128964381Y-111451238D02*
X128964381Y-111641715D01*
X129012000Y-111736953D01*
X129107238Y-111832191D01*
X129297714Y-111879810D01*
X129631048Y-111879810D01*
X129821524Y-111832191D01*
X129916762Y-111736953D01*
X129964381Y-111641715D01*
X129964381Y-111451238D01*
X129916762Y-111356000D01*
X129821524Y-111260762D01*
X129631048Y-111213143D01*
X129297714Y-111213143D01*
X129107238Y-111260762D01*
X129012000Y-111356000D01*
X128964381Y-111451238D01*
X132504381Y-109030667D02*
X131504381Y-109030667D01*
X132218667Y-109364001D01*
X131504381Y-109697334D01*
X132504381Y-109697334D01*
X132504381Y-110173524D02*
X131504381Y-110173524D01*
X131504381Y-110554477D01*
X131552000Y-110649715D01*
X131599619Y-110697334D01*
X131694857Y-110744953D01*
X131837714Y-110744953D01*
X131932952Y-110697334D01*
X131980571Y-110649715D01*
X132028190Y-110554477D01*
X132028190Y-110173524D01*
X132504381Y-111173524D02*
X131504381Y-111173524D01*
X131504381Y-111411619D01*
X131552000Y-111554477D01*
X131647238Y-111649715D01*
X131742476Y-111697334D01*
X131932952Y-111744953D01*
X132075810Y-111744953D01*
X132266286Y-111697334D01*
X132361524Y-111649715D01*
X132456762Y-111554477D01*
X132504381Y-111411619D01*
X132504381Y-111173524D01*
X131332000Y-108792572D02*
X131332000Y-111935429D01*
X135044381Y-108419524D02*
X134044381Y-108419524D01*
X134044381Y-108657619D01*
X134092000Y-108800477D01*
X134187238Y-108895715D01*
X134282476Y-108943334D01*
X134472952Y-108990953D01*
X134615810Y-108990953D01*
X134806286Y-108943334D01*
X134901524Y-108895715D01*
X134996762Y-108800477D01*
X135044381Y-108657619D01*
X135044381Y-108419524D01*
X135044381Y-109943334D02*
X135044381Y-109371905D01*
X135044381Y-109657619D02*
X134044381Y-109657619D01*
X134187238Y-109562381D01*
X134282476Y-109467143D01*
X134330095Y-109371905D01*
X134044381Y-110276667D02*
X135044381Y-110943334D01*
X134044381Y-110943334D02*
X135044381Y-110276667D01*
X134044381Y-111229048D02*
X135044381Y-111895715D01*
X134044381Y-111895715D02*
X135044381Y-111229048D01*
X133872000Y-108181429D02*
X133872000Y-112038572D01*
X137584381Y-110070381D02*
X137108190Y-109737047D01*
X137584381Y-109498952D02*
X136584381Y-109498952D01*
X136584381Y-109879905D01*
X136632000Y-109975143D01*
X136679619Y-110022762D01*
X136774857Y-110070381D01*
X136917714Y-110070381D01*
X137012952Y-110022762D01*
X137060571Y-109975143D01*
X137108190Y-109879905D01*
X137108190Y-109498952D01*
X137536762Y-110451333D02*
X137584381Y-110594190D01*
X137584381Y-110832286D01*
X137536762Y-110927524D01*
X137489143Y-110975143D01*
X137393905Y-111022762D01*
X137298667Y-111022762D01*
X137203429Y-110975143D01*
X137155810Y-110927524D01*
X137108190Y-110832286D01*
X137060571Y-110641809D01*
X137012952Y-110546571D01*
X136965333Y-110498952D01*
X136870095Y-110451333D01*
X136774857Y-110451333D01*
X136679619Y-110498952D01*
X136632000Y-110546571D01*
X136584381Y-110641809D01*
X136584381Y-110879905D01*
X136632000Y-111022762D01*
X136584381Y-111308476D02*
X136584381Y-111879905D01*
X137584381Y-111594190D02*
X136584381Y-111594190D01*
X136412000Y-109260857D02*
X136412000Y-111975143D01*
X139600571Y-107832190D02*
X139600571Y-108165524D01*
X140124381Y-108308381D02*
X140124381Y-107832190D01*
X139124381Y-107832190D01*
X139124381Y-108308381D01*
X139124381Y-108641714D02*
X140124381Y-109308381D01*
X139124381Y-109308381D02*
X140124381Y-108641714D01*
X140076762Y-109641714D02*
X140124381Y-109784571D01*
X140124381Y-110022667D01*
X140076762Y-110117905D01*
X140029143Y-110165524D01*
X139933905Y-110213143D01*
X139838667Y-110213143D01*
X139743429Y-110165524D01*
X139695810Y-110117905D01*
X139648190Y-110022667D01*
X139600571Y-109832190D01*
X139552952Y-109736952D01*
X139505333Y-109689333D01*
X139410095Y-109641714D01*
X139314857Y-109641714D01*
X139219619Y-109689333D01*
X139172000Y-109736952D01*
X139124381Y-109832190D01*
X139124381Y-110070286D01*
X139172000Y-110213143D01*
X139600571Y-110641714D02*
X139600571Y-110975048D01*
X140124381Y-111117905D02*
X140124381Y-110641714D01*
X139124381Y-110641714D01*
X139124381Y-111117905D01*
X140124381Y-112022667D02*
X140124381Y-111546476D01*
X139124381Y-111546476D01*
X138952000Y-107594095D02*
X138952000Y-112117905D01*
X123884381Y-110681524D02*
X123884381Y-110205333D01*
X124360571Y-110157714D01*
X124312952Y-110205333D01*
X124265333Y-110300571D01*
X124265333Y-110538667D01*
X124312952Y-110633905D01*
X124360571Y-110681524D01*
X124455810Y-110729143D01*
X124693905Y-110729143D01*
X124789143Y-110681524D01*
X124836762Y-110633905D01*
X124884381Y-110538667D01*
X124884381Y-110300571D01*
X124836762Y-110205333D01*
X124789143Y-110157714D01*
X123884381Y-111014857D02*
X124884381Y-111348190D01*
X123884381Y-111681524D01*
M02*
