%TF.GenerationSoftware,KiCad,Pcbnew,5.1.9+dfsg1-1+deb11u1*%
%TF.CreationDate,2025-07-24T09:20:50+02:00*%
%TF.ProjectId,ECI-Breakout,4543492d-4272-4656-916b-6f75742e6b69,1.1*%
%TF.SameCoordinates,Original*%
%TF.FileFunction,Soldermask,Bot*%
%TF.FilePolarity,Negative*%
%FSLAX46Y46*%
G04 Gerber Fmt 4.6, Leading zero omitted, Abs format (unit mm)*
G04 Created by KiCad (PCBNEW 5.1.9+dfsg1-1+deb11u1) date 2025-07-24 09:20:50*
%MOMM*%
%LPD*%
G01*
G04 APERTURE LIST*
%ADD10O,2.100000X2.100000*%
%ADD11C,1.000000*%
G04 APERTURE END LIST*
%TO.C,ECI1*%
G36*
G01*
X138706800Y-112196000D02*
X140637200Y-112196000D01*
G75*
G02*
X140837200Y-112396000I0J-200000D01*
G01*
X140837200Y-117984000D01*
G75*
G02*
X140637200Y-118184000I-200000J0D01*
G01*
X138706800Y-118184000D01*
G75*
G02*
X138506800Y-117984000I0J200000D01*
G01*
X138506800Y-112396000D01*
G75*
G02*
X138706800Y-112196000I200000J0D01*
G01*
G37*
G36*
G01*
X136166800Y-112196000D02*
X138097200Y-112196000D01*
G75*
G02*
X138297200Y-112396000I0J-200000D01*
G01*
X138297200Y-117984000D01*
G75*
G02*
X138097200Y-118184000I-200000J0D01*
G01*
X136166800Y-118184000D01*
G75*
G02*
X135966800Y-117984000I0J200000D01*
G01*
X135966800Y-112396000D01*
G75*
G02*
X136166800Y-112196000I200000J0D01*
G01*
G37*
G36*
G01*
X133626800Y-112196000D02*
X135557200Y-112196000D01*
G75*
G02*
X135757200Y-112396000I0J-200000D01*
G01*
X135757200Y-117984000D01*
G75*
G02*
X135557200Y-118184000I-200000J0D01*
G01*
X133626800Y-118184000D01*
G75*
G02*
X133426800Y-117984000I0J200000D01*
G01*
X133426800Y-112396000D01*
G75*
G02*
X133626800Y-112196000I200000J0D01*
G01*
G37*
G36*
G01*
X131086800Y-112196000D02*
X133017200Y-112196000D01*
G75*
G02*
X133217200Y-112396000I0J-200000D01*
G01*
X133217200Y-117984000D01*
G75*
G02*
X133017200Y-118184000I-200000J0D01*
G01*
X131086800Y-118184000D01*
G75*
G02*
X130886800Y-117984000I0J200000D01*
G01*
X130886800Y-112396000D01*
G75*
G02*
X131086800Y-112196000I200000J0D01*
G01*
G37*
G36*
G01*
X128546800Y-112196000D02*
X130477200Y-112196000D01*
G75*
G02*
X130677200Y-112396000I0J-200000D01*
G01*
X130677200Y-117984000D01*
G75*
G02*
X130477200Y-118184000I-200000J0D01*
G01*
X128546800Y-118184000D01*
G75*
G02*
X128346800Y-117984000I0J200000D01*
G01*
X128346800Y-112396000D01*
G75*
G02*
X128546800Y-112196000I200000J0D01*
G01*
G37*
G36*
G01*
X126006800Y-112196000D02*
X127937200Y-112196000D01*
G75*
G02*
X128137200Y-112396000I0J-200000D01*
G01*
X128137200Y-117984000D01*
G75*
G02*
X127937200Y-118184000I-200000J0D01*
G01*
X126006800Y-118184000D01*
G75*
G02*
X125806800Y-117984000I0J200000D01*
G01*
X125806800Y-112396000D01*
G75*
G02*
X126006800Y-112196000I200000J0D01*
G01*
G37*
G36*
G01*
X123466800Y-112196000D02*
X125397200Y-112196000D01*
G75*
G02*
X125597200Y-112396000I0J-200000D01*
G01*
X125597200Y-117984000D01*
G75*
G02*
X125397200Y-118184000I-200000J0D01*
G01*
X123466800Y-118184000D01*
G75*
G02*
X123266800Y-117984000I0J200000D01*
G01*
X123266800Y-112396000D01*
G75*
G02*
X123466800Y-112196000I200000J0D01*
G01*
G37*
%TD*%
%TO.C,P1*%
G36*
G01*
X138750000Y-72180000D02*
X140450000Y-72180000D01*
G75*
G02*
X140650000Y-72380000I0J-200000D01*
G01*
X140650000Y-74080000D01*
G75*
G02*
X140450000Y-74280000I-200000J0D01*
G01*
X138750000Y-74280000D01*
G75*
G02*
X138550000Y-74080000I0J200000D01*
G01*
X138550000Y-72380000D01*
G75*
G02*
X138750000Y-72180000I200000J0D01*
G01*
G37*
D10*
X137060000Y-73230000D03*
X134520000Y-73230000D03*
X131980000Y-73230000D03*
X129440000Y-73230000D03*
X126900000Y-73230000D03*
X124360000Y-73230000D03*
%TD*%
%TO.C,P2*%
X124360000Y-83830000D03*
X126900000Y-83830000D03*
X129440000Y-83830000D03*
X131980000Y-83830000D03*
X134520000Y-83830000D03*
X137060000Y-83830000D03*
G36*
G01*
X138750000Y-82780000D02*
X140450000Y-82780000D01*
G75*
G02*
X140650000Y-82980000I0J-200000D01*
G01*
X140650000Y-84680000D01*
G75*
G02*
X140450000Y-84880000I-200000J0D01*
G01*
X138750000Y-84880000D01*
G75*
G02*
X138550000Y-84680000I0J200000D01*
G01*
X138550000Y-82980000D01*
G75*
G02*
X138750000Y-82780000I200000J0D01*
G01*
G37*
%TD*%
D11*
X123363500Y-105899900D03*
X124739990Y-98205300D03*
M02*
