%TF.GenerationSoftware,KiCad,Pcbnew,5.1.9+dfsg1-1+deb11u1*%
%TF.CreationDate,2025-07-24T09:20:50+02:00*%
%TF.ProjectId,ECI-Breakout,4543492d-4272-4656-916b-6f75742e6b69,1.1*%
%TF.SameCoordinates,Original*%
%TF.FileFunction,Legend,Bot*%
%TF.FilePolarity,Positive*%
%FSLAX46Y46*%
G04 Gerber Fmt 4.6, Leading zero omitted, Abs format (unit mm)*
G04 Created by KiCad (PCBNEW 5.1.9+dfsg1-1+deb11u1) date 2025-07-24 09:20:50*
%MOMM*%
%LPD*%
G01*
G04 APERTURE LIST*
%ADD10C,0.100000*%
%ADD11C,0.010000*%
%ADD12C,0.150000*%
G04 APERTURE END LIST*
D10*
X138850000Y-77748095D02*
X138850000Y-78652857D01*
X139628571Y-77986190D02*
X139628571Y-78319523D01*
X140152380Y-78462380D02*
X140152380Y-77986190D01*
X139152380Y-77986190D01*
X139152380Y-78462380D01*
X138850000Y-78652857D02*
X138850000Y-79605238D01*
X139152380Y-78795714D02*
X140152380Y-79462380D01*
X139152380Y-79462380D02*
X140152380Y-78795714D01*
X138850000Y-79605238D02*
X138850000Y-80557619D01*
X140104761Y-79795714D02*
X140152380Y-79938571D01*
X140152380Y-80176666D01*
X140104761Y-80271904D01*
X140057142Y-80319523D01*
X139961904Y-80367142D01*
X139866666Y-80367142D01*
X139771428Y-80319523D01*
X139723809Y-80271904D01*
X139676190Y-80176666D01*
X139628571Y-79986190D01*
X139580952Y-79890952D01*
X139533333Y-79843333D01*
X139438095Y-79795714D01*
X139342857Y-79795714D01*
X139247619Y-79843333D01*
X139200000Y-79890952D01*
X139152380Y-79986190D01*
X139152380Y-80224285D01*
X139200000Y-80367142D01*
X138850000Y-80557619D02*
X138850000Y-81462380D01*
X139628571Y-80795714D02*
X139628571Y-81129047D01*
X140152380Y-81271904D02*
X140152380Y-80795714D01*
X139152380Y-80795714D01*
X139152380Y-81271904D01*
X138850000Y-81462380D02*
X138850000Y-82271904D01*
X140152380Y-82176666D02*
X140152380Y-81700476D01*
X139152380Y-81700476D01*
X136564000Y-79668857D02*
X136564000Y-80668857D01*
X137866380Y-80478380D02*
X137390190Y-80145047D01*
X137866380Y-79906952D02*
X136866380Y-79906952D01*
X136866380Y-80287904D01*
X136914000Y-80383142D01*
X136961619Y-80430761D01*
X137056857Y-80478380D01*
X137199714Y-80478380D01*
X137294952Y-80430761D01*
X137342571Y-80383142D01*
X137390190Y-80287904D01*
X137390190Y-79906952D01*
X136564000Y-80668857D02*
X136564000Y-81621238D01*
X137818761Y-80859333D02*
X137866380Y-81002190D01*
X137866380Y-81240285D01*
X137818761Y-81335523D01*
X137771142Y-81383142D01*
X137675904Y-81430761D01*
X137580666Y-81430761D01*
X137485428Y-81383142D01*
X137437809Y-81335523D01*
X137390190Y-81240285D01*
X137342571Y-81049809D01*
X137294952Y-80954571D01*
X137247333Y-80906952D01*
X137152095Y-80859333D01*
X137056857Y-80859333D01*
X136961619Y-80906952D01*
X136914000Y-80954571D01*
X136866380Y-81049809D01*
X136866380Y-81287904D01*
X136914000Y-81430761D01*
X136564000Y-81621238D02*
X136564000Y-82383142D01*
X136866380Y-81716476D02*
X136866380Y-82287904D01*
X137866380Y-82002190D02*
X136866380Y-82002190D01*
X133770000Y-78589428D02*
X133770000Y-79589428D01*
X135072380Y-78827523D02*
X134072380Y-78827523D01*
X134072380Y-79065619D01*
X134120000Y-79208476D01*
X134215238Y-79303714D01*
X134310476Y-79351333D01*
X134500952Y-79398952D01*
X134643809Y-79398952D01*
X134834285Y-79351333D01*
X134929523Y-79303714D01*
X135024761Y-79208476D01*
X135072380Y-79065619D01*
X135072380Y-78827523D01*
X133770000Y-79589428D02*
X133770000Y-80541809D01*
X135072380Y-80351333D02*
X135072380Y-79779904D01*
X135072380Y-80065619D02*
X134072380Y-80065619D01*
X134215238Y-79970380D01*
X134310476Y-79875142D01*
X134358095Y-79779904D01*
X133770000Y-80541809D02*
X133770000Y-81494190D01*
X134072380Y-80684666D02*
X135072380Y-81351333D01*
X134072380Y-81351333D02*
X135072380Y-80684666D01*
X133770000Y-81494190D02*
X133770000Y-82446571D01*
X134072380Y-81637047D02*
X135072380Y-82303714D01*
X134072380Y-82303714D02*
X135072380Y-81637047D01*
X131230000Y-79200571D02*
X131230000Y-80343428D01*
X132532380Y-79438666D02*
X131532380Y-79438666D01*
X132246666Y-79772000D01*
X131532380Y-80105333D01*
X132532380Y-80105333D01*
X131230000Y-80343428D02*
X131230000Y-81343428D01*
X132532380Y-80581523D02*
X131532380Y-80581523D01*
X131532380Y-80962476D01*
X131580000Y-81057714D01*
X131627619Y-81105333D01*
X131722857Y-81152952D01*
X131865714Y-81152952D01*
X131960952Y-81105333D01*
X132008571Y-81057714D01*
X132056190Y-80962476D01*
X132056190Y-80581523D01*
X131230000Y-81343428D02*
X131230000Y-82343428D01*
X132532380Y-81581523D02*
X131532380Y-81581523D01*
X131532380Y-81819619D01*
X131580000Y-81962476D01*
X131675238Y-82057714D01*
X131770476Y-82105333D01*
X131960952Y-82152952D01*
X132103809Y-82152952D01*
X132294285Y-82105333D01*
X132389523Y-82057714D01*
X132484761Y-81962476D01*
X132532380Y-81819619D01*
X132532380Y-81581523D01*
X129706666Y-78240190D02*
X129706666Y-78716380D01*
X129992380Y-78144952D02*
X128992380Y-78478285D01*
X129992380Y-78811619D01*
X128992380Y-79144952D02*
X129801904Y-79144952D01*
X129897142Y-79192571D01*
X129944761Y-79240190D01*
X129992380Y-79335428D01*
X129992380Y-79525904D01*
X129944761Y-79621142D01*
X129897142Y-79668761D01*
X129801904Y-79716380D01*
X128992380Y-79716380D01*
X129992380Y-80192571D02*
X128992380Y-80192571D01*
X128992380Y-80430666D01*
X129040000Y-80573523D01*
X129135238Y-80668761D01*
X129230476Y-80716380D01*
X129420952Y-80764000D01*
X129563809Y-80764000D01*
X129754285Y-80716380D01*
X129849523Y-80668761D01*
X129944761Y-80573523D01*
X129992380Y-80430666D01*
X129992380Y-80192571D01*
X129992380Y-81192571D02*
X128992380Y-81192571D01*
X128992380Y-81859238D02*
X128992380Y-82049714D01*
X129040000Y-82144952D01*
X129135238Y-82240190D01*
X129325714Y-82287809D01*
X129659047Y-82287809D01*
X129849523Y-82240190D01*
X129944761Y-82144952D01*
X129992380Y-82049714D01*
X129992380Y-81859238D01*
X129944761Y-81764000D01*
X129849523Y-81668761D01*
X129659047Y-81621142D01*
X129325714Y-81621142D01*
X129135238Y-81668761D01*
X129040000Y-81764000D01*
X128992380Y-81859238D01*
X126150000Y-79645047D02*
X126150000Y-80645047D01*
X127452380Y-80454571D02*
X126976190Y-80121238D01*
X127452380Y-79883142D02*
X126452380Y-79883142D01*
X126452380Y-80264095D01*
X126500000Y-80359333D01*
X126547619Y-80406952D01*
X126642857Y-80454571D01*
X126785714Y-80454571D01*
X126880952Y-80406952D01*
X126928571Y-80359333D01*
X126976190Y-80264095D01*
X126976190Y-79883142D01*
X126150000Y-80645047D02*
X126150000Y-81549809D01*
X126928571Y-80883142D02*
X126928571Y-81216476D01*
X127452380Y-81359333D02*
X127452380Y-80883142D01*
X126452380Y-80883142D01*
X126452380Y-81359333D01*
X126150000Y-81549809D02*
X126150000Y-82406952D01*
X126928571Y-82121238D02*
X126928571Y-81787904D01*
X127452380Y-81787904D02*
X126452380Y-81787904D01*
X126452380Y-82264095D01*
X123912380Y-79692666D02*
X124912380Y-80026000D01*
X123912380Y-80359333D01*
X124817142Y-81264095D02*
X124864761Y-81216476D01*
X124912380Y-81073619D01*
X124912380Y-80978380D01*
X124864761Y-80835523D01*
X124769523Y-80740285D01*
X124674285Y-80692666D01*
X124483809Y-80645047D01*
X124340952Y-80645047D01*
X124150476Y-80692666D01*
X124055238Y-80740285D01*
X123960000Y-80835523D01*
X123912380Y-80978380D01*
X123912380Y-81073619D01*
X123960000Y-81216476D01*
X124007619Y-81264095D01*
X124817142Y-82264095D02*
X124864761Y-82216476D01*
X124912380Y-82073619D01*
X124912380Y-81978380D01*
X124864761Y-81835523D01*
X124769523Y-81740285D01*
X124674285Y-81692666D01*
X124483809Y-81645047D01*
X124340952Y-81645047D01*
X124150476Y-81692666D01*
X124055238Y-81740285D01*
X123960000Y-81835523D01*
X123912380Y-81978380D01*
X123912380Y-82073619D01*
X123960000Y-82216476D01*
X124007619Y-82264095D01*
X140152380Y-70334285D02*
X139152380Y-70334285D01*
X140152380Y-70905714D01*
X139152380Y-70905714D01*
X140057142Y-71953333D02*
X140104761Y-71905714D01*
X140152380Y-71762857D01*
X140152380Y-71667619D01*
X140104761Y-71524761D01*
X140009523Y-71429523D01*
X139914285Y-71381904D01*
X139723809Y-71334285D01*
X139580952Y-71334285D01*
X139390476Y-71381904D01*
X139295238Y-71429523D01*
X139200000Y-71524761D01*
X139152380Y-71667619D01*
X139152380Y-71762857D01*
X139200000Y-71905714D01*
X139247619Y-71953333D01*
X136310000Y-69604095D02*
X136310000Y-70080285D01*
X137612380Y-69842190D02*
X136612380Y-69842190D01*
X136310000Y-70080285D02*
X136310000Y-71080285D01*
X137612380Y-70889809D02*
X137136190Y-70556476D01*
X137612380Y-70318380D02*
X136612380Y-70318380D01*
X136612380Y-70699333D01*
X136660000Y-70794571D01*
X136707619Y-70842190D01*
X136802857Y-70889809D01*
X136945714Y-70889809D01*
X137040952Y-70842190D01*
X137088571Y-70794571D01*
X137136190Y-70699333D01*
X137136190Y-70318380D01*
X136310000Y-71080285D02*
X136310000Y-72127904D01*
X137707619Y-71985047D02*
X137660000Y-71889809D01*
X137564761Y-71794571D01*
X137421904Y-71651714D01*
X137374285Y-71556476D01*
X137374285Y-71461238D01*
X137612380Y-71508857D02*
X137564761Y-71413619D01*
X137469523Y-71318380D01*
X137279047Y-71270761D01*
X136945714Y-71270761D01*
X136755238Y-71318380D01*
X136660000Y-71413619D01*
X136612380Y-71508857D01*
X136612380Y-71699333D01*
X136660000Y-71794571D01*
X136755238Y-71889809D01*
X136945714Y-71937428D01*
X137279047Y-71937428D01*
X137469523Y-71889809D01*
X137564761Y-71794571D01*
X137612380Y-71699333D01*
X137612380Y-71508857D01*
X133770000Y-68873904D02*
X133770000Y-69921523D01*
X135072380Y-69112000D02*
X134072380Y-69112000D01*
X134548571Y-69112000D02*
X134548571Y-69683428D01*
X135072380Y-69683428D02*
X134072380Y-69683428D01*
X133770000Y-69921523D02*
X133770000Y-70778666D01*
X134786666Y-70112000D02*
X134786666Y-70588190D01*
X135072380Y-70016761D02*
X134072380Y-70350095D01*
X135072380Y-70683428D01*
X133770000Y-70778666D02*
X133770000Y-71588190D01*
X135072380Y-71492952D02*
X135072380Y-71016761D01*
X134072380Y-71016761D01*
X133770000Y-71588190D02*
X133770000Y-72350095D01*
X134072380Y-71683428D02*
X134072380Y-72254857D01*
X135072380Y-71969142D02*
X134072380Y-71969142D01*
X132246666Y-69675523D02*
X132246666Y-70151714D01*
X132532380Y-69580285D02*
X131532380Y-69913619D01*
X132532380Y-70246952D01*
X132532380Y-71104095D02*
X132532380Y-70532666D01*
X132532380Y-70818380D02*
X131532380Y-70818380D01*
X131675238Y-70723142D01*
X131770476Y-70627904D01*
X131818095Y-70532666D01*
X131532380Y-71437428D02*
X131532380Y-72056476D01*
X131913333Y-71723142D01*
X131913333Y-71866000D01*
X131960952Y-71961238D01*
X132008571Y-72008857D01*
X132103809Y-72056476D01*
X132341904Y-72056476D01*
X132437142Y-72008857D01*
X132484761Y-71961238D01*
X132532380Y-71866000D01*
X132532380Y-71580285D01*
X132484761Y-71485047D01*
X132437142Y-71437428D01*
X129706666Y-69675523D02*
X129706666Y-70151714D01*
X129992380Y-69580285D02*
X128992380Y-69913619D01*
X129992380Y-70246952D01*
X129992380Y-71104095D02*
X129992380Y-70532666D01*
X129992380Y-70818380D02*
X128992380Y-70818380D01*
X129135238Y-70723142D01*
X129230476Y-70627904D01*
X129278095Y-70532666D01*
X129325714Y-71961238D02*
X129992380Y-71961238D01*
X128944761Y-71723142D02*
X129659047Y-71485047D01*
X129659047Y-72104095D01*
X127166666Y-69675523D02*
X127166666Y-70151714D01*
X127452380Y-69580285D02*
X126452380Y-69913619D01*
X127452380Y-70246952D01*
X127452380Y-71104095D02*
X127452380Y-70532666D01*
X127452380Y-70818380D02*
X126452380Y-70818380D01*
X126595238Y-70723142D01*
X126690476Y-70627904D01*
X126738095Y-70532666D01*
X126452380Y-72008857D02*
X126452380Y-71532666D01*
X126928571Y-71485047D01*
X126880952Y-71532666D01*
X126833333Y-71627904D01*
X126833333Y-71866000D01*
X126880952Y-71961238D01*
X126928571Y-72008857D01*
X127023809Y-72056476D01*
X127261904Y-72056476D01*
X127357142Y-72008857D01*
X127404761Y-71961238D01*
X127452380Y-71866000D01*
X127452380Y-71627904D01*
X127404761Y-71532666D01*
X127357142Y-71485047D01*
X123960000Y-70104095D02*
X123912380Y-70008857D01*
X123912380Y-69866000D01*
X123960000Y-69723142D01*
X124055238Y-69627904D01*
X124150476Y-69580285D01*
X124340952Y-69532666D01*
X124483809Y-69532666D01*
X124674285Y-69580285D01*
X124769523Y-69627904D01*
X124864761Y-69723142D01*
X124912380Y-69866000D01*
X124912380Y-69961238D01*
X124864761Y-70104095D01*
X124817142Y-70151714D01*
X124483809Y-70151714D01*
X124483809Y-69961238D01*
X124912380Y-70580285D02*
X123912380Y-70580285D01*
X124912380Y-71151714D01*
X123912380Y-71151714D01*
X124912380Y-71627904D02*
X123912380Y-71627904D01*
X123912380Y-71866000D01*
X123960000Y-72008857D01*
X124055238Y-72104095D01*
X124150476Y-72151714D01*
X124340952Y-72199333D01*
X124483809Y-72199333D01*
X124674285Y-72151714D01*
X124769523Y-72104095D01*
X124864761Y-72008857D01*
X124912380Y-71866000D01*
X124912380Y-71627904D01*
D11*
%TO.C,REF\u002A\u002A*%
G36*
X131693036Y-93080018D02*
G01*
X131636188Y-93381570D01*
X131216662Y-93554512D01*
X130965016Y-93383395D01*
X130894542Y-93335750D01*
X130830837Y-93293210D01*
X130776874Y-93257715D01*
X130735627Y-93231210D01*
X130710066Y-93215636D01*
X130703105Y-93212278D01*
X130690565Y-93220914D01*
X130663769Y-93244792D01*
X130625720Y-93280859D01*
X130579421Y-93326067D01*
X130527877Y-93377364D01*
X130474091Y-93431701D01*
X130421065Y-93486028D01*
X130371805Y-93537295D01*
X130329313Y-93582451D01*
X130296593Y-93618446D01*
X130276649Y-93642230D01*
X130271881Y-93650190D01*
X130278743Y-93664865D01*
X130297980Y-93697014D01*
X130327570Y-93743492D01*
X130365490Y-93801156D01*
X130409718Y-93866860D01*
X130435346Y-93904336D01*
X130482059Y-93972768D01*
X130523568Y-94034520D01*
X130557860Y-94086519D01*
X130582920Y-94125692D01*
X130596736Y-94148965D01*
X130598812Y-94153855D01*
X130594105Y-94167755D01*
X130581277Y-94200150D01*
X130562262Y-94246485D01*
X130538997Y-94302206D01*
X130513416Y-94362758D01*
X130487455Y-94423586D01*
X130463050Y-94480136D01*
X130442137Y-94527852D01*
X130426651Y-94562181D01*
X130418528Y-94578568D01*
X130418048Y-94579212D01*
X130405293Y-94582341D01*
X130371323Y-94589321D01*
X130319660Y-94599467D01*
X130253824Y-94612092D01*
X130177336Y-94626509D01*
X130132710Y-94634823D01*
X130050979Y-94650384D01*
X129977157Y-94665192D01*
X129914979Y-94678436D01*
X129868178Y-94689305D01*
X129840491Y-94696989D01*
X129834926Y-94699427D01*
X129829474Y-94715930D01*
X129825076Y-94753200D01*
X129821728Y-94806880D01*
X129819426Y-94872612D01*
X129818168Y-94946037D01*
X129817952Y-95022796D01*
X129818773Y-95098532D01*
X129820629Y-95168886D01*
X129823518Y-95229500D01*
X129827435Y-95276016D01*
X129832378Y-95304075D01*
X129835343Y-95309916D01*
X129853066Y-95316917D01*
X129890619Y-95326927D01*
X129943036Y-95338769D01*
X130005348Y-95351267D01*
X130027100Y-95355310D01*
X130131976Y-95374520D01*
X130214820Y-95389991D01*
X130278370Y-95402337D01*
X130325363Y-95412173D01*
X130358537Y-95420114D01*
X130380629Y-95426776D01*
X130394376Y-95432773D01*
X130402516Y-95438719D01*
X130403655Y-95439894D01*
X130415023Y-95458826D01*
X130432365Y-95495669D01*
X130453950Y-95545913D01*
X130478046Y-95605046D01*
X130502921Y-95668556D01*
X130526843Y-95731932D01*
X130548081Y-95790662D01*
X130564903Y-95840235D01*
X130575578Y-95876139D01*
X130578373Y-95893862D01*
X130578140Y-95894483D01*
X130568669Y-95908970D01*
X130547182Y-95940844D01*
X130515937Y-95986789D01*
X130477193Y-96043485D01*
X130433207Y-96107617D01*
X130420681Y-96125842D01*
X130376016Y-96191914D01*
X130336712Y-96252200D01*
X130304912Y-96303235D01*
X130282755Y-96341560D01*
X130272383Y-96363711D01*
X130271881Y-96366432D01*
X130280595Y-96380736D01*
X130304675Y-96409072D01*
X130341024Y-96448396D01*
X130386547Y-96495661D01*
X130438148Y-96547823D01*
X130492733Y-96601835D01*
X130547206Y-96654653D01*
X130598471Y-96703231D01*
X130643433Y-96744523D01*
X130678996Y-96775485D01*
X130702065Y-96793070D01*
X130708446Y-96795941D01*
X130723301Y-96789178D01*
X130753714Y-96770939D01*
X130794732Y-96744297D01*
X130826291Y-96722852D01*
X130883475Y-96683503D01*
X130951194Y-96637171D01*
X131019120Y-96590913D01*
X131055639Y-96566155D01*
X131179248Y-96482547D01*
X131283009Y-96538650D01*
X131330280Y-96563228D01*
X131370477Y-96582331D01*
X131397674Y-96593227D01*
X131404598Y-96594743D01*
X131412923Y-96583549D01*
X131429346Y-96551917D01*
X131452643Y-96502765D01*
X131481586Y-96439010D01*
X131514950Y-96363571D01*
X131551509Y-96279364D01*
X131590036Y-96189308D01*
X131629306Y-96096321D01*
X131668092Y-96003320D01*
X131705170Y-95913223D01*
X131739311Y-95828948D01*
X131769292Y-95753413D01*
X131793884Y-95689534D01*
X131811864Y-95640231D01*
X131822003Y-95608421D01*
X131823634Y-95597496D01*
X131810709Y-95583561D01*
X131782411Y-95560940D01*
X131744654Y-95534333D01*
X131741485Y-95532228D01*
X131643900Y-95454114D01*
X131565214Y-95362982D01*
X131506109Y-95261745D01*
X131467268Y-95153318D01*
X131449372Y-95040614D01*
X131453103Y-94926548D01*
X131479143Y-94814034D01*
X131528175Y-94705985D01*
X131542600Y-94682345D01*
X131617631Y-94586887D01*
X131706270Y-94510232D01*
X131805451Y-94452780D01*
X131912105Y-94414929D01*
X132023164Y-94397078D01*
X132135561Y-94399625D01*
X132246227Y-94422970D01*
X132352094Y-94467510D01*
X132450095Y-94533645D01*
X132480410Y-94560487D01*
X132557562Y-94644512D01*
X132613782Y-94732966D01*
X132652347Y-94832115D01*
X132673826Y-94930303D01*
X132679128Y-95040697D01*
X132661448Y-95151640D01*
X132622581Y-95259381D01*
X132564323Y-95360169D01*
X132488469Y-95450256D01*
X132396817Y-95525892D01*
X132384772Y-95533864D01*
X132346611Y-95559974D01*
X132317601Y-95582595D01*
X132303732Y-95597039D01*
X132303531Y-95597496D01*
X132306508Y-95613121D01*
X132318311Y-95648582D01*
X132337714Y-95700962D01*
X132363488Y-95767345D01*
X132394409Y-95844814D01*
X132429249Y-95930450D01*
X132466783Y-96021337D01*
X132505783Y-96114559D01*
X132545023Y-96207197D01*
X132583276Y-96296335D01*
X132619317Y-96379055D01*
X132651917Y-96452441D01*
X132679852Y-96513575D01*
X132701895Y-96559541D01*
X132716818Y-96587421D01*
X132722828Y-96594743D01*
X132741191Y-96589041D01*
X132775552Y-96573749D01*
X132819984Y-96551599D01*
X132844417Y-96538650D01*
X132948178Y-96482547D01*
X133071787Y-96566155D01*
X133134886Y-96608987D01*
X133203970Y-96656122D01*
X133268707Y-96700503D01*
X133301134Y-96722852D01*
X133346741Y-96753477D01*
X133385360Y-96777747D01*
X133411952Y-96792587D01*
X133420590Y-96795724D01*
X133433161Y-96787261D01*
X133460984Y-96763636D01*
X133501361Y-96727302D01*
X133551595Y-96680711D01*
X133608988Y-96626317D01*
X133645286Y-96591392D01*
X133708790Y-96528996D01*
X133763673Y-96473188D01*
X133807714Y-96426354D01*
X133838695Y-96390882D01*
X133854398Y-96369161D01*
X133855905Y-96364752D01*
X133848914Y-96347985D01*
X133829594Y-96314082D01*
X133800091Y-96266476D01*
X133762545Y-96208599D01*
X133719100Y-96143884D01*
X133706745Y-96125842D01*
X133661727Y-96060267D01*
X133621340Y-96001228D01*
X133587840Y-95952042D01*
X133563486Y-95916028D01*
X133550536Y-95896502D01*
X133549285Y-95894483D01*
X133551156Y-95878922D01*
X133561087Y-95844709D01*
X133577347Y-95796355D01*
X133598205Y-95738371D01*
X133621927Y-95675270D01*
X133646784Y-95611563D01*
X133671042Y-95551761D01*
X133692971Y-95500376D01*
X133710838Y-95461919D01*
X133722913Y-95440902D01*
X133723771Y-95439894D01*
X133731154Y-95433888D01*
X133743625Y-95427948D01*
X133763920Y-95421460D01*
X133794778Y-95413809D01*
X133838934Y-95404380D01*
X133899126Y-95392559D01*
X133978093Y-95377729D01*
X134078570Y-95359277D01*
X134100325Y-95355310D01*
X134164802Y-95342853D01*
X134221011Y-95330666D01*
X134263987Y-95319926D01*
X134288760Y-95311809D01*
X134292082Y-95309916D01*
X134297556Y-95293138D01*
X134302006Y-95255645D01*
X134305428Y-95201794D01*
X134307819Y-95135944D01*
X134309177Y-95062453D01*
X134309499Y-94985680D01*
X134308781Y-94909983D01*
X134307021Y-94839720D01*
X134304216Y-94779250D01*
X134300362Y-94732930D01*
X134295457Y-94705119D01*
X134292500Y-94699427D01*
X134276037Y-94693686D01*
X134238551Y-94684345D01*
X134183775Y-94672215D01*
X134115445Y-94658107D01*
X134037294Y-94642830D01*
X133994716Y-94634823D01*
X133913929Y-94619721D01*
X133841887Y-94606040D01*
X133782111Y-94594467D01*
X133738121Y-94585687D01*
X133713439Y-94580387D01*
X133709377Y-94579212D01*
X133702511Y-94565965D01*
X133687998Y-94534057D01*
X133667771Y-94488047D01*
X133643766Y-94432492D01*
X133617918Y-94371953D01*
X133592160Y-94310986D01*
X133568427Y-94254151D01*
X133548654Y-94206006D01*
X133534776Y-94171110D01*
X133528726Y-94154021D01*
X133528614Y-94153274D01*
X133535472Y-94139793D01*
X133554698Y-94108770D01*
X133584272Y-94063289D01*
X133622173Y-94006432D01*
X133666380Y-93941283D01*
X133692079Y-93903862D01*
X133738907Y-93835247D01*
X133780499Y-93772952D01*
X133814825Y-93720129D01*
X133839857Y-93679927D01*
X133853565Y-93655500D01*
X133855544Y-93650024D01*
X133847034Y-93637278D01*
X133823507Y-93610063D01*
X133787968Y-93571428D01*
X133743423Y-93524423D01*
X133692877Y-93472095D01*
X133639336Y-93417495D01*
X133585805Y-93363670D01*
X133535289Y-93313670D01*
X133490794Y-93270543D01*
X133455325Y-93237339D01*
X133431887Y-93217106D01*
X133424046Y-93212278D01*
X133411280Y-93219067D01*
X133380744Y-93238142D01*
X133335410Y-93267561D01*
X133278244Y-93305381D01*
X133212216Y-93349661D01*
X133162410Y-93383395D01*
X132910764Y-93554512D01*
X132701001Y-93468041D01*
X132491237Y-93381570D01*
X132434389Y-93080018D01*
X132377540Y-92778466D01*
X131749885Y-92778466D01*
X131693036Y-93080018D01*
G37*
X131693036Y-93080018D02*
X131636188Y-93381570D01*
X131216662Y-93554512D01*
X130965016Y-93383395D01*
X130894542Y-93335750D01*
X130830837Y-93293210D01*
X130776874Y-93257715D01*
X130735627Y-93231210D01*
X130710066Y-93215636D01*
X130703105Y-93212278D01*
X130690565Y-93220914D01*
X130663769Y-93244792D01*
X130625720Y-93280859D01*
X130579421Y-93326067D01*
X130527877Y-93377364D01*
X130474091Y-93431701D01*
X130421065Y-93486028D01*
X130371805Y-93537295D01*
X130329313Y-93582451D01*
X130296593Y-93618446D01*
X130276649Y-93642230D01*
X130271881Y-93650190D01*
X130278743Y-93664865D01*
X130297980Y-93697014D01*
X130327570Y-93743492D01*
X130365490Y-93801156D01*
X130409718Y-93866860D01*
X130435346Y-93904336D01*
X130482059Y-93972768D01*
X130523568Y-94034520D01*
X130557860Y-94086519D01*
X130582920Y-94125692D01*
X130596736Y-94148965D01*
X130598812Y-94153855D01*
X130594105Y-94167755D01*
X130581277Y-94200150D01*
X130562262Y-94246485D01*
X130538997Y-94302206D01*
X130513416Y-94362758D01*
X130487455Y-94423586D01*
X130463050Y-94480136D01*
X130442137Y-94527852D01*
X130426651Y-94562181D01*
X130418528Y-94578568D01*
X130418048Y-94579212D01*
X130405293Y-94582341D01*
X130371323Y-94589321D01*
X130319660Y-94599467D01*
X130253824Y-94612092D01*
X130177336Y-94626509D01*
X130132710Y-94634823D01*
X130050979Y-94650384D01*
X129977157Y-94665192D01*
X129914979Y-94678436D01*
X129868178Y-94689305D01*
X129840491Y-94696989D01*
X129834926Y-94699427D01*
X129829474Y-94715930D01*
X129825076Y-94753200D01*
X129821728Y-94806880D01*
X129819426Y-94872612D01*
X129818168Y-94946037D01*
X129817952Y-95022796D01*
X129818773Y-95098532D01*
X129820629Y-95168886D01*
X129823518Y-95229500D01*
X129827435Y-95276016D01*
X129832378Y-95304075D01*
X129835343Y-95309916D01*
X129853066Y-95316917D01*
X129890619Y-95326927D01*
X129943036Y-95338769D01*
X130005348Y-95351267D01*
X130027100Y-95355310D01*
X130131976Y-95374520D01*
X130214820Y-95389991D01*
X130278370Y-95402337D01*
X130325363Y-95412173D01*
X130358537Y-95420114D01*
X130380629Y-95426776D01*
X130394376Y-95432773D01*
X130402516Y-95438719D01*
X130403655Y-95439894D01*
X130415023Y-95458826D01*
X130432365Y-95495669D01*
X130453950Y-95545913D01*
X130478046Y-95605046D01*
X130502921Y-95668556D01*
X130526843Y-95731932D01*
X130548081Y-95790662D01*
X130564903Y-95840235D01*
X130575578Y-95876139D01*
X130578373Y-95893862D01*
X130578140Y-95894483D01*
X130568669Y-95908970D01*
X130547182Y-95940844D01*
X130515937Y-95986789D01*
X130477193Y-96043485D01*
X130433207Y-96107617D01*
X130420681Y-96125842D01*
X130376016Y-96191914D01*
X130336712Y-96252200D01*
X130304912Y-96303235D01*
X130282755Y-96341560D01*
X130272383Y-96363711D01*
X130271881Y-96366432D01*
X130280595Y-96380736D01*
X130304675Y-96409072D01*
X130341024Y-96448396D01*
X130386547Y-96495661D01*
X130438148Y-96547823D01*
X130492733Y-96601835D01*
X130547206Y-96654653D01*
X130598471Y-96703231D01*
X130643433Y-96744523D01*
X130678996Y-96775485D01*
X130702065Y-96793070D01*
X130708446Y-96795941D01*
X130723301Y-96789178D01*
X130753714Y-96770939D01*
X130794732Y-96744297D01*
X130826291Y-96722852D01*
X130883475Y-96683503D01*
X130951194Y-96637171D01*
X131019120Y-96590913D01*
X131055639Y-96566155D01*
X131179248Y-96482547D01*
X131283009Y-96538650D01*
X131330280Y-96563228D01*
X131370477Y-96582331D01*
X131397674Y-96593227D01*
X131404598Y-96594743D01*
X131412923Y-96583549D01*
X131429346Y-96551917D01*
X131452643Y-96502765D01*
X131481586Y-96439010D01*
X131514950Y-96363571D01*
X131551509Y-96279364D01*
X131590036Y-96189308D01*
X131629306Y-96096321D01*
X131668092Y-96003320D01*
X131705170Y-95913223D01*
X131739311Y-95828948D01*
X131769292Y-95753413D01*
X131793884Y-95689534D01*
X131811864Y-95640231D01*
X131822003Y-95608421D01*
X131823634Y-95597496D01*
X131810709Y-95583561D01*
X131782411Y-95560940D01*
X131744654Y-95534333D01*
X131741485Y-95532228D01*
X131643900Y-95454114D01*
X131565214Y-95362982D01*
X131506109Y-95261745D01*
X131467268Y-95153318D01*
X131449372Y-95040614D01*
X131453103Y-94926548D01*
X131479143Y-94814034D01*
X131528175Y-94705985D01*
X131542600Y-94682345D01*
X131617631Y-94586887D01*
X131706270Y-94510232D01*
X131805451Y-94452780D01*
X131912105Y-94414929D01*
X132023164Y-94397078D01*
X132135561Y-94399625D01*
X132246227Y-94422970D01*
X132352094Y-94467510D01*
X132450095Y-94533645D01*
X132480410Y-94560487D01*
X132557562Y-94644512D01*
X132613782Y-94732966D01*
X132652347Y-94832115D01*
X132673826Y-94930303D01*
X132679128Y-95040697D01*
X132661448Y-95151640D01*
X132622581Y-95259381D01*
X132564323Y-95360169D01*
X132488469Y-95450256D01*
X132396817Y-95525892D01*
X132384772Y-95533864D01*
X132346611Y-95559974D01*
X132317601Y-95582595D01*
X132303732Y-95597039D01*
X132303531Y-95597496D01*
X132306508Y-95613121D01*
X132318311Y-95648582D01*
X132337714Y-95700962D01*
X132363488Y-95767345D01*
X132394409Y-95844814D01*
X132429249Y-95930450D01*
X132466783Y-96021337D01*
X132505783Y-96114559D01*
X132545023Y-96207197D01*
X132583276Y-96296335D01*
X132619317Y-96379055D01*
X132651917Y-96452441D01*
X132679852Y-96513575D01*
X132701895Y-96559541D01*
X132716818Y-96587421D01*
X132722828Y-96594743D01*
X132741191Y-96589041D01*
X132775552Y-96573749D01*
X132819984Y-96551599D01*
X132844417Y-96538650D01*
X132948178Y-96482547D01*
X133071787Y-96566155D01*
X133134886Y-96608987D01*
X133203970Y-96656122D01*
X133268707Y-96700503D01*
X133301134Y-96722852D01*
X133346741Y-96753477D01*
X133385360Y-96777747D01*
X133411952Y-96792587D01*
X133420590Y-96795724D01*
X133433161Y-96787261D01*
X133460984Y-96763636D01*
X133501361Y-96727302D01*
X133551595Y-96680711D01*
X133608988Y-96626317D01*
X133645286Y-96591392D01*
X133708790Y-96528996D01*
X133763673Y-96473188D01*
X133807714Y-96426354D01*
X133838695Y-96390882D01*
X133854398Y-96369161D01*
X133855905Y-96364752D01*
X133848914Y-96347985D01*
X133829594Y-96314082D01*
X133800091Y-96266476D01*
X133762545Y-96208599D01*
X133719100Y-96143884D01*
X133706745Y-96125842D01*
X133661727Y-96060267D01*
X133621340Y-96001228D01*
X133587840Y-95952042D01*
X133563486Y-95916028D01*
X133550536Y-95896502D01*
X133549285Y-95894483D01*
X133551156Y-95878922D01*
X133561087Y-95844709D01*
X133577347Y-95796355D01*
X133598205Y-95738371D01*
X133621927Y-95675270D01*
X133646784Y-95611563D01*
X133671042Y-95551761D01*
X133692971Y-95500376D01*
X133710838Y-95461919D01*
X133722913Y-95440902D01*
X133723771Y-95439894D01*
X133731154Y-95433888D01*
X133743625Y-95427948D01*
X133763920Y-95421460D01*
X133794778Y-95413809D01*
X133838934Y-95404380D01*
X133899126Y-95392559D01*
X133978093Y-95377729D01*
X134078570Y-95359277D01*
X134100325Y-95355310D01*
X134164802Y-95342853D01*
X134221011Y-95330666D01*
X134263987Y-95319926D01*
X134288760Y-95311809D01*
X134292082Y-95309916D01*
X134297556Y-95293138D01*
X134302006Y-95255645D01*
X134305428Y-95201794D01*
X134307819Y-95135944D01*
X134309177Y-95062453D01*
X134309499Y-94985680D01*
X134308781Y-94909983D01*
X134307021Y-94839720D01*
X134304216Y-94779250D01*
X134300362Y-94732930D01*
X134295457Y-94705119D01*
X134292500Y-94699427D01*
X134276037Y-94693686D01*
X134238551Y-94684345D01*
X134183775Y-94672215D01*
X134115445Y-94658107D01*
X134037294Y-94642830D01*
X133994716Y-94634823D01*
X133913929Y-94619721D01*
X133841887Y-94606040D01*
X133782111Y-94594467D01*
X133738121Y-94585687D01*
X133713439Y-94580387D01*
X133709377Y-94579212D01*
X133702511Y-94565965D01*
X133687998Y-94534057D01*
X133667771Y-94488047D01*
X133643766Y-94432492D01*
X133617918Y-94371953D01*
X133592160Y-94310986D01*
X133568427Y-94254151D01*
X133548654Y-94206006D01*
X133534776Y-94171110D01*
X133528726Y-94154021D01*
X133528614Y-94153274D01*
X133535472Y-94139793D01*
X133554698Y-94108770D01*
X133584272Y-94063289D01*
X133622173Y-94006432D01*
X133666380Y-93941283D01*
X133692079Y-93903862D01*
X133738907Y-93835247D01*
X133780499Y-93772952D01*
X133814825Y-93720129D01*
X133839857Y-93679927D01*
X133853565Y-93655500D01*
X133855544Y-93650024D01*
X133847034Y-93637278D01*
X133823507Y-93610063D01*
X133787968Y-93571428D01*
X133743423Y-93524423D01*
X133692877Y-93472095D01*
X133639336Y-93417495D01*
X133585805Y-93363670D01*
X133535289Y-93313670D01*
X133490794Y-93270543D01*
X133455325Y-93237339D01*
X133431887Y-93217106D01*
X133424046Y-93212278D01*
X133411280Y-93219067D01*
X133380744Y-93238142D01*
X133335410Y-93267561D01*
X133278244Y-93305381D01*
X133212216Y-93349661D01*
X133162410Y-93383395D01*
X132910764Y-93554512D01*
X132701001Y-93468041D01*
X132491237Y-93381570D01*
X132434389Y-93080018D01*
X132377540Y-92778466D01*
X131749885Y-92778466D01*
X131693036Y-93080018D01*
G36*
X130270540Y-97248030D02*
G01*
X130227289Y-97261245D01*
X130199442Y-97277941D01*
X130190371Y-97291145D01*
X130192868Y-97306797D01*
X130209069Y-97331385D01*
X130222768Y-97348800D01*
X130251008Y-97380283D01*
X130272225Y-97393529D01*
X130290312Y-97392664D01*
X130343965Y-97379010D01*
X130383370Y-97379630D01*
X130415368Y-97395104D01*
X130426110Y-97404161D01*
X130460495Y-97436027D01*
X130460495Y-97852179D01*
X130598812Y-97852179D01*
X130598812Y-97248614D01*
X130529653Y-97248614D01*
X130488131Y-97250256D01*
X130466709Y-97256087D01*
X130460498Y-97267461D01*
X130460495Y-97267798D01*
X130457561Y-97279713D01*
X130444296Y-97278159D01*
X130425916Y-97269563D01*
X130387954Y-97253568D01*
X130357128Y-97243945D01*
X130317464Y-97241478D01*
X130270540Y-97248030D01*
G37*
X130270540Y-97248030D02*
X130227289Y-97261245D01*
X130199442Y-97277941D01*
X130190371Y-97291145D01*
X130192868Y-97306797D01*
X130209069Y-97331385D01*
X130222768Y-97348800D01*
X130251008Y-97380283D01*
X130272225Y-97393529D01*
X130290312Y-97392664D01*
X130343965Y-97379010D01*
X130383370Y-97379630D01*
X130415368Y-97395104D01*
X130426110Y-97404161D01*
X130460495Y-97436027D01*
X130460495Y-97852179D01*
X130598812Y-97852179D01*
X130598812Y-97248614D01*
X130529653Y-97248614D01*
X130488131Y-97250256D01*
X130466709Y-97256087D01*
X130460498Y-97267461D01*
X130460495Y-97267798D01*
X130457561Y-97279713D01*
X130444296Y-97278159D01*
X130425916Y-97269563D01*
X130387954Y-97253568D01*
X130357128Y-97243945D01*
X130317464Y-97241478D01*
X130270540Y-97248030D01*
G36*
X132824012Y-97259002D02*
G01*
X132792717Y-97273950D01*
X132762409Y-97295541D01*
X132739318Y-97320391D01*
X132722500Y-97352087D01*
X132711006Y-97394214D01*
X132703891Y-97450358D01*
X132700207Y-97524106D01*
X132699008Y-97619044D01*
X132698989Y-97628985D01*
X132698713Y-97852179D01*
X132837030Y-97852179D01*
X132837030Y-97646418D01*
X132837128Y-97570189D01*
X132837809Y-97514939D01*
X132839651Y-97476501D01*
X132843233Y-97450706D01*
X132849132Y-97433384D01*
X132857927Y-97420368D01*
X132870180Y-97407507D01*
X132913047Y-97379873D01*
X132959843Y-97374745D01*
X133004424Y-97392217D01*
X133019928Y-97405221D01*
X133031310Y-97417447D01*
X133039481Y-97430540D01*
X133044974Y-97448615D01*
X133048320Y-97475787D01*
X133050051Y-97516170D01*
X133050697Y-97573879D01*
X133050792Y-97644132D01*
X133050792Y-97852179D01*
X133189109Y-97852179D01*
X133189109Y-97248614D01*
X133119950Y-97248614D01*
X133078428Y-97250256D01*
X133057006Y-97256087D01*
X133050795Y-97267461D01*
X133050792Y-97267798D01*
X133047910Y-97278938D01*
X133035199Y-97277674D01*
X133009926Y-97265434D01*
X132952605Y-97247424D01*
X132887037Y-97245421D01*
X132824012Y-97259002D01*
G37*
X132824012Y-97259002D02*
X132792717Y-97273950D01*
X132762409Y-97295541D01*
X132739318Y-97320391D01*
X132722500Y-97352087D01*
X132711006Y-97394214D01*
X132703891Y-97450358D01*
X132700207Y-97524106D01*
X132699008Y-97619044D01*
X132698989Y-97628985D01*
X132698713Y-97852179D01*
X132837030Y-97852179D01*
X132837030Y-97646418D01*
X132837128Y-97570189D01*
X132837809Y-97514939D01*
X132839651Y-97476501D01*
X132843233Y-97450706D01*
X132849132Y-97433384D01*
X132857927Y-97420368D01*
X132870180Y-97407507D01*
X132913047Y-97379873D01*
X132959843Y-97374745D01*
X133004424Y-97392217D01*
X133019928Y-97405221D01*
X133031310Y-97417447D01*
X133039481Y-97430540D01*
X133044974Y-97448615D01*
X133048320Y-97475787D01*
X133050051Y-97516170D01*
X133050697Y-97573879D01*
X133050792Y-97644132D01*
X133050792Y-97852179D01*
X133189109Y-97852179D01*
X133189109Y-97248614D01*
X133119950Y-97248614D01*
X133078428Y-97250256D01*
X133057006Y-97256087D01*
X133050795Y-97267461D01*
X133050792Y-97267798D01*
X133047910Y-97278938D01*
X133035199Y-97277674D01*
X133009926Y-97265434D01*
X132952605Y-97247424D01*
X132887037Y-97245421D01*
X132824012Y-97259002D01*
G36*
X129392102Y-97246457D02*
G01*
X129359904Y-97254279D01*
X129298175Y-97282921D01*
X129245390Y-97326667D01*
X129208859Y-97379117D01*
X129203840Y-97390893D01*
X129196955Y-97421740D01*
X129192136Y-97467371D01*
X129190495Y-97513492D01*
X129190495Y-97600693D01*
X129372822Y-97600693D01*
X129448021Y-97600978D01*
X129500997Y-97602704D01*
X129534675Y-97607181D01*
X129551980Y-97615720D01*
X129555837Y-97629630D01*
X129549171Y-97650222D01*
X129537230Y-97674315D01*
X129503920Y-97714525D01*
X129457632Y-97734558D01*
X129401056Y-97733905D01*
X129336969Y-97712101D01*
X129281583Y-97685193D01*
X129235625Y-97721532D01*
X129189667Y-97757872D01*
X129232904Y-97797819D01*
X129290626Y-97835563D01*
X129361614Y-97858320D01*
X129437971Y-97864688D01*
X129511801Y-97853268D01*
X129523713Y-97849393D01*
X129588601Y-97815506D01*
X129636870Y-97764986D01*
X129669535Y-97696325D01*
X129687615Y-97608014D01*
X129687825Y-97606121D01*
X129689444Y-97509878D01*
X129682900Y-97475542D01*
X129555148Y-97475542D01*
X129543416Y-97480822D01*
X129511562Y-97484867D01*
X129464603Y-97487176D01*
X129434846Y-97487525D01*
X129379352Y-97487306D01*
X129344654Y-97485916D01*
X129326399Y-97482251D01*
X129320234Y-97475210D01*
X129321805Y-97463690D01*
X129323122Y-97459233D01*
X129345618Y-97417355D01*
X129380997Y-97383604D01*
X129412220Y-97368773D01*
X129453699Y-97369668D01*
X129495731Y-97388164D01*
X129530988Y-97418786D01*
X129552146Y-97456062D01*
X129555148Y-97475542D01*
X129682900Y-97475542D01*
X129673310Y-97425229D01*
X129641302Y-97354191D01*
X129595299Y-97298779D01*
X129537179Y-97261009D01*
X129468820Y-97242896D01*
X129392102Y-97246457D01*
G37*
X129392102Y-97246457D02*
X129359904Y-97254279D01*
X129298175Y-97282921D01*
X129245390Y-97326667D01*
X129208859Y-97379117D01*
X129203840Y-97390893D01*
X129196955Y-97421740D01*
X129192136Y-97467371D01*
X129190495Y-97513492D01*
X129190495Y-97600693D01*
X129372822Y-97600693D01*
X129448021Y-97600978D01*
X129500997Y-97602704D01*
X129534675Y-97607181D01*
X129551980Y-97615720D01*
X129555837Y-97629630D01*
X129549171Y-97650222D01*
X129537230Y-97674315D01*
X129503920Y-97714525D01*
X129457632Y-97734558D01*
X129401056Y-97733905D01*
X129336969Y-97712101D01*
X129281583Y-97685193D01*
X129235625Y-97721532D01*
X129189667Y-97757872D01*
X129232904Y-97797819D01*
X129290626Y-97835563D01*
X129361614Y-97858320D01*
X129437971Y-97864688D01*
X129511801Y-97853268D01*
X129523713Y-97849393D01*
X129588601Y-97815506D01*
X129636870Y-97764986D01*
X129669535Y-97696325D01*
X129687615Y-97608014D01*
X129687825Y-97606121D01*
X129689444Y-97509878D01*
X129682900Y-97475542D01*
X129555148Y-97475542D01*
X129543416Y-97480822D01*
X129511562Y-97484867D01*
X129464603Y-97487176D01*
X129434846Y-97487525D01*
X129379352Y-97487306D01*
X129344654Y-97485916D01*
X129326399Y-97482251D01*
X129320234Y-97475210D01*
X129321805Y-97463690D01*
X129323122Y-97459233D01*
X129345618Y-97417355D01*
X129380997Y-97383604D01*
X129412220Y-97368773D01*
X129453699Y-97369668D01*
X129495731Y-97388164D01*
X129530988Y-97418786D01*
X129552146Y-97456062D01*
X129555148Y-97475542D01*
X129682900Y-97475542D01*
X129673310Y-97425229D01*
X129641302Y-97354191D01*
X129595299Y-97298779D01*
X129537179Y-97261009D01*
X129468820Y-97242896D01*
X129392102Y-97246457D01*
G36*
X129852774Y-97253880D02*
G01*
X129779920Y-97284830D01*
X129756973Y-97299895D01*
X129727646Y-97323048D01*
X129709236Y-97341253D01*
X129706039Y-97347183D01*
X129715065Y-97360340D01*
X129738163Y-97382667D01*
X129756656Y-97398250D01*
X129807272Y-97438926D01*
X129847240Y-97405295D01*
X129878126Y-97383584D01*
X129908241Y-97376090D01*
X129942708Y-97377920D01*
X129997439Y-97391528D01*
X130035114Y-97419772D01*
X130058009Y-97465433D01*
X130068403Y-97531289D01*
X130068405Y-97531331D01*
X130067506Y-97604939D01*
X130053537Y-97658946D01*
X130025672Y-97695716D01*
X130006675Y-97708168D01*
X129956224Y-97723673D01*
X129902337Y-97723683D01*
X129855454Y-97708638D01*
X129844356Y-97701287D01*
X129816524Y-97682511D01*
X129794764Y-97679434D01*
X129771296Y-97693409D01*
X129745351Y-97718510D01*
X129704284Y-97760880D01*
X129749879Y-97798464D01*
X129820326Y-97840882D01*
X129899767Y-97861785D01*
X129982785Y-97860272D01*
X130037306Y-97846411D01*
X130101030Y-97812135D01*
X130151995Y-97758212D01*
X130175149Y-97720149D01*
X130193901Y-97665536D01*
X130203285Y-97596369D01*
X130203357Y-97521407D01*
X130194176Y-97449409D01*
X130175801Y-97389137D01*
X130172907Y-97382958D01*
X130130048Y-97322351D01*
X130072021Y-97278224D01*
X130003409Y-97251493D01*
X129928799Y-97243073D01*
X129852774Y-97253880D01*
G37*
X129852774Y-97253880D02*
X129779920Y-97284830D01*
X129756973Y-97299895D01*
X129727646Y-97323048D01*
X129709236Y-97341253D01*
X129706039Y-97347183D01*
X129715065Y-97360340D01*
X129738163Y-97382667D01*
X129756656Y-97398250D01*
X129807272Y-97438926D01*
X129847240Y-97405295D01*
X129878126Y-97383584D01*
X129908241Y-97376090D01*
X129942708Y-97377920D01*
X129997439Y-97391528D01*
X130035114Y-97419772D01*
X130058009Y-97465433D01*
X130068403Y-97531289D01*
X130068405Y-97531331D01*
X130067506Y-97604939D01*
X130053537Y-97658946D01*
X130025672Y-97695716D01*
X130006675Y-97708168D01*
X129956224Y-97723673D01*
X129902337Y-97723683D01*
X129855454Y-97708638D01*
X129844356Y-97701287D01*
X129816524Y-97682511D01*
X129794764Y-97679434D01*
X129771296Y-97693409D01*
X129745351Y-97718510D01*
X129704284Y-97760880D01*
X129749879Y-97798464D01*
X129820326Y-97840882D01*
X129899767Y-97861785D01*
X129982785Y-97860272D01*
X130037306Y-97846411D01*
X130101030Y-97812135D01*
X130151995Y-97758212D01*
X130175149Y-97720149D01*
X130193901Y-97665536D01*
X130203285Y-97596369D01*
X130203357Y-97521407D01*
X130194176Y-97449409D01*
X130175801Y-97389137D01*
X130172907Y-97382958D01*
X130130048Y-97322351D01*
X130072021Y-97278224D01*
X130003409Y-97251493D01*
X129928799Y-97243073D01*
X129852774Y-97253880D01*
G36*
X131076633Y-97444342D02*
G01*
X131075445Y-97536563D01*
X131071103Y-97606610D01*
X131062442Y-97657381D01*
X131048296Y-97691772D01*
X131027500Y-97712679D01*
X130998890Y-97723000D01*
X130963465Y-97725636D01*
X130926364Y-97722682D01*
X130898182Y-97711889D01*
X130877757Y-97690360D01*
X130863921Y-97655199D01*
X130855509Y-97603510D01*
X130851357Y-97532394D01*
X130850297Y-97444342D01*
X130850297Y-97248614D01*
X130711980Y-97248614D01*
X130711980Y-97852179D01*
X130781138Y-97852179D01*
X130822830Y-97850489D01*
X130844299Y-97844556D01*
X130850297Y-97833293D01*
X130853909Y-97823261D01*
X130868286Y-97825383D01*
X130897264Y-97839580D01*
X130963681Y-97861480D01*
X131034125Y-97859928D01*
X131101623Y-97836147D01*
X131133767Y-97817362D01*
X131158285Y-97797022D01*
X131176196Y-97771573D01*
X131188521Y-97737458D01*
X131196277Y-97691121D01*
X131200484Y-97629007D01*
X131202160Y-97547561D01*
X131202376Y-97484578D01*
X131202376Y-97248614D01*
X131076633Y-97248614D01*
X131076633Y-97444342D01*
G37*
X131076633Y-97444342D02*
X131075445Y-97536563D01*
X131071103Y-97606610D01*
X131062442Y-97657381D01*
X131048296Y-97691772D01*
X131027500Y-97712679D01*
X130998890Y-97723000D01*
X130963465Y-97725636D01*
X130926364Y-97722682D01*
X130898182Y-97711889D01*
X130877757Y-97690360D01*
X130863921Y-97655199D01*
X130855509Y-97603510D01*
X130851357Y-97532394D01*
X130850297Y-97444342D01*
X130850297Y-97248614D01*
X130711980Y-97248614D01*
X130711980Y-97852179D01*
X130781138Y-97852179D01*
X130822830Y-97850489D01*
X130844299Y-97844556D01*
X130850297Y-97833293D01*
X130853909Y-97823261D01*
X130868286Y-97825383D01*
X130897264Y-97839580D01*
X130963681Y-97861480D01*
X131034125Y-97859928D01*
X131101623Y-97836147D01*
X131133767Y-97817362D01*
X131158285Y-97797022D01*
X131176196Y-97771573D01*
X131188521Y-97737458D01*
X131196277Y-97691121D01*
X131200484Y-97629007D01*
X131202160Y-97547561D01*
X131202376Y-97484578D01*
X131202376Y-97248614D01*
X131076633Y-97248614D01*
X131076633Y-97444342D01*
G36*
X131459238Y-97256055D02*
G01*
X131395637Y-97290692D01*
X131345877Y-97345372D01*
X131322432Y-97389842D01*
X131312366Y-97429121D01*
X131305844Y-97485116D01*
X131303049Y-97549621D01*
X131304164Y-97614429D01*
X131309374Y-97671334D01*
X131315459Y-97701727D01*
X131335986Y-97743306D01*
X131371537Y-97787468D01*
X131414381Y-97826087D01*
X131456789Y-97851034D01*
X131457823Y-97851430D01*
X131510447Y-97862331D01*
X131572812Y-97862601D01*
X131632076Y-97852676D01*
X131654960Y-97844722D01*
X131713898Y-97811300D01*
X131756110Y-97767511D01*
X131783844Y-97709538D01*
X131799349Y-97633565D01*
X131802857Y-97593771D01*
X131802410Y-97543766D01*
X131667624Y-97543766D01*
X131663083Y-97616732D01*
X131650014Y-97672334D01*
X131629244Y-97707861D01*
X131614448Y-97718020D01*
X131576536Y-97725104D01*
X131531473Y-97723007D01*
X131492513Y-97712812D01*
X131482296Y-97707204D01*
X131455341Y-97674538D01*
X131437549Y-97624545D01*
X131429976Y-97563705D01*
X131433675Y-97498497D01*
X131441943Y-97459253D01*
X131465680Y-97413805D01*
X131503151Y-97385396D01*
X131548280Y-97375573D01*
X131594989Y-97385887D01*
X131630868Y-97411112D01*
X131649723Y-97431925D01*
X131660728Y-97452439D01*
X131665974Y-97480203D01*
X131667551Y-97522762D01*
X131667624Y-97543766D01*
X131802410Y-97543766D01*
X131801906Y-97487580D01*
X131784612Y-97400501D01*
X131750971Y-97332530D01*
X131700982Y-97283664D01*
X131634644Y-97253899D01*
X131620399Y-97250448D01*
X131534790Y-97242345D01*
X131459238Y-97256055D01*
G37*
X131459238Y-97256055D02*
X131395637Y-97290692D01*
X131345877Y-97345372D01*
X131322432Y-97389842D01*
X131312366Y-97429121D01*
X131305844Y-97485116D01*
X131303049Y-97549621D01*
X131304164Y-97614429D01*
X131309374Y-97671334D01*
X131315459Y-97701727D01*
X131335986Y-97743306D01*
X131371537Y-97787468D01*
X131414381Y-97826087D01*
X131456789Y-97851034D01*
X131457823Y-97851430D01*
X131510447Y-97862331D01*
X131572812Y-97862601D01*
X131632076Y-97852676D01*
X131654960Y-97844722D01*
X131713898Y-97811300D01*
X131756110Y-97767511D01*
X131783844Y-97709538D01*
X131799349Y-97633565D01*
X131802857Y-97593771D01*
X131802410Y-97543766D01*
X131667624Y-97543766D01*
X131663083Y-97616732D01*
X131650014Y-97672334D01*
X131629244Y-97707861D01*
X131614448Y-97718020D01*
X131576536Y-97725104D01*
X131531473Y-97723007D01*
X131492513Y-97712812D01*
X131482296Y-97707204D01*
X131455341Y-97674538D01*
X131437549Y-97624545D01*
X131429976Y-97563705D01*
X131433675Y-97498497D01*
X131441943Y-97459253D01*
X131465680Y-97413805D01*
X131503151Y-97385396D01*
X131548280Y-97375573D01*
X131594989Y-97385887D01*
X131630868Y-97411112D01*
X131649723Y-97431925D01*
X131660728Y-97452439D01*
X131665974Y-97480203D01*
X131667551Y-97522762D01*
X131667624Y-97543766D01*
X131802410Y-97543766D01*
X131801906Y-97487580D01*
X131784612Y-97400501D01*
X131750971Y-97332530D01*
X131700982Y-97283664D01*
X131634644Y-97253899D01*
X131620399Y-97250448D01*
X131534790Y-97242345D01*
X131459238Y-97256055D01*
G36*
X132055983Y-97246452D02*
G01*
X132008366Y-97255482D01*
X131958966Y-97274370D01*
X131953688Y-97276777D01*
X131916226Y-97296476D01*
X131890283Y-97314781D01*
X131881897Y-97326508D01*
X131889883Y-97345632D01*
X131909280Y-97373850D01*
X131917890Y-97384384D01*
X131953372Y-97425847D01*
X131999115Y-97398858D01*
X132042650Y-97380878D01*
X132092950Y-97371267D01*
X132141188Y-97370660D01*
X132178533Y-97379691D01*
X132187495Y-97385327D01*
X132204563Y-97411171D01*
X132206637Y-97440941D01*
X132193866Y-97464197D01*
X132186312Y-97468708D01*
X132163675Y-97474309D01*
X132123885Y-97480892D01*
X132074834Y-97487183D01*
X132065785Y-97488170D01*
X131987004Y-97501798D01*
X131929864Y-97524946D01*
X131891970Y-97559752D01*
X131870921Y-97608354D01*
X131864365Y-97667718D01*
X131873423Y-97735198D01*
X131902836Y-97788188D01*
X131952722Y-97826783D01*
X132023200Y-97851081D01*
X132101435Y-97860667D01*
X132165234Y-97860552D01*
X132216984Y-97851845D01*
X132252327Y-97839825D01*
X132296983Y-97818880D01*
X132338253Y-97794574D01*
X132352921Y-97783876D01*
X132390643Y-97753084D01*
X132345148Y-97707049D01*
X132299653Y-97661013D01*
X132247928Y-97695243D01*
X132196048Y-97720952D01*
X132140649Y-97734399D01*
X132087395Y-97735818D01*
X132041951Y-97725443D01*
X132009984Y-97703507D01*
X131999662Y-97684998D01*
X132001211Y-97655314D01*
X132026860Y-97632615D01*
X132076540Y-97616940D01*
X132130969Y-97609695D01*
X132214736Y-97595873D01*
X132276967Y-97569796D01*
X132318493Y-97530699D01*
X132340147Y-97477820D01*
X132343147Y-97415126D01*
X132328329Y-97349642D01*
X132294546Y-97300144D01*
X132241495Y-97266408D01*
X132168874Y-97248207D01*
X132115072Y-97244639D01*
X132055983Y-97246452D01*
G37*
X132055983Y-97246452D02*
X132008366Y-97255482D01*
X131958966Y-97274370D01*
X131953688Y-97276777D01*
X131916226Y-97296476D01*
X131890283Y-97314781D01*
X131881897Y-97326508D01*
X131889883Y-97345632D01*
X131909280Y-97373850D01*
X131917890Y-97384384D01*
X131953372Y-97425847D01*
X131999115Y-97398858D01*
X132042650Y-97380878D01*
X132092950Y-97371267D01*
X132141188Y-97370660D01*
X132178533Y-97379691D01*
X132187495Y-97385327D01*
X132204563Y-97411171D01*
X132206637Y-97440941D01*
X132193866Y-97464197D01*
X132186312Y-97468708D01*
X132163675Y-97474309D01*
X132123885Y-97480892D01*
X132074834Y-97487183D01*
X132065785Y-97488170D01*
X131987004Y-97501798D01*
X131929864Y-97524946D01*
X131891970Y-97559752D01*
X131870921Y-97608354D01*
X131864365Y-97667718D01*
X131873423Y-97735198D01*
X131902836Y-97788188D01*
X131952722Y-97826783D01*
X132023200Y-97851081D01*
X132101435Y-97860667D01*
X132165234Y-97860552D01*
X132216984Y-97851845D01*
X132252327Y-97839825D01*
X132296983Y-97818880D01*
X132338253Y-97794574D01*
X132352921Y-97783876D01*
X132390643Y-97753084D01*
X132345148Y-97707049D01*
X132299653Y-97661013D01*
X132247928Y-97695243D01*
X132196048Y-97720952D01*
X132140649Y-97734399D01*
X132087395Y-97735818D01*
X132041951Y-97725443D01*
X132009984Y-97703507D01*
X131999662Y-97684998D01*
X132001211Y-97655314D01*
X132026860Y-97632615D01*
X132076540Y-97616940D01*
X132130969Y-97609695D01*
X132214736Y-97595873D01*
X132276967Y-97569796D01*
X132318493Y-97530699D01*
X132340147Y-97477820D01*
X132343147Y-97415126D01*
X132328329Y-97349642D01*
X132294546Y-97300144D01*
X132241495Y-97266408D01*
X132168874Y-97248207D01*
X132115072Y-97244639D01*
X132055983Y-97246452D01*
G36*
X133426699Y-97262614D02*
G01*
X133414168Y-97268514D01*
X133370799Y-97300283D01*
X133329790Y-97346646D01*
X133299168Y-97397696D01*
X133290459Y-97421166D01*
X133282512Y-97463091D01*
X133277774Y-97513757D01*
X133277199Y-97534679D01*
X133277129Y-97600693D01*
X133657083Y-97600693D01*
X133648983Y-97635273D01*
X133629104Y-97676170D01*
X133594347Y-97711514D01*
X133552998Y-97734282D01*
X133526649Y-97739010D01*
X133490916Y-97733273D01*
X133448282Y-97718882D01*
X133433799Y-97712262D01*
X133380240Y-97685513D01*
X133334533Y-97720376D01*
X133308158Y-97743955D01*
X133294124Y-97763417D01*
X133293414Y-97769129D01*
X133305951Y-97782973D01*
X133333428Y-97804012D01*
X133358366Y-97820425D01*
X133425664Y-97849930D01*
X133501110Y-97863284D01*
X133575888Y-97859812D01*
X133635495Y-97841663D01*
X133696941Y-97802784D01*
X133740608Y-97751595D01*
X133767926Y-97685367D01*
X133780322Y-97601371D01*
X133781421Y-97562936D01*
X133777022Y-97474861D01*
X133776482Y-97472299D01*
X133650582Y-97472299D01*
X133647115Y-97480558D01*
X133632863Y-97485113D01*
X133603470Y-97487065D01*
X133554575Y-97487517D01*
X133535748Y-97487525D01*
X133478467Y-97486843D01*
X133442141Y-97484364D01*
X133422604Y-97479443D01*
X133415690Y-97471434D01*
X133415445Y-97468862D01*
X133423336Y-97448423D01*
X133443085Y-97419789D01*
X133451575Y-97409763D01*
X133483094Y-97381408D01*
X133515949Y-97370259D01*
X133533651Y-97369327D01*
X133581539Y-97380981D01*
X133621699Y-97412285D01*
X133647173Y-97457752D01*
X133647625Y-97459233D01*
X133650582Y-97472299D01*
X133776482Y-97472299D01*
X133762392Y-97405510D01*
X133736038Y-97350025D01*
X133703807Y-97310639D01*
X133644217Y-97267931D01*
X133574168Y-97245109D01*
X133499661Y-97243046D01*
X133426699Y-97262614D01*
G37*
X133426699Y-97262614D02*
X133414168Y-97268514D01*
X133370799Y-97300283D01*
X133329790Y-97346646D01*
X133299168Y-97397696D01*
X133290459Y-97421166D01*
X133282512Y-97463091D01*
X133277774Y-97513757D01*
X133277199Y-97534679D01*
X133277129Y-97600693D01*
X133657083Y-97600693D01*
X133648983Y-97635273D01*
X133629104Y-97676170D01*
X133594347Y-97711514D01*
X133552998Y-97734282D01*
X133526649Y-97739010D01*
X133490916Y-97733273D01*
X133448282Y-97718882D01*
X133433799Y-97712262D01*
X133380240Y-97685513D01*
X133334533Y-97720376D01*
X133308158Y-97743955D01*
X133294124Y-97763417D01*
X133293414Y-97769129D01*
X133305951Y-97782973D01*
X133333428Y-97804012D01*
X133358366Y-97820425D01*
X133425664Y-97849930D01*
X133501110Y-97863284D01*
X133575888Y-97859812D01*
X133635495Y-97841663D01*
X133696941Y-97802784D01*
X133740608Y-97751595D01*
X133767926Y-97685367D01*
X133780322Y-97601371D01*
X133781421Y-97562936D01*
X133777022Y-97474861D01*
X133776482Y-97472299D01*
X133650582Y-97472299D01*
X133647115Y-97480558D01*
X133632863Y-97485113D01*
X133603470Y-97487065D01*
X133554575Y-97487517D01*
X133535748Y-97487525D01*
X133478467Y-97486843D01*
X133442141Y-97484364D01*
X133422604Y-97479443D01*
X133415690Y-97471434D01*
X133415445Y-97468862D01*
X133423336Y-97448423D01*
X133443085Y-97419789D01*
X133451575Y-97409763D01*
X133483094Y-97381408D01*
X133515949Y-97370259D01*
X133533651Y-97369327D01*
X133581539Y-97380981D01*
X133621699Y-97412285D01*
X133647173Y-97457752D01*
X133647625Y-97459233D01*
X133650582Y-97472299D01*
X133776482Y-97472299D01*
X133762392Y-97405510D01*
X133736038Y-97350025D01*
X133703807Y-97310639D01*
X133644217Y-97267931D01*
X133574168Y-97245109D01*
X133499661Y-97243046D01*
X133426699Y-97262614D01*
G36*
X134608261Y-97255148D02*
G01*
X134542479Y-97284231D01*
X134492540Y-97332793D01*
X134458374Y-97400908D01*
X134439907Y-97488651D01*
X134438583Y-97502351D01*
X134437546Y-97598939D01*
X134450993Y-97683602D01*
X134478108Y-97752221D01*
X134492627Y-97774294D01*
X134543201Y-97821011D01*
X134607609Y-97851268D01*
X134679666Y-97863824D01*
X134753185Y-97857439D01*
X134809072Y-97837772D01*
X134857132Y-97804629D01*
X134896412Y-97761175D01*
X134897092Y-97760158D01*
X134913044Y-97733338D01*
X134923410Y-97706368D01*
X134929688Y-97672332D01*
X134933373Y-97624310D01*
X134934997Y-97584931D01*
X134935672Y-97549219D01*
X134809955Y-97549219D01*
X134808726Y-97584770D01*
X134804266Y-97632094D01*
X134796397Y-97662465D01*
X134782207Y-97684072D01*
X134768917Y-97696694D01*
X134721802Y-97723122D01*
X134672505Y-97726653D01*
X134626593Y-97707639D01*
X134603638Y-97686331D01*
X134587096Y-97664859D01*
X134577421Y-97644313D01*
X134573174Y-97617574D01*
X134572920Y-97577523D01*
X134574228Y-97540638D01*
X134577043Y-97487947D01*
X134581505Y-97453772D01*
X134589548Y-97431480D01*
X134603103Y-97414442D01*
X134613845Y-97404703D01*
X134658777Y-97379123D01*
X134707249Y-97377847D01*
X134747894Y-97392999D01*
X134782567Y-97424642D01*
X134803224Y-97476620D01*
X134809955Y-97549219D01*
X134935672Y-97549219D01*
X134936479Y-97506621D01*
X134933948Y-97448056D01*
X134926362Y-97404007D01*
X134912681Y-97369248D01*
X134891865Y-97338551D01*
X134884147Y-97329436D01*
X134835889Y-97284021D01*
X134784128Y-97257493D01*
X134720828Y-97246379D01*
X134689961Y-97245471D01*
X134608261Y-97255148D01*
G37*
X134608261Y-97255148D02*
X134542479Y-97284231D01*
X134492540Y-97332793D01*
X134458374Y-97400908D01*
X134439907Y-97488651D01*
X134438583Y-97502351D01*
X134437546Y-97598939D01*
X134450993Y-97683602D01*
X134478108Y-97752221D01*
X134492627Y-97774294D01*
X134543201Y-97821011D01*
X134607609Y-97851268D01*
X134679666Y-97863824D01*
X134753185Y-97857439D01*
X134809072Y-97837772D01*
X134857132Y-97804629D01*
X134896412Y-97761175D01*
X134897092Y-97760158D01*
X134913044Y-97733338D01*
X134923410Y-97706368D01*
X134929688Y-97672332D01*
X134933373Y-97624310D01*
X134934997Y-97584931D01*
X134935672Y-97549219D01*
X134809955Y-97549219D01*
X134808726Y-97584770D01*
X134804266Y-97632094D01*
X134796397Y-97662465D01*
X134782207Y-97684072D01*
X134768917Y-97696694D01*
X134721802Y-97723122D01*
X134672505Y-97726653D01*
X134626593Y-97707639D01*
X134603638Y-97686331D01*
X134587096Y-97664859D01*
X134577421Y-97644313D01*
X134573174Y-97617574D01*
X134572920Y-97577523D01*
X134574228Y-97540638D01*
X134577043Y-97487947D01*
X134581505Y-97453772D01*
X134589548Y-97431480D01*
X134603103Y-97414442D01*
X134613845Y-97404703D01*
X134658777Y-97379123D01*
X134707249Y-97377847D01*
X134747894Y-97392999D01*
X134782567Y-97424642D01*
X134803224Y-97476620D01*
X134809955Y-97549219D01*
X134935672Y-97549219D01*
X134936479Y-97506621D01*
X134933948Y-97448056D01*
X134926362Y-97404007D01*
X134912681Y-97369248D01*
X134891865Y-97338551D01*
X134884147Y-97329436D01*
X134835889Y-97284021D01*
X134784128Y-97257493D01*
X134720828Y-97246379D01*
X134689961Y-97245471D01*
X134608261Y-97255148D01*
G36*
X130037419Y-98194970D02*
G01*
X129977315Y-98210597D01*
X129926979Y-98242848D01*
X129902607Y-98266940D01*
X129862655Y-98323895D01*
X129839758Y-98389965D01*
X129831892Y-98471182D01*
X129831852Y-98477748D01*
X129831782Y-98543763D01*
X130211736Y-98543763D01*
X130203637Y-98578342D01*
X130189013Y-98609659D01*
X130163419Y-98642291D01*
X130158065Y-98647500D01*
X130112057Y-98675694D01*
X130059590Y-98680475D01*
X129999197Y-98661926D01*
X129988960Y-98656931D01*
X129957561Y-98641745D01*
X129936530Y-98633094D01*
X129932861Y-98632293D01*
X129920052Y-98640063D01*
X129895622Y-98659072D01*
X129883221Y-98669460D01*
X129857524Y-98693321D01*
X129849085Y-98709077D01*
X129854942Y-98723571D01*
X129858072Y-98727534D01*
X129879275Y-98744879D01*
X129914262Y-98765959D01*
X129938663Y-98778265D01*
X130007928Y-98799946D01*
X130084612Y-98806971D01*
X130157235Y-98798647D01*
X130177574Y-98792686D01*
X130240524Y-98758952D01*
X130287185Y-98707045D01*
X130317827Y-98636459D01*
X130332718Y-98546692D01*
X130334353Y-98499753D01*
X130329579Y-98431413D01*
X130209010Y-98431413D01*
X130197348Y-98436465D01*
X130166002Y-98440429D01*
X130120429Y-98442768D01*
X130089554Y-98443169D01*
X130034019Y-98442783D01*
X129998967Y-98440975D01*
X129979738Y-98436773D01*
X129971670Y-98429203D01*
X129970099Y-98418218D01*
X129980879Y-98384381D01*
X130008020Y-98350940D01*
X130043723Y-98325272D01*
X130079440Y-98314772D01*
X130127952Y-98324086D01*
X130169947Y-98351013D01*
X130199064Y-98389827D01*
X130209010Y-98431413D01*
X130329579Y-98431413D01*
X130327401Y-98400236D01*
X130305945Y-98320949D01*
X130269530Y-98261263D01*
X130217703Y-98220549D01*
X130150010Y-98198179D01*
X130113338Y-98193871D01*
X130037419Y-98194970D01*
G37*
X130037419Y-98194970D02*
X129977315Y-98210597D01*
X129926979Y-98242848D01*
X129902607Y-98266940D01*
X129862655Y-98323895D01*
X129839758Y-98389965D01*
X129831892Y-98471182D01*
X129831852Y-98477748D01*
X129831782Y-98543763D01*
X130211736Y-98543763D01*
X130203637Y-98578342D01*
X130189013Y-98609659D01*
X130163419Y-98642291D01*
X130158065Y-98647500D01*
X130112057Y-98675694D01*
X130059590Y-98680475D01*
X129999197Y-98661926D01*
X129988960Y-98656931D01*
X129957561Y-98641745D01*
X129936530Y-98633094D01*
X129932861Y-98632293D01*
X129920052Y-98640063D01*
X129895622Y-98659072D01*
X129883221Y-98669460D01*
X129857524Y-98693321D01*
X129849085Y-98709077D01*
X129854942Y-98723571D01*
X129858072Y-98727534D01*
X129879275Y-98744879D01*
X129914262Y-98765959D01*
X129938663Y-98778265D01*
X130007928Y-98799946D01*
X130084612Y-98806971D01*
X130157235Y-98798647D01*
X130177574Y-98792686D01*
X130240524Y-98758952D01*
X130287185Y-98707045D01*
X130317827Y-98636459D01*
X130332718Y-98546692D01*
X130334353Y-98499753D01*
X130329579Y-98431413D01*
X130209010Y-98431413D01*
X130197348Y-98436465D01*
X130166002Y-98440429D01*
X130120429Y-98442768D01*
X130089554Y-98443169D01*
X130034019Y-98442783D01*
X129998967Y-98440975D01*
X129979738Y-98436773D01*
X129971670Y-98429203D01*
X129970099Y-98418218D01*
X129980879Y-98384381D01*
X130008020Y-98350940D01*
X130043723Y-98325272D01*
X130079440Y-98314772D01*
X130127952Y-98324086D01*
X130169947Y-98351013D01*
X130199064Y-98389827D01*
X130209010Y-98431413D01*
X130329579Y-98431413D01*
X130327401Y-98400236D01*
X130305945Y-98320949D01*
X130269530Y-98261263D01*
X130217703Y-98220549D01*
X130150010Y-98198179D01*
X130113338Y-98193871D01*
X130037419Y-98194970D01*
G36*
X130434745Y-98191486D02*
G01*
X130386405Y-98201015D01*
X130358886Y-98215125D01*
X130329936Y-98238568D01*
X130371124Y-98290571D01*
X130396518Y-98322064D01*
X130413762Y-98337428D01*
X130430898Y-98339776D01*
X130455973Y-98332217D01*
X130467743Y-98327941D01*
X130515730Y-98321631D01*
X130559676Y-98335156D01*
X130591940Y-98365710D01*
X130597181Y-98375452D01*
X130602888Y-98401258D01*
X130607294Y-98448817D01*
X130610189Y-98514758D01*
X130611369Y-98595710D01*
X130611386Y-98607226D01*
X130611386Y-98807822D01*
X130749703Y-98807822D01*
X130749703Y-98191683D01*
X130680544Y-98191683D01*
X130640667Y-98192725D01*
X130619893Y-98197358D01*
X130612211Y-98207849D01*
X130611386Y-98217745D01*
X130611386Y-98243806D01*
X130578255Y-98217745D01*
X130540265Y-98199965D01*
X130489230Y-98191174D01*
X130434745Y-98191486D01*
G37*
X130434745Y-98191486D02*
X130386405Y-98201015D01*
X130358886Y-98215125D01*
X130329936Y-98238568D01*
X130371124Y-98290571D01*
X130396518Y-98322064D01*
X130413762Y-98337428D01*
X130430898Y-98339776D01*
X130455973Y-98332217D01*
X130467743Y-98327941D01*
X130515730Y-98321631D01*
X130559676Y-98335156D01*
X130591940Y-98365710D01*
X130597181Y-98375452D01*
X130602888Y-98401258D01*
X130607294Y-98448817D01*
X130610189Y-98514758D01*
X130611369Y-98595710D01*
X130611386Y-98607226D01*
X130611386Y-98807822D01*
X130749703Y-98807822D01*
X130749703Y-98191683D01*
X130680544Y-98191683D01*
X130640667Y-98192725D01*
X130619893Y-98197358D01*
X130612211Y-98207849D01*
X130611386Y-98217745D01*
X130611386Y-98243806D01*
X130578255Y-98217745D01*
X130540265Y-98199965D01*
X130489230Y-98191174D01*
X130434745Y-98191486D01*
G36*
X131031589Y-98195417D02*
G01*
X130978589Y-98208290D01*
X130963269Y-98215110D01*
X130933572Y-98232974D01*
X130910780Y-98253093D01*
X130893917Y-98278962D01*
X130882002Y-98314073D01*
X130874058Y-98361920D01*
X130869106Y-98425996D01*
X130866169Y-98509794D01*
X130865053Y-98565768D01*
X130860948Y-98807822D01*
X130931068Y-98807822D01*
X130973607Y-98806038D01*
X130995524Y-98799942D01*
X131001188Y-98789706D01*
X131004179Y-98778637D01*
X131017549Y-98780754D01*
X131035767Y-98789629D01*
X131081376Y-98803233D01*
X131139993Y-98806899D01*
X131201646Y-98800903D01*
X131256362Y-98785521D01*
X131261270Y-98783386D01*
X131311277Y-98748255D01*
X131344244Y-98699419D01*
X131359413Y-98642333D01*
X131358254Y-98621824D01*
X131234492Y-98621824D01*
X131223587Y-98649425D01*
X131191255Y-98669204D01*
X131139090Y-98679819D01*
X131111213Y-98681228D01*
X131064753Y-98677620D01*
X131033871Y-98663597D01*
X131026336Y-98656931D01*
X131005924Y-98620666D01*
X131001188Y-98587773D01*
X131001188Y-98543763D01*
X131062487Y-98543763D01*
X131133744Y-98547395D01*
X131183724Y-98558818D01*
X131215304Y-98578824D01*
X131222374Y-98587743D01*
X131234492Y-98621824D01*
X131358254Y-98621824D01*
X131356029Y-98582456D01*
X131333337Y-98525244D01*
X131302376Y-98486580D01*
X131283624Y-98469864D01*
X131265267Y-98458878D01*
X131241381Y-98452180D01*
X131206043Y-98448326D01*
X131153331Y-98445873D01*
X131132423Y-98445168D01*
X131001188Y-98440879D01*
X131001380Y-98401158D01*
X131006463Y-98359405D01*
X131024838Y-98334158D01*
X131061961Y-98318030D01*
X131062957Y-98317742D01*
X131115590Y-98311400D01*
X131167094Y-98319684D01*
X131205370Y-98339827D01*
X131220728Y-98349773D01*
X131237270Y-98348397D01*
X131262725Y-98333987D01*
X131277672Y-98323817D01*
X131306909Y-98302088D01*
X131325020Y-98285800D01*
X131327926Y-98281137D01*
X131315960Y-98257005D01*
X131280604Y-98228185D01*
X131265247Y-98218461D01*
X131221099Y-98201714D01*
X131161602Y-98192227D01*
X131095513Y-98190095D01*
X131031589Y-98195417D01*
G37*
X131031589Y-98195417D02*
X130978589Y-98208290D01*
X130963269Y-98215110D01*
X130933572Y-98232974D01*
X130910780Y-98253093D01*
X130893917Y-98278962D01*
X130882002Y-98314073D01*
X130874058Y-98361920D01*
X130869106Y-98425996D01*
X130866169Y-98509794D01*
X130865053Y-98565768D01*
X130860948Y-98807822D01*
X130931068Y-98807822D01*
X130973607Y-98806038D01*
X130995524Y-98799942D01*
X131001188Y-98789706D01*
X131004179Y-98778637D01*
X131017549Y-98780754D01*
X131035767Y-98789629D01*
X131081376Y-98803233D01*
X131139993Y-98806899D01*
X131201646Y-98800903D01*
X131256362Y-98785521D01*
X131261270Y-98783386D01*
X131311277Y-98748255D01*
X131344244Y-98699419D01*
X131359413Y-98642333D01*
X131358254Y-98621824D01*
X131234492Y-98621824D01*
X131223587Y-98649425D01*
X131191255Y-98669204D01*
X131139090Y-98679819D01*
X131111213Y-98681228D01*
X131064753Y-98677620D01*
X131033871Y-98663597D01*
X131026336Y-98656931D01*
X131005924Y-98620666D01*
X131001188Y-98587773D01*
X131001188Y-98543763D01*
X131062487Y-98543763D01*
X131133744Y-98547395D01*
X131183724Y-98558818D01*
X131215304Y-98578824D01*
X131222374Y-98587743D01*
X131234492Y-98621824D01*
X131358254Y-98621824D01*
X131356029Y-98582456D01*
X131333337Y-98525244D01*
X131302376Y-98486580D01*
X131283624Y-98469864D01*
X131265267Y-98458878D01*
X131241381Y-98452180D01*
X131206043Y-98448326D01*
X131153331Y-98445873D01*
X131132423Y-98445168D01*
X131001188Y-98440879D01*
X131001380Y-98401158D01*
X131006463Y-98359405D01*
X131024838Y-98334158D01*
X131061961Y-98318030D01*
X131062957Y-98317742D01*
X131115590Y-98311400D01*
X131167094Y-98319684D01*
X131205370Y-98339827D01*
X131220728Y-98349773D01*
X131237270Y-98348397D01*
X131262725Y-98333987D01*
X131277672Y-98323817D01*
X131306909Y-98302088D01*
X131325020Y-98285800D01*
X131327926Y-98281137D01*
X131315960Y-98257005D01*
X131280604Y-98228185D01*
X131265247Y-98218461D01*
X131221099Y-98201714D01*
X131161602Y-98192227D01*
X131095513Y-98190095D01*
X131031589Y-98195417D01*
G36*
X131788476Y-98194237D02*
G01*
X131738745Y-98197971D01*
X131608709Y-98587773D01*
X131588322Y-98518614D01*
X131576054Y-98475874D01*
X131559915Y-98418115D01*
X131542488Y-98354625D01*
X131533274Y-98320570D01*
X131498612Y-98191683D01*
X131355609Y-98191683D01*
X131398354Y-98326857D01*
X131419404Y-98393342D01*
X131444833Y-98473539D01*
X131471390Y-98557193D01*
X131495098Y-98631782D01*
X131549098Y-98801535D01*
X131607402Y-98805328D01*
X131665705Y-98809122D01*
X131697321Y-98704734D01*
X131716818Y-98639889D01*
X131738096Y-98568400D01*
X131756692Y-98505263D01*
X131757426Y-98502750D01*
X131771316Y-98459969D01*
X131783571Y-98430779D01*
X131792154Y-98419741D01*
X131793918Y-98421018D01*
X131800109Y-98438130D01*
X131811872Y-98474787D01*
X131827775Y-98526378D01*
X131846386Y-98588294D01*
X131856457Y-98622352D01*
X131910993Y-98807822D01*
X132026736Y-98807822D01*
X132119263Y-98515471D01*
X132145256Y-98433462D01*
X132168934Y-98358987D01*
X132189180Y-98295544D01*
X132204874Y-98246632D01*
X132214898Y-98215749D01*
X132217945Y-98206726D01*
X132215533Y-98197487D01*
X132196592Y-98193441D01*
X132157177Y-98193846D01*
X132151007Y-98194152D01*
X132077914Y-98197971D01*
X132030043Y-98374010D01*
X132012447Y-98438211D01*
X131996723Y-98494649D01*
X131984254Y-98538422D01*
X131976426Y-98564630D01*
X131974980Y-98568903D01*
X131968986Y-98563990D01*
X131956899Y-98538532D01*
X131940107Y-98495997D01*
X131919997Y-98439850D01*
X131902997Y-98389130D01*
X131838206Y-98190504D01*
X131788476Y-98194237D01*
G37*
X131788476Y-98194237D02*
X131738745Y-98197971D01*
X131608709Y-98587773D01*
X131588322Y-98518614D01*
X131576054Y-98475874D01*
X131559915Y-98418115D01*
X131542488Y-98354625D01*
X131533274Y-98320570D01*
X131498612Y-98191683D01*
X131355609Y-98191683D01*
X131398354Y-98326857D01*
X131419404Y-98393342D01*
X131444833Y-98473539D01*
X131471390Y-98557193D01*
X131495098Y-98631782D01*
X131549098Y-98801535D01*
X131607402Y-98805328D01*
X131665705Y-98809122D01*
X131697321Y-98704734D01*
X131716818Y-98639889D01*
X131738096Y-98568400D01*
X131756692Y-98505263D01*
X131757426Y-98502750D01*
X131771316Y-98459969D01*
X131783571Y-98430779D01*
X131792154Y-98419741D01*
X131793918Y-98421018D01*
X131800109Y-98438130D01*
X131811872Y-98474787D01*
X131827775Y-98526378D01*
X131846386Y-98588294D01*
X131856457Y-98622352D01*
X131910993Y-98807822D01*
X132026736Y-98807822D01*
X132119263Y-98515471D01*
X132145256Y-98433462D01*
X132168934Y-98358987D01*
X132189180Y-98295544D01*
X132204874Y-98246632D01*
X132214898Y-98215749D01*
X132217945Y-98206726D01*
X132215533Y-98197487D01*
X132196592Y-98193441D01*
X132157177Y-98193846D01*
X132151007Y-98194152D01*
X132077914Y-98197971D01*
X132030043Y-98374010D01*
X132012447Y-98438211D01*
X131996723Y-98494649D01*
X131984254Y-98538422D01*
X131976426Y-98564630D01*
X131974980Y-98568903D01*
X131968986Y-98563990D01*
X131956899Y-98538532D01*
X131940107Y-98495997D01*
X131919997Y-98439850D01*
X131902997Y-98389130D01*
X131838206Y-98190504D01*
X131788476Y-98194237D01*
G36*
X132271188Y-98807822D02*
G01*
X132340346Y-98807822D01*
X132380488Y-98806645D01*
X132401394Y-98801772D01*
X132408922Y-98791186D01*
X132409505Y-98784029D01*
X132410774Y-98769676D01*
X132418779Y-98766923D01*
X132439815Y-98775771D01*
X132456173Y-98784029D01*
X132518977Y-98803597D01*
X132587248Y-98804729D01*
X132642752Y-98790135D01*
X132694438Y-98754877D01*
X132733838Y-98702835D01*
X132755413Y-98641450D01*
X132755962Y-98638018D01*
X132759167Y-98600571D01*
X132760761Y-98546813D01*
X132760633Y-98506155D01*
X132623279Y-98506155D01*
X132620097Y-98560194D01*
X132612859Y-98604735D01*
X132603060Y-98629888D01*
X132565989Y-98664260D01*
X132521974Y-98676582D01*
X132476584Y-98666618D01*
X132437797Y-98636895D01*
X132423108Y-98616905D01*
X132414519Y-98593050D01*
X132410496Y-98558230D01*
X132409505Y-98505930D01*
X132411278Y-98454139D01*
X132415963Y-98408634D01*
X132422603Y-98378181D01*
X132423710Y-98375452D01*
X132450491Y-98343000D01*
X132489579Y-98325183D01*
X132533315Y-98322306D01*
X132574038Y-98334674D01*
X132604087Y-98362593D01*
X132607204Y-98368148D01*
X132616961Y-98402022D01*
X132622277Y-98450728D01*
X132623279Y-98506155D01*
X132760633Y-98506155D01*
X132760568Y-98485540D01*
X132759664Y-98452563D01*
X132753514Y-98370981D01*
X132740733Y-98309730D01*
X132719471Y-98264449D01*
X132687878Y-98230779D01*
X132657207Y-98211014D01*
X132614354Y-98197120D01*
X132561056Y-98192354D01*
X132506480Y-98196236D01*
X132459792Y-98208282D01*
X132435124Y-98222693D01*
X132409505Y-98245878D01*
X132409505Y-97952773D01*
X132271188Y-97952773D01*
X132271188Y-98807822D01*
G37*
X132271188Y-98807822D02*
X132340346Y-98807822D01*
X132380488Y-98806645D01*
X132401394Y-98801772D01*
X132408922Y-98791186D01*
X132409505Y-98784029D01*
X132410774Y-98769676D01*
X132418779Y-98766923D01*
X132439815Y-98775771D01*
X132456173Y-98784029D01*
X132518977Y-98803597D01*
X132587248Y-98804729D01*
X132642752Y-98790135D01*
X132694438Y-98754877D01*
X132733838Y-98702835D01*
X132755413Y-98641450D01*
X132755962Y-98638018D01*
X132759167Y-98600571D01*
X132760761Y-98546813D01*
X132760633Y-98506155D01*
X132623279Y-98506155D01*
X132620097Y-98560194D01*
X132612859Y-98604735D01*
X132603060Y-98629888D01*
X132565989Y-98664260D01*
X132521974Y-98676582D01*
X132476584Y-98666618D01*
X132437797Y-98636895D01*
X132423108Y-98616905D01*
X132414519Y-98593050D01*
X132410496Y-98558230D01*
X132409505Y-98505930D01*
X132411278Y-98454139D01*
X132415963Y-98408634D01*
X132422603Y-98378181D01*
X132423710Y-98375452D01*
X132450491Y-98343000D01*
X132489579Y-98325183D01*
X132533315Y-98322306D01*
X132574038Y-98334674D01*
X132604087Y-98362593D01*
X132607204Y-98368148D01*
X132616961Y-98402022D01*
X132622277Y-98450728D01*
X132623279Y-98506155D01*
X132760633Y-98506155D01*
X132760568Y-98485540D01*
X132759664Y-98452563D01*
X132753514Y-98370981D01*
X132740733Y-98309730D01*
X132719471Y-98264449D01*
X132687878Y-98230779D01*
X132657207Y-98211014D01*
X132614354Y-98197120D01*
X132561056Y-98192354D01*
X132506480Y-98196236D01*
X132459792Y-98208282D01*
X132435124Y-98222693D01*
X132409505Y-98245878D01*
X132409505Y-97952773D01*
X132271188Y-97952773D01*
X132271188Y-98807822D01*
G36*
X133063356Y-98193020D02*
G01*
X133044539Y-98198660D01*
X133038473Y-98211053D01*
X133038218Y-98216647D01*
X133037129Y-98232230D01*
X133029632Y-98234676D01*
X133009381Y-98223993D01*
X132997351Y-98216694D01*
X132959400Y-98201063D01*
X132914072Y-98193334D01*
X132866544Y-98192740D01*
X132821995Y-98198513D01*
X132785602Y-98209884D01*
X132762543Y-98226088D01*
X132757996Y-98246355D01*
X132760291Y-98251843D01*
X132777020Y-98274626D01*
X132802963Y-98302647D01*
X132807655Y-98307177D01*
X132832383Y-98328005D01*
X132853718Y-98334735D01*
X132883555Y-98330038D01*
X132895508Y-98326917D01*
X132932705Y-98319421D01*
X132958859Y-98322792D01*
X132980946Y-98334681D01*
X133001178Y-98350635D01*
X133016079Y-98370700D01*
X133026434Y-98398702D01*
X133033029Y-98438467D01*
X133036649Y-98493823D01*
X133038078Y-98568594D01*
X133038218Y-98613740D01*
X133038218Y-98807822D01*
X133163960Y-98807822D01*
X133163960Y-98191683D01*
X133101089Y-98191683D01*
X133063356Y-98193020D01*
G37*
X133063356Y-98193020D02*
X133044539Y-98198660D01*
X133038473Y-98211053D01*
X133038218Y-98216647D01*
X133037129Y-98232230D01*
X133029632Y-98234676D01*
X133009381Y-98223993D01*
X132997351Y-98216694D01*
X132959400Y-98201063D01*
X132914072Y-98193334D01*
X132866544Y-98192740D01*
X132821995Y-98198513D01*
X132785602Y-98209884D01*
X132762543Y-98226088D01*
X132757996Y-98246355D01*
X132760291Y-98251843D01*
X132777020Y-98274626D01*
X132802963Y-98302647D01*
X132807655Y-98307177D01*
X132832383Y-98328005D01*
X132853718Y-98334735D01*
X132883555Y-98330038D01*
X132895508Y-98326917D01*
X132932705Y-98319421D01*
X132958859Y-98322792D01*
X132980946Y-98334681D01*
X133001178Y-98350635D01*
X133016079Y-98370700D01*
X133026434Y-98398702D01*
X133033029Y-98438467D01*
X133036649Y-98493823D01*
X133038078Y-98568594D01*
X133038218Y-98613740D01*
X133038218Y-98807822D01*
X133163960Y-98807822D01*
X133163960Y-98191683D01*
X133101089Y-98191683D01*
X133063356Y-98193020D01*
G36*
X133454210Y-98196555D02*
G01*
X133395055Y-98212339D01*
X133350023Y-98240948D01*
X133318246Y-98278419D01*
X133308366Y-98294411D01*
X133301073Y-98311163D01*
X133295974Y-98332592D01*
X133292679Y-98362616D01*
X133290797Y-98405154D01*
X133289937Y-98464122D01*
X133289707Y-98543440D01*
X133289703Y-98564484D01*
X133289703Y-98807822D01*
X133350059Y-98807822D01*
X133388557Y-98805126D01*
X133417023Y-98798295D01*
X133424155Y-98794083D01*
X133443652Y-98786813D01*
X133463566Y-98794083D01*
X133496353Y-98803160D01*
X133543978Y-98806813D01*
X133596764Y-98805228D01*
X133645036Y-98798589D01*
X133673218Y-98790072D01*
X133727753Y-98755063D01*
X133761835Y-98706479D01*
X133777157Y-98641882D01*
X133777299Y-98640223D01*
X133775955Y-98611566D01*
X133654356Y-98611566D01*
X133643726Y-98644161D01*
X133626410Y-98662505D01*
X133591652Y-98676379D01*
X133545773Y-98681917D01*
X133498988Y-98679191D01*
X133461514Y-98668274D01*
X133451015Y-98661269D01*
X133432668Y-98628904D01*
X133428020Y-98592111D01*
X133428020Y-98543763D01*
X133497582Y-98543763D01*
X133563667Y-98548850D01*
X133613764Y-98563263D01*
X133644929Y-98585729D01*
X133654356Y-98611566D01*
X133775955Y-98611566D01*
X133773987Y-98569647D01*
X133750710Y-98513845D01*
X133706948Y-98471647D01*
X133700899Y-98467808D01*
X133674907Y-98455309D01*
X133642735Y-98447740D01*
X133597760Y-98444061D01*
X133544331Y-98443216D01*
X133428020Y-98443169D01*
X133428020Y-98394411D01*
X133432953Y-98356581D01*
X133445543Y-98331236D01*
X133447017Y-98329887D01*
X133475034Y-98318800D01*
X133517326Y-98314503D01*
X133564064Y-98316615D01*
X133605418Y-98324756D01*
X133629957Y-98336965D01*
X133643253Y-98346746D01*
X133657294Y-98348613D01*
X133676671Y-98340600D01*
X133705976Y-98320739D01*
X133749803Y-98287063D01*
X133753825Y-98283909D01*
X133751764Y-98272236D01*
X133734568Y-98252822D01*
X133708433Y-98231248D01*
X133679552Y-98213096D01*
X133670478Y-98208809D01*
X133637380Y-98200256D01*
X133588880Y-98194155D01*
X133534695Y-98191708D01*
X133532161Y-98191703D01*
X133454210Y-98196555D01*
G37*
X133454210Y-98196555D02*
X133395055Y-98212339D01*
X133350023Y-98240948D01*
X133318246Y-98278419D01*
X133308366Y-98294411D01*
X133301073Y-98311163D01*
X133295974Y-98332592D01*
X133292679Y-98362616D01*
X133290797Y-98405154D01*
X133289937Y-98464122D01*
X133289707Y-98543440D01*
X133289703Y-98564484D01*
X133289703Y-98807822D01*
X133350059Y-98807822D01*
X133388557Y-98805126D01*
X133417023Y-98798295D01*
X133424155Y-98794083D01*
X133443652Y-98786813D01*
X133463566Y-98794083D01*
X133496353Y-98803160D01*
X133543978Y-98806813D01*
X133596764Y-98805228D01*
X133645036Y-98798589D01*
X133673218Y-98790072D01*
X133727753Y-98755063D01*
X133761835Y-98706479D01*
X133777157Y-98641882D01*
X133777299Y-98640223D01*
X133775955Y-98611566D01*
X133654356Y-98611566D01*
X133643726Y-98644161D01*
X133626410Y-98662505D01*
X133591652Y-98676379D01*
X133545773Y-98681917D01*
X133498988Y-98679191D01*
X133461514Y-98668274D01*
X133451015Y-98661269D01*
X133432668Y-98628904D01*
X133428020Y-98592111D01*
X133428020Y-98543763D01*
X133497582Y-98543763D01*
X133563667Y-98548850D01*
X133613764Y-98563263D01*
X133644929Y-98585729D01*
X133654356Y-98611566D01*
X133775955Y-98611566D01*
X133773987Y-98569647D01*
X133750710Y-98513845D01*
X133706948Y-98471647D01*
X133700899Y-98467808D01*
X133674907Y-98455309D01*
X133642735Y-98447740D01*
X133597760Y-98444061D01*
X133544331Y-98443216D01*
X133428020Y-98443169D01*
X133428020Y-98394411D01*
X133432953Y-98356581D01*
X133445543Y-98331236D01*
X133447017Y-98329887D01*
X133475034Y-98318800D01*
X133517326Y-98314503D01*
X133564064Y-98316615D01*
X133605418Y-98324756D01*
X133629957Y-98336965D01*
X133643253Y-98346746D01*
X133657294Y-98348613D01*
X133676671Y-98340600D01*
X133705976Y-98320739D01*
X133749803Y-98287063D01*
X133753825Y-98283909D01*
X133751764Y-98272236D01*
X133734568Y-98252822D01*
X133708433Y-98231248D01*
X133679552Y-98213096D01*
X133670478Y-98208809D01*
X133637380Y-98200256D01*
X133588880Y-98194155D01*
X133534695Y-98191708D01*
X133532161Y-98191703D01*
X133454210Y-98196555D01*
G36*
X133978759Y-97259184D02*
G01*
X133952247Y-97272282D01*
X133919553Y-97295106D01*
X133895725Y-97319996D01*
X133879406Y-97351249D01*
X133869240Y-97393166D01*
X133863872Y-97450044D01*
X133861944Y-97526184D01*
X133861831Y-97558917D01*
X133862161Y-97630656D01*
X133863527Y-97681927D01*
X133866500Y-97717404D01*
X133871649Y-97741763D01*
X133879543Y-97759680D01*
X133887757Y-97771902D01*
X133940187Y-97823905D01*
X134001930Y-97855184D01*
X134068536Y-97864592D01*
X134135558Y-97850980D01*
X134156792Y-97841354D01*
X134207624Y-97814859D01*
X134207624Y-98230052D01*
X134170525Y-98210868D01*
X134121643Y-98196025D01*
X134061561Y-98192222D01*
X134001564Y-98199243D01*
X133956256Y-98215013D01*
X133918675Y-98245047D01*
X133886564Y-98288024D01*
X133884150Y-98292436D01*
X133873967Y-98313221D01*
X133866530Y-98334170D01*
X133861411Y-98359548D01*
X133858181Y-98393618D01*
X133856413Y-98440641D01*
X133855677Y-98504882D01*
X133855544Y-98577176D01*
X133855544Y-98807822D01*
X133993861Y-98807822D01*
X133993861Y-98382533D01*
X134032549Y-98349979D01*
X134072738Y-98323940D01*
X134110797Y-98319205D01*
X134149066Y-98331389D01*
X134169462Y-98343320D01*
X134184642Y-98360313D01*
X134195438Y-98385995D01*
X134202683Y-98423991D01*
X134207208Y-98477926D01*
X134209844Y-98551425D01*
X134210772Y-98600347D01*
X134213911Y-98801535D01*
X134279926Y-98805336D01*
X134345940Y-98809136D01*
X134345940Y-97560650D01*
X134207624Y-97560650D01*
X134204097Y-97630254D01*
X134192215Y-97678569D01*
X134170020Y-97708631D01*
X134135559Y-97723471D01*
X134100742Y-97726436D01*
X134061329Y-97723028D01*
X134035171Y-97709617D01*
X134018814Y-97691896D01*
X134005937Y-97672835D01*
X133998272Y-97651601D01*
X133994861Y-97621849D01*
X133994749Y-97577236D01*
X133995897Y-97539880D01*
X133998532Y-97483604D01*
X134002456Y-97446658D01*
X134009063Y-97423223D01*
X134019749Y-97407480D01*
X134029833Y-97398380D01*
X134071970Y-97378537D01*
X134121840Y-97375332D01*
X134150476Y-97382168D01*
X134178828Y-97406464D01*
X134197609Y-97453728D01*
X134206712Y-97523624D01*
X134207624Y-97560650D01*
X134345940Y-97560650D01*
X134345940Y-97248614D01*
X134276782Y-97248614D01*
X134235260Y-97250256D01*
X134213838Y-97256087D01*
X134207626Y-97267461D01*
X134207624Y-97267798D01*
X134204742Y-97278938D01*
X134192030Y-97277673D01*
X134166757Y-97265433D01*
X134107869Y-97246707D01*
X134041615Y-97244739D01*
X133978759Y-97259184D01*
G37*
X133978759Y-97259184D02*
X133952247Y-97272282D01*
X133919553Y-97295106D01*
X133895725Y-97319996D01*
X133879406Y-97351249D01*
X133869240Y-97393166D01*
X133863872Y-97450044D01*
X133861944Y-97526184D01*
X133861831Y-97558917D01*
X133862161Y-97630656D01*
X133863527Y-97681927D01*
X133866500Y-97717404D01*
X133871649Y-97741763D01*
X133879543Y-97759680D01*
X133887757Y-97771902D01*
X133940187Y-97823905D01*
X134001930Y-97855184D01*
X134068536Y-97864592D01*
X134135558Y-97850980D01*
X134156792Y-97841354D01*
X134207624Y-97814859D01*
X134207624Y-98230052D01*
X134170525Y-98210868D01*
X134121643Y-98196025D01*
X134061561Y-98192222D01*
X134001564Y-98199243D01*
X133956256Y-98215013D01*
X133918675Y-98245047D01*
X133886564Y-98288024D01*
X133884150Y-98292436D01*
X133873967Y-98313221D01*
X133866530Y-98334170D01*
X133861411Y-98359548D01*
X133858181Y-98393618D01*
X133856413Y-98440641D01*
X133855677Y-98504882D01*
X133855544Y-98577176D01*
X133855544Y-98807822D01*
X133993861Y-98807822D01*
X133993861Y-98382533D01*
X134032549Y-98349979D01*
X134072738Y-98323940D01*
X134110797Y-98319205D01*
X134149066Y-98331389D01*
X134169462Y-98343320D01*
X134184642Y-98360313D01*
X134195438Y-98385995D01*
X134202683Y-98423991D01*
X134207208Y-98477926D01*
X134209844Y-98551425D01*
X134210772Y-98600347D01*
X134213911Y-98801535D01*
X134279926Y-98805336D01*
X134345940Y-98809136D01*
X134345940Y-97560650D01*
X134207624Y-97560650D01*
X134204097Y-97630254D01*
X134192215Y-97678569D01*
X134170020Y-97708631D01*
X134135559Y-97723471D01*
X134100742Y-97726436D01*
X134061329Y-97723028D01*
X134035171Y-97709617D01*
X134018814Y-97691896D01*
X134005937Y-97672835D01*
X133998272Y-97651601D01*
X133994861Y-97621849D01*
X133994749Y-97577236D01*
X133995897Y-97539880D01*
X133998532Y-97483604D01*
X134002456Y-97446658D01*
X134009063Y-97423223D01*
X134019749Y-97407480D01*
X134029833Y-97398380D01*
X134071970Y-97378537D01*
X134121840Y-97375332D01*
X134150476Y-97382168D01*
X134178828Y-97406464D01*
X134197609Y-97453728D01*
X134206712Y-97523624D01*
X134207624Y-97560650D01*
X134345940Y-97560650D01*
X134345940Y-97248614D01*
X134276782Y-97248614D01*
X134235260Y-97250256D01*
X134213838Y-97256087D01*
X134207626Y-97267461D01*
X134207624Y-97267798D01*
X134204742Y-97278938D01*
X134192030Y-97277673D01*
X134166757Y-97265433D01*
X134107869Y-97246707D01*
X134041615Y-97244739D01*
X133978759Y-97259184D01*
G36*
X125841177Y-91434533D02*
G01*
X125809798Y-91456776D01*
X125782089Y-91484485D01*
X125782089Y-91793920D01*
X125782162Y-91885799D01*
X125782505Y-91957840D01*
X125783308Y-92012780D01*
X125784759Y-92053360D01*
X125787048Y-92082317D01*
X125790364Y-92102391D01*
X125794895Y-92116321D01*
X125800831Y-92126845D01*
X125805486Y-92133100D01*
X125836217Y-92157673D01*
X125871504Y-92160341D01*
X125903755Y-92145271D01*
X125914412Y-92136374D01*
X125921536Y-92124557D01*
X125925833Y-92105526D01*
X125928009Y-92074992D01*
X125928772Y-92028662D01*
X125928845Y-91992871D01*
X125928845Y-91858045D01*
X126425556Y-91858045D01*
X126425556Y-91980700D01*
X126426069Y-92036787D01*
X126428124Y-92075333D01*
X126432492Y-92101361D01*
X126439944Y-92119897D01*
X126448953Y-92133100D01*
X126479856Y-92157604D01*
X126514804Y-92160506D01*
X126548262Y-92143089D01*
X126557396Y-92133959D01*
X126563848Y-92121855D01*
X126568103Y-92103001D01*
X126570648Y-92073620D01*
X126571971Y-92029937D01*
X126572557Y-91968175D01*
X126572625Y-91954000D01*
X126573109Y-91837631D01*
X126573359Y-91741727D01*
X126573277Y-91664177D01*
X126572769Y-91602869D01*
X126571738Y-91555690D01*
X126570087Y-91520530D01*
X126567721Y-91495276D01*
X126564543Y-91477817D01*
X126560456Y-91466041D01*
X126555366Y-91457835D01*
X126549734Y-91451645D01*
X126517872Y-91431844D01*
X126484643Y-91434533D01*
X126453265Y-91456776D01*
X126440567Y-91471126D01*
X126432474Y-91486978D01*
X126427958Y-91509554D01*
X126425994Y-91544078D01*
X126425556Y-91595776D01*
X126425556Y-91711289D01*
X125928845Y-91711289D01*
X125928845Y-91592756D01*
X125928338Y-91538148D01*
X125926302Y-91501275D01*
X125921965Y-91477307D01*
X125914553Y-91461415D01*
X125906267Y-91451645D01*
X125874406Y-91431844D01*
X125841177Y-91434533D01*
G37*
X125841177Y-91434533D02*
X125809798Y-91456776D01*
X125782089Y-91484485D01*
X125782089Y-91793920D01*
X125782162Y-91885799D01*
X125782505Y-91957840D01*
X125783308Y-92012780D01*
X125784759Y-92053360D01*
X125787048Y-92082317D01*
X125790364Y-92102391D01*
X125794895Y-92116321D01*
X125800831Y-92126845D01*
X125805486Y-92133100D01*
X125836217Y-92157673D01*
X125871504Y-92160341D01*
X125903755Y-92145271D01*
X125914412Y-92136374D01*
X125921536Y-92124557D01*
X125925833Y-92105526D01*
X125928009Y-92074992D01*
X125928772Y-92028662D01*
X125928845Y-91992871D01*
X125928845Y-91858045D01*
X126425556Y-91858045D01*
X126425556Y-91980700D01*
X126426069Y-92036787D01*
X126428124Y-92075333D01*
X126432492Y-92101361D01*
X126439944Y-92119897D01*
X126448953Y-92133100D01*
X126479856Y-92157604D01*
X126514804Y-92160506D01*
X126548262Y-92143089D01*
X126557396Y-92133959D01*
X126563848Y-92121855D01*
X126568103Y-92103001D01*
X126570648Y-92073620D01*
X126571971Y-92029937D01*
X126572557Y-91968175D01*
X126572625Y-91954000D01*
X126573109Y-91837631D01*
X126573359Y-91741727D01*
X126573277Y-91664177D01*
X126572769Y-91602869D01*
X126571738Y-91555690D01*
X126570087Y-91520530D01*
X126567721Y-91495276D01*
X126564543Y-91477817D01*
X126560456Y-91466041D01*
X126555366Y-91457835D01*
X126549734Y-91451645D01*
X126517872Y-91431844D01*
X126484643Y-91434533D01*
X126453265Y-91456776D01*
X126440567Y-91471126D01*
X126432474Y-91486978D01*
X126427958Y-91509554D01*
X126425994Y-91544078D01*
X126425556Y-91595776D01*
X126425556Y-91711289D01*
X125928845Y-91711289D01*
X125928845Y-91592756D01*
X125928338Y-91538148D01*
X125926302Y-91501275D01*
X125921965Y-91477307D01*
X125914553Y-91461415D01*
X125906267Y-91451645D01*
X125874406Y-91431844D01*
X125841177Y-91434533D01*
G36*
X127106935Y-91429163D02*
G01*
X127028228Y-91429542D01*
X126967137Y-91430333D01*
X126921183Y-91431670D01*
X126887886Y-91433683D01*
X126864764Y-91436506D01*
X126849338Y-91440269D01*
X126839129Y-91445105D01*
X126834187Y-91448822D01*
X126808543Y-91481358D01*
X126805441Y-91515138D01*
X126821289Y-91545826D01*
X126831652Y-91558089D01*
X126842804Y-91566450D01*
X126858965Y-91571657D01*
X126884358Y-91574457D01*
X126923202Y-91575596D01*
X126979720Y-91575821D01*
X126990820Y-91575822D01*
X127136756Y-91575822D01*
X127136756Y-91846756D01*
X127136852Y-91932154D01*
X127137289Y-91997864D01*
X127138288Y-92046774D01*
X127140072Y-92081773D01*
X127142863Y-92105749D01*
X127146883Y-92121593D01*
X127152355Y-92132191D01*
X127159334Y-92140267D01*
X127192266Y-92160112D01*
X127226646Y-92158548D01*
X127257824Y-92135906D01*
X127260114Y-92133100D01*
X127267571Y-92122492D01*
X127273253Y-92110081D01*
X127277399Y-92092850D01*
X127280250Y-92067784D01*
X127282046Y-92031867D01*
X127283028Y-91982083D01*
X127283436Y-91915417D01*
X127283511Y-91839589D01*
X127283511Y-91575822D01*
X127422873Y-91575822D01*
X127482678Y-91575418D01*
X127524082Y-91573840D01*
X127551252Y-91570547D01*
X127568354Y-91564992D01*
X127579557Y-91556631D01*
X127580917Y-91555178D01*
X127597275Y-91521939D01*
X127595828Y-91484362D01*
X127577022Y-91451645D01*
X127569750Y-91445298D01*
X127560373Y-91440266D01*
X127546391Y-91436396D01*
X127525304Y-91433537D01*
X127494611Y-91431535D01*
X127451811Y-91430239D01*
X127394405Y-91429498D01*
X127319890Y-91429158D01*
X127225767Y-91429068D01*
X127205740Y-91429067D01*
X127106935Y-91429163D01*
G37*
X127106935Y-91429163D02*
X127028228Y-91429542D01*
X126967137Y-91430333D01*
X126921183Y-91431670D01*
X126887886Y-91433683D01*
X126864764Y-91436506D01*
X126849338Y-91440269D01*
X126839129Y-91445105D01*
X126834187Y-91448822D01*
X126808543Y-91481358D01*
X126805441Y-91515138D01*
X126821289Y-91545826D01*
X126831652Y-91558089D01*
X126842804Y-91566450D01*
X126858965Y-91571657D01*
X126884358Y-91574457D01*
X126923202Y-91575596D01*
X126979720Y-91575821D01*
X126990820Y-91575822D01*
X127136756Y-91575822D01*
X127136756Y-91846756D01*
X127136852Y-91932154D01*
X127137289Y-91997864D01*
X127138288Y-92046774D01*
X127140072Y-92081773D01*
X127142863Y-92105749D01*
X127146883Y-92121593D01*
X127152355Y-92132191D01*
X127159334Y-92140267D01*
X127192266Y-92160112D01*
X127226646Y-92158548D01*
X127257824Y-92135906D01*
X127260114Y-92133100D01*
X127267571Y-92122492D01*
X127273253Y-92110081D01*
X127277399Y-92092850D01*
X127280250Y-92067784D01*
X127282046Y-92031867D01*
X127283028Y-91982083D01*
X127283436Y-91915417D01*
X127283511Y-91839589D01*
X127283511Y-91575822D01*
X127422873Y-91575822D01*
X127482678Y-91575418D01*
X127524082Y-91573840D01*
X127551252Y-91570547D01*
X127568354Y-91564992D01*
X127579557Y-91556631D01*
X127580917Y-91555178D01*
X127597275Y-91521939D01*
X127595828Y-91484362D01*
X127577022Y-91451645D01*
X127569750Y-91445298D01*
X127560373Y-91440266D01*
X127546391Y-91436396D01*
X127525304Y-91433537D01*
X127494611Y-91431535D01*
X127451811Y-91430239D01*
X127394405Y-91429498D01*
X127319890Y-91429158D01*
X127225767Y-91429068D01*
X127205740Y-91429067D01*
X127106935Y-91429163D01*
G36*
X127881386Y-91435877D02*
G01*
X127857673Y-91450647D01*
X127831022Y-91472227D01*
X127831022Y-91793773D01*
X127831107Y-91887830D01*
X127831471Y-91961932D01*
X127832276Y-92018704D01*
X127833687Y-92060768D01*
X127835867Y-92090748D01*
X127838979Y-92111267D01*
X127843186Y-92124949D01*
X127848652Y-92134416D01*
X127852528Y-92139082D01*
X127883966Y-92159575D01*
X127919767Y-92158739D01*
X127951127Y-92141264D01*
X127977778Y-92119684D01*
X127977778Y-91472227D01*
X127951127Y-91450647D01*
X127925406Y-91434949D01*
X127904400Y-91429067D01*
X127881386Y-91435877D01*
G37*
X127881386Y-91435877D02*
X127857673Y-91450647D01*
X127831022Y-91472227D01*
X127831022Y-91793773D01*
X127831107Y-91887830D01*
X127831471Y-91961932D01*
X127832276Y-92018704D01*
X127833687Y-92060768D01*
X127835867Y-92090748D01*
X127838979Y-92111267D01*
X127843186Y-92124949D01*
X127848652Y-92134416D01*
X127852528Y-92139082D01*
X127883966Y-92159575D01*
X127919767Y-92158739D01*
X127951127Y-92141264D01*
X127977778Y-92119684D01*
X127977778Y-91472227D01*
X127951127Y-91450647D01*
X127925406Y-91434949D01*
X127904400Y-91429067D01*
X127881386Y-91435877D01*
G36*
X128325335Y-91431034D02*
G01*
X128305745Y-91438035D01*
X128304990Y-91438377D01*
X128278387Y-91458678D01*
X128263730Y-91479561D01*
X128260862Y-91489352D01*
X128261004Y-91502361D01*
X128265039Y-91520895D01*
X128273854Y-91547257D01*
X128288331Y-91583752D01*
X128309355Y-91632687D01*
X128337812Y-91696365D01*
X128374585Y-91777093D01*
X128394825Y-91821216D01*
X128431375Y-91899985D01*
X128465685Y-91972423D01*
X128496448Y-92035880D01*
X128522352Y-92087708D01*
X128542090Y-92125259D01*
X128554350Y-92145884D01*
X128556776Y-92148733D01*
X128587817Y-92161302D01*
X128622879Y-92159619D01*
X128651000Y-92144332D01*
X128652146Y-92143089D01*
X128663332Y-92126154D01*
X128682096Y-92093170D01*
X128706125Y-92048380D01*
X128733103Y-91996032D01*
X128742799Y-91976742D01*
X128815986Y-91830150D01*
X128895760Y-91989393D01*
X128924233Y-92044415D01*
X128950650Y-92092132D01*
X128972852Y-92128893D01*
X128988681Y-92151044D01*
X128994046Y-92155741D01*
X129035743Y-92162102D01*
X129070151Y-92148733D01*
X129080272Y-92134446D01*
X129097786Y-92102692D01*
X129121265Y-92056597D01*
X129149280Y-91999285D01*
X129180401Y-91933880D01*
X129213201Y-91863507D01*
X129246250Y-91791291D01*
X129278119Y-91720355D01*
X129307381Y-91653825D01*
X129332605Y-91594826D01*
X129352364Y-91546481D01*
X129365228Y-91511915D01*
X129369769Y-91494253D01*
X129369723Y-91493613D01*
X129358674Y-91471388D01*
X129336590Y-91448753D01*
X129335290Y-91447768D01*
X129308147Y-91432425D01*
X129283042Y-91432574D01*
X129273632Y-91435466D01*
X129262166Y-91441718D01*
X129249990Y-91454014D01*
X129235643Y-91474908D01*
X129217664Y-91506949D01*
X129194593Y-91552688D01*
X129164970Y-91614677D01*
X129138255Y-91671898D01*
X129107520Y-91738226D01*
X129079979Y-91797874D01*
X129057062Y-91847725D01*
X129040202Y-91884664D01*
X129030827Y-91905573D01*
X129029460Y-91908845D01*
X129023311Y-91903497D01*
X129009178Y-91881109D01*
X128988943Y-91844946D01*
X128964485Y-91798277D01*
X128954752Y-91779022D01*
X128921783Y-91714004D01*
X128896357Y-91666654D01*
X128876388Y-91634219D01*
X128859790Y-91613946D01*
X128844476Y-91603082D01*
X128828360Y-91598875D01*
X128817857Y-91598400D01*
X128799330Y-91600042D01*
X128783096Y-91606831D01*
X128766965Y-91621566D01*
X128748749Y-91647044D01*
X128726261Y-91686061D01*
X128697311Y-91741414D01*
X128681338Y-91772903D01*
X128655430Y-91823087D01*
X128632833Y-91864704D01*
X128615542Y-91894242D01*
X128605550Y-91908189D01*
X128604191Y-91908770D01*
X128597739Y-91897793D01*
X128583292Y-91869290D01*
X128562297Y-91826244D01*
X128536203Y-91771638D01*
X128506454Y-91708454D01*
X128491820Y-91677071D01*
X128453750Y-91596078D01*
X128423095Y-91533756D01*
X128398263Y-91488071D01*
X128377663Y-91456989D01*
X128359702Y-91438478D01*
X128342790Y-91430504D01*
X128325335Y-91431034D01*
G37*
X128325335Y-91431034D02*
X128305745Y-91438035D01*
X128304990Y-91438377D01*
X128278387Y-91458678D01*
X128263730Y-91479561D01*
X128260862Y-91489352D01*
X128261004Y-91502361D01*
X128265039Y-91520895D01*
X128273854Y-91547257D01*
X128288331Y-91583752D01*
X128309355Y-91632687D01*
X128337812Y-91696365D01*
X128374585Y-91777093D01*
X128394825Y-91821216D01*
X128431375Y-91899985D01*
X128465685Y-91972423D01*
X128496448Y-92035880D01*
X128522352Y-92087708D01*
X128542090Y-92125259D01*
X128554350Y-92145884D01*
X128556776Y-92148733D01*
X128587817Y-92161302D01*
X128622879Y-92159619D01*
X128651000Y-92144332D01*
X128652146Y-92143089D01*
X128663332Y-92126154D01*
X128682096Y-92093170D01*
X128706125Y-92048380D01*
X128733103Y-91996032D01*
X128742799Y-91976742D01*
X128815986Y-91830150D01*
X128895760Y-91989393D01*
X128924233Y-92044415D01*
X128950650Y-92092132D01*
X128972852Y-92128893D01*
X128988681Y-92151044D01*
X128994046Y-92155741D01*
X129035743Y-92162102D01*
X129070151Y-92148733D01*
X129080272Y-92134446D01*
X129097786Y-92102692D01*
X129121265Y-92056597D01*
X129149280Y-91999285D01*
X129180401Y-91933880D01*
X129213201Y-91863507D01*
X129246250Y-91791291D01*
X129278119Y-91720355D01*
X129307381Y-91653825D01*
X129332605Y-91594826D01*
X129352364Y-91546481D01*
X129365228Y-91511915D01*
X129369769Y-91494253D01*
X129369723Y-91493613D01*
X129358674Y-91471388D01*
X129336590Y-91448753D01*
X129335290Y-91447768D01*
X129308147Y-91432425D01*
X129283042Y-91432574D01*
X129273632Y-91435466D01*
X129262166Y-91441718D01*
X129249990Y-91454014D01*
X129235643Y-91474908D01*
X129217664Y-91506949D01*
X129194593Y-91552688D01*
X129164970Y-91614677D01*
X129138255Y-91671898D01*
X129107520Y-91738226D01*
X129079979Y-91797874D01*
X129057062Y-91847725D01*
X129040202Y-91884664D01*
X129030827Y-91905573D01*
X129029460Y-91908845D01*
X129023311Y-91903497D01*
X129009178Y-91881109D01*
X128988943Y-91844946D01*
X128964485Y-91798277D01*
X128954752Y-91779022D01*
X128921783Y-91714004D01*
X128896357Y-91666654D01*
X128876388Y-91634219D01*
X128859790Y-91613946D01*
X128844476Y-91603082D01*
X128828360Y-91598875D01*
X128817857Y-91598400D01*
X128799330Y-91600042D01*
X128783096Y-91606831D01*
X128766965Y-91621566D01*
X128748749Y-91647044D01*
X128726261Y-91686061D01*
X128697311Y-91741414D01*
X128681338Y-91772903D01*
X128655430Y-91823087D01*
X128632833Y-91864704D01*
X128615542Y-91894242D01*
X128605550Y-91908189D01*
X128604191Y-91908770D01*
X128597739Y-91897793D01*
X128583292Y-91869290D01*
X128562297Y-91826244D01*
X128536203Y-91771638D01*
X128506454Y-91708454D01*
X128491820Y-91677071D01*
X128453750Y-91596078D01*
X128423095Y-91533756D01*
X128398263Y-91488071D01*
X128377663Y-91456989D01*
X128359702Y-91438478D01*
X128342790Y-91430504D01*
X128325335Y-91431034D01*
G36*
X131051691Y-91429275D02*
G01*
X130922712Y-91433636D01*
X130813009Y-91446861D01*
X130720774Y-91469741D01*
X130644198Y-91503070D01*
X130581473Y-91547638D01*
X130530788Y-91604236D01*
X130490337Y-91673658D01*
X130489541Y-91675351D01*
X130465399Y-91737483D01*
X130456797Y-91792509D01*
X130463769Y-91847887D01*
X130486346Y-91911073D01*
X130490628Y-91920689D01*
X130519828Y-91976966D01*
X130552644Y-92020451D01*
X130594998Y-92057417D01*
X130652810Y-92094135D01*
X130656169Y-92096052D01*
X130706496Y-92120227D01*
X130763379Y-92138282D01*
X130830473Y-92150839D01*
X130911435Y-92158522D01*
X131009918Y-92161953D01*
X131044714Y-92162251D01*
X131210406Y-92162845D01*
X131233803Y-92133100D01*
X131240743Y-92123319D01*
X131246158Y-92111897D01*
X131250235Y-92096095D01*
X131253163Y-92073175D01*
X131255133Y-92040396D01*
X131255775Y-92016089D01*
X131099156Y-92016089D01*
X131005274Y-92016089D01*
X130950336Y-92014483D01*
X130893940Y-92010255D01*
X130847655Y-92004292D01*
X130844861Y-92003790D01*
X130762652Y-91981736D01*
X130698886Y-91948600D01*
X130651548Y-91902847D01*
X130618618Y-91842939D01*
X130612892Y-91827061D01*
X130607279Y-91802333D01*
X130609709Y-91777902D01*
X130621533Y-91745400D01*
X130628660Y-91729434D01*
X130652000Y-91687006D01*
X130680120Y-91657240D01*
X130711060Y-91636511D01*
X130773034Y-91609537D01*
X130852349Y-91589998D01*
X130944747Y-91578746D01*
X131011667Y-91576270D01*
X131099156Y-91575822D01*
X131099156Y-92016089D01*
X131255775Y-92016089D01*
X131256332Y-91995021D01*
X131256950Y-91934311D01*
X131257175Y-91855526D01*
X131257200Y-91793920D01*
X131257200Y-91484485D01*
X131229491Y-91456776D01*
X131217194Y-91445544D01*
X131203897Y-91437853D01*
X131185328Y-91433040D01*
X131157214Y-91430446D01*
X131115283Y-91429410D01*
X131055263Y-91429270D01*
X131051691Y-91429275D01*
G37*
X131051691Y-91429275D02*
X130922712Y-91433636D01*
X130813009Y-91446861D01*
X130720774Y-91469741D01*
X130644198Y-91503070D01*
X130581473Y-91547638D01*
X130530788Y-91604236D01*
X130490337Y-91673658D01*
X130489541Y-91675351D01*
X130465399Y-91737483D01*
X130456797Y-91792509D01*
X130463769Y-91847887D01*
X130486346Y-91911073D01*
X130490628Y-91920689D01*
X130519828Y-91976966D01*
X130552644Y-92020451D01*
X130594998Y-92057417D01*
X130652810Y-92094135D01*
X130656169Y-92096052D01*
X130706496Y-92120227D01*
X130763379Y-92138282D01*
X130830473Y-92150839D01*
X130911435Y-92158522D01*
X131009918Y-92161953D01*
X131044714Y-92162251D01*
X131210406Y-92162845D01*
X131233803Y-92133100D01*
X131240743Y-92123319D01*
X131246158Y-92111897D01*
X131250235Y-92096095D01*
X131253163Y-92073175D01*
X131255133Y-92040396D01*
X131255775Y-92016089D01*
X131099156Y-92016089D01*
X131005274Y-92016089D01*
X130950336Y-92014483D01*
X130893940Y-92010255D01*
X130847655Y-92004292D01*
X130844861Y-92003790D01*
X130762652Y-91981736D01*
X130698886Y-91948600D01*
X130651548Y-91902847D01*
X130618618Y-91842939D01*
X130612892Y-91827061D01*
X130607279Y-91802333D01*
X130609709Y-91777902D01*
X130621533Y-91745400D01*
X130628660Y-91729434D01*
X130652000Y-91687006D01*
X130680120Y-91657240D01*
X130711060Y-91636511D01*
X130773034Y-91609537D01*
X130852349Y-91589998D01*
X130944747Y-91578746D01*
X131011667Y-91576270D01*
X131099156Y-91575822D01*
X131099156Y-92016089D01*
X131255775Y-92016089D01*
X131256332Y-91995021D01*
X131256950Y-91934311D01*
X131257175Y-91855526D01*
X131257200Y-91793920D01*
X131257200Y-91484485D01*
X131229491Y-91456776D01*
X131217194Y-91445544D01*
X131203897Y-91437853D01*
X131185328Y-91433040D01*
X131157214Y-91430446D01*
X131115283Y-91429410D01*
X131055263Y-91429270D01*
X131051691Y-91429275D01*
G36*
X131839657Y-91429260D02*
G01*
X131763299Y-91430174D01*
X131704783Y-91432311D01*
X131661745Y-91436175D01*
X131631817Y-91442267D01*
X131612632Y-91451090D01*
X131601824Y-91463146D01*
X131597027Y-91478939D01*
X131595873Y-91498970D01*
X131595867Y-91501335D01*
X131596869Y-91523992D01*
X131601604Y-91541503D01*
X131612667Y-91554574D01*
X131632652Y-91563913D01*
X131664154Y-91570227D01*
X131709768Y-91574222D01*
X131772087Y-91576606D01*
X131853707Y-91578086D01*
X131878723Y-91578414D01*
X132120800Y-91581467D01*
X132124186Y-91646378D01*
X132127571Y-91711289D01*
X131959424Y-91711289D01*
X131893734Y-91711531D01*
X131846828Y-91712556D01*
X131814917Y-91714811D01*
X131794209Y-91718742D01*
X131780916Y-91724798D01*
X131771245Y-91733424D01*
X131771183Y-91733493D01*
X131753644Y-91767112D01*
X131754278Y-91803448D01*
X131772686Y-91834423D01*
X131776329Y-91837607D01*
X131789259Y-91845812D01*
X131806976Y-91851521D01*
X131833430Y-91855162D01*
X131872568Y-91857167D01*
X131928338Y-91857964D01*
X131964006Y-91858045D01*
X132126445Y-91858045D01*
X132126445Y-92016089D01*
X131879839Y-92016089D01*
X131798420Y-92016231D01*
X131736590Y-92016814D01*
X131691363Y-92018068D01*
X131659752Y-92020227D01*
X131638769Y-92023523D01*
X131625427Y-92028189D01*
X131616739Y-92034457D01*
X131614550Y-92036733D01*
X131598386Y-92068280D01*
X131597203Y-92104168D01*
X131610464Y-92135285D01*
X131620957Y-92145271D01*
X131631871Y-92150769D01*
X131648783Y-92155022D01*
X131674367Y-92158180D01*
X131711299Y-92160392D01*
X131762254Y-92161806D01*
X131829906Y-92162572D01*
X131916931Y-92162838D01*
X131936606Y-92162845D01*
X132025089Y-92162787D01*
X132093773Y-92162467D01*
X132145436Y-92161667D01*
X132182855Y-92160167D01*
X132208810Y-92157749D01*
X132226078Y-92154194D01*
X132237438Y-92149282D01*
X132245668Y-92142795D01*
X132250183Y-92138138D01*
X132256979Y-92129889D01*
X132262288Y-92119669D01*
X132266294Y-92104800D01*
X132269179Y-92082602D01*
X132271126Y-92050393D01*
X132272319Y-92005496D01*
X132272939Y-91945228D01*
X132273171Y-91866911D01*
X132273200Y-91800994D01*
X132273129Y-91708628D01*
X132272792Y-91636117D01*
X132272002Y-91580737D01*
X132270574Y-91539765D01*
X132268321Y-91510478D01*
X132265057Y-91490153D01*
X132260596Y-91476066D01*
X132254752Y-91465495D01*
X132249803Y-91458811D01*
X132226406Y-91429067D01*
X131936226Y-91429067D01*
X131839657Y-91429260D01*
G37*
X131839657Y-91429260D02*
X131763299Y-91430174D01*
X131704783Y-91432311D01*
X131661745Y-91436175D01*
X131631817Y-91442267D01*
X131612632Y-91451090D01*
X131601824Y-91463146D01*
X131597027Y-91478939D01*
X131595873Y-91498970D01*
X131595867Y-91501335D01*
X131596869Y-91523992D01*
X131601604Y-91541503D01*
X131612667Y-91554574D01*
X131632652Y-91563913D01*
X131664154Y-91570227D01*
X131709768Y-91574222D01*
X131772087Y-91576606D01*
X131853707Y-91578086D01*
X131878723Y-91578414D01*
X132120800Y-91581467D01*
X132124186Y-91646378D01*
X132127571Y-91711289D01*
X131959424Y-91711289D01*
X131893734Y-91711531D01*
X131846828Y-91712556D01*
X131814917Y-91714811D01*
X131794209Y-91718742D01*
X131780916Y-91724798D01*
X131771245Y-91733424D01*
X131771183Y-91733493D01*
X131753644Y-91767112D01*
X131754278Y-91803448D01*
X131772686Y-91834423D01*
X131776329Y-91837607D01*
X131789259Y-91845812D01*
X131806976Y-91851521D01*
X131833430Y-91855162D01*
X131872568Y-91857167D01*
X131928338Y-91857964D01*
X131964006Y-91858045D01*
X132126445Y-91858045D01*
X132126445Y-92016089D01*
X131879839Y-92016089D01*
X131798420Y-92016231D01*
X131736590Y-92016814D01*
X131691363Y-92018068D01*
X131659752Y-92020227D01*
X131638769Y-92023523D01*
X131625427Y-92028189D01*
X131616739Y-92034457D01*
X131614550Y-92036733D01*
X131598386Y-92068280D01*
X131597203Y-92104168D01*
X131610464Y-92135285D01*
X131620957Y-92145271D01*
X131631871Y-92150769D01*
X131648783Y-92155022D01*
X131674367Y-92158180D01*
X131711299Y-92160392D01*
X131762254Y-92161806D01*
X131829906Y-92162572D01*
X131916931Y-92162838D01*
X131936606Y-92162845D01*
X132025089Y-92162787D01*
X132093773Y-92162467D01*
X132145436Y-92161667D01*
X132182855Y-92160167D01*
X132208810Y-92157749D01*
X132226078Y-92154194D01*
X132237438Y-92149282D01*
X132245668Y-92142795D01*
X132250183Y-92138138D01*
X132256979Y-92129889D01*
X132262288Y-92119669D01*
X132266294Y-92104800D01*
X132269179Y-92082602D01*
X132271126Y-92050393D01*
X132272319Y-92005496D01*
X132272939Y-91945228D01*
X132273171Y-91866911D01*
X132273200Y-91800994D01*
X132273129Y-91708628D01*
X132272792Y-91636117D01*
X132272002Y-91580737D01*
X132270574Y-91539765D01*
X132268321Y-91510478D01*
X132265057Y-91490153D01*
X132260596Y-91476066D01*
X132254752Y-91465495D01*
X132249803Y-91458811D01*
X132226406Y-91429067D01*
X131936226Y-91429067D01*
X131839657Y-91429260D01*
G36*
X133370114Y-91433448D02*
G01*
X133346548Y-91447273D01*
X133315735Y-91469881D01*
X133276078Y-91502338D01*
X133225980Y-91545708D01*
X133163843Y-91601058D01*
X133088072Y-91669451D01*
X133001334Y-91748084D01*
X132820711Y-91911878D01*
X132815067Y-91692029D01*
X132813029Y-91616351D01*
X132811063Y-91559994D01*
X132808734Y-91519706D01*
X132805606Y-91492235D01*
X132801245Y-91474329D01*
X132795216Y-91462737D01*
X132787084Y-91454208D01*
X132782772Y-91450623D01*
X132748241Y-91431670D01*
X132715383Y-91434441D01*
X132689318Y-91450633D01*
X132662667Y-91472199D01*
X132659352Y-91787151D01*
X132658435Y-91879779D01*
X132657968Y-91952544D01*
X132658113Y-92008161D01*
X132659032Y-92049342D01*
X132660887Y-92078803D01*
X132663839Y-92099255D01*
X132668050Y-92113413D01*
X132673682Y-92123991D01*
X132679927Y-92132474D01*
X132693439Y-92148207D01*
X132706883Y-92158636D01*
X132722124Y-92162639D01*
X132741026Y-92159094D01*
X132765455Y-92146879D01*
X132797273Y-92124871D01*
X132838348Y-92091949D01*
X132890542Y-92046991D01*
X132955722Y-91988875D01*
X133029556Y-91922099D01*
X133294845Y-91681458D01*
X133300489Y-91900589D01*
X133302531Y-91976128D01*
X133304502Y-92032354D01*
X133306839Y-92072524D01*
X133309981Y-92099896D01*
X133314364Y-92117728D01*
X133320424Y-92129279D01*
X133328600Y-92137807D01*
X133332784Y-92141282D01*
X133369765Y-92160372D01*
X133404708Y-92157493D01*
X133435136Y-92133100D01*
X133442097Y-92123286D01*
X133447523Y-92111826D01*
X133451603Y-92095968D01*
X133454529Y-92072963D01*
X133456492Y-92040062D01*
X133457683Y-91994516D01*
X133458292Y-91933573D01*
X133458511Y-91854486D01*
X133458534Y-91795956D01*
X133458460Y-91704407D01*
X133458113Y-91632687D01*
X133457301Y-91578045D01*
X133455833Y-91537732D01*
X133453519Y-91508998D01*
X133450167Y-91489093D01*
X133445588Y-91475268D01*
X133439589Y-91464772D01*
X133435136Y-91458811D01*
X133423850Y-91444691D01*
X133413301Y-91434029D01*
X133401893Y-91427892D01*
X133388030Y-91427343D01*
X133370114Y-91433448D01*
G37*
X133370114Y-91433448D02*
X133346548Y-91447273D01*
X133315735Y-91469881D01*
X133276078Y-91502338D01*
X133225980Y-91545708D01*
X133163843Y-91601058D01*
X133088072Y-91669451D01*
X133001334Y-91748084D01*
X132820711Y-91911878D01*
X132815067Y-91692029D01*
X132813029Y-91616351D01*
X132811063Y-91559994D01*
X132808734Y-91519706D01*
X132805606Y-91492235D01*
X132801245Y-91474329D01*
X132795216Y-91462737D01*
X132787084Y-91454208D01*
X132782772Y-91450623D01*
X132748241Y-91431670D01*
X132715383Y-91434441D01*
X132689318Y-91450633D01*
X132662667Y-91472199D01*
X132659352Y-91787151D01*
X132658435Y-91879779D01*
X132657968Y-91952544D01*
X132658113Y-92008161D01*
X132659032Y-92049342D01*
X132660887Y-92078803D01*
X132663839Y-92099255D01*
X132668050Y-92113413D01*
X132673682Y-92123991D01*
X132679927Y-92132474D01*
X132693439Y-92148207D01*
X132706883Y-92158636D01*
X132722124Y-92162639D01*
X132741026Y-92159094D01*
X132765455Y-92146879D01*
X132797273Y-92124871D01*
X132838348Y-92091949D01*
X132890542Y-92046991D01*
X132955722Y-91988875D01*
X133029556Y-91922099D01*
X133294845Y-91681458D01*
X133300489Y-91900589D01*
X133302531Y-91976128D01*
X133304502Y-92032354D01*
X133306839Y-92072524D01*
X133309981Y-92099896D01*
X133314364Y-92117728D01*
X133320424Y-92129279D01*
X133328600Y-92137807D01*
X133332784Y-92141282D01*
X133369765Y-92160372D01*
X133404708Y-92157493D01*
X133435136Y-92133100D01*
X133442097Y-92123286D01*
X133447523Y-92111826D01*
X133451603Y-92095968D01*
X133454529Y-92072963D01*
X133456492Y-92040062D01*
X133457683Y-91994516D01*
X133458292Y-91933573D01*
X133458511Y-91854486D01*
X133458534Y-91795956D01*
X133458460Y-91704407D01*
X133458113Y-91632687D01*
X133457301Y-91578045D01*
X133455833Y-91537732D01*
X133453519Y-91508998D01*
X133450167Y-91489093D01*
X133445588Y-91475268D01*
X133439589Y-91464772D01*
X133435136Y-91458811D01*
X133423850Y-91444691D01*
X133413301Y-91434029D01*
X133401893Y-91427892D01*
X133388030Y-91427343D01*
X133370114Y-91433448D01*
G36*
X134020081Y-91434599D02*
G01*
X133951565Y-91446095D01*
X133898943Y-91463967D01*
X133864708Y-91487499D01*
X133855379Y-91500924D01*
X133845893Y-91532148D01*
X133852277Y-91560395D01*
X133872430Y-91587182D01*
X133903745Y-91599713D01*
X133949183Y-91598696D01*
X133984326Y-91591906D01*
X134062419Y-91578971D01*
X134142226Y-91577742D01*
X134231555Y-91588241D01*
X134256229Y-91592690D01*
X134339291Y-91616108D01*
X134404273Y-91650945D01*
X134450461Y-91696604D01*
X134477145Y-91752494D01*
X134482663Y-91781388D01*
X134479051Y-91840012D01*
X134455729Y-91891879D01*
X134414824Y-91935978D01*
X134358459Y-91971299D01*
X134288760Y-91996829D01*
X134207852Y-92011559D01*
X134117860Y-92014478D01*
X134020910Y-92004575D01*
X134015436Y-92003641D01*
X133976875Y-91996459D01*
X133955494Y-91989521D01*
X133946227Y-91979227D01*
X133944006Y-91961976D01*
X133943956Y-91952841D01*
X133943956Y-91914489D01*
X134012431Y-91914489D01*
X134072900Y-91910347D01*
X134114165Y-91897147D01*
X134138175Y-91873730D01*
X134146877Y-91838936D01*
X134146983Y-91834394D01*
X134141892Y-91804654D01*
X134124433Y-91783419D01*
X134091939Y-91769366D01*
X134041743Y-91761173D01*
X133993123Y-91758161D01*
X133922456Y-91756433D01*
X133871198Y-91759070D01*
X133836239Y-91768800D01*
X133814470Y-91788353D01*
X133802780Y-91820456D01*
X133798060Y-91867838D01*
X133797200Y-91930071D01*
X133798609Y-91999535D01*
X133802848Y-92046786D01*
X133809936Y-92072012D01*
X133811311Y-92073988D01*
X133850228Y-92105508D01*
X133907286Y-92130470D01*
X133978869Y-92148340D01*
X134061358Y-92158586D01*
X134151139Y-92160673D01*
X134244592Y-92154068D01*
X134299556Y-92145956D01*
X134385766Y-92121554D01*
X134465892Y-92081662D01*
X134532977Y-92029887D01*
X134543173Y-92019539D01*
X134576302Y-91976035D01*
X134606194Y-91922118D01*
X134629357Y-91865592D01*
X134642298Y-91814259D01*
X134643858Y-91794544D01*
X134637218Y-91753419D01*
X134619568Y-91702252D01*
X134594297Y-91648394D01*
X134564789Y-91599195D01*
X134538719Y-91566334D01*
X134477765Y-91517452D01*
X134398969Y-91478545D01*
X134305157Y-91450494D01*
X134199150Y-91434179D01*
X134102000Y-91430192D01*
X134020081Y-91434599D01*
G37*
X134020081Y-91434599D02*
X133951565Y-91446095D01*
X133898943Y-91463967D01*
X133864708Y-91487499D01*
X133855379Y-91500924D01*
X133845893Y-91532148D01*
X133852277Y-91560395D01*
X133872430Y-91587182D01*
X133903745Y-91599713D01*
X133949183Y-91598696D01*
X133984326Y-91591906D01*
X134062419Y-91578971D01*
X134142226Y-91577742D01*
X134231555Y-91588241D01*
X134256229Y-91592690D01*
X134339291Y-91616108D01*
X134404273Y-91650945D01*
X134450461Y-91696604D01*
X134477145Y-91752494D01*
X134482663Y-91781388D01*
X134479051Y-91840012D01*
X134455729Y-91891879D01*
X134414824Y-91935978D01*
X134358459Y-91971299D01*
X134288760Y-91996829D01*
X134207852Y-92011559D01*
X134117860Y-92014478D01*
X134020910Y-92004575D01*
X134015436Y-92003641D01*
X133976875Y-91996459D01*
X133955494Y-91989521D01*
X133946227Y-91979227D01*
X133944006Y-91961976D01*
X133943956Y-91952841D01*
X133943956Y-91914489D01*
X134012431Y-91914489D01*
X134072900Y-91910347D01*
X134114165Y-91897147D01*
X134138175Y-91873730D01*
X134146877Y-91838936D01*
X134146983Y-91834394D01*
X134141892Y-91804654D01*
X134124433Y-91783419D01*
X134091939Y-91769366D01*
X134041743Y-91761173D01*
X133993123Y-91758161D01*
X133922456Y-91756433D01*
X133871198Y-91759070D01*
X133836239Y-91768800D01*
X133814470Y-91788353D01*
X133802780Y-91820456D01*
X133798060Y-91867838D01*
X133797200Y-91930071D01*
X133798609Y-91999535D01*
X133802848Y-92046786D01*
X133809936Y-92072012D01*
X133811311Y-92073988D01*
X133850228Y-92105508D01*
X133907286Y-92130470D01*
X133978869Y-92148340D01*
X134061358Y-92158586D01*
X134151139Y-92160673D01*
X134244592Y-92154068D01*
X134299556Y-92145956D01*
X134385766Y-92121554D01*
X134465892Y-92081662D01*
X134532977Y-92029887D01*
X134543173Y-92019539D01*
X134576302Y-91976035D01*
X134606194Y-91922118D01*
X134629357Y-91865592D01*
X134642298Y-91814259D01*
X134643858Y-91794544D01*
X134637218Y-91753419D01*
X134619568Y-91702252D01*
X134594297Y-91648394D01*
X134564789Y-91599195D01*
X134538719Y-91566334D01*
X134477765Y-91517452D01*
X134398969Y-91478545D01*
X134305157Y-91450494D01*
X134199150Y-91434179D01*
X134102000Y-91430192D01*
X134020081Y-91434599D01*
G36*
X134993822Y-91451645D02*
G01*
X134987242Y-91459218D01*
X134982079Y-91468987D01*
X134978164Y-91483571D01*
X134975324Y-91505585D01*
X134973387Y-91537648D01*
X134972183Y-91582375D01*
X134971539Y-91642385D01*
X134971284Y-91720294D01*
X134971245Y-91795956D01*
X134971314Y-91889802D01*
X134971638Y-91963689D01*
X134972386Y-92020232D01*
X134973732Y-92062049D01*
X134975846Y-92091757D01*
X134978900Y-92111973D01*
X134983066Y-92125314D01*
X134988516Y-92134398D01*
X134993822Y-92140267D01*
X135026826Y-92159947D01*
X135061991Y-92158181D01*
X135093455Y-92136717D01*
X135100684Y-92128337D01*
X135106334Y-92118614D01*
X135110599Y-92104861D01*
X135113673Y-92084389D01*
X135115752Y-92054512D01*
X135117030Y-92012541D01*
X135117701Y-91955789D01*
X135117959Y-91881567D01*
X135118000Y-91797537D01*
X135118000Y-91484485D01*
X135090291Y-91456776D01*
X135056137Y-91433463D01*
X135023006Y-91432623D01*
X134993822Y-91451645D01*
G37*
X134993822Y-91451645D02*
X134987242Y-91459218D01*
X134982079Y-91468987D01*
X134978164Y-91483571D01*
X134975324Y-91505585D01*
X134973387Y-91537648D01*
X134972183Y-91582375D01*
X134971539Y-91642385D01*
X134971284Y-91720294D01*
X134971245Y-91795956D01*
X134971314Y-91889802D01*
X134971638Y-91963689D01*
X134972386Y-92020232D01*
X134973732Y-92062049D01*
X134975846Y-92091757D01*
X134978900Y-92111973D01*
X134983066Y-92125314D01*
X134988516Y-92134398D01*
X134993822Y-92140267D01*
X135026826Y-92159947D01*
X135061991Y-92158181D01*
X135093455Y-92136717D01*
X135100684Y-92128337D01*
X135106334Y-92118614D01*
X135110599Y-92104861D01*
X135113673Y-92084389D01*
X135115752Y-92054512D01*
X135117030Y-92012541D01*
X135117701Y-91955789D01*
X135117959Y-91881567D01*
X135118000Y-91797537D01*
X135118000Y-91484485D01*
X135090291Y-91456776D01*
X135056137Y-91433463D01*
X135023006Y-91432623D01*
X134993822Y-91451645D01*
G36*
X135761703Y-91430351D02*
G01*
X135686888Y-91435581D01*
X135617306Y-91443750D01*
X135557002Y-91454550D01*
X135510020Y-91467673D01*
X135480406Y-91482813D01*
X135475860Y-91487269D01*
X135460054Y-91521850D01*
X135464847Y-91557351D01*
X135489364Y-91587725D01*
X135490534Y-91588596D01*
X135504954Y-91597954D01*
X135520008Y-91602876D01*
X135541005Y-91603473D01*
X135573257Y-91599861D01*
X135622073Y-91592154D01*
X135626000Y-91591505D01*
X135698739Y-91582569D01*
X135777217Y-91578161D01*
X135855927Y-91578119D01*
X135929361Y-91582279D01*
X135992011Y-91590479D01*
X136038370Y-91602557D01*
X136041416Y-91603771D01*
X136075048Y-91622615D01*
X136086864Y-91641685D01*
X136077614Y-91660439D01*
X136048047Y-91678337D01*
X135998911Y-91694837D01*
X135930957Y-91709396D01*
X135885645Y-91716406D01*
X135791456Y-91729889D01*
X135716544Y-91742214D01*
X135657717Y-91754449D01*
X135611785Y-91767661D01*
X135575555Y-91782917D01*
X135545838Y-91801285D01*
X135519442Y-91823831D01*
X135498230Y-91845971D01*
X135473065Y-91876819D01*
X135460681Y-91903345D01*
X135456808Y-91936026D01*
X135456667Y-91947995D01*
X135459576Y-91987712D01*
X135471202Y-92017259D01*
X135491323Y-92043486D01*
X135532216Y-92083576D01*
X135577817Y-92114149D01*
X135631513Y-92136203D01*
X135696692Y-92150735D01*
X135776744Y-92158741D01*
X135875057Y-92161218D01*
X135891289Y-92161177D01*
X135956849Y-92159818D01*
X136021866Y-92156730D01*
X136079252Y-92152356D01*
X136121922Y-92147140D01*
X136125372Y-92146541D01*
X136167796Y-92136491D01*
X136203780Y-92123796D01*
X136224150Y-92112190D01*
X136243107Y-92081572D01*
X136244427Y-92045918D01*
X136228085Y-92014144D01*
X136224429Y-92010551D01*
X136209315Y-91999876D01*
X136190415Y-91995276D01*
X136161162Y-91996059D01*
X136125651Y-92000127D01*
X136085970Y-92003762D01*
X136030345Y-92006828D01*
X135965406Y-92009053D01*
X135897785Y-92010164D01*
X135880000Y-92010237D01*
X135812128Y-92009964D01*
X135762454Y-92008646D01*
X135726610Y-92005827D01*
X135700224Y-92001050D01*
X135678926Y-91993857D01*
X135666126Y-91987867D01*
X135638000Y-91971233D01*
X135620068Y-91956168D01*
X135617447Y-91951897D01*
X135622976Y-91934263D01*
X135649260Y-91917192D01*
X135694478Y-91901458D01*
X135756808Y-91887838D01*
X135775171Y-91884804D01*
X135871090Y-91869738D01*
X135947641Y-91857146D01*
X136007780Y-91846111D01*
X136054460Y-91835720D01*
X136090637Y-91825056D01*
X136119265Y-91813205D01*
X136143298Y-91799251D01*
X136165692Y-91782281D01*
X136189402Y-91761378D01*
X136197380Y-91754049D01*
X136225353Y-91726699D01*
X136240160Y-91705029D01*
X136245952Y-91680232D01*
X136246889Y-91648983D01*
X136236575Y-91587705D01*
X136205752Y-91535640D01*
X136154595Y-91492958D01*
X136083283Y-91459825D01*
X136032400Y-91444964D01*
X135977100Y-91435366D01*
X135910853Y-91429936D01*
X135837706Y-91428367D01*
X135761703Y-91430351D01*
G37*
X135761703Y-91430351D02*
X135686888Y-91435581D01*
X135617306Y-91443750D01*
X135557002Y-91454550D01*
X135510020Y-91467673D01*
X135480406Y-91482813D01*
X135475860Y-91487269D01*
X135460054Y-91521850D01*
X135464847Y-91557351D01*
X135489364Y-91587725D01*
X135490534Y-91588596D01*
X135504954Y-91597954D01*
X135520008Y-91602876D01*
X135541005Y-91603473D01*
X135573257Y-91599861D01*
X135622073Y-91592154D01*
X135626000Y-91591505D01*
X135698739Y-91582569D01*
X135777217Y-91578161D01*
X135855927Y-91578119D01*
X135929361Y-91582279D01*
X135992011Y-91590479D01*
X136038370Y-91602557D01*
X136041416Y-91603771D01*
X136075048Y-91622615D01*
X136086864Y-91641685D01*
X136077614Y-91660439D01*
X136048047Y-91678337D01*
X135998911Y-91694837D01*
X135930957Y-91709396D01*
X135885645Y-91716406D01*
X135791456Y-91729889D01*
X135716544Y-91742214D01*
X135657717Y-91754449D01*
X135611785Y-91767661D01*
X135575555Y-91782917D01*
X135545838Y-91801285D01*
X135519442Y-91823831D01*
X135498230Y-91845971D01*
X135473065Y-91876819D01*
X135460681Y-91903345D01*
X135456808Y-91936026D01*
X135456667Y-91947995D01*
X135459576Y-91987712D01*
X135471202Y-92017259D01*
X135491323Y-92043486D01*
X135532216Y-92083576D01*
X135577817Y-92114149D01*
X135631513Y-92136203D01*
X135696692Y-92150735D01*
X135776744Y-92158741D01*
X135875057Y-92161218D01*
X135891289Y-92161177D01*
X135956849Y-92159818D01*
X136021866Y-92156730D01*
X136079252Y-92152356D01*
X136121922Y-92147140D01*
X136125372Y-92146541D01*
X136167796Y-92136491D01*
X136203780Y-92123796D01*
X136224150Y-92112190D01*
X136243107Y-92081572D01*
X136244427Y-92045918D01*
X136228085Y-92014144D01*
X136224429Y-92010551D01*
X136209315Y-91999876D01*
X136190415Y-91995276D01*
X136161162Y-91996059D01*
X136125651Y-92000127D01*
X136085970Y-92003762D01*
X136030345Y-92006828D01*
X135965406Y-92009053D01*
X135897785Y-92010164D01*
X135880000Y-92010237D01*
X135812128Y-92009964D01*
X135762454Y-92008646D01*
X135726610Y-92005827D01*
X135700224Y-92001050D01*
X135678926Y-91993857D01*
X135666126Y-91987867D01*
X135638000Y-91971233D01*
X135620068Y-91956168D01*
X135617447Y-91951897D01*
X135622976Y-91934263D01*
X135649260Y-91917192D01*
X135694478Y-91901458D01*
X135756808Y-91887838D01*
X135775171Y-91884804D01*
X135871090Y-91869738D01*
X135947641Y-91857146D01*
X136007780Y-91846111D01*
X136054460Y-91835720D01*
X136090637Y-91825056D01*
X136119265Y-91813205D01*
X136143298Y-91799251D01*
X136165692Y-91782281D01*
X136189402Y-91761378D01*
X136197380Y-91754049D01*
X136225353Y-91726699D01*
X136240160Y-91705029D01*
X136245952Y-91680232D01*
X136246889Y-91648983D01*
X136236575Y-91587705D01*
X136205752Y-91535640D01*
X136154595Y-91492958D01*
X136083283Y-91459825D01*
X136032400Y-91444964D01*
X135977100Y-91435366D01*
X135910853Y-91429936D01*
X135837706Y-91428367D01*
X135761703Y-91430351D01*
G36*
X136782794Y-91429146D02*
G01*
X136713386Y-91429518D01*
X136660997Y-91430385D01*
X136622847Y-91431946D01*
X136596159Y-91434403D01*
X136578153Y-91437957D01*
X136566049Y-91442810D01*
X136557069Y-91449161D01*
X136553818Y-91452084D01*
X136534043Y-91483142D01*
X136530482Y-91518828D01*
X136543491Y-91550510D01*
X136549506Y-91556913D01*
X136559235Y-91563121D01*
X136574901Y-91567910D01*
X136599408Y-91571514D01*
X136635661Y-91574164D01*
X136686565Y-91576095D01*
X136755026Y-91577539D01*
X136817617Y-91578418D01*
X137065334Y-91581467D01*
X137068719Y-91646378D01*
X137072105Y-91711289D01*
X136903958Y-91711289D01*
X136830959Y-91711919D01*
X136777517Y-91714553D01*
X136740628Y-91720309D01*
X136717288Y-91730304D01*
X136704494Y-91745656D01*
X136699242Y-91767482D01*
X136698445Y-91787738D01*
X136700923Y-91812592D01*
X136710277Y-91830906D01*
X136729383Y-91843637D01*
X136761118Y-91851741D01*
X136808359Y-91856176D01*
X136873983Y-91857899D01*
X136909801Y-91858045D01*
X137070978Y-91858045D01*
X137070978Y-92016089D01*
X136822622Y-92016089D01*
X136741213Y-92016202D01*
X136679342Y-92016712D01*
X136633968Y-92017870D01*
X136602054Y-92019930D01*
X136580559Y-92023146D01*
X136566443Y-92027772D01*
X136556668Y-92034059D01*
X136551689Y-92038667D01*
X136534610Y-92065560D01*
X136529111Y-92089467D01*
X136536963Y-92118667D01*
X136551689Y-92140267D01*
X136559546Y-92147066D01*
X136569688Y-92152346D01*
X136584844Y-92156298D01*
X136607741Y-92159113D01*
X136641109Y-92160982D01*
X136687675Y-92162098D01*
X136750167Y-92162651D01*
X136831314Y-92162833D01*
X136873422Y-92162845D01*
X136963598Y-92162765D01*
X137033924Y-92162398D01*
X137087129Y-92161552D01*
X137125940Y-92160036D01*
X137153087Y-92157659D01*
X137171298Y-92154229D01*
X137183300Y-92149554D01*
X137191822Y-92143444D01*
X137195156Y-92140267D01*
X137201755Y-92132670D01*
X137206927Y-92122870D01*
X137210846Y-92108239D01*
X137213684Y-92086152D01*
X137215615Y-92053982D01*
X137216812Y-92009103D01*
X137217448Y-91948889D01*
X137217697Y-91870713D01*
X137217734Y-91797923D01*
X137217700Y-91704707D01*
X137217465Y-91631431D01*
X137216830Y-91575458D01*
X137215594Y-91534151D01*
X137213556Y-91504872D01*
X137210517Y-91484984D01*
X137206277Y-91471850D01*
X137200635Y-91462832D01*
X137193391Y-91455293D01*
X137191606Y-91453612D01*
X137182945Y-91446172D01*
X137172882Y-91440409D01*
X137158625Y-91436112D01*
X137137383Y-91433064D01*
X137106364Y-91431051D01*
X137062777Y-91429860D01*
X137003831Y-91429275D01*
X136926734Y-91429083D01*
X136872001Y-91429067D01*
X136782794Y-91429146D01*
G37*
X136782794Y-91429146D02*
X136713386Y-91429518D01*
X136660997Y-91430385D01*
X136622847Y-91431946D01*
X136596159Y-91434403D01*
X136578153Y-91437957D01*
X136566049Y-91442810D01*
X136557069Y-91449161D01*
X136553818Y-91452084D01*
X136534043Y-91483142D01*
X136530482Y-91518828D01*
X136543491Y-91550510D01*
X136549506Y-91556913D01*
X136559235Y-91563121D01*
X136574901Y-91567910D01*
X136599408Y-91571514D01*
X136635661Y-91574164D01*
X136686565Y-91576095D01*
X136755026Y-91577539D01*
X136817617Y-91578418D01*
X137065334Y-91581467D01*
X137068719Y-91646378D01*
X137072105Y-91711289D01*
X136903958Y-91711289D01*
X136830959Y-91711919D01*
X136777517Y-91714553D01*
X136740628Y-91720309D01*
X136717288Y-91730304D01*
X136704494Y-91745656D01*
X136699242Y-91767482D01*
X136698445Y-91787738D01*
X136700923Y-91812592D01*
X136710277Y-91830906D01*
X136729383Y-91843637D01*
X136761118Y-91851741D01*
X136808359Y-91856176D01*
X136873983Y-91857899D01*
X136909801Y-91858045D01*
X137070978Y-91858045D01*
X137070978Y-92016089D01*
X136822622Y-92016089D01*
X136741213Y-92016202D01*
X136679342Y-92016712D01*
X136633968Y-92017870D01*
X136602054Y-92019930D01*
X136580559Y-92023146D01*
X136566443Y-92027772D01*
X136556668Y-92034059D01*
X136551689Y-92038667D01*
X136534610Y-92065560D01*
X136529111Y-92089467D01*
X136536963Y-92118667D01*
X136551689Y-92140267D01*
X136559546Y-92147066D01*
X136569688Y-92152346D01*
X136584844Y-92156298D01*
X136607741Y-92159113D01*
X136641109Y-92160982D01*
X136687675Y-92162098D01*
X136750167Y-92162651D01*
X136831314Y-92162833D01*
X136873422Y-92162845D01*
X136963598Y-92162765D01*
X137033924Y-92162398D01*
X137087129Y-92161552D01*
X137125940Y-92160036D01*
X137153087Y-92157659D01*
X137171298Y-92154229D01*
X137183300Y-92149554D01*
X137191822Y-92143444D01*
X137195156Y-92140267D01*
X137201755Y-92132670D01*
X137206927Y-92122870D01*
X137210846Y-92108239D01*
X137213684Y-92086152D01*
X137215615Y-92053982D01*
X137216812Y-92009103D01*
X137217448Y-91948889D01*
X137217697Y-91870713D01*
X137217734Y-91797923D01*
X137217700Y-91704707D01*
X137217465Y-91631431D01*
X137216830Y-91575458D01*
X137215594Y-91534151D01*
X137213556Y-91504872D01*
X137210517Y-91484984D01*
X137206277Y-91471850D01*
X137200635Y-91462832D01*
X137193391Y-91455293D01*
X137191606Y-91453612D01*
X137182945Y-91446172D01*
X137172882Y-91440409D01*
X137158625Y-91436112D01*
X137137383Y-91433064D01*
X137106364Y-91431051D01*
X137062777Y-91429860D01*
X137003831Y-91429275D01*
X136926734Y-91429083D01*
X136872001Y-91429067D01*
X136782794Y-91429146D01*
G36*
X138191371Y-91429066D02*
G01*
X138151889Y-91429467D01*
X138036200Y-91432259D01*
X137939311Y-91440550D01*
X137857919Y-91455232D01*
X137788723Y-91477193D01*
X137728420Y-91507322D01*
X137673708Y-91546510D01*
X137654167Y-91563532D01*
X137621750Y-91603363D01*
X137592520Y-91657413D01*
X137569991Y-91717323D01*
X137557679Y-91774739D01*
X137556400Y-91795956D01*
X137564417Y-91854769D01*
X137585899Y-91919013D01*
X137616999Y-91979821D01*
X137653866Y-92028330D01*
X137659854Y-92034182D01*
X137710579Y-92075321D01*
X137766125Y-92107435D01*
X137829696Y-92131365D01*
X137904494Y-92147953D01*
X137993722Y-92158041D01*
X138100582Y-92162469D01*
X138149528Y-92162845D01*
X138211762Y-92162545D01*
X138255528Y-92161292D01*
X138284931Y-92158554D01*
X138304079Y-92153801D01*
X138317077Y-92146501D01*
X138324045Y-92140267D01*
X138330626Y-92132694D01*
X138335788Y-92122924D01*
X138339703Y-92108340D01*
X138342543Y-92086326D01*
X138344480Y-92054264D01*
X138345684Y-92009536D01*
X138346328Y-91949526D01*
X138346583Y-91871617D01*
X138346622Y-91795956D01*
X138346870Y-91695041D01*
X138346817Y-91614427D01*
X138345857Y-91575822D01*
X138199867Y-91575822D01*
X138199867Y-92016089D01*
X138106734Y-92016004D01*
X138050693Y-92014396D01*
X137991999Y-92010256D01*
X137943028Y-92004464D01*
X137941538Y-92004226D01*
X137862392Y-91985090D01*
X137801002Y-91955287D01*
X137754305Y-91912878D01*
X137724635Y-91866961D01*
X137706353Y-91816026D01*
X137707771Y-91768200D01*
X137728988Y-91716933D01*
X137770489Y-91663899D01*
X137827998Y-91624600D01*
X137902750Y-91598331D01*
X137952708Y-91589035D01*
X138009416Y-91582507D01*
X138069519Y-91577782D01*
X138120639Y-91575817D01*
X138123667Y-91575808D01*
X138199867Y-91575822D01*
X138345857Y-91575822D01*
X138345260Y-91551851D01*
X138340998Y-91505055D01*
X138332830Y-91471778D01*
X138319556Y-91449759D01*
X138299974Y-91436739D01*
X138272883Y-91430457D01*
X138237082Y-91428653D01*
X138191371Y-91429066D01*
G37*
X138191371Y-91429066D02*
X138151889Y-91429467D01*
X138036200Y-91432259D01*
X137939311Y-91440550D01*
X137857919Y-91455232D01*
X137788723Y-91477193D01*
X137728420Y-91507322D01*
X137673708Y-91546510D01*
X137654167Y-91563532D01*
X137621750Y-91603363D01*
X137592520Y-91657413D01*
X137569991Y-91717323D01*
X137557679Y-91774739D01*
X137556400Y-91795956D01*
X137564417Y-91854769D01*
X137585899Y-91919013D01*
X137616999Y-91979821D01*
X137653866Y-92028330D01*
X137659854Y-92034182D01*
X137710579Y-92075321D01*
X137766125Y-92107435D01*
X137829696Y-92131365D01*
X137904494Y-92147953D01*
X137993722Y-92158041D01*
X138100582Y-92162469D01*
X138149528Y-92162845D01*
X138211762Y-92162545D01*
X138255528Y-92161292D01*
X138284931Y-92158554D01*
X138304079Y-92153801D01*
X138317077Y-92146501D01*
X138324045Y-92140267D01*
X138330626Y-92132694D01*
X138335788Y-92122924D01*
X138339703Y-92108340D01*
X138342543Y-92086326D01*
X138344480Y-92054264D01*
X138345684Y-92009536D01*
X138346328Y-91949526D01*
X138346583Y-91871617D01*
X138346622Y-91795956D01*
X138346870Y-91695041D01*
X138346817Y-91614427D01*
X138345857Y-91575822D01*
X138199867Y-91575822D01*
X138199867Y-92016089D01*
X138106734Y-92016004D01*
X138050693Y-92014396D01*
X137991999Y-92010256D01*
X137943028Y-92004464D01*
X137941538Y-92004226D01*
X137862392Y-91985090D01*
X137801002Y-91955287D01*
X137754305Y-91912878D01*
X137724635Y-91866961D01*
X137706353Y-91816026D01*
X137707771Y-91768200D01*
X137728988Y-91716933D01*
X137770489Y-91663899D01*
X137827998Y-91624600D01*
X137902750Y-91598331D01*
X137952708Y-91589035D01*
X138009416Y-91582507D01*
X138069519Y-91577782D01*
X138120639Y-91575817D01*
X138123667Y-91575808D01*
X138199867Y-91575822D01*
X138345857Y-91575822D01*
X138345260Y-91551851D01*
X138340998Y-91505055D01*
X138332830Y-91471778D01*
X138319556Y-91449759D01*
X138299974Y-91436739D01*
X138272883Y-91430457D01*
X138237082Y-91428653D01*
X138191371Y-91429066D01*
G36*
X134343043Y-86186571D02*
G01*
X134246768Y-86210809D01*
X134160184Y-86253641D01*
X134085373Y-86313419D01*
X134024418Y-86388494D01*
X133979399Y-86477220D01*
X133953136Y-86573530D01*
X133947286Y-86670795D01*
X133962140Y-86764654D01*
X133995840Y-86852511D01*
X134046528Y-86931770D01*
X134112345Y-86999836D01*
X134191434Y-87054112D01*
X134281934Y-87092002D01*
X134333200Y-87104426D01*
X134377698Y-87111947D01*
X134411999Y-87114919D01*
X134444960Y-87113094D01*
X134485434Y-87106225D01*
X134518531Y-87099250D01*
X134611947Y-87067741D01*
X134695619Y-87016617D01*
X134767665Y-86947429D01*
X134826200Y-86861728D01*
X134840148Y-86834489D01*
X134856586Y-86798122D01*
X134866894Y-86767582D01*
X134872460Y-86735450D01*
X134874669Y-86694307D01*
X134874948Y-86648222D01*
X134870861Y-86563865D01*
X134857446Y-86494586D01*
X134832256Y-86433961D01*
X134792846Y-86375567D01*
X134754298Y-86331302D01*
X134682406Y-86265484D01*
X134607313Y-86220053D01*
X134524562Y-86192850D01*
X134446928Y-86182576D01*
X134343043Y-86186571D01*
G37*
X134343043Y-86186571D02*
X134246768Y-86210809D01*
X134160184Y-86253641D01*
X134085373Y-86313419D01*
X134024418Y-86388494D01*
X133979399Y-86477220D01*
X133953136Y-86573530D01*
X133947286Y-86670795D01*
X133962140Y-86764654D01*
X133995840Y-86852511D01*
X134046528Y-86931770D01*
X134112345Y-86999836D01*
X134191434Y-87054112D01*
X134281934Y-87092002D01*
X134333200Y-87104426D01*
X134377698Y-87111947D01*
X134411999Y-87114919D01*
X134444960Y-87113094D01*
X134485434Y-87106225D01*
X134518531Y-87099250D01*
X134611947Y-87067741D01*
X134695619Y-87016617D01*
X134767665Y-86947429D01*
X134826200Y-86861728D01*
X134840148Y-86834489D01*
X134856586Y-86798122D01*
X134866894Y-86767582D01*
X134872460Y-86735450D01*
X134874669Y-86694307D01*
X134874948Y-86648222D01*
X134870861Y-86563865D01*
X134857446Y-86494586D01*
X134832256Y-86433961D01*
X134792846Y-86375567D01*
X134754298Y-86331302D01*
X134682406Y-86265484D01*
X134607313Y-86220053D01*
X134524562Y-86192850D01*
X134446928Y-86182576D01*
X134343043Y-86186571D01*
G36*
X125883493Y-88632245D02*
G01*
X125883474Y-88866662D01*
X125883448Y-89079603D01*
X125883375Y-89272168D01*
X125883218Y-89445459D01*
X125882936Y-89600576D01*
X125882491Y-89738620D01*
X125881844Y-89860692D01*
X125880955Y-89967894D01*
X125879787Y-90061326D01*
X125878299Y-90142090D01*
X125876454Y-90211286D01*
X125874211Y-90270015D01*
X125871531Y-90319379D01*
X125868377Y-90360478D01*
X125864708Y-90394413D01*
X125860487Y-90422286D01*
X125855673Y-90445198D01*
X125850227Y-90464249D01*
X125844112Y-90480540D01*
X125837288Y-90495173D01*
X125829715Y-90509249D01*
X125821355Y-90523868D01*
X125816161Y-90532974D01*
X125781896Y-90593689D01*
X126640045Y-90593689D01*
X126640045Y-90497733D01*
X126640776Y-90454370D01*
X126642728Y-90421205D01*
X126645537Y-90403424D01*
X126646779Y-90401778D01*
X126658201Y-90408662D01*
X126680916Y-90426505D01*
X126703615Y-90445879D01*
X126758200Y-90486614D01*
X126827679Y-90527617D01*
X126904730Y-90565123D01*
X126982035Y-90595364D01*
X127012887Y-90605012D01*
X127081384Y-90619578D01*
X127164236Y-90629539D01*
X127253629Y-90634583D01*
X127341752Y-90634396D01*
X127420793Y-90628666D01*
X127458489Y-90622858D01*
X127596586Y-90584797D01*
X127723887Y-90527073D01*
X127839708Y-90450211D01*
X127943363Y-90354739D01*
X128034167Y-90241179D01*
X128100969Y-90130381D01*
X128155836Y-90013625D01*
X128197837Y-89894276D01*
X128227833Y-89768283D01*
X128246689Y-89631594D01*
X128255268Y-89480158D01*
X128255994Y-89402711D01*
X128253900Y-89345934D01*
X127424783Y-89345934D01*
X127424576Y-89439002D01*
X127421663Y-89526692D01*
X127416000Y-89603772D01*
X127407545Y-89665009D01*
X127404962Y-89677350D01*
X127373160Y-89784633D01*
X127331502Y-89871658D01*
X127279637Y-89938642D01*
X127217219Y-89985805D01*
X127143900Y-90013365D01*
X127059331Y-90021541D01*
X126963165Y-90010551D01*
X126899689Y-89994829D01*
X126850546Y-89976639D01*
X126796417Y-89950791D01*
X126755756Y-89927089D01*
X126685200Y-89880721D01*
X126685200Y-88730530D01*
X126752608Y-88686962D01*
X126831133Y-88646040D01*
X126915319Y-88619389D01*
X127000443Y-88607465D01*
X127081784Y-88610722D01*
X127154620Y-88629615D01*
X127186574Y-88645184D01*
X127244499Y-88688181D01*
X127293456Y-88744953D01*
X127334610Y-88817575D01*
X127369126Y-88908121D01*
X127398167Y-89018666D01*
X127399448Y-89024533D01*
X127409619Y-89086788D01*
X127417261Y-89164594D01*
X127422330Y-89252720D01*
X127424783Y-89345934D01*
X128253900Y-89345934D01*
X128248143Y-89189895D01*
X128226198Y-88994059D01*
X128190214Y-88815332D01*
X128140241Y-88653845D01*
X128076332Y-88509726D01*
X127998538Y-88383106D01*
X127906911Y-88274115D01*
X127801503Y-88182883D01*
X127756338Y-88151932D01*
X127655389Y-88095785D01*
X127552099Y-88056174D01*
X127442011Y-88032014D01*
X127320670Y-88022219D01*
X127228164Y-88023265D01*
X127098510Y-88034231D01*
X126985916Y-88056046D01*
X126887125Y-88089714D01*
X126798879Y-88136236D01*
X126750014Y-88170448D01*
X126720647Y-88192362D01*
X126698957Y-88207333D01*
X126690747Y-88211733D01*
X126689132Y-88200904D01*
X126687841Y-88170251D01*
X126686862Y-88122526D01*
X126686183Y-88060479D01*
X126685790Y-87986862D01*
X126685670Y-87904427D01*
X126685812Y-87815925D01*
X126686203Y-87724107D01*
X126686829Y-87631724D01*
X126687680Y-87541528D01*
X126688740Y-87456271D01*
X126689999Y-87378703D01*
X126691444Y-87311576D01*
X126693062Y-87257641D01*
X126694839Y-87219650D01*
X126695331Y-87212667D01*
X126702908Y-87142251D01*
X126714469Y-87087102D01*
X126732208Y-87039981D01*
X126758318Y-86993647D01*
X126764585Y-86984067D01*
X126789017Y-86947378D01*
X125883689Y-86947378D01*
X125883493Y-88632245D01*
G37*
X125883493Y-88632245D02*
X125883474Y-88866662D01*
X125883448Y-89079603D01*
X125883375Y-89272168D01*
X125883218Y-89445459D01*
X125882936Y-89600576D01*
X125882491Y-89738620D01*
X125881844Y-89860692D01*
X125880955Y-89967894D01*
X125879787Y-90061326D01*
X125878299Y-90142090D01*
X125876454Y-90211286D01*
X125874211Y-90270015D01*
X125871531Y-90319379D01*
X125868377Y-90360478D01*
X125864708Y-90394413D01*
X125860487Y-90422286D01*
X125855673Y-90445198D01*
X125850227Y-90464249D01*
X125844112Y-90480540D01*
X125837288Y-90495173D01*
X125829715Y-90509249D01*
X125821355Y-90523868D01*
X125816161Y-90532974D01*
X125781896Y-90593689D01*
X126640045Y-90593689D01*
X126640045Y-90497733D01*
X126640776Y-90454370D01*
X126642728Y-90421205D01*
X126645537Y-90403424D01*
X126646779Y-90401778D01*
X126658201Y-90408662D01*
X126680916Y-90426505D01*
X126703615Y-90445879D01*
X126758200Y-90486614D01*
X126827679Y-90527617D01*
X126904730Y-90565123D01*
X126982035Y-90595364D01*
X127012887Y-90605012D01*
X127081384Y-90619578D01*
X127164236Y-90629539D01*
X127253629Y-90634583D01*
X127341752Y-90634396D01*
X127420793Y-90628666D01*
X127458489Y-90622858D01*
X127596586Y-90584797D01*
X127723887Y-90527073D01*
X127839708Y-90450211D01*
X127943363Y-90354739D01*
X128034167Y-90241179D01*
X128100969Y-90130381D01*
X128155836Y-90013625D01*
X128197837Y-89894276D01*
X128227833Y-89768283D01*
X128246689Y-89631594D01*
X128255268Y-89480158D01*
X128255994Y-89402711D01*
X128253900Y-89345934D01*
X127424783Y-89345934D01*
X127424576Y-89439002D01*
X127421663Y-89526692D01*
X127416000Y-89603772D01*
X127407545Y-89665009D01*
X127404962Y-89677350D01*
X127373160Y-89784633D01*
X127331502Y-89871658D01*
X127279637Y-89938642D01*
X127217219Y-89985805D01*
X127143900Y-90013365D01*
X127059331Y-90021541D01*
X126963165Y-90010551D01*
X126899689Y-89994829D01*
X126850546Y-89976639D01*
X126796417Y-89950791D01*
X126755756Y-89927089D01*
X126685200Y-89880721D01*
X126685200Y-88730530D01*
X126752608Y-88686962D01*
X126831133Y-88646040D01*
X126915319Y-88619389D01*
X127000443Y-88607465D01*
X127081784Y-88610722D01*
X127154620Y-88629615D01*
X127186574Y-88645184D01*
X127244499Y-88688181D01*
X127293456Y-88744953D01*
X127334610Y-88817575D01*
X127369126Y-88908121D01*
X127398167Y-89018666D01*
X127399448Y-89024533D01*
X127409619Y-89086788D01*
X127417261Y-89164594D01*
X127422330Y-89252720D01*
X127424783Y-89345934D01*
X128253900Y-89345934D01*
X128248143Y-89189895D01*
X128226198Y-88994059D01*
X128190214Y-88815332D01*
X128140241Y-88653845D01*
X128076332Y-88509726D01*
X127998538Y-88383106D01*
X127906911Y-88274115D01*
X127801503Y-88182883D01*
X127756338Y-88151932D01*
X127655389Y-88095785D01*
X127552099Y-88056174D01*
X127442011Y-88032014D01*
X127320670Y-88022219D01*
X127228164Y-88023265D01*
X127098510Y-88034231D01*
X126985916Y-88056046D01*
X126887125Y-88089714D01*
X126798879Y-88136236D01*
X126750014Y-88170448D01*
X126720647Y-88192362D01*
X126698957Y-88207333D01*
X126690747Y-88211733D01*
X126689132Y-88200904D01*
X126687841Y-88170251D01*
X126686862Y-88122526D01*
X126686183Y-88060479D01*
X126685790Y-87986862D01*
X126685670Y-87904427D01*
X126685812Y-87815925D01*
X126686203Y-87724107D01*
X126686829Y-87631724D01*
X126687680Y-87541528D01*
X126688740Y-87456271D01*
X126689999Y-87378703D01*
X126691444Y-87311576D01*
X126693062Y-87257641D01*
X126694839Y-87219650D01*
X126695331Y-87212667D01*
X126702908Y-87142251D01*
X126714469Y-87087102D01*
X126732208Y-87039981D01*
X126758318Y-86993647D01*
X126764585Y-86984067D01*
X126789017Y-86947378D01*
X125883689Y-86947378D01*
X125883493Y-88632245D01*
G36*
X129396426Y-88026552D02*
G01*
X129244508Y-88046567D01*
X129109244Y-88080202D01*
X128989761Y-88127725D01*
X128885185Y-88189405D01*
X128807576Y-88252965D01*
X128738735Y-88327099D01*
X128684994Y-88406871D01*
X128642090Y-88499091D01*
X128626616Y-88542161D01*
X128613756Y-88581142D01*
X128602554Y-88617289D01*
X128592880Y-88652434D01*
X128584604Y-88688410D01*
X128577597Y-88727050D01*
X128571728Y-88770185D01*
X128566869Y-88819649D01*
X128562890Y-88877273D01*
X128559660Y-88944891D01*
X128557051Y-89024334D01*
X128554933Y-89117436D01*
X128553176Y-89226027D01*
X128551651Y-89351942D01*
X128550228Y-89497012D01*
X128548975Y-89639778D01*
X128547649Y-89795968D01*
X128546444Y-89931239D01*
X128545234Y-90047246D01*
X128543894Y-90145645D01*
X128542300Y-90228093D01*
X128540325Y-90296246D01*
X128537844Y-90351760D01*
X128534731Y-90396292D01*
X128530862Y-90431498D01*
X128526111Y-90459034D01*
X128520352Y-90480556D01*
X128513461Y-90497722D01*
X128505311Y-90512186D01*
X128495777Y-90525606D01*
X128484734Y-90539638D01*
X128480434Y-90545071D01*
X128464614Y-90567910D01*
X128457578Y-90583463D01*
X128457556Y-90583922D01*
X128468433Y-90586121D01*
X128499418Y-90588147D01*
X128548043Y-90589942D01*
X128611837Y-90591451D01*
X128688331Y-90592616D01*
X128775056Y-90593380D01*
X128869543Y-90593686D01*
X128880450Y-90593689D01*
X129303343Y-90593689D01*
X129306605Y-90497622D01*
X129309867Y-90401556D01*
X129371956Y-90452543D01*
X129469286Y-90520057D01*
X129579187Y-90574749D01*
X129665651Y-90604978D01*
X129734722Y-90619666D01*
X129818075Y-90629659D01*
X129907841Y-90634646D01*
X129996155Y-90634313D01*
X130075149Y-90628351D01*
X130111378Y-90622638D01*
X130251397Y-90584776D01*
X130377822Y-90529932D01*
X130489740Y-90458924D01*
X130586238Y-90372568D01*
X130666400Y-90271679D01*
X130729313Y-90157076D01*
X130773688Y-90030984D01*
X130786022Y-89974401D01*
X130793632Y-89912202D01*
X130797261Y-89837363D01*
X130797755Y-89803467D01*
X130797690Y-89800282D01*
X130037752Y-89800282D01*
X130028459Y-89875333D01*
X130000272Y-89939160D01*
X129951803Y-89994798D01*
X129946746Y-89999211D01*
X129898452Y-90034037D01*
X129846743Y-90056620D01*
X129786011Y-90068540D01*
X129710648Y-90071383D01*
X129692541Y-90070978D01*
X129638722Y-90068325D01*
X129598692Y-90062909D01*
X129563676Y-90052745D01*
X129524897Y-90035850D01*
X129514255Y-90030672D01*
X129453604Y-89994844D01*
X129406785Y-89952212D01*
X129394048Y-89936973D01*
X129349378Y-89880462D01*
X129349378Y-89684586D01*
X129349914Y-89605939D01*
X129351604Y-89547988D01*
X129354572Y-89508875D01*
X129358943Y-89486741D01*
X129363028Y-89480274D01*
X129378953Y-89477111D01*
X129412736Y-89474488D01*
X129459660Y-89472655D01*
X129515007Y-89471857D01*
X129523894Y-89471842D01*
X129644670Y-89477096D01*
X129747340Y-89493263D01*
X129833894Y-89520961D01*
X129906319Y-89560808D01*
X129961249Y-89607758D01*
X130005796Y-89665645D01*
X130030520Y-89728693D01*
X130037752Y-89800282D01*
X130797690Y-89800282D01*
X130795822Y-89709712D01*
X130787478Y-89630812D01*
X130771232Y-89559590D01*
X130745595Y-89488864D01*
X130721599Y-89436493D01*
X130662980Y-89341196D01*
X130584883Y-89253170D01*
X130489685Y-89174017D01*
X130379762Y-89105340D01*
X130257490Y-89048741D01*
X130125245Y-89005821D01*
X130060578Y-88990882D01*
X129924396Y-88968777D01*
X129775951Y-88954194D01*
X129624495Y-88947813D01*
X129497936Y-88949445D01*
X129336050Y-88956224D01*
X129343470Y-88897245D01*
X129362762Y-88798092D01*
X129393896Y-88717372D01*
X129437731Y-88654466D01*
X129495129Y-88608756D01*
X129566952Y-88579622D01*
X129654059Y-88566447D01*
X129757314Y-88568611D01*
X129795289Y-88572612D01*
X129936480Y-88597780D01*
X130073293Y-88638814D01*
X130167822Y-88676815D01*
X130212982Y-88696190D01*
X130251415Y-88711760D01*
X130277766Y-88721405D01*
X130285454Y-88723452D01*
X130295198Y-88714374D01*
X130311917Y-88685405D01*
X130335768Y-88636217D01*
X130366907Y-88566484D01*
X130405493Y-88475879D01*
X130412090Y-88460089D01*
X130442147Y-88387772D01*
X130469126Y-88322425D01*
X130491864Y-88266906D01*
X130509194Y-88224072D01*
X130519952Y-88196781D01*
X130523059Y-88187942D01*
X130513060Y-88183187D01*
X130486783Y-88177910D01*
X130458511Y-88174231D01*
X130428354Y-88169474D01*
X130380567Y-88160028D01*
X130319388Y-88146820D01*
X130249054Y-88130776D01*
X130173806Y-88112820D01*
X130145245Y-88105797D01*
X130040184Y-88080209D01*
X129952520Y-88060147D01*
X129877932Y-88044969D01*
X129812097Y-88034035D01*
X129750693Y-88026704D01*
X129689398Y-88022335D01*
X129623890Y-88020287D01*
X129565872Y-88019889D01*
X129396426Y-88026552D01*
G37*
X129396426Y-88026552D02*
X129244508Y-88046567D01*
X129109244Y-88080202D01*
X128989761Y-88127725D01*
X128885185Y-88189405D01*
X128807576Y-88252965D01*
X128738735Y-88327099D01*
X128684994Y-88406871D01*
X128642090Y-88499091D01*
X128626616Y-88542161D01*
X128613756Y-88581142D01*
X128602554Y-88617289D01*
X128592880Y-88652434D01*
X128584604Y-88688410D01*
X128577597Y-88727050D01*
X128571728Y-88770185D01*
X128566869Y-88819649D01*
X128562890Y-88877273D01*
X128559660Y-88944891D01*
X128557051Y-89024334D01*
X128554933Y-89117436D01*
X128553176Y-89226027D01*
X128551651Y-89351942D01*
X128550228Y-89497012D01*
X128548975Y-89639778D01*
X128547649Y-89795968D01*
X128546444Y-89931239D01*
X128545234Y-90047246D01*
X128543894Y-90145645D01*
X128542300Y-90228093D01*
X128540325Y-90296246D01*
X128537844Y-90351760D01*
X128534731Y-90396292D01*
X128530862Y-90431498D01*
X128526111Y-90459034D01*
X128520352Y-90480556D01*
X128513461Y-90497722D01*
X128505311Y-90512186D01*
X128495777Y-90525606D01*
X128484734Y-90539638D01*
X128480434Y-90545071D01*
X128464614Y-90567910D01*
X128457578Y-90583463D01*
X128457556Y-90583922D01*
X128468433Y-90586121D01*
X128499418Y-90588147D01*
X128548043Y-90589942D01*
X128611837Y-90591451D01*
X128688331Y-90592616D01*
X128775056Y-90593380D01*
X128869543Y-90593686D01*
X128880450Y-90593689D01*
X129303343Y-90593689D01*
X129306605Y-90497622D01*
X129309867Y-90401556D01*
X129371956Y-90452543D01*
X129469286Y-90520057D01*
X129579187Y-90574749D01*
X129665651Y-90604978D01*
X129734722Y-90619666D01*
X129818075Y-90629659D01*
X129907841Y-90634646D01*
X129996155Y-90634313D01*
X130075149Y-90628351D01*
X130111378Y-90622638D01*
X130251397Y-90584776D01*
X130377822Y-90529932D01*
X130489740Y-90458924D01*
X130586238Y-90372568D01*
X130666400Y-90271679D01*
X130729313Y-90157076D01*
X130773688Y-90030984D01*
X130786022Y-89974401D01*
X130793632Y-89912202D01*
X130797261Y-89837363D01*
X130797755Y-89803467D01*
X130797690Y-89800282D01*
X130037752Y-89800282D01*
X130028459Y-89875333D01*
X130000272Y-89939160D01*
X129951803Y-89994798D01*
X129946746Y-89999211D01*
X129898452Y-90034037D01*
X129846743Y-90056620D01*
X129786011Y-90068540D01*
X129710648Y-90071383D01*
X129692541Y-90070978D01*
X129638722Y-90068325D01*
X129598692Y-90062909D01*
X129563676Y-90052745D01*
X129524897Y-90035850D01*
X129514255Y-90030672D01*
X129453604Y-89994844D01*
X129406785Y-89952212D01*
X129394048Y-89936973D01*
X129349378Y-89880462D01*
X129349378Y-89684586D01*
X129349914Y-89605939D01*
X129351604Y-89547988D01*
X129354572Y-89508875D01*
X129358943Y-89486741D01*
X129363028Y-89480274D01*
X129378953Y-89477111D01*
X129412736Y-89474488D01*
X129459660Y-89472655D01*
X129515007Y-89471857D01*
X129523894Y-89471842D01*
X129644670Y-89477096D01*
X129747340Y-89493263D01*
X129833894Y-89520961D01*
X129906319Y-89560808D01*
X129961249Y-89607758D01*
X130005796Y-89665645D01*
X130030520Y-89728693D01*
X130037752Y-89800282D01*
X130797690Y-89800282D01*
X130795822Y-89709712D01*
X130787478Y-89630812D01*
X130771232Y-89559590D01*
X130745595Y-89488864D01*
X130721599Y-89436493D01*
X130662980Y-89341196D01*
X130584883Y-89253170D01*
X130489685Y-89174017D01*
X130379762Y-89105340D01*
X130257490Y-89048741D01*
X130125245Y-89005821D01*
X130060578Y-88990882D01*
X129924396Y-88968777D01*
X129775951Y-88954194D01*
X129624495Y-88947813D01*
X129497936Y-88949445D01*
X129336050Y-88956224D01*
X129343470Y-88897245D01*
X129362762Y-88798092D01*
X129393896Y-88717372D01*
X129437731Y-88654466D01*
X129495129Y-88608756D01*
X129566952Y-88579622D01*
X129654059Y-88566447D01*
X129757314Y-88568611D01*
X129795289Y-88572612D01*
X129936480Y-88597780D01*
X130073293Y-88638814D01*
X130167822Y-88676815D01*
X130212982Y-88696190D01*
X130251415Y-88711760D01*
X130277766Y-88721405D01*
X130285454Y-88723452D01*
X130295198Y-88714374D01*
X130311917Y-88685405D01*
X130335768Y-88636217D01*
X130366907Y-88566484D01*
X130405493Y-88475879D01*
X130412090Y-88460089D01*
X130442147Y-88387772D01*
X130469126Y-88322425D01*
X130491864Y-88266906D01*
X130509194Y-88224072D01*
X130519952Y-88196781D01*
X130523059Y-88187942D01*
X130513060Y-88183187D01*
X130486783Y-88177910D01*
X130458511Y-88174231D01*
X130428354Y-88169474D01*
X130380567Y-88160028D01*
X130319388Y-88146820D01*
X130249054Y-88130776D01*
X130173806Y-88112820D01*
X130145245Y-88105797D01*
X130040184Y-88080209D01*
X129952520Y-88060147D01*
X129877932Y-88044969D01*
X129812097Y-88034035D01*
X129750693Y-88026704D01*
X129689398Y-88022335D01*
X129623890Y-88020287D01*
X129565872Y-88019889D01*
X129396426Y-88026552D01*
G36*
X131741571Y-87109071D02*
G01*
X131581430Y-87130245D01*
X131417490Y-87170385D01*
X131247687Y-87229889D01*
X131069957Y-87309154D01*
X131058690Y-87314699D01*
X131000995Y-87342725D01*
X130949448Y-87366802D01*
X130907809Y-87385249D01*
X130879838Y-87396386D01*
X130870267Y-87398933D01*
X130851050Y-87403941D01*
X130846439Y-87408147D01*
X130851542Y-87418580D01*
X130867582Y-87444868D01*
X130892712Y-87484257D01*
X130925086Y-87533991D01*
X130962857Y-87591315D01*
X131004178Y-87653476D01*
X131047202Y-87717718D01*
X131090083Y-87781285D01*
X131130974Y-87841425D01*
X131168029Y-87895380D01*
X131199400Y-87940397D01*
X131223241Y-87973721D01*
X131237706Y-87992597D01*
X131239691Y-87994787D01*
X131249809Y-87990138D01*
X131272150Y-87972962D01*
X131302720Y-87946440D01*
X131318464Y-87931964D01*
X131414953Y-87856682D01*
X131521664Y-87801241D01*
X131637168Y-87766141D01*
X131760038Y-87751880D01*
X131829439Y-87753051D01*
X131950577Y-87770212D01*
X132059795Y-87806094D01*
X132157418Y-87860959D01*
X132243772Y-87935070D01*
X132319185Y-88028688D01*
X132383982Y-88142076D01*
X132421399Y-88228667D01*
X132465252Y-88364366D01*
X132497572Y-88511850D01*
X132518443Y-88667314D01*
X132527949Y-88826956D01*
X132526173Y-88986973D01*
X132513197Y-89143561D01*
X132489106Y-89292918D01*
X132453982Y-89431240D01*
X132407908Y-89554724D01*
X132391627Y-89588978D01*
X132323380Y-89703064D01*
X132242921Y-89799557D01*
X132151430Y-89877670D01*
X132050089Y-89936617D01*
X131940080Y-89975612D01*
X131822585Y-89993868D01*
X131781117Y-89995211D01*
X131659559Y-89984290D01*
X131539122Y-89951474D01*
X131421334Y-89897439D01*
X131307723Y-89822865D01*
X131216315Y-89744539D01*
X131169785Y-89700008D01*
X130988517Y-89997271D01*
X130943420Y-90071433D01*
X130902181Y-90139646D01*
X130866265Y-90199459D01*
X130837134Y-90248420D01*
X130816250Y-90284079D01*
X130805076Y-90303984D01*
X130803625Y-90307079D01*
X130811854Y-90316718D01*
X130837433Y-90333999D01*
X130877127Y-90357283D01*
X130927703Y-90384934D01*
X130985926Y-90415315D01*
X131048563Y-90446790D01*
X131112379Y-90477722D01*
X131174140Y-90506473D01*
X131230612Y-90531408D01*
X131278562Y-90550889D01*
X131302014Y-90559318D01*
X131435779Y-90597133D01*
X131573673Y-90622136D01*
X131721378Y-90635140D01*
X131848167Y-90637468D01*
X131916122Y-90636373D01*
X131981723Y-90634275D01*
X132039153Y-90631434D01*
X132082597Y-90628106D01*
X132096702Y-90626422D01*
X132235716Y-90597587D01*
X132377243Y-90552468D01*
X132514725Y-90493750D01*
X132641606Y-90424120D01*
X132719111Y-90371441D01*
X132846519Y-90263239D01*
X132964822Y-90136671D01*
X133071828Y-89994866D01*
X133165348Y-89840951D01*
X133243190Y-89678053D01*
X133287044Y-89560756D01*
X133337292Y-89377128D01*
X133370791Y-89182581D01*
X133387551Y-88981325D01*
X133387584Y-88777568D01*
X133370899Y-88575521D01*
X133337507Y-88379392D01*
X133287420Y-88193391D01*
X133283603Y-88181803D01*
X133220719Y-88019750D01*
X133143972Y-87871832D01*
X133050758Y-87733865D01*
X132938473Y-87601661D01*
X132894608Y-87556399D01*
X132758466Y-87432457D01*
X132618509Y-87329915D01*
X132472589Y-87247656D01*
X132318558Y-87184564D01*
X132154268Y-87139523D01*
X132058711Y-87122033D01*
X131899977Y-87106466D01*
X131741571Y-87109071D01*
G37*
X131741571Y-87109071D02*
X131581430Y-87130245D01*
X131417490Y-87170385D01*
X131247687Y-87229889D01*
X131069957Y-87309154D01*
X131058690Y-87314699D01*
X131000995Y-87342725D01*
X130949448Y-87366802D01*
X130907809Y-87385249D01*
X130879838Y-87396386D01*
X130870267Y-87398933D01*
X130851050Y-87403941D01*
X130846439Y-87408147D01*
X130851542Y-87418580D01*
X130867582Y-87444868D01*
X130892712Y-87484257D01*
X130925086Y-87533991D01*
X130962857Y-87591315D01*
X131004178Y-87653476D01*
X131047202Y-87717718D01*
X131090083Y-87781285D01*
X131130974Y-87841425D01*
X131168029Y-87895380D01*
X131199400Y-87940397D01*
X131223241Y-87973721D01*
X131237706Y-87992597D01*
X131239691Y-87994787D01*
X131249809Y-87990138D01*
X131272150Y-87972962D01*
X131302720Y-87946440D01*
X131318464Y-87931964D01*
X131414953Y-87856682D01*
X131521664Y-87801241D01*
X131637168Y-87766141D01*
X131760038Y-87751880D01*
X131829439Y-87753051D01*
X131950577Y-87770212D01*
X132059795Y-87806094D01*
X132157418Y-87860959D01*
X132243772Y-87935070D01*
X132319185Y-88028688D01*
X132383982Y-88142076D01*
X132421399Y-88228667D01*
X132465252Y-88364366D01*
X132497572Y-88511850D01*
X132518443Y-88667314D01*
X132527949Y-88826956D01*
X132526173Y-88986973D01*
X132513197Y-89143561D01*
X132489106Y-89292918D01*
X132453982Y-89431240D01*
X132407908Y-89554724D01*
X132391627Y-89588978D01*
X132323380Y-89703064D01*
X132242921Y-89799557D01*
X132151430Y-89877670D01*
X132050089Y-89936617D01*
X131940080Y-89975612D01*
X131822585Y-89993868D01*
X131781117Y-89995211D01*
X131659559Y-89984290D01*
X131539122Y-89951474D01*
X131421334Y-89897439D01*
X131307723Y-89822865D01*
X131216315Y-89744539D01*
X131169785Y-89700008D01*
X130988517Y-89997271D01*
X130943420Y-90071433D01*
X130902181Y-90139646D01*
X130866265Y-90199459D01*
X130837134Y-90248420D01*
X130816250Y-90284079D01*
X130805076Y-90303984D01*
X130803625Y-90307079D01*
X130811854Y-90316718D01*
X130837433Y-90333999D01*
X130877127Y-90357283D01*
X130927703Y-90384934D01*
X130985926Y-90415315D01*
X131048563Y-90446790D01*
X131112379Y-90477722D01*
X131174140Y-90506473D01*
X131230612Y-90531408D01*
X131278562Y-90550889D01*
X131302014Y-90559318D01*
X131435779Y-90597133D01*
X131573673Y-90622136D01*
X131721378Y-90635140D01*
X131848167Y-90637468D01*
X131916122Y-90636373D01*
X131981723Y-90634275D01*
X132039153Y-90631434D01*
X132082597Y-90628106D01*
X132096702Y-90626422D01*
X132235716Y-90597587D01*
X132377243Y-90552468D01*
X132514725Y-90493750D01*
X132641606Y-90424120D01*
X132719111Y-90371441D01*
X132846519Y-90263239D01*
X132964822Y-90136671D01*
X133071828Y-89994866D01*
X133165348Y-89840951D01*
X133243190Y-89678053D01*
X133287044Y-89560756D01*
X133337292Y-89377128D01*
X133370791Y-89182581D01*
X133387551Y-88981325D01*
X133387584Y-88777568D01*
X133370899Y-88575521D01*
X133337507Y-88379392D01*
X133287420Y-88193391D01*
X133283603Y-88181803D01*
X133220719Y-88019750D01*
X133143972Y-87871832D01*
X133050758Y-87733865D01*
X132938473Y-87601661D01*
X132894608Y-87556399D01*
X132758466Y-87432457D01*
X132618509Y-87329915D01*
X132472589Y-87247656D01*
X132318558Y-87184564D01*
X132154268Y-87139523D01*
X132058711Y-87122033D01*
X131899977Y-87106466D01*
X131741571Y-87109071D01*
G36*
X135016400Y-86649054D02*
G01*
X135005535Y-86762993D01*
X134973918Y-86870616D01*
X134923015Y-86969615D01*
X134854293Y-87057684D01*
X134769219Y-87132516D01*
X134672232Y-87190384D01*
X134565964Y-87230005D01*
X134458950Y-87248573D01*
X134353300Y-87247434D01*
X134251125Y-87227930D01*
X134154534Y-87191406D01*
X134065638Y-87139205D01*
X133986546Y-87072673D01*
X133919369Y-86993152D01*
X133866217Y-86901987D01*
X133829199Y-86800523D01*
X133810427Y-86690102D01*
X133808489Y-86640206D01*
X133808489Y-86552267D01*
X133756560Y-86552267D01*
X133720253Y-86555111D01*
X133693355Y-86566911D01*
X133666249Y-86590649D01*
X133627867Y-86629031D01*
X133627867Y-88820602D01*
X133627876Y-89082739D01*
X133627908Y-89323241D01*
X133627972Y-89543048D01*
X133628076Y-89743101D01*
X133628227Y-89924344D01*
X133628434Y-90087716D01*
X133628706Y-90234160D01*
X133629050Y-90364617D01*
X133629474Y-90480029D01*
X133629987Y-90581338D01*
X133630597Y-90669484D01*
X133631312Y-90745410D01*
X133632140Y-90810057D01*
X133633089Y-90864367D01*
X133634167Y-90909280D01*
X133635383Y-90945740D01*
X133636745Y-90974687D01*
X133638261Y-90997063D01*
X133639938Y-91013809D01*
X133641786Y-91025868D01*
X133643813Y-91034180D01*
X133646025Y-91039687D01*
X133647108Y-91041537D01*
X133651271Y-91048549D01*
X133654805Y-91054996D01*
X133658635Y-91060900D01*
X133663682Y-91066286D01*
X133670871Y-91071178D01*
X133681123Y-91075598D01*
X133695364Y-91079572D01*
X133714514Y-91083121D01*
X133739499Y-91086270D01*
X133771240Y-91089042D01*
X133810662Y-91091461D01*
X133858686Y-91093551D01*
X133916237Y-91095335D01*
X133984237Y-91096837D01*
X134063610Y-91098080D01*
X134155279Y-91099089D01*
X134260166Y-91099885D01*
X134379196Y-91100494D01*
X134513290Y-91100939D01*
X134663373Y-91101243D01*
X134830367Y-91101430D01*
X135015196Y-91101524D01*
X135218783Y-91101548D01*
X135442050Y-91101525D01*
X135685922Y-91101480D01*
X135951321Y-91101437D01*
X135989704Y-91101432D01*
X136256682Y-91101389D01*
X136502002Y-91101318D01*
X136726583Y-91101213D01*
X136931345Y-91101066D01*
X137117206Y-91100869D01*
X137285088Y-91100616D01*
X137435908Y-91100300D01*
X137570587Y-91099913D01*
X137690044Y-91099447D01*
X137795199Y-91098897D01*
X137886971Y-91098253D01*
X137966279Y-91097511D01*
X138034043Y-91096661D01*
X138091182Y-91095697D01*
X138138617Y-91094611D01*
X138177266Y-91093397D01*
X138208049Y-91092047D01*
X138231885Y-91090555D01*
X138249694Y-91088911D01*
X138262395Y-91087111D01*
X138270908Y-91085145D01*
X138275266Y-91083477D01*
X138283728Y-91079906D01*
X138291497Y-91077270D01*
X138298602Y-91074634D01*
X138305073Y-91071062D01*
X138310939Y-91065621D01*
X138316229Y-91057375D01*
X138320974Y-91045390D01*
X138325202Y-91028731D01*
X138328943Y-91006463D01*
X138332227Y-90977652D01*
X138335083Y-90941363D01*
X138337540Y-90896661D01*
X138339629Y-90842611D01*
X138341378Y-90778279D01*
X138342817Y-90702730D01*
X138343976Y-90615030D01*
X138344883Y-90514243D01*
X138345569Y-90399434D01*
X138346063Y-90269670D01*
X138346395Y-90124015D01*
X138346593Y-89961535D01*
X138346687Y-89781295D01*
X138346708Y-89582360D01*
X138346685Y-89363796D01*
X138346646Y-89124668D01*
X138346622Y-88864040D01*
X138346622Y-88821889D01*
X138346636Y-88558992D01*
X138346661Y-88317732D01*
X138346671Y-88097165D01*
X138346642Y-87896352D01*
X138346548Y-87714349D01*
X138346362Y-87550216D01*
X138346059Y-87403011D01*
X138345614Y-87271792D01*
X138345034Y-87161867D01*
X138042197Y-87161867D01*
X138002407Y-87219711D01*
X137991236Y-87235479D01*
X137981166Y-87249441D01*
X137972138Y-87262784D01*
X137964097Y-87276693D01*
X137956986Y-87292356D01*
X137950747Y-87310958D01*
X137945325Y-87333686D01*
X137940662Y-87361727D01*
X137936701Y-87396267D01*
X137933385Y-87438492D01*
X137930659Y-87489589D01*
X137928464Y-87550744D01*
X137926745Y-87623144D01*
X137925444Y-87707975D01*
X137924505Y-87806422D01*
X137923870Y-87919674D01*
X137923484Y-88048916D01*
X137923288Y-88195334D01*
X137923227Y-88360116D01*
X137923243Y-88544447D01*
X137923280Y-88749513D01*
X137923289Y-88872133D01*
X137923265Y-89089082D01*
X137923231Y-89284642D01*
X137923243Y-89459999D01*
X137923358Y-89616341D01*
X137923630Y-89754857D01*
X137924118Y-89876734D01*
X137924876Y-89983160D01*
X137925962Y-90075322D01*
X137927431Y-90154409D01*
X137929340Y-90221608D01*
X137931744Y-90278107D01*
X137934701Y-90325093D01*
X137938266Y-90363755D01*
X137942495Y-90395280D01*
X137947446Y-90420855D01*
X137953173Y-90441670D01*
X137959733Y-90458911D01*
X137967183Y-90473765D01*
X137975579Y-90487422D01*
X137984976Y-90501069D01*
X137995432Y-90515893D01*
X138001523Y-90524783D01*
X138040296Y-90582400D01*
X137508732Y-90582400D01*
X137385483Y-90582365D01*
X137282987Y-90582215D01*
X137199420Y-90581878D01*
X137132956Y-90581286D01*
X137081771Y-90580367D01*
X137044041Y-90579051D01*
X137017940Y-90577269D01*
X137001644Y-90574951D01*
X136993328Y-90572026D01*
X136991168Y-90568424D01*
X136993339Y-90564075D01*
X136994535Y-90562645D01*
X137019685Y-90525573D01*
X137045583Y-90472772D01*
X137069192Y-90410770D01*
X137077461Y-90384357D01*
X137082078Y-90366416D01*
X137085979Y-90345355D01*
X137089248Y-90319089D01*
X137091966Y-90285532D01*
X137094215Y-90242599D01*
X137096077Y-90188204D01*
X137097636Y-90120262D01*
X137098972Y-90036688D01*
X137100169Y-89935395D01*
X137101308Y-89814300D01*
X137101685Y-89769600D01*
X137102702Y-89644449D01*
X137103460Y-89540082D01*
X137103903Y-89454707D01*
X137103970Y-89386533D01*
X137103605Y-89333765D01*
X137102748Y-89294614D01*
X137101341Y-89267285D01*
X137099325Y-89249986D01*
X137096643Y-89240926D01*
X137093236Y-89238312D01*
X137089044Y-89240351D01*
X137084571Y-89244667D01*
X137074216Y-89257602D01*
X137052158Y-89286676D01*
X137019957Y-89329759D01*
X136979174Y-89384718D01*
X136931370Y-89449423D01*
X136878105Y-89521742D01*
X136820940Y-89599544D01*
X136761437Y-89680698D01*
X136701155Y-89763072D01*
X136641655Y-89844536D01*
X136584498Y-89922957D01*
X136531245Y-89996204D01*
X136483457Y-90062147D01*
X136442693Y-90118654D01*
X136410516Y-90163593D01*
X136388485Y-90194834D01*
X136383917Y-90201466D01*
X136360996Y-90238369D01*
X136334188Y-90286359D01*
X136308789Y-90335897D01*
X136305568Y-90342577D01*
X136283890Y-90390772D01*
X136271304Y-90428334D01*
X136265574Y-90464160D01*
X136264456Y-90506200D01*
X136265090Y-90582400D01*
X135110651Y-90582400D01*
X135201815Y-90488669D01*
X135248612Y-90438775D01*
X135298899Y-90382295D01*
X135344944Y-90328026D01*
X135365369Y-90302673D01*
X135395807Y-90263128D01*
X135435862Y-90209916D01*
X135484361Y-90144667D01*
X135540135Y-90069011D01*
X135602011Y-89984577D01*
X135668819Y-89892994D01*
X135739387Y-89795892D01*
X135812545Y-89694901D01*
X135887121Y-89591650D01*
X135961944Y-89487768D01*
X136035843Y-89384885D01*
X136107646Y-89284631D01*
X136176184Y-89188636D01*
X136240284Y-89098527D01*
X136298775Y-89015936D01*
X136350486Y-88942492D01*
X136394247Y-88879824D01*
X136428885Y-88829561D01*
X136453230Y-88793334D01*
X136466111Y-88772771D01*
X136467869Y-88768668D01*
X136459910Y-88757342D01*
X136439115Y-88730162D01*
X136406847Y-88688829D01*
X136364470Y-88635044D01*
X136313347Y-88570506D01*
X136254841Y-88496918D01*
X136190314Y-88415978D01*
X136121131Y-88329388D01*
X136048653Y-88238848D01*
X135974246Y-88146060D01*
X135914517Y-88071702D01*
X134903511Y-88071702D01*
X134897602Y-88084659D01*
X134883272Y-88106908D01*
X134882225Y-88108391D01*
X134863438Y-88138544D01*
X134843791Y-88175375D01*
X134839892Y-88183511D01*
X134836356Y-88191940D01*
X134833230Y-88202059D01*
X134830486Y-88215260D01*
X134828092Y-88232938D01*
X134826019Y-88256484D01*
X134824235Y-88287293D01*
X134822712Y-88326757D01*
X134821419Y-88376269D01*
X134820326Y-88437223D01*
X134819403Y-88511011D01*
X134818619Y-88599028D01*
X134817945Y-88702665D01*
X134817350Y-88823316D01*
X134816805Y-88962374D01*
X134816279Y-89121232D01*
X134815745Y-89300089D01*
X134815206Y-89485207D01*
X134814772Y-89649145D01*
X134814509Y-89793303D01*
X134814484Y-89919079D01*
X134814765Y-90027871D01*
X134815419Y-90121077D01*
X134816514Y-90200097D01*
X134818118Y-90266328D01*
X134820297Y-90321170D01*
X134823119Y-90366021D01*
X134826651Y-90402278D01*
X134830961Y-90431341D01*
X134836117Y-90454609D01*
X134842185Y-90473479D01*
X134849233Y-90489351D01*
X134857329Y-90503622D01*
X134866540Y-90517691D01*
X134875040Y-90530158D01*
X134892176Y-90556452D01*
X134902322Y-90574037D01*
X134903511Y-90577257D01*
X134892604Y-90578334D01*
X134861411Y-90579335D01*
X134812223Y-90580235D01*
X134747333Y-90581010D01*
X134669030Y-90581637D01*
X134579607Y-90582091D01*
X134481356Y-90582349D01*
X134412445Y-90582400D01*
X134307452Y-90582180D01*
X134210610Y-90581548D01*
X134124107Y-90580549D01*
X134050132Y-90579227D01*
X133990874Y-90577626D01*
X133948520Y-90575791D01*
X133925260Y-90573765D01*
X133921378Y-90572493D01*
X133929076Y-90557591D01*
X133937074Y-90549560D01*
X133950246Y-90532434D01*
X133967485Y-90502183D01*
X133979407Y-90477622D01*
X134006045Y-90418711D01*
X134009120Y-89241845D01*
X134012195Y-88064978D01*
X134457853Y-88064978D01*
X134555670Y-88065142D01*
X134646064Y-88065611D01*
X134726630Y-88066347D01*
X134794962Y-88067316D01*
X134848656Y-88068480D01*
X134885305Y-88069803D01*
X134902504Y-88071249D01*
X134903511Y-88071702D01*
X135914517Y-88071702D01*
X135899270Y-88052722D01*
X135825090Y-87960537D01*
X135753069Y-87871204D01*
X135684569Y-87786424D01*
X135620955Y-87707898D01*
X135563588Y-87637326D01*
X135513833Y-87576409D01*
X135473052Y-87526847D01*
X135455888Y-87506178D01*
X135369596Y-87405516D01*
X135292997Y-87322259D01*
X135224183Y-87254438D01*
X135161248Y-87200089D01*
X135151867Y-87192722D01*
X135112356Y-87162117D01*
X136244116Y-87161867D01*
X136238827Y-87209844D01*
X136242130Y-87267188D01*
X136263661Y-87335463D01*
X136303635Y-87415212D01*
X136348943Y-87487495D01*
X136365161Y-87510140D01*
X136393214Y-87547696D01*
X136431430Y-87598021D01*
X136478137Y-87658973D01*
X136531661Y-87728411D01*
X136590331Y-87804194D01*
X136652475Y-87884180D01*
X136716421Y-87966228D01*
X136780495Y-88048196D01*
X136843027Y-88127943D01*
X136902343Y-88203327D01*
X136956771Y-88272207D01*
X137004639Y-88332442D01*
X137044275Y-88381889D01*
X137074006Y-88418408D01*
X137092161Y-88439858D01*
X137095220Y-88443156D01*
X137098079Y-88435149D01*
X137100293Y-88404855D01*
X137101857Y-88352556D01*
X137102767Y-88278531D01*
X137103020Y-88183063D01*
X137102613Y-88066434D01*
X137101704Y-87946445D01*
X137100382Y-87814333D01*
X137098857Y-87702594D01*
X137096881Y-87609025D01*
X137094206Y-87531419D01*
X137090582Y-87467574D01*
X137085761Y-87415283D01*
X137079494Y-87372344D01*
X137071532Y-87336551D01*
X137061627Y-87305700D01*
X137049531Y-87277586D01*
X137034993Y-87250005D01*
X137020311Y-87224966D01*
X136982314Y-87161867D01*
X138042197Y-87161867D01*
X138345034Y-87161867D01*
X138345001Y-87155617D01*
X138344195Y-87053544D01*
X138343170Y-86964633D01*
X138341900Y-86887941D01*
X138340360Y-86822527D01*
X138338524Y-86767449D01*
X138336367Y-86721765D01*
X138333863Y-86684534D01*
X138330987Y-86654813D01*
X138327713Y-86631662D01*
X138324015Y-86614139D01*
X138319869Y-86601301D01*
X138315247Y-86592208D01*
X138310126Y-86585918D01*
X138304478Y-86581488D01*
X138298279Y-86577978D01*
X138291504Y-86574445D01*
X138285508Y-86570876D01*
X138280275Y-86568300D01*
X138272099Y-86565972D01*
X138259886Y-86563878D01*
X138242541Y-86562007D01*
X138218969Y-86560347D01*
X138188077Y-86558884D01*
X138148768Y-86557608D01*
X138099950Y-86556504D01*
X138040527Y-86555561D01*
X137969404Y-86554767D01*
X137885488Y-86554109D01*
X137787683Y-86553575D01*
X137674894Y-86553153D01*
X137546029Y-86552829D01*
X137399991Y-86552592D01*
X137235686Y-86552430D01*
X137052020Y-86552330D01*
X136847897Y-86552280D01*
X136636753Y-86552267D01*
X135016400Y-86552267D01*
X135016400Y-86649054D01*
G37*
X135016400Y-86649054D02*
X135005535Y-86762993D01*
X134973918Y-86870616D01*
X134923015Y-86969615D01*
X134854293Y-87057684D01*
X134769219Y-87132516D01*
X134672232Y-87190384D01*
X134565964Y-87230005D01*
X134458950Y-87248573D01*
X134353300Y-87247434D01*
X134251125Y-87227930D01*
X134154534Y-87191406D01*
X134065638Y-87139205D01*
X133986546Y-87072673D01*
X133919369Y-86993152D01*
X133866217Y-86901987D01*
X133829199Y-86800523D01*
X133810427Y-86690102D01*
X133808489Y-86640206D01*
X133808489Y-86552267D01*
X133756560Y-86552267D01*
X133720253Y-86555111D01*
X133693355Y-86566911D01*
X133666249Y-86590649D01*
X133627867Y-86629031D01*
X133627867Y-88820602D01*
X133627876Y-89082739D01*
X133627908Y-89323241D01*
X133627972Y-89543048D01*
X133628076Y-89743101D01*
X133628227Y-89924344D01*
X133628434Y-90087716D01*
X133628706Y-90234160D01*
X133629050Y-90364617D01*
X133629474Y-90480029D01*
X133629987Y-90581338D01*
X133630597Y-90669484D01*
X133631312Y-90745410D01*
X133632140Y-90810057D01*
X133633089Y-90864367D01*
X133634167Y-90909280D01*
X133635383Y-90945740D01*
X133636745Y-90974687D01*
X133638261Y-90997063D01*
X133639938Y-91013809D01*
X133641786Y-91025868D01*
X133643813Y-91034180D01*
X133646025Y-91039687D01*
X133647108Y-91041537D01*
X133651271Y-91048549D01*
X133654805Y-91054996D01*
X133658635Y-91060900D01*
X133663682Y-91066286D01*
X133670871Y-91071178D01*
X133681123Y-91075598D01*
X133695364Y-91079572D01*
X133714514Y-91083121D01*
X133739499Y-91086270D01*
X133771240Y-91089042D01*
X133810662Y-91091461D01*
X133858686Y-91093551D01*
X133916237Y-91095335D01*
X133984237Y-91096837D01*
X134063610Y-91098080D01*
X134155279Y-91099089D01*
X134260166Y-91099885D01*
X134379196Y-91100494D01*
X134513290Y-91100939D01*
X134663373Y-91101243D01*
X134830367Y-91101430D01*
X135015196Y-91101524D01*
X135218783Y-91101548D01*
X135442050Y-91101525D01*
X135685922Y-91101480D01*
X135951321Y-91101437D01*
X135989704Y-91101432D01*
X136256682Y-91101389D01*
X136502002Y-91101318D01*
X136726583Y-91101213D01*
X136931345Y-91101066D01*
X137117206Y-91100869D01*
X137285088Y-91100616D01*
X137435908Y-91100300D01*
X137570587Y-91099913D01*
X137690044Y-91099447D01*
X137795199Y-91098897D01*
X137886971Y-91098253D01*
X137966279Y-91097511D01*
X138034043Y-91096661D01*
X138091182Y-91095697D01*
X138138617Y-91094611D01*
X138177266Y-91093397D01*
X138208049Y-91092047D01*
X138231885Y-91090555D01*
X138249694Y-91088911D01*
X138262395Y-91087111D01*
X138270908Y-91085145D01*
X138275266Y-91083477D01*
X138283728Y-91079906D01*
X138291497Y-91077270D01*
X138298602Y-91074634D01*
X138305073Y-91071062D01*
X138310939Y-91065621D01*
X138316229Y-91057375D01*
X138320974Y-91045390D01*
X138325202Y-91028731D01*
X138328943Y-91006463D01*
X138332227Y-90977652D01*
X138335083Y-90941363D01*
X138337540Y-90896661D01*
X138339629Y-90842611D01*
X138341378Y-90778279D01*
X138342817Y-90702730D01*
X138343976Y-90615030D01*
X138344883Y-90514243D01*
X138345569Y-90399434D01*
X138346063Y-90269670D01*
X138346395Y-90124015D01*
X138346593Y-89961535D01*
X138346687Y-89781295D01*
X138346708Y-89582360D01*
X138346685Y-89363796D01*
X138346646Y-89124668D01*
X138346622Y-88864040D01*
X138346622Y-88821889D01*
X138346636Y-88558992D01*
X138346661Y-88317732D01*
X138346671Y-88097165D01*
X138346642Y-87896352D01*
X138346548Y-87714349D01*
X138346362Y-87550216D01*
X138346059Y-87403011D01*
X138345614Y-87271792D01*
X138345034Y-87161867D01*
X138042197Y-87161867D01*
X138002407Y-87219711D01*
X137991236Y-87235479D01*
X137981166Y-87249441D01*
X137972138Y-87262784D01*
X137964097Y-87276693D01*
X137956986Y-87292356D01*
X137950747Y-87310958D01*
X137945325Y-87333686D01*
X137940662Y-87361727D01*
X137936701Y-87396267D01*
X137933385Y-87438492D01*
X137930659Y-87489589D01*
X137928464Y-87550744D01*
X137926745Y-87623144D01*
X137925444Y-87707975D01*
X137924505Y-87806422D01*
X137923870Y-87919674D01*
X137923484Y-88048916D01*
X137923288Y-88195334D01*
X137923227Y-88360116D01*
X137923243Y-88544447D01*
X137923280Y-88749513D01*
X137923289Y-88872133D01*
X137923265Y-89089082D01*
X137923231Y-89284642D01*
X137923243Y-89459999D01*
X137923358Y-89616341D01*
X137923630Y-89754857D01*
X137924118Y-89876734D01*
X137924876Y-89983160D01*
X137925962Y-90075322D01*
X137927431Y-90154409D01*
X137929340Y-90221608D01*
X137931744Y-90278107D01*
X137934701Y-90325093D01*
X137938266Y-90363755D01*
X137942495Y-90395280D01*
X137947446Y-90420855D01*
X137953173Y-90441670D01*
X137959733Y-90458911D01*
X137967183Y-90473765D01*
X137975579Y-90487422D01*
X137984976Y-90501069D01*
X137995432Y-90515893D01*
X138001523Y-90524783D01*
X138040296Y-90582400D01*
X137508732Y-90582400D01*
X137385483Y-90582365D01*
X137282987Y-90582215D01*
X137199420Y-90581878D01*
X137132956Y-90581286D01*
X137081771Y-90580367D01*
X137044041Y-90579051D01*
X137017940Y-90577269D01*
X137001644Y-90574951D01*
X136993328Y-90572026D01*
X136991168Y-90568424D01*
X136993339Y-90564075D01*
X136994535Y-90562645D01*
X137019685Y-90525573D01*
X137045583Y-90472772D01*
X137069192Y-90410770D01*
X137077461Y-90384357D01*
X137082078Y-90366416D01*
X137085979Y-90345355D01*
X137089248Y-90319089D01*
X137091966Y-90285532D01*
X137094215Y-90242599D01*
X137096077Y-90188204D01*
X137097636Y-90120262D01*
X137098972Y-90036688D01*
X137100169Y-89935395D01*
X137101308Y-89814300D01*
X137101685Y-89769600D01*
X137102702Y-89644449D01*
X137103460Y-89540082D01*
X137103903Y-89454707D01*
X137103970Y-89386533D01*
X137103605Y-89333765D01*
X137102748Y-89294614D01*
X137101341Y-89267285D01*
X137099325Y-89249986D01*
X137096643Y-89240926D01*
X137093236Y-89238312D01*
X137089044Y-89240351D01*
X137084571Y-89244667D01*
X137074216Y-89257602D01*
X137052158Y-89286676D01*
X137019957Y-89329759D01*
X136979174Y-89384718D01*
X136931370Y-89449423D01*
X136878105Y-89521742D01*
X136820940Y-89599544D01*
X136761437Y-89680698D01*
X136701155Y-89763072D01*
X136641655Y-89844536D01*
X136584498Y-89922957D01*
X136531245Y-89996204D01*
X136483457Y-90062147D01*
X136442693Y-90118654D01*
X136410516Y-90163593D01*
X136388485Y-90194834D01*
X136383917Y-90201466D01*
X136360996Y-90238369D01*
X136334188Y-90286359D01*
X136308789Y-90335897D01*
X136305568Y-90342577D01*
X136283890Y-90390772D01*
X136271304Y-90428334D01*
X136265574Y-90464160D01*
X136264456Y-90506200D01*
X136265090Y-90582400D01*
X135110651Y-90582400D01*
X135201815Y-90488669D01*
X135248612Y-90438775D01*
X135298899Y-90382295D01*
X135344944Y-90328026D01*
X135365369Y-90302673D01*
X135395807Y-90263128D01*
X135435862Y-90209916D01*
X135484361Y-90144667D01*
X135540135Y-90069011D01*
X135602011Y-89984577D01*
X135668819Y-89892994D01*
X135739387Y-89795892D01*
X135812545Y-89694901D01*
X135887121Y-89591650D01*
X135961944Y-89487768D01*
X136035843Y-89384885D01*
X136107646Y-89284631D01*
X136176184Y-89188636D01*
X136240284Y-89098527D01*
X136298775Y-89015936D01*
X136350486Y-88942492D01*
X136394247Y-88879824D01*
X136428885Y-88829561D01*
X136453230Y-88793334D01*
X136466111Y-88772771D01*
X136467869Y-88768668D01*
X136459910Y-88757342D01*
X136439115Y-88730162D01*
X136406847Y-88688829D01*
X136364470Y-88635044D01*
X136313347Y-88570506D01*
X136254841Y-88496918D01*
X136190314Y-88415978D01*
X136121131Y-88329388D01*
X136048653Y-88238848D01*
X135974246Y-88146060D01*
X135914517Y-88071702D01*
X134903511Y-88071702D01*
X134897602Y-88084659D01*
X134883272Y-88106908D01*
X134882225Y-88108391D01*
X134863438Y-88138544D01*
X134843791Y-88175375D01*
X134839892Y-88183511D01*
X134836356Y-88191940D01*
X134833230Y-88202059D01*
X134830486Y-88215260D01*
X134828092Y-88232938D01*
X134826019Y-88256484D01*
X134824235Y-88287293D01*
X134822712Y-88326757D01*
X134821419Y-88376269D01*
X134820326Y-88437223D01*
X134819403Y-88511011D01*
X134818619Y-88599028D01*
X134817945Y-88702665D01*
X134817350Y-88823316D01*
X134816805Y-88962374D01*
X134816279Y-89121232D01*
X134815745Y-89300089D01*
X134815206Y-89485207D01*
X134814772Y-89649145D01*
X134814509Y-89793303D01*
X134814484Y-89919079D01*
X134814765Y-90027871D01*
X134815419Y-90121077D01*
X134816514Y-90200097D01*
X134818118Y-90266328D01*
X134820297Y-90321170D01*
X134823119Y-90366021D01*
X134826651Y-90402278D01*
X134830961Y-90431341D01*
X134836117Y-90454609D01*
X134842185Y-90473479D01*
X134849233Y-90489351D01*
X134857329Y-90503622D01*
X134866540Y-90517691D01*
X134875040Y-90530158D01*
X134892176Y-90556452D01*
X134902322Y-90574037D01*
X134903511Y-90577257D01*
X134892604Y-90578334D01*
X134861411Y-90579335D01*
X134812223Y-90580235D01*
X134747333Y-90581010D01*
X134669030Y-90581637D01*
X134579607Y-90582091D01*
X134481356Y-90582349D01*
X134412445Y-90582400D01*
X134307452Y-90582180D01*
X134210610Y-90581548D01*
X134124107Y-90580549D01*
X134050132Y-90579227D01*
X133990874Y-90577626D01*
X133948520Y-90575791D01*
X133925260Y-90573765D01*
X133921378Y-90572493D01*
X133929076Y-90557591D01*
X133937074Y-90549560D01*
X133950246Y-90532434D01*
X133967485Y-90502183D01*
X133979407Y-90477622D01*
X134006045Y-90418711D01*
X134009120Y-89241845D01*
X134012195Y-88064978D01*
X134457853Y-88064978D01*
X134555670Y-88065142D01*
X134646064Y-88065611D01*
X134726630Y-88066347D01*
X134794962Y-88067316D01*
X134848656Y-88068480D01*
X134885305Y-88069803D01*
X134902504Y-88071249D01*
X134903511Y-88071702D01*
X135914517Y-88071702D01*
X135899270Y-88052722D01*
X135825090Y-87960537D01*
X135753069Y-87871204D01*
X135684569Y-87786424D01*
X135620955Y-87707898D01*
X135563588Y-87637326D01*
X135513833Y-87576409D01*
X135473052Y-87526847D01*
X135455888Y-87506178D01*
X135369596Y-87405516D01*
X135292997Y-87322259D01*
X135224183Y-87254438D01*
X135161248Y-87200089D01*
X135151867Y-87192722D01*
X135112356Y-87162117D01*
X136244116Y-87161867D01*
X136238827Y-87209844D01*
X136242130Y-87267188D01*
X136263661Y-87335463D01*
X136303635Y-87415212D01*
X136348943Y-87487495D01*
X136365161Y-87510140D01*
X136393214Y-87547696D01*
X136431430Y-87598021D01*
X136478137Y-87658973D01*
X136531661Y-87728411D01*
X136590331Y-87804194D01*
X136652475Y-87884180D01*
X136716421Y-87966228D01*
X136780495Y-88048196D01*
X136843027Y-88127943D01*
X136902343Y-88203327D01*
X136956771Y-88272207D01*
X137004639Y-88332442D01*
X137044275Y-88381889D01*
X137074006Y-88418408D01*
X137092161Y-88439858D01*
X137095220Y-88443156D01*
X137098079Y-88435149D01*
X137100293Y-88404855D01*
X137101857Y-88352556D01*
X137102767Y-88278531D01*
X137103020Y-88183063D01*
X137102613Y-88066434D01*
X137101704Y-87946445D01*
X137100382Y-87814333D01*
X137098857Y-87702594D01*
X137096881Y-87609025D01*
X137094206Y-87531419D01*
X137090582Y-87467574D01*
X137085761Y-87415283D01*
X137079494Y-87372344D01*
X137071532Y-87336551D01*
X137061627Y-87305700D01*
X137049531Y-87277586D01*
X137034993Y-87250005D01*
X137020311Y-87224966D01*
X136982314Y-87161867D01*
X138042197Y-87161867D01*
X138345034Y-87161867D01*
X138345001Y-87155617D01*
X138344195Y-87053544D01*
X138343170Y-86964633D01*
X138341900Y-86887941D01*
X138340360Y-86822527D01*
X138338524Y-86767449D01*
X138336367Y-86721765D01*
X138333863Y-86684534D01*
X138330987Y-86654813D01*
X138327713Y-86631662D01*
X138324015Y-86614139D01*
X138319869Y-86601301D01*
X138315247Y-86592208D01*
X138310126Y-86585918D01*
X138304478Y-86581488D01*
X138298279Y-86577978D01*
X138291504Y-86574445D01*
X138285508Y-86570876D01*
X138280275Y-86568300D01*
X138272099Y-86565972D01*
X138259886Y-86563878D01*
X138242541Y-86562007D01*
X138218969Y-86560347D01*
X138188077Y-86558884D01*
X138148768Y-86557608D01*
X138099950Y-86556504D01*
X138040527Y-86555561D01*
X137969404Y-86554767D01*
X137885488Y-86554109D01*
X137787683Y-86553575D01*
X137674894Y-86553153D01*
X137546029Y-86552829D01*
X137399991Y-86552592D01*
X137235686Y-86552430D01*
X137052020Y-86552330D01*
X136847897Y-86552280D01*
X136636753Y-86552267D01*
X135016400Y-86552267D01*
X135016400Y-86649054D01*
%TO.C,ECI1*%
D12*
X124428000Y-105381285D02*
X123928000Y-105381285D01*
X124249428Y-106131285D01*
X139457714Y-106131285D02*
X139886285Y-106131285D01*
X139672000Y-106131285D02*
X139672000Y-105381285D01*
X139743428Y-105488428D01*
X139814857Y-105559857D01*
X139886285Y-105595571D01*
X135337714Y-106500428D02*
X135230571Y-106536142D01*
X135194857Y-106571857D01*
X135159142Y-106643285D01*
X135159142Y-106750428D01*
X135194857Y-106821857D01*
X135230571Y-106857571D01*
X135302000Y-106893285D01*
X135587714Y-106893285D01*
X135587714Y-106143285D01*
X135337714Y-106143285D01*
X135266285Y-106179000D01*
X135230571Y-106214714D01*
X135194857Y-106286142D01*
X135194857Y-106357571D01*
X135230571Y-106429000D01*
X135266285Y-106464714D01*
X135337714Y-106500428D01*
X135587714Y-106500428D01*
X134516285Y-106893285D02*
X134516285Y-106500428D01*
X134552000Y-106429000D01*
X134623428Y-106393285D01*
X134766285Y-106393285D01*
X134837714Y-106429000D01*
X134516285Y-106857571D02*
X134587714Y-106893285D01*
X134766285Y-106893285D01*
X134837714Y-106857571D01*
X134873428Y-106786142D01*
X134873428Y-106714714D01*
X134837714Y-106643285D01*
X134766285Y-106607571D01*
X134587714Y-106607571D01*
X134516285Y-106571857D01*
X133837714Y-106857571D02*
X133909142Y-106893285D01*
X134052000Y-106893285D01*
X134123428Y-106857571D01*
X134159142Y-106821857D01*
X134194857Y-106750428D01*
X134194857Y-106536142D01*
X134159142Y-106464714D01*
X134123428Y-106429000D01*
X134052000Y-106393285D01*
X133909142Y-106393285D01*
X133837714Y-106429000D01*
X133516285Y-106893285D02*
X133516285Y-106143285D01*
X133444857Y-106607571D02*
X133230571Y-106893285D01*
X133230571Y-106393285D02*
X133516285Y-106679000D01*
X132373428Y-106107571D02*
X133016285Y-107071857D01*
X131873428Y-106500428D02*
X131766285Y-106536142D01*
X131730571Y-106571857D01*
X131694857Y-106643285D01*
X131694857Y-106750428D01*
X131730571Y-106821857D01*
X131766285Y-106857571D01*
X131837714Y-106893285D01*
X132123428Y-106893285D01*
X132123428Y-106143285D01*
X131873428Y-106143285D01*
X131802000Y-106179000D01*
X131766285Y-106214714D01*
X131730571Y-106286142D01*
X131730571Y-106357571D01*
X131766285Y-106429000D01*
X131802000Y-106464714D01*
X131873428Y-106500428D01*
X132123428Y-106500428D01*
X131266285Y-106893285D02*
X131337714Y-106857571D01*
X131373428Y-106821857D01*
X131409142Y-106750428D01*
X131409142Y-106536142D01*
X131373428Y-106464714D01*
X131337714Y-106429000D01*
X131266285Y-106393285D01*
X131159142Y-106393285D01*
X131087714Y-106429000D01*
X131052000Y-106464714D01*
X131016285Y-106536142D01*
X131016285Y-106750428D01*
X131052000Y-106821857D01*
X131087714Y-106857571D01*
X131159142Y-106893285D01*
X131266285Y-106893285D01*
X130802000Y-106393285D02*
X130516285Y-106393285D01*
X130694857Y-106143285D02*
X130694857Y-106786142D01*
X130659142Y-106857571D01*
X130587714Y-106893285D01*
X130516285Y-106893285D01*
X130373428Y-106393285D02*
X130087714Y-106393285D01*
X130266285Y-106143285D02*
X130266285Y-106786142D01*
X130230571Y-106857571D01*
X130159142Y-106893285D01*
X130087714Y-106893285D01*
X129730571Y-106893285D02*
X129802000Y-106857571D01*
X129837714Y-106821857D01*
X129873428Y-106750428D01*
X129873428Y-106536142D01*
X129837714Y-106464714D01*
X129802000Y-106429000D01*
X129730571Y-106393285D01*
X129623428Y-106393285D01*
X129552000Y-106429000D01*
X129516285Y-106464714D01*
X129480571Y-106536142D01*
X129480571Y-106750428D01*
X129516285Y-106821857D01*
X129552000Y-106857571D01*
X129623428Y-106893285D01*
X129730571Y-106893285D01*
X129159142Y-106893285D02*
X129159142Y-106393285D01*
X129159142Y-106464714D02*
X129123428Y-106429000D01*
X129052000Y-106393285D01*
X128944857Y-106393285D01*
X128873428Y-106429000D01*
X128837714Y-106500428D01*
X128837714Y-106893285D01*
X128837714Y-106500428D02*
X128802000Y-106429000D01*
X128730571Y-106393285D01*
X128623428Y-106393285D01*
X128552000Y-106429000D01*
X128516285Y-106500428D01*
X128516285Y-106893285D01*
X126057000Y-108983047D02*
X126057000Y-109983047D01*
X127424380Y-109792571D02*
X126948190Y-109459238D01*
X127424380Y-109221142D02*
X126424380Y-109221142D01*
X126424380Y-109602095D01*
X126472000Y-109697333D01*
X126519619Y-109744952D01*
X126614857Y-109792571D01*
X126757714Y-109792571D01*
X126852952Y-109744952D01*
X126900571Y-109697333D01*
X126948190Y-109602095D01*
X126948190Y-109221142D01*
X126057000Y-109983047D02*
X126057000Y-110887809D01*
X126900571Y-110221142D02*
X126900571Y-110554476D01*
X127424380Y-110697333D02*
X127424380Y-110221142D01*
X126424380Y-110221142D01*
X126424380Y-110697333D01*
X126057000Y-110887809D02*
X126057000Y-111744952D01*
X126900571Y-111459238D02*
X126900571Y-111125904D01*
X127424380Y-111125904D02*
X126424380Y-111125904D01*
X126424380Y-111602095D01*
X129678666Y-107832190D02*
X129678666Y-108308380D01*
X129964380Y-107736952D02*
X128964380Y-108070285D01*
X129964380Y-108403619D01*
X128964380Y-108736952D02*
X129773904Y-108736952D01*
X129869142Y-108784571D01*
X129916761Y-108832190D01*
X129964380Y-108927428D01*
X129964380Y-109117904D01*
X129916761Y-109213142D01*
X129869142Y-109260761D01*
X129773904Y-109308380D01*
X128964380Y-109308380D01*
X129964380Y-109784571D02*
X128964380Y-109784571D01*
X128964380Y-110022666D01*
X129012000Y-110165523D01*
X129107238Y-110260761D01*
X129202476Y-110308380D01*
X129392952Y-110356000D01*
X129535809Y-110356000D01*
X129726285Y-110308380D01*
X129821523Y-110260761D01*
X129916761Y-110165523D01*
X129964380Y-110022666D01*
X129964380Y-109784571D01*
X129964380Y-110784571D02*
X128964380Y-110784571D01*
X128964380Y-111451238D02*
X128964380Y-111641714D01*
X129012000Y-111736952D01*
X129107238Y-111832190D01*
X129297714Y-111879809D01*
X129631047Y-111879809D01*
X129821523Y-111832190D01*
X129916761Y-111736952D01*
X129964380Y-111641714D01*
X129964380Y-111451238D01*
X129916761Y-111356000D01*
X129821523Y-111260761D01*
X129631047Y-111213142D01*
X129297714Y-111213142D01*
X129107238Y-111260761D01*
X129012000Y-111356000D01*
X128964380Y-111451238D01*
X131137000Y-108792571D02*
X131137000Y-109935428D01*
X132504380Y-109030666D02*
X131504380Y-109030666D01*
X132218666Y-109364000D01*
X131504380Y-109697333D01*
X132504380Y-109697333D01*
X131137000Y-109935428D02*
X131137000Y-110935428D01*
X132504380Y-110173523D02*
X131504380Y-110173523D01*
X131504380Y-110554476D01*
X131552000Y-110649714D01*
X131599619Y-110697333D01*
X131694857Y-110744952D01*
X131837714Y-110744952D01*
X131932952Y-110697333D01*
X131980571Y-110649714D01*
X132028190Y-110554476D01*
X132028190Y-110173523D01*
X131137000Y-110935428D02*
X131137000Y-111935428D01*
X132504380Y-111173523D02*
X131504380Y-111173523D01*
X131504380Y-111411619D01*
X131552000Y-111554476D01*
X131647238Y-111649714D01*
X131742476Y-111697333D01*
X131932952Y-111744952D01*
X132075809Y-111744952D01*
X132266285Y-111697333D01*
X132361523Y-111649714D01*
X132456761Y-111554476D01*
X132504380Y-111411619D01*
X132504380Y-111173523D01*
X133677000Y-108181428D02*
X133677000Y-109181428D01*
X135044380Y-108419523D02*
X134044380Y-108419523D01*
X134044380Y-108657619D01*
X134092000Y-108800476D01*
X134187238Y-108895714D01*
X134282476Y-108943333D01*
X134472952Y-108990952D01*
X134615809Y-108990952D01*
X134806285Y-108943333D01*
X134901523Y-108895714D01*
X134996761Y-108800476D01*
X135044380Y-108657619D01*
X135044380Y-108419523D01*
X133677000Y-109181428D02*
X133677000Y-110133809D01*
X135044380Y-109943333D02*
X135044380Y-109371904D01*
X135044380Y-109657619D02*
X134044380Y-109657619D01*
X134187238Y-109562380D01*
X134282476Y-109467142D01*
X134330095Y-109371904D01*
X133677000Y-110133809D02*
X133677000Y-111086190D01*
X134044380Y-110276666D02*
X135044380Y-110943333D01*
X134044380Y-110943333D02*
X135044380Y-110276666D01*
X133677000Y-111086190D02*
X133677000Y-112038571D01*
X134044380Y-111229047D02*
X135044380Y-111895714D01*
X134044380Y-111895714D02*
X135044380Y-111229047D01*
X136217000Y-109260857D02*
X136217000Y-110260857D01*
X137584380Y-110070380D02*
X137108190Y-109737047D01*
X137584380Y-109498952D02*
X136584380Y-109498952D01*
X136584380Y-109879904D01*
X136632000Y-109975142D01*
X136679619Y-110022761D01*
X136774857Y-110070380D01*
X136917714Y-110070380D01*
X137012952Y-110022761D01*
X137060571Y-109975142D01*
X137108190Y-109879904D01*
X137108190Y-109498952D01*
X136217000Y-110260857D02*
X136217000Y-111213238D01*
X137536761Y-110451333D02*
X137584380Y-110594190D01*
X137584380Y-110832285D01*
X137536761Y-110927523D01*
X137489142Y-110975142D01*
X137393904Y-111022761D01*
X137298666Y-111022761D01*
X137203428Y-110975142D01*
X137155809Y-110927523D01*
X137108190Y-110832285D01*
X137060571Y-110641809D01*
X137012952Y-110546571D01*
X136965333Y-110498952D01*
X136870095Y-110451333D01*
X136774857Y-110451333D01*
X136679619Y-110498952D01*
X136632000Y-110546571D01*
X136584380Y-110641809D01*
X136584380Y-110879904D01*
X136632000Y-111022761D01*
X136217000Y-111213238D02*
X136217000Y-111975142D01*
X136584380Y-111308476D02*
X136584380Y-111879904D01*
X137584380Y-111594190D02*
X136584380Y-111594190D01*
X138757000Y-107594095D02*
X138757000Y-108498857D01*
X139600571Y-107832190D02*
X139600571Y-108165523D01*
X140124380Y-108308380D02*
X140124380Y-107832190D01*
X139124380Y-107832190D01*
X139124380Y-108308380D01*
X138757000Y-108498857D02*
X138757000Y-109451238D01*
X139124380Y-108641714D02*
X140124380Y-109308380D01*
X139124380Y-109308380D02*
X140124380Y-108641714D01*
X138757000Y-109451238D02*
X138757000Y-110403619D01*
X140076761Y-109641714D02*
X140124380Y-109784571D01*
X140124380Y-110022666D01*
X140076761Y-110117904D01*
X140029142Y-110165523D01*
X139933904Y-110213142D01*
X139838666Y-110213142D01*
X139743428Y-110165523D01*
X139695809Y-110117904D01*
X139648190Y-110022666D01*
X139600571Y-109832190D01*
X139552952Y-109736952D01*
X139505333Y-109689333D01*
X139410095Y-109641714D01*
X139314857Y-109641714D01*
X139219619Y-109689333D01*
X139172000Y-109736952D01*
X139124380Y-109832190D01*
X139124380Y-110070285D01*
X139172000Y-110213142D01*
X138757000Y-110403619D02*
X138757000Y-111308380D01*
X139600571Y-110641714D02*
X139600571Y-110975047D01*
X140124380Y-111117904D02*
X140124380Y-110641714D01*
X139124380Y-110641714D01*
X139124380Y-111117904D01*
X138757000Y-111308380D02*
X138757000Y-112117904D01*
X140124380Y-112022666D02*
X140124380Y-111546476D01*
X139124380Y-111546476D01*
X123884380Y-110681523D02*
X123884380Y-110205333D01*
X124360571Y-110157714D01*
X124312952Y-110205333D01*
X124265333Y-110300571D01*
X124265333Y-110538666D01*
X124312952Y-110633904D01*
X124360571Y-110681523D01*
X124455809Y-110729142D01*
X124693904Y-110729142D01*
X124789142Y-110681523D01*
X124836761Y-110633904D01*
X124884380Y-110538666D01*
X124884380Y-110300571D01*
X124836761Y-110205333D01*
X124789142Y-110157714D01*
X123884380Y-111014857D02*
X124884380Y-111348190D01*
X123884380Y-111681523D01*
%TD*%
M02*
