%TF.GenerationSoftware,KiCad,Pcbnew,5.1.9+dfsg1-1+deb11u1*%
%TF.CreationDate,2025-07-24T09:20:50+02:00*%
%TF.ProjectId,ECI-Breakout,4543492d-4272-4656-916b-6f75742e6b69,1.1*%
%TF.SameCoordinates,Original*%
%TF.FileFunction,Paste,Top*%
%TF.FilePolarity,Positive*%
%FSLAX46Y46*%
G04 Gerber Fmt 4.6, Leading zero omitted, Abs format (unit mm)*
G04 Created by KiCad (PCBNEW 5.1.9+dfsg1-1+deb11u1) date 2025-07-24 09:20:50*
%MOMM*%
%LPD*%
G01*
G04 APERTURE LIST*
%ADD10R,1.930400X5.588000*%
G04 APERTURE END LIST*
D10*
%TO.C,ECI1*%
X139672000Y-115190000D03*
X137132000Y-115190000D03*
X134592000Y-115190000D03*
X132052000Y-115190000D03*
X129512000Y-115190000D03*
X126972000Y-115190000D03*
X124432000Y-115190000D03*
%TD*%
%TO.C,D1*%
G36*
G01*
X137045000Y-100325000D02*
X137045000Y-101575000D01*
G75*
G02*
X136795000Y-101825000I-250000J0D01*
G01*
X136045000Y-101825000D01*
G75*
G02*
X135795000Y-101575000I0J250000D01*
G01*
X135795000Y-100325000D01*
G75*
G02*
X136045000Y-100075000I250000J0D01*
G01*
X136795000Y-100075000D01*
G75*
G02*
X137045000Y-100325000I0J-250000D01*
G01*
G37*
G36*
G01*
X134245000Y-100325000D02*
X134245000Y-101575000D01*
G75*
G02*
X133995000Y-101825000I-250000J0D01*
G01*
X133245000Y-101825000D01*
G75*
G02*
X132995000Y-101575000I0J250000D01*
G01*
X132995000Y-100325000D01*
G75*
G02*
X133245000Y-100075000I250000J0D01*
G01*
X133995000Y-100075000D01*
G75*
G02*
X134245000Y-100325000I0J-250000D01*
G01*
G37*
%TD*%
%TO.C,R1*%
G36*
G01*
X124800000Y-101625001D02*
X124800000Y-100374999D01*
G75*
G02*
X125049999Y-100125000I249999J0D01*
G01*
X125850001Y-100125000D01*
G75*
G02*
X126100000Y-100374999I0J-249999D01*
G01*
X126100000Y-101625001D01*
G75*
G02*
X125850001Y-101875000I-249999J0D01*
G01*
X125049999Y-101875000D01*
G75*
G02*
X124800000Y-101625001I0J249999D01*
G01*
G37*
G36*
G01*
X127900000Y-101625001D02*
X127900000Y-100374999D01*
G75*
G02*
X128149999Y-100125000I249999J0D01*
G01*
X128950001Y-100125000D01*
G75*
G02*
X129200000Y-100374999I0J-249999D01*
G01*
X129200000Y-101625001D01*
G75*
G02*
X128950001Y-101875000I-249999J0D01*
G01*
X128149999Y-101875000D01*
G75*
G02*
X127900000Y-101625001I0J249999D01*
G01*
G37*
%TD*%
M02*
